<svg xmlns="http://www.w3.org/2000/svg" xmlns:svg="http://www.w3.org/2000/svg" id="svg12198" width="69.168" height="48" version="1.1"><g id="g12204" transform="translate(134.03756,-1283.572)"><g style="fill:#000" id="g5456-4-6-4-7" transform="matrix(1.1792511,0,0,2,-93.171926,1283.572)"><path id="path5446-0-8-3-0" d="M 0,0 H 24 V 24 H 0 Z" style="fill:none"/><path id="path5448-7-5-5-5" d="M 23,18 V 6 C 23,4.9 22.1,4 21,4 H 3 C 1.9,4 1,4.9 1,6 v 12 c 0,1.1 0.9,2 2,2 h 18 c 1.1,0 2,-0.9 2,-2 z M 8.5,12.5 11,15.51 14.5,11 19,17 H 5 Z" style="fill:#03a9f4;fill-opacity:1"/></g><text style="font-style:normal;font-weight:400;font-size:16.8106px;line-height:125%;font-family:Sans;letter-spacing:0;word-spacing:0;fill:#f4433f;fill-opacity:.941176;stroke:none" id="text5460-2-1-0-3" x="-135.197" y="1304.193" transform="scale(0.9930604,1.0069881)" xml:space="preserve"><tspan id="tspan5462-6-0-8-5" x="-135.197" y="1304.193" style="font-style:normal;font-variant:normal;font-weight:700;font-stretch:normal;font-size:18px;font-family:Calibri;-inkscape-font-specification:'Calibri Bold';fill:#f4433f;fill-opacity:.941176">Abc...</tspan></text></g></svg>