<?xml version="1.0" encoding="UTF-8" standalone="no"?>
<!-- Created with Inkscape (http://www.inkscape.org/) -->

<svg
   width="32px"
   height="32px"
   viewBox="0 0 32 32"
   version="1.1"
   id="SVGRoot"
   inkscape:version="1.2.2 (732a01da63, 2022-12-09)"
   sodipodi:docname="select_user_group.svg"
   inkscape:export-filename="..\..\..\..\..\..\..\Desktop\temp\ppp_icons\select_user_group.png"
   inkscape:export-xdpi="96"
   inkscape:export-ydpi="96"
   xml:space="preserve"
   xmlns:inkscape="http://www.inkscape.org/namespaces/inkscape"
   xmlns:sodipodi="http://sodipodi.sourceforge.net/DTD/sodipodi-0.dtd"
   xmlns="http://www.w3.org/2000/svg"
   xmlns:svg="http://www.w3.org/2000/svg"
   xmlns:rdf="http://www.w3.org/1999/02/22-rdf-syntax-ns#"
   xmlns:cc="http://creativecommons.org/ns#"
   xmlns:dc="http://purl.org/dc/elements/1.1/"><sodipodi:namedview
     id="base"
     pagecolor="#ffffff"
     bordercolor="#666666"
     borderopacity="1.0"
     inkscape:pageopacity="0.0"
     inkscape:pageshadow="2"
     inkscape:zoom="8"
     inkscape:cx="-21.875"
     inkscape:cy="12.375"
     inkscape:document-units="px"
     inkscape:current-layer="Stop"
     showgrid="false"
     inkscape:window-width="1920"
     inkscape:window-height="1009"
     inkscape:window-x="1912"
     inkscape:window-y="-8"
     inkscape:window-maximized="1"
     inkscape:grid-bbox="true"
     inkscape:pagecheckerboard="0"
     inkscape:showpageshadow="2"
     inkscape:deskcolor="#d1d1d1" /><defs
     id="defs6479" /><metadata
     id="metadata6482"><rdf:RDF><cc:Work
         rdf:about=""><dc:format>image/svg+xml</dc:format><dc:type
           rdf:resource="http://purl.org/dc/dcmitype/StillImage" /></cc:Work></rdf:RDF></metadata><g
     id="layer1"
     inkscape:groupmode="layer"
     inkscape:label="Calque 1"><rect
       id="Rectangle"
       fill-rule="nonzero"
       x="-493.25"
       y="-368.125"
       width="32"
       height="32"
       style="fill:none;stroke:none;stroke-width:1.33333" /><g
       id="Stop"
       style="fill:none;fill-rule:evenodd;stroke:#d2d2d2;stroke-width:1;stroke-opacity:1"
       transform="matrix(33.333333,0,0,33.333333,-384,-384)"><rect
         id="Rectangle-2"
         fill-rule="nonzero"
         x="0"
         y="0"
         width="24"
         height="24"
         style="stroke:#d2d2d2;stroke-opacity:1" /><g
         style="fill:none;stroke:#d2d2d2;stroke-opacity:1"
         id="g301"
         transform="matrix(0.048,0,0,0.048,11.424,11.424)"><path
           d="m 5,21 c 0,-3.866 3.13401,-7 7,-7 3.866,0 7,3.134 7,7 M 16,7 c 0,2.20914 -1.7909,4 -4,4 C 9.79086,11 8,9.20914 8,7 8,4.79086 9.79086,3 12,3 c 2.2091,0 4,1.79086 4,4 z"
           stroke="#000000"
           stroke-width="2"
           stroke-linecap="round"
           stroke-linejoin="round"
           id="path292"
           style="stroke:#d2d2d2;stroke-opacity:1" /></g><g
         id="g1952"
         transform="matrix(6.8928435e-4,0,0,6.8928435e-4,12.086494,12.010743)"
         style="fill:#aeaeae;fill-opacity:1;stroke:none;stroke-opacity:1">
	<path
   class="st0"
   d="m 255.995,198.276 c -31.884,0 -57.724,25.84 -57.724,57.724 0,31.875 25.841,57.716 57.724,57.716 31.874,0 57.716,-25.841 57.716,-57.716 0,-31.884 -25.841,-57.724 -57.716,-57.724 z"
   id="path1948"
   style="fill:#aeaeae;fill-opacity:1;stroke:none;stroke-opacity:1" />
	<path
   class="st0"
   d="M 511.13,254.868 410.124,228.04 c -5.79,-32.047 -21.284,-60.778 -43.346,-82.823 -22.044,-22.062 -50.784,-37.564 -82.83,-43.346 L 257.128,0.875 c -0.136,-0.508 -0.598,-0.87 -1.133,-0.87 -0.535,0 -0.996,0.362 -1.133,0.87 l -26.819,100.997 c -32.056,5.781 -60.796,21.284 -82.831,43.346 -22.071,22.035 -37.566,50.785 -43.346,82.832 L 0.869,254.868 C 0.363,255.003 0,255.465 0,256 c 0,0.535 0.363,0.997 0.869,1.133 l 100.998,26.819 c 5.78,32.047 21.274,60.787 43.346,82.832 22.035,22.062 50.775,37.555 82.822,43.346 l 26.828,100.997 c 0.136,0.507 0.598,0.869 1.133,0.869 0.535,0 0.996,-0.362 1.133,-0.869 L 283.957,410.13 c 32.038,-5.79 60.777,-21.284 82.821,-43.346 22.062,-22.044 37.556,-50.785 43.346,-82.822 L 511.13,257.134 c 0.508,-0.136 0.87,-0.598 0.87,-1.133 0,-0.536 -0.363,-0.998 -0.87,-1.133 z m -173.509,82.758 c -20.956,20.921 -49.687,33.796 -81.626,33.814 -31.948,-0.018 -60.669,-12.893 -81.626,-33.814 C 153.44,316.669 140.565,287.938 140.555,256 c 0.01,-31.947 12.884,-60.669 33.814,-81.626 20.957,-20.921 49.679,-33.805 81.626,-33.814 31.938,0.008 60.67,12.893 81.626,33.814 20.921,20.957 33.796,49.679 33.814,81.626 -0.018,31.938 -12.893,60.669 -33.814,81.626 z"
   id="path1950"
   style="fill:#aeaeae;fill-opacity:1;stroke:none;stroke-opacity:1" />
</g></g></g><style
     type="text/css"
     id="style1946">
	.st0{fill:#000000;}
</style></svg>
