<svg xmlns="http://www.w3.org/2000/svg" xmlns:svg="http://www.w3.org/2000/svg" id="SVGRoot" width="32" height="32" version="1.1" viewBox="0 0 32 32" xml:space="preserve"><metadata id="metadata6482"/><g id="layer1"><rect style="fill:none;stroke:none;stroke-width:1.33333" id="Rectangle" width="32" height="32" x="-493.25" y="-368.125" fill-rule="nonzero"/><g style="fill:none;fill-rule:evenodd;stroke:#d2d2d2;stroke-width:1;stroke-opacity:1" id="Stop" transform="matrix(33.333333,0,0,33.333333,-384,-384)"><rect style="stroke:#d2d2d2;stroke-opacity:1" id="Rectangle-2" width="24" height="24" x="0" y="0" fill-rule="nonzero"/><g id="g148" transform="matrix(0.05333333,0,0,0.05333333,11.36,11.36)" style="fill:none;stroke:#d2d2d2;stroke-opacity:1"><path style="stroke:#d2d2d2;stroke-opacity:1" id="path139" stroke="#000" stroke-linecap="round" stroke-linejoin="round" stroke-width="2" d="M 4.06189,13 C 4.02104,12.6724 4,12.3387 4,12 4,7.58172 7.58172,4 12,4 c 2.5006,0 4.7332,1.14727 6.2002,2.94416 M 19.9381,11 C 19.979,11.3276 20,11.6613 20,12 20,16.4183 16.4183,20 12,20 9.61061,20 7.46589,18.9525 6,17.2916 M 9,17 H 6 v 0.2916 M 18.2002,4 v 2.94416 m 0,0 v 0.05577 l -3,7e-5 M 6,20 v -2.7084"/></g></g></g><style id="style1946" type="text/css"/></svg>