<svg xmlns="http://www.w3.org/2000/svg" xmlns:svg="http://www.w3.org/2000/svg" id="SVGRoot" width="32" height="32" version="1.1" viewBox="0 0 32 32"><metadata id="metadata6482"/><g id="layer1"><g id="g939" transform="translate(80.988199)"><g id="g29818" transform="matrix(0.4,0,0,0.4,-574.24567,-1494.9555)"><rect style="fill:#aeaeae;fill-opacity:1;stroke:none;stroke-width:1.25396;stroke-linecap:round;stroke-linejoin:round" id="rect5260" width="20" height="20" x="1233.144" y="3757.389" ry="0"/><rect style="fill:#ccc;fill-opacity:1;stroke:none;stroke-width:1.25396;stroke-linecap:round;stroke-linejoin:round" id="rect5260-1" width="20" height="20" x="1253.144" y="3757.389" ry="0"/><rect style="fill:#ccc;fill-opacity:1;stroke:none;stroke-width:1.25396;stroke-linecap:round;stroke-linejoin:round" id="rect5260-1-01" width="20" height="20" x="1273.144" y="3737.389" ry="0"/><rect style="fill:#ccc;fill-opacity:1;stroke:none;stroke-width:1.25396;stroke-linecap:round;stroke-linejoin:round" id="rect5260-1-01-4" width="20" height="20" x="1233.144" y="3737.389" ry="0"/><rect style="fill:#aeaeae;fill-opacity:1;stroke:none;stroke-width:1.25396;stroke-linecap:round;stroke-linejoin:round" id="rect5260-1-9" width="20" height="20" x="1273.144" y="3757.389" ry="0"/><rect style="fill:#ccc;fill-opacity:1;stroke:none;stroke-width:1.25396;stroke-linecap:round;stroke-linejoin:round" id="rect5260-1-9-5" width="20" height="20" x="1273.144" y="3777.389" ry="0"/><rect style="fill:#ccc;fill-opacity:1;stroke:none;stroke-width:1.25396;stroke-linecap:round;stroke-linejoin:round" id="rect5260-1-9-5-4" width="20" height="20" x="1293.144" y="3797.389" ry="0"/><rect style="fill:#aeaeae;fill-opacity:1;stroke:none;stroke-width:1.25396;stroke-linecap:round;stroke-linejoin:round" id="rect5260-1-9-5-2" width="20" height="20" x="1253.144" y="3777.389" ry="0"/><rect style="fill:#ccc;fill-opacity:1;stroke:none;stroke-width:1.25396;stroke-linecap:round;stroke-linejoin:round" id="rect5260-1-9-5-2-0" width="20" height="20" x="1233.144" y="3777.389" ry="0"/><rect style="fill:#aeaeae;fill-opacity:1;stroke:none;stroke-width:1.25396;stroke-linecap:round;stroke-linejoin:round" id="rect5260-1-9-5-2-0-7" width="20" height="20" x="1233.144" y="3797.389" ry="0"/><rect style="fill:#ccc;fill-opacity:1;stroke:none;stroke-width:1.25396;stroke-linecap:round;stroke-linejoin:round" id="rect5260-1-9-5-2-0-7-0" width="20" height="20" x="1253.144" y="3797.389" ry="0"/><rect style="fill:#aeaeae;fill-opacity:1;stroke:none;stroke-width:1.25396;stroke-linecap:round;stroke-linejoin:round" id="rect5260-1-9-5-2-0-7-0-7" width="20" height="20" x="1273.144" y="3797.389" ry="0"/><rect style="fill:#aeaeae;fill-opacity:1;stroke:none;stroke-width:1.25396;stroke-linecap:round;stroke-linejoin:round" id="rect5260-1-9-5-2-0-7-0-7-5" width="20" height="20" x="1293.144" y="3777.389" ry="0"/><rect style="fill:#aeaeae;fill-opacity:1;stroke:none;stroke-width:1.25396;stroke-linecap:round;stroke-linejoin:round" id="rect5260-1-9-5-2-0-7-0-7-5-9" width="20" height="20" x="1253.144" y="3737.389" ry="0"/><rect style="fill:#aeaeae;fill-opacity:1;stroke:none;stroke-width:1.25396;stroke-linecap:round;stroke-linejoin:round" id="rect5260-1-9-5-2-0-7-0-7-5-2" width="20" height="20" x="1293.144" y="3737.389" ry="0"/><rect style="fill:#ccc;fill-opacity:1;stroke:none;stroke-width:1.25396;stroke-linecap:round;stroke-linejoin:round" id="rect5260-1-9-5-4-7" width="20" height="20" x="1293.144" y="3757.389" ry="0"/></g></g></g></svg>