<svg xmlns="http://www.w3.org/2000/svg" xmlns:svg="http://www.w3.org/2000/svg" id="svg11934" width="98.148" height="64.038" version="1.1"><g id="g11940" transform="translate(871.9314,-1364.7861)"><g id="g4470-4-0-3" transform="matrix(0,-1,-1,0,-773.7829,1445.8796)" style="fill:#d2d2d2;fill-opacity:1"><g id="g4430-7-6" style="fill:#d2d2d2;fill-opacity:1"><path id="path4432-7-8" d="M 33.458,97.562 80.531,50.49 c 0.75,-0.75 0.75,-2.078 0,-2.828 L 33.456,0.586 C 33.081,0.211 32.572,0 32.042,0 31.512,0 31.003,0.211 30.628,0.586 L 17.641,13.573 c -0.391,0.391 -0.586,0.902 -0.586,1.414 0,0.512 0.195,1.023 0.586,1.414 L 50.315,49.075 17.642,81.75 c -0.751,0.75 -0.75,2.078 0,2.828 l 12.987,12.984 c 0.782,0.782 2.048,0.782 2.829,0 z" style="fill:#d2d2d2;fill-opacity:1"/></g></g></g></svg>