<?xml version="1.0" encoding="UTF-8" standalone="no"?>
<!-- Created with Inkscape (http://www.inkscape.org/) -->

<svg
   version="1.1"
   id="svg11258"
   width="103.44003"
   height="31.812296"
   xmlns:inkscape="http://www.inkscape.org/namespaces/inkscape"
   xmlns:sodipodi="http://sodipodi.sourceforge.net/DTD/sodipodi-0.dtd"
   xmlns="http://www.w3.org/2000/svg"
   xmlns:svg="http://www.w3.org/2000/svg">
  <defs
     id="defs11262" />
  <sodipodi:namedview
     id="namedview11260"
     pagecolor="#ffffff"
     bordercolor="#666666"
     borderopacity="1.0"
     inkscape:pageshadow="2"
     inkscape:pageopacity="0.0"
     inkscape:pagecheckerboard="0" />
  <inkscape:clipboard
     min="-1278.027,784.67549"
     max="-1174.587,816.48779"
     geom-min="-1278.027,784.67549"
     geom-max="-1174.587,816.48779" />
  <g
     id="g11264"
     transform="translate(1278.027,-784.67549)">
    <flowRoot
       xml:space="preserve"
       id="flowRoot4570-8"
       style="font-style:normal;font-weight:normal;font-size:40px;line-height:125%;font-family:sans-serif;letter-spacing:0px;word-spacing:0px;fill:#d2d2d2;fill-opacity:1;stroke:none;stroke-width:1px;stroke-linecap:butt;stroke-linejoin:miter;stroke-opacity:1"
       transform="translate(-1260.1696,242.03205)"
       inkscape:export-xdpi="23.134979"
       inkscape:export-ydpi="23.134979"><flowRegion
         id="flowRegion4572-3"><rect
           id="rect4574-6"
           width="156.42857"
           height="161.42857"
           x="-17.857143"
           y="536.64789"
           style="fill:#d2d2d2;fill-opacity:1" /></flowRegion><flowPara
         id="flowPara4576-8"
         style="font-weight:bold">Ab   c</flowPara></flowRoot>
  </g>
  <g
     id="g11270"
     transform="matrix(-0.04436063,-2.9787449e-4,3.3943612e-4,-0.05055015,74.848622,57.552855)">
    <path
       id="path4512-9"
       d="M 449.65954,509.31601 H -18.042752 c -21.82611,0 -37.41619,9.35405 -49.88825,28.06214 L -236.30383,789.93739 -67.931002,1042.4966 c 12.47206,15.5901 28.06214,28.0622 49.88825,28.0622 H 449.65954 c 34.29817,0 62.36031,-28.0622 62.36031,-62.3603 V 571.67632 c 0,-34.29817 -28.06214,-62.36031 -62.36031,-62.36031 z M 356.11908,902.18594 312.46687,945.83816 200.21832,833.58961 87.969778,945.83816 44.317558,902.18594 156.56611,789.93739 44.317558,677.68884 87.969778,634.03663 200.21832,746.28518 312.46687,634.03663 356.11908,677.68884 243.87053,789.93739 Z"
       inkscape:connector-curvature="0"
       style="fill:#d2d2d2;fill-opacity:1"
       inkscape:export-xdpi="23.134979"
       inkscape:export-ydpi="23.134979" />
  </g>
</svg>
