<svg xmlns="http://www.w3.org/2000/svg" xmlns:svg="http://www.w3.org/2000/svg" id="svg12228" width="69.408" height="56.409" version="1.1"><g id="g12234" transform="translate(1313.8796,-431.15685)"><path id="path5446-0-0" d="m -1313.8796,431.15685 h 48 v 48 h -48 z" style="fill:none"/><path id="path5448-7-62" d="m -1267.8796,467.15685 v -24 c 0,-2.2 -1.8,-4 -4,-4 h -36 c -2.2,0 -4,1.8 -4,4 v 24 c 0,2.2 1.8,4 4,4 h 36 c 2.2,0 4,-1.8 4,-4 z m -29,-11 5,6.02 7,-9.02 9,12 h -28 z" style="fill:#d2d2d2;fill-opacity:1"/><g style="fill:#d2d2d2;fill-opacity:1" id="g4587" transform="matrix(0.0603235,0,0,0.0603235,-1276.3769,452.34935)"><g id="g4547"><path id="path4549" d="M 328.883,89.125 436.473,196.714 164.133,469.054 56.604,361.465 Z M 518.113,63.177 470.132,15.196 c -18.543,-18.543 -48.653,-18.543 -67.259,0 l -45.961,45.961 107.59,107.59 53.611,-53.611 c 14.382,-14.383 14.382,-37.577 0,-51.959 z M 0.3,512.69 c -1.958,8.812 5.998,16.708 14.811,14.565 L 135.002,498.186 27.473,390.597 Z"/></g></g><text style="font-style:normal;font-weight:400;font-size:16.8106px;line-height:125%;font-family:Sans;letter-spacing:0;word-spacing:0;fill:#d2d2d2;fill-opacity:1;stroke:none" id="text5460-2-6" x="-1322.464" y="483.981" transform="scale(0.9930604,1.0069881)" xml:space="preserve"><tspan id="tspan5462-6-2" x="-1322.464" y="483.981" style="font-style:normal;font-variant:normal;font-weight:700;font-stretch:normal;font-size:18px;font-family:Calibri;-inkscape-font-specification:'Calibri Bold';fill:#d2d2d2;fill-opacity:1">Abc...</tspan></text></g></svg>