<?xml version="1.0" encoding="UTF-8" standalone="no"?>
<!-- Created with Inkscape (http://www.inkscape.org/) -->

<svg
   version="1.1"
   id="svg11373"
   width="32"
   height="32"
   sodipodi:docname="icon_delete_last_prediction.svg"
   xml:space="preserve"
   inkscape:version="1.2.2 (732a01da63, 2022-12-09)"
   xmlns:inkscape="http://www.inkscape.org/namespaces/inkscape"
   xmlns:sodipodi="http://sodipodi.sourceforge.net/DTD/sodipodi-0.dtd"
   xmlns="http://www.w3.org/2000/svg"
   xmlns:svg="http://www.w3.org/2000/svg"><defs
     id="defs11377" /><sodipodi:namedview
     id="namedview11375"
     pagecolor="#ffffff"
     bordercolor="#666666"
     borderopacity="1.0"
     inkscape:pageshadow="2"
     inkscape:pageopacity="0.0"
     inkscape:pagecheckerboard="0"
     inkscape:showpageshadow="2"
     inkscape:deskcolor="#d1d1d1"
     showgrid="false"
     inkscape:zoom="11.125679"
     inkscape:cx="33.301339"
     inkscape:cy="18.605606"
     inkscape:window-width="1920"
     inkscape:window-height="1009"
     inkscape:window-x="1912"
     inkscape:window-y="-8"
     inkscape:window-maximized="1"
     inkscape:current-layer="g11379" /><inkscape:clipboard
     min="-1266.3174,1109.4672"
     max="-1157.56,1140.5594"
     geom-min="-1266.3174,1109.4672"
     geom-max="-1157.56,1140.5594" /><g
     id="g11379"
     transform="translate(1266.3174,-1109.4672)"><flowRoot
       xml:space="preserve"
       id="flowRoot4570-8-0"
       style="font-style:normal;font-weight:normal;font-size:40px;line-height:125%;font-family:sans-serif;letter-spacing:0px;word-spacing:0px;fill:#d2d2d2;fill-opacity:1;stroke:none;stroke-width:1px;stroke-linecap:butt;stroke-linejoin:miter;stroke-opacity:1"
       transform="matrix(0.27378643,0,0,0.27378643,-1261.1012,972.1843)"
       inkscape:export-xdpi="25.500757"
       inkscape:export-ydpi="25.500757"><flowRegion
         id="flowRegion4572-3-5"><rect
           id="rect4574-6-4"
           width="156.42857"
           height="161.42857"
           x="-17.857143"
           y="536.64789"
           style="fill:#d2d2d2;fill-opacity:1" /></flowRegion><flowPara
         id="flowPara4576-8-3"
         style="font-weight:bold">Abc</flowPara></flowRoot><g
       style="fill:#d2d2d2;fill-opacity:1"
       id="g583"
       transform="matrix(0.62671871,0,0,0.62671871,-1247.5118,1118.5272)"><path
         fill-rule="evenodd"
         clip-rule="evenodd"
         d="m 7.53033,3.46967 c 0.29289,0.29289 0.29289,0.76777 0,1.06066 L 5.81066,6.25 H 15 c 3.1756,0 5.75,2.57436 5.75,5.75 0,3.1756 -2.5744,5.75 -5.75,5.75 H 8.00001 c -0.41422,0 -0.75,-0.3358 -0.75,-0.75 0,-0.4142 0.33578,-0.75 0.75,-0.75 H 15 c 2.3472,0 4.25,-1.9028 4.25,-4.25 C 19.25,9.65279 17.3472,7.75 15,7.75 H 5.81066 l 1.71967,1.71967 c 0.29289,0.29289 0.29289,0.76773 0,1.06063 -0.29289,0.2929 -0.76777,0.2929 -1.06066,0 l -3,-2.99997 c -0.29289,-0.29289 -0.29289,-0.76777 0,-1.06066 l 3,-3 c 0.29289,-0.29289 0.76777,-0.29289 1.06066,0 z"
         fill="#1c274c"
         id="path574"
         style="fill:#d2d2d2;fill-opacity:1" /></g></g></svg>
