<svg xmlns="http://www.w3.org/2000/svg" xmlns:svg="http://www.w3.org/2000/svg" id="svg11395" width="108.437" height="86.788" version="1.1"><g id="g11401" transform="translate(1566.9936,-1075.5543)"><flowRoot id="flowRoot4570-8-5" transform="translate(-1549.1362,563.75332)" xml:space="preserve" style="font-style:normal;font-weight:400;font-size:40px;line-height:125%;font-family:sans-serif;letter-spacing:0;word-spacing:0;fill:#d2d2d2;fill-opacity:1;stroke:none;stroke-width:1px;stroke-linecap:butt;stroke-linejoin:miter;stroke-opacity:1"><flowRegion id="flowRegion4572-3-0"><rect id="rect4574-6-8" width="156.429" height="161.429" x="-17.857" y="536.648" style="fill:#d2d2d2;fill-opacity:1"/></flowRegion><flowPara id="flowPara4576-8-37" style="font-weight:700">Ab c</flowPara></flowRoot><path id="path4512-9-03" d="m -1505.1336,1139.4982 20.7476,0.1393 c 0.9683,0.01 1.663,-0.4617 2.2226,-1.4036 l 7.5549,-12.7168 -7.3834,-12.817 c -0.548,-0.7918 -1.2353,-1.427 -2.2036,-1.4335 l -20.7476,-0.1393 c -1.5214,-0.01 -2.7758,1.4 -2.7874,3.1338 l -0.1482,22.0662 c -0.012,1.7338 1.2237,3.1607 2.7451,3.1709 z m 4.2829,-19.8317 1.9513,-2.1937 4.9413,5.7077 5.0175,-5.6408 1.9216,2.2196 -5.0175,5.6408 4.9413,5.7076 -1.9512,2.1937 -4.9414,-5.7077 -5.0175,5.6408 -1.9216,-2.2197 5.0175,-5.6407 z" style="fill:#d2d2d2;fill-opacity:1;stroke-width:.0473554"/><g id="g6042-2-8" transform="matrix(0.19226751,0,0,0.19790774,-1542.8724,1075.5533)" style="fill:#aeaeae;fill-opacity:1"><g id="g6002-9-3" style="fill:#aeaeae;fill-opacity:1"><path id="path6004-9-6" d="M 421.125,134.191 C 409.517,107.161 393.908,83.844 374.306,64.242 354.7,44.639 331.384,29.033 304.353,17.42 277.325,5.807 248.969,0.005 219.275,0.005 191.297,0.005 164.223,5.282 138.048,15.848 111.879,26.412 88.61,41.305 68.243,60.531 L 31.123,23.696 C 25.412,17.795 18.848,16.464 11.422,19.697 3.807,22.937 0,28.554 0,36.547 v 127.907 c 0,4.948 1.809,9.231 5.426,12.847 3.619,3.617 7.902,5.426 12.85,5.426 h 127.907 c 7.996,0 13.61,-3.807 16.846,-11.421 3.234,-7.423 1.903,-13.988 -3.999,-19.701 l -39.115,-39.398 c 13.328,-12.563 28.553,-22.222 45.683,-28.98 17.131,-6.757 35.021,-10.138 53.675,-10.138 19.793,0 38.687,3.858 56.674,11.563 17.99,7.71 33.544,18.131 46.679,31.265 13.134,13.131 23.555,28.69 31.265,46.679 7.703,17.987 11.56,36.875 11.56,56.674 0,19.798 -3.856,38.686 -11.56,56.672 -7.71,17.987 -18.131,33.544 -31.265,46.679 -13.135,13.134 -28.695,23.558 -46.679,31.265 -17.987,7.707 -36.881,11.561 -56.674,11.561 -22.651,0 -44.064,-4.949 -64.241,-14.843 -20.174,-9.894 -37.209,-23.883 -51.104,-41.973 -1.331,-1.902 -3.521,-3.046 -6.567,-3.429 -2.856,0 -5.236,0.855 -7.139,2.566 L 51.108,347.17 c -1.521,1.53 -2.33,3.478 -2.426,5.853 -0.094,2.385 0.527,4.524 1.858,6.427 20.749,25.125 45.871,44.587 75.373,58.382 29.502,13.798 60.625,20.701 93.362,20.701 29.694,0 58.05,-5.808 85.078,-17.416 27.031,-11.607 50.34,-27.22 69.949,-46.821 19.605,-19.609 35.211,-42.921 46.822,-69.949 11.611,-27.028 17.411,-55.392 17.411,-85.08 10e-4,-29.698 -5.803,-58.047 -17.41,-85.076 z" style="fill:#aeaeae;fill-opacity:1"/></g></g></g></svg>