<?xml version="1.0" encoding="UTF-8" standalone="no"?>
<!-- Created with Inkscape (http://www.inkscape.org/) -->

<svg
   version="1.1"
   id="svg11373"
   width="108.75741"
   height="31.092201"
   xmlns:inkscape="http://www.inkscape.org/namespaces/inkscape"
   xmlns:sodipodi="http://sodipodi.sourceforge.net/DTD/sodipodi-0.dtd"
   xmlns="http://www.w3.org/2000/svg"
   xmlns:svg="http://www.w3.org/2000/svg">
  <defs
     id="defs11377" />
  <sodipodi:namedview
     id="namedview11375"
     pagecolor="#ffffff"
     bordercolor="#666666"
     borderopacity="1.0"
     inkscape:pageshadow="2"
     inkscape:pageopacity="0.0"
     inkscape:pagecheckerboard="0" />
  <inkscape:clipboard
     min="-1266.3174,1109.4672"
     max="-1157.56,1140.5594"
     geom-min="-1266.3174,1109.4672"
     geom-max="-1157.56,1140.5594" />
  <g
     id="g11379"
     transform="translate(1266.3174,-1109.4672)">
    <path
       id="path4512-9-0-4"
       d="m -1160.3053,1140.4199 -20.7475,0.1393 c -0.9682,0.01 -1.663,-0.4617 -2.2226,-1.4037 l -7.5549,-12.7167 7.3834,-12.817 c 0.548,-0.7918 1.2354,-1.427 2.2036,-1.4335 l 20.7475,-0.1393 c 1.5215,-0.01 2.7759,1.4 2.7876,3.1338 l 0.1481,22.0662 c 0.012,1.7338 -1.2237,3.1607 -2.7452,3.1709 z m -4.2828,-19.8317 -1.9513,-2.1937 -4.9413,5.7077 -5.0175,-5.6408 -1.9216,2.2197 5.0175,5.6407 -4.9413,5.7076 1.9512,2.1936 4.9413,-5.7076 5.0176,5.6408 1.9216,-2.2197 -5.0175,-5.6407 z"
       inkscape:connector-curvature="0"
       style="fill:#d2d2d2;fill-opacity:1;stroke-width:0.0473554"
       inkscape:export-xdpi="25.500757"
       inkscape:export-ydpi="25.500757" />
    <flowRoot
       xml:space="preserve"
       id="flowRoot4570-8-0"
       style="font-style:normal;font-weight:normal;font-size:40px;line-height:125%;font-family:sans-serif;letter-spacing:0px;word-spacing:0px;fill:#d2d2d2;fill-opacity:1;stroke:none;stroke-width:1px;stroke-linecap:butt;stroke-linejoin:miter;stroke-opacity:1"
       transform="translate(-1248.46,566.82371)"
       inkscape:export-xdpi="25.500757"
       inkscape:export-ydpi="25.500757"><flowRegion
         id="flowRegion4572-3-5"><rect
           id="rect4574-6-4"
           width="156.42857"
           height="161.42857"
           x="-17.857143"
           y="536.64789"
           style="fill:#d2d2d2;fill-opacity:1" /></flowRegion><flowPara
         id="flowPara4576-8-3"
         style="font-weight:bold">Abc</flowPara></flowRoot>
  </g>
</svg>
