<svg xmlns="http://www.w3.org/2000/svg" xmlns:svg="http://www.w3.org/2000/svg" id="svg11258" width="103.44" height="31.812" version="1.1"><g id="g11264" transform="translate(1278.027,-784.67549)"><flowRoot id="flowRoot4570-8" transform="translate(-1260.1696,242.03205)" xml:space="preserve" style="font-style:normal;font-weight:400;font-size:40px;line-height:125%;font-family:sans-serif;letter-spacing:0;word-spacing:0;fill:#d2d2d2;fill-opacity:1;stroke:none;stroke-width:1px;stroke-linecap:butt;stroke-linejoin:miter;stroke-opacity:1"><flowRegion id="flowRegion4572-3"><rect id="rect4574-6" width="156.429" height="161.429" x="-17.857" y="536.648" style="fill:#d2d2d2;fill-opacity:1"/></flowRegion><flowPara id="flowPara4576-8" style="font-weight:700">Ab c</flowPara></flowRoot></g><g id="g11270" transform="matrix(-0.04436063,-2.9787449e-4,3.3943612e-4,-0.05055015,74.848622,57.552855)"><path id="path4512-9" d="M 449.65954,509.31601 H -18.042752 c -21.82611,0 -37.41619,9.35405 -49.88825,28.06214 L -236.30383,789.93739 -67.931002,1042.4966 c 12.47206,15.5901 28.06214,28.0622 49.88825,28.0622 H 449.65954 c 34.29817,0 62.36031,-28.0622 62.36031,-62.3603 V 571.67632 c 0,-34.29817 -28.06214,-62.36031 -62.36031,-62.36031 z M 356.11908,902.18594 312.46687,945.83816 200.21832,833.58961 87.969778,945.83816 44.317558,902.18594 156.56611,789.93739 44.317558,677.68884 87.969778,634.03663 200.21832,746.28518 312.46687,634.03663 356.11908,677.68884 243.87053,789.93739 Z" style="fill:#d2d2d2;fill-opacity:1"/></g></svg>