<svg xmlns="http://www.w3.org/2000/svg" xmlns:svg="http://www.w3.org/2000/svg" id="svg11373" width="32" height="32" version="1.1" xml:space="preserve"><g id="g11379" transform="translate(1266.3174,-1109.4672)"><flowRoot id="flowRoot4570-8-0" transform="matrix(0.27378643,0,0,0.27378643,-1261.1012,972.1843)" xml:space="preserve" style="font-style:normal;font-weight:400;font-size:40px;line-height:125%;font-family:sans-serif;letter-spacing:0;word-spacing:0;fill:#d2d2d2;fill-opacity:1;stroke:none;stroke-width:1px;stroke-linecap:butt;stroke-linejoin:miter;stroke-opacity:1"><flowRegion id="flowRegion4572-3-5"><rect id="rect4574-6-4" width="156.429" height="161.429" x="-17.857" y="536.648" style="fill:#d2d2d2;fill-opacity:1"/></flowRegion><flowPara id="flowPara4576-8-3" style="font-weight:700">Abc</flowPara></flowRoot><g style="fill:#d2d2d2;fill-opacity:1" id="g583" transform="matrix(0.62671871,0,0,0.62671871,-1247.5118,1118.5272)"><path id="path574" fill="#1c274c" fill-rule="evenodd" d="m 7.53033,3.46967 c 0.29289,0.29289 0.29289,0.76777 0,1.06066 L 5.81066,6.25 H 15 c 3.1756,0 5.75,2.57436 5.75,5.75 0,3.1756 -2.5744,5.75 -5.75,5.75 H 8.00001 c -0.41422,0 -0.75,-0.3358 -0.75,-0.75 0,-0.4142 0.33578,-0.75 0.75,-0.75 H 15 c 2.3472,0 4.25,-1.9028 4.25,-4.25 C 19.25,9.65279 17.3472,7.75 15,7.75 H 5.81066 l 1.71967,1.71967 c 0.29289,0.29289 0.29289,0.76773 0,1.06063 -0.29289,0.2929 -0.76777,0.2929 -1.06066,0 l -3,-2.99997 c -0.29289,-0.29289 -0.29289,-0.76777 0,-1.06066 l 3,-3 c 0.29289,-0.29289 0.76777,-0.29289 1.06066,0 z" clip-rule="evenodd" style="fill:#d2d2d2;fill-opacity:1"/></g></g></svg>