<svg xmlns="http://www.w3.org/2000/svg" xmlns:svg="http://www.w3.org/2000/svg" id="svg6506" width="65.436" height="57.478" version="1.1"><g id="g6512" transform="translate(1226.902,-918.64775)"><path id="path5203" d="m -1193.9004,972.02015 26.2757,-29.56 c 2.4633,-2.8741 2.4633,-7.3902 -0.4106,-10.264 l -11.085,-11.0851 c -1.2317,-1.6423 -3.2845,-2.4633 -5.3373,-2.4633 h -7.39 c -2.0528,0 -4.1056,0.821 -5.7479,2.4633 l -27.5074,31.2024 c -2.4633,2.8738 -2.4633,7.8007 0.4106,10.264 l 11.0851,11.085 c 1.2316,1.6423 3.2844,2.4634 5.3372,2.4634 h 46.8037 v -4.1057 z m -5.3373,-0.4105 c 0,0 0,-0.4105 0,0 l -11.0851,-11.085 c -1.6422,-1.6423 -1.6422,-3.6951 0,-5.3374 l 13.959,-16.0117 h -4.1056 l -12.3167,13.5484 c -2.4634,2.874 -2.4634,6.9794 0.4105,9.8535 l 9.4429,9.4427 h -5.3373 c -0.8211,0 -1.6422,-0.4105 -2.4633,-0.821 l -11.4956,-11.4958 c -1.2317,-1.2315 -1.2317,-3.2843 0,-4.5161 l 14.3695,-16.0117 h 7.39 l 14.3696,-16.4224 h 4.1056 l -14.3696,16.4224 12.7273,15.1907 -14.3695,16.4224 c -0.4106,0.4105 -0.8211,0.4105 -1.2317,0.821 z" style="fill:#d2d2d2;fill-opacity:1"/></g></svg>