<?xml version="1.0" encoding="UTF-8" standalone="no"?>
<!-- Created with Inkscape (http://www.inkscape.org/) -->

<svg
   version="1.1"
   id="svg22282"
   width="149.35155"
   height="175.65938"
   xmlns:inkscape="http://www.inkscape.org/namespaces/inkscape"
   xmlns:sodipodi="http://sodipodi.sourceforge.net/DTD/sodipodi-0.dtd"
   xmlns="http://www.w3.org/2000/svg"
   xmlns:svg="http://www.w3.org/2000/svg">
  <defs
     id="defs22286" />
  <sodipodi:namedview
     id="namedview22284"
     pagecolor="#ffffff"
     bordercolor="#666666"
     borderopacity="1.0"
     inkscape:pageshadow="2"
     inkscape:pageopacity="0.0"
     inkscape:pagecheckerboard="0" />
  <inkscape:clipboard
     min="2453.2309,3205.3997"
     max="2602.5824,3381.0591"
     geom-min="2453.2309,3205.3997"
     geom-max="2602.5824,3381.0591" />
  <g
     id="g22288"
     transform="translate(-2453.2309,-3205.3997)">
    <g
       id="g4830-1-43-3-5"
       transform="matrix(0.17357782,0,0,0.17357782,2513.7106,3296.4876)"
       style="fill:#d2d2d2;fill-opacity:1"
       inkscape:export-filename="E:\Desktop\icons\icon_select_specific_keylist.png"
       inkscape:export-xdpi="17.488411"
       inkscape:export-ydpi="17.488411">
      <path
         id="path4814-9-5-2-1"
         d="M 464.883,64.267 H 47.117 C 21.137,64.267 0,85.403 0,111.416 c 0,25.98 21.137,47.117 47.117,47.117 h 417.766 c 25.98,0 47.117,-21.137 47.117,-47.117 0,-26.013 -21.137,-47.149 -47.117,-47.149 z"
         inkscape:connector-curvature="0"
         style="fill:#d2d2d2;fill-opacity:1" />
      <path
         id="path4816-2-9-4-0"
         d="M 464.883,208.867 H 47.117 C 21.137,208.867 0,230.003 0,256.016 c 0,25.98 21.137,47.117 47.117,47.117 h 417.766 c 25.98,0 47.117,-21.137 47.117,-47.117 0,-26.013 -21.137,-47.149 -47.117,-47.149 z"
         inkscape:connector-curvature="0"
         style="fill:#d2d2d2;fill-opacity:1" />
      <path
         id="path4818-3-9-7-8"
         d="M 464.883,353.467 H 47.117 C 21.137,353.467 0,374.604 0,400.616 c 0,25.98 21.137,47.117 47.117,47.117 h 417.766 c 25.98,0 47.117,-21.137 47.117,-47.117 0,-26.012 -21.137,-47.149 -47.117,-47.149 z"
         inkscape:connector-curvature="0"
         style="fill:#d2d2d2;fill-opacity:1" />
    </g>
    <g
       id="g3103-4-7"
       transform="matrix(0.28376439,0,0,0.28376439,2453.2309,3197.6223)"
       style="fill:#d2d2d2;fill-opacity:1"
       inkscape:export-filename="E:\Desktop\icons\icon_select_specific_keylist.png"
       inkscape:export-xdpi="17.488411"
       inkscape:export-ydpi="17.488411">
      <g
         id="g3063-3-5"
         style="fill:#d2d2d2;fill-opacity:1">
        <path
           id="path3065-6-8"
           d="M 506.206,179.012 360.025,32.834 c -3.617,-3.617 -7.898,-5.426 -12.847,-5.426 -4.949,0 -9.233,1.809 -12.847,5.426 -3.617,3.619 -5.428,7.902 -5.428,12.85 v 73.089 H 264.95 c -135.716,0 -218.984,38.354 -249.823,115.06 C 5.042,259.335 0,291.03 0,328.907 c 0,31.594 12.087,74.514 36.259,128.762 0.57,1.335 1.566,3.614 2.996,6.849 1.429,3.233 2.712,6.088 3.854,8.565 1.146,2.471 2.384,4.565 3.715,6.276 2.282,3.237 4.948,4.859 7.994,4.859 2.855,0 5.092,-0.951 6.711,-2.854 1.615,-1.902 2.424,-4.284 2.424,-7.132 0,-1.718 -0.238,-4.236 -0.715,-7.569 -0.476,-3.333 -0.715,-5.564 -0.715,-6.708 -0.953,-12.938 -1.429,-24.653 -1.429,-35.114 0,-19.223 1.668,-36.449 4.996,-51.675 3.333,-15.229 7.948,-28.407 13.85,-39.543 5.901,-11.14 13.512,-20.745 22.841,-28.835 9.325,-8.09 19.364,-14.702 30.118,-19.842 10.756,-5.141 23.413,-9.186 37.974,-12.135 14.56,-2.95 29.215,-4.997 43.968,-6.14 14.753,-1.143 31.455,-1.711 50.109,-1.711 h 63.953 v 73.091 c 0,4.948 1.807,9.232 5.421,12.847 3.62,3.613 7.901,5.424 12.847,5.424 4.948,0 9.232,-1.811 12.854,-5.424 L 506.203,204.715 c 3.617,-3.617 5.424,-7.898 5.424,-12.847 -0.001,-4.948 -1.807,-9.232 -5.421,-12.856 z"
           inkscape:connector-curvature="0"
           style="fill:#d2d2d2;fill-opacity:1" />
      </g>
      <g
         id="g3067-9-5"
         style="fill:#d2d2d2;fill-opacity:1" />
      <g
         id="g3069-6-7"
         style="fill:#d2d2d2;fill-opacity:1" />
      <g
         id="g3071-7-7"
         style="fill:#d2d2d2;fill-opacity:1" />
      <g
         id="g3073-3-7"
         style="fill:#d2d2d2;fill-opacity:1" />
      <g
         id="g3075-5-3"
         style="fill:#d2d2d2;fill-opacity:1" />
      <g
         id="g3077-9-0"
         style="fill:#d2d2d2;fill-opacity:1" />
      <g
         id="g3079-3-8"
         style="fill:#d2d2d2;fill-opacity:1" />
      <g
         id="g3081-7-5"
         style="fill:#d2d2d2;fill-opacity:1" />
      <g
         id="g3083-4-5"
         style="fill:#d2d2d2;fill-opacity:1" />
      <g
         id="g3085-2-4"
         style="fill:#d2d2d2;fill-opacity:1" />
      <g
         id="g3087-1-2"
         style="fill:#d2d2d2;fill-opacity:1" />
      <g
         id="g3089-2-7"
         style="fill:#d2d2d2;fill-opacity:1" />
      <g
         id="g3091-0-6"
         style="fill:#d2d2d2;fill-opacity:1" />
      <g
         id="g3093-0-4"
         style="fill:#d2d2d2;fill-opacity:1" />
      <g
         id="g3095-9-9"
         style="fill:#d2d2d2;fill-opacity:1" />
    </g>
    <flowRoot
       xml:space="preserve"
       id="flowRoot8792"
       style="font-style:normal;font-variant:normal;font-weight:normal;font-stretch:normal;font-size:40px;line-height:0;font-family:Roboto;-inkscape-font-specification:Roboto;letter-spacing:0px;word-spacing:0px;fill:#999999;fill-opacity:1;stroke:none"
       transform="matrix(2.8722103,0,0,2.8722103,-4122.2246,-7452.8845)"
       inkscape:export-filename="E:\Desktop\icons\icon_select_specific_keylist.png"
       inkscape:export-xdpi="17.488411"
       inkscape:export-ydpi="17.488411"><flowRegion
         id="flowRegion8794"
         style="fill:#999999"><rect
           id="rect8796"
           width="78.791901"
           height="54.548237"
           x="2291.0259"
           y="3773.1599"
           style="fill:#999999" /></flowRegion><flowPara
         id="flowPara8798"
         style="font-style:normal;font-variant:normal;font-weight:bold;font-stretch:normal;font-family:Roboto;-inkscape-font-specification:'Roboto Bold';fill:#999999">*</flowPara></flowRoot>
  </g>
</svg>
