<svg xmlns="http://www.w3.org/2000/svg" xmlns:svg="http://www.w3.org/2000/svg" id="svg22226" width="32" height="32" version="1.1"><g id="g22232" transform="translate(-2699.2678,-3195.1893)"><g id="g4830-1-43-3" transform="matrix(0.0625,0,0,0.0625,2699.2678,3195.1893)" style="fill:#d2d2d2;fill-opacity:1"><path id="path4814-9-5-2" d="M 464.883,64.267 H 47.117 C 21.137,64.267 0,85.403 0,111.416 c 0,25.98 21.137,47.117 47.117,47.117 h 417.766 c 25.98,0 47.117,-21.137 47.117,-47.117 0,-26.013 -21.137,-47.149 -47.117,-47.149 z" style="fill:#d2d2d2;fill-opacity:1"/><path id="path4816-2-9-4" d="M 464.883,208.867 H 47.117 C 21.137,208.867 0,230.003 0,256.016 c 0,25.98 21.137,47.117 47.117,47.117 h 417.766 c 25.98,0 47.117,-21.137 47.117,-47.117 0,-26.013 -21.137,-47.149 -47.117,-47.149 z" style="fill:#d2d2d2;fill-opacity:1"/><path id="path4818-3-9-7" d="M 464.883,353.467 H 47.117 C 21.137,353.467 0,374.604 0,400.616 c 0,25.98 21.137,47.117 47.117,47.117 h 417.766 c 25.98,0 47.117,-21.137 47.117,-47.117 0,-26.012 -21.137,-47.149 -47.117,-47.149 z" style="fill:#d2d2d2;fill-opacity:1"/></g></g></svg>