<?xml version="1.0" encoding="UTF-8" standalone="no"?>
<!-- Created with Inkscape (http://www.inkscape.org/) -->

<svg
   version="1.1"
   id="svg22226"
   width="32"
   height="32"
   sodipodi:docname="icon_keylist_actions.svg"
   inkscape:version="1.1.2 (b8e25be833, 2022-02-05)"
   inkscape:export-filename="E:\dev-lifecompanion\workspace\lifecompanion\res\icons\lc-app\use-actions\categories\keylist\icon_keylist_actions.png"
   inkscape:export-xdpi="96"
   inkscape:export-ydpi="96"
   xmlns:inkscape="http://www.inkscape.org/namespaces/inkscape"
   xmlns:sodipodi="http://sodipodi.sourceforge.net/DTD/sodipodi-0.dtd"
   xmlns="http://www.w3.org/2000/svg"
   xmlns:svg="http://www.w3.org/2000/svg">
  <defs
     id="defs22230" />
  <sodipodi:namedview
     id="namedview22228"
     pagecolor="#ffffff"
     bordercolor="#666666"
     borderopacity="1.0"
     inkscape:pageshadow="2"
     inkscape:pageopacity="0.0"
     inkscape:pagecheckerboard="0"
     showgrid="false"
     inkscape:zoom="1.740493"
     inkscape:cx="91.640703"
     inkscape:cy="41.36759"
     inkscape:window-width="1920"
     inkscape:window-height="1017"
     inkscape:window-x="-8"
     inkscape:window-y="-8"
     inkscape:window-maximized="1"
     inkscape:current-layer="g22232" />
  <inkscape:clipboard
     min="2699.2678,3195.1893"
     max="2848.6193,3363.9937"
     geom-min="2699.2678,3195.1893"
     geom-max="2848.6193,3363.9937" />
  <g
     id="g22232"
     transform="translate(-2699.2678,-3195.1893)">
    <g
       id="g4830-1-43-3"
       transform="matrix(0.0625,0,0,0.0625,2699.2678,3195.1893)"
       style="fill:#d2d2d2;fill-opacity:1"
       inkscape:export-filename="E:\Desktop\icons\icon_select_keylist.png"
       inkscape:export-xdpi="18.198572"
       inkscape:export-ydpi="18.198572">
      <path
         id="path4814-9-5-2"
         d="M 464.883,64.267 H 47.117 C 21.137,64.267 0,85.403 0,111.416 c 0,25.98 21.137,47.117 47.117,47.117 h 417.766 c 25.98,0 47.117,-21.137 47.117,-47.117 0,-26.013 -21.137,-47.149 -47.117,-47.149 z"
         inkscape:connector-curvature="0"
         style="fill:#d2d2d2;fill-opacity:1" />
      <path
         id="path4816-2-9-4"
         d="M 464.883,208.867 H 47.117 C 21.137,208.867 0,230.003 0,256.016 c 0,25.98 21.137,47.117 47.117,47.117 h 417.766 c 25.98,0 47.117,-21.137 47.117,-47.117 0,-26.013 -21.137,-47.149 -47.117,-47.149 z"
         inkscape:connector-curvature="0"
         style="fill:#d2d2d2;fill-opacity:1" />
      <path
         id="path4818-3-9-7"
         d="M 464.883,353.467 H 47.117 C 21.137,353.467 0,374.604 0,400.616 c 0,25.98 21.137,47.117 47.117,47.117 h 417.766 c 25.98,0 47.117,-21.137 47.117,-47.117 0,-26.012 -21.137,-47.149 -47.117,-47.149 z"
         inkscape:connector-curvature="0"
         style="fill:#d2d2d2;fill-opacity:1" />
    </g>
  </g>
</svg>
