<svg xmlns="http://www.w3.org/2000/svg" xmlns:svg="http://www.w3.org/2000/svg" id="svg21941" width="108.866" height="92.973" version="1.1"><g id="g21947" transform="translate(-2545.4257,-3438.2752)"><g id="g4830-1-43-3-7-4" transform="matrix(0.17357782,0,0,0.17357782,2565.4195,3440.3255)" style="fill:#d2d2d2;fill-opacity:1"><path id="path4814-9-5-2-6-3" d="M 464.883,64.267 H 47.117 C 21.137,64.267 0,85.403 0,111.416 c 0,25.98 21.137,47.117 47.117,47.117 h 417.766 c 25.98,0 47.117,-21.137 47.117,-47.117 0,-26.013 -21.137,-47.149 -47.117,-47.149 z" style="fill:#d2d2d2;fill-opacity:1"/><path id="path4816-2-9-4-05-2" d="M 464.883,208.867 H 47.117 C 21.137,208.867 0,230.003 0,256.016 c 0,25.98 21.137,47.117 47.117,47.117 h 417.766 c 25.98,0 47.117,-21.137 47.117,-47.117 0,-26.013 -21.137,-47.149 -47.117,-47.149 z" style="fill:#d2d2d2;fill-opacity:1"/><path id="path4818-3-9-7-2-0" d="M 464.883,353.467 H 47.117 C 21.137,353.467 0,374.604 0,400.616 c 0,25.98 21.137,47.117 47.117,47.117 h 417.766 c 25.98,0 47.117,-21.137 47.117,-47.117 0,-26.012 -21.137,-47.149 -47.117,-47.149 z" style="fill:#d2d2d2;fill-opacity:1"/></g><g id="g4353-3-2-0-1" transform="matrix(2.0202557,0,0,2.0202557,2563.3692,3438.2755)" style="fill:#aeaeae;fill-opacity:1"><g id="g4311-2-6-2-6" style="fill:#aeaeae;fill-opacity:1"><g id="g4313-0-6-5-61" style="fill:#aeaeae;fill-opacity:1"><path id="path4315-8-0-9-78" d="m 14.757,46.02 c -1.412,0 -2.825,-0.521 -3.929,-1.569 -2.282,-2.17 -2.373,-5.78 -0.204,-8.063 L 23.382,22.97 10.637,9.645 C 8.46,7.37 8.54,3.76 10.816,1.582 c 2.277,-2.178 5.886,-2.097 8.063,0.179 l 16.505,17.253 c 2.104,2.2 2.108,5.665 0.013,7.872 L 18.893,44.247 c -1.123,1.177 -2.626,1.773 -4.136,1.773 z" style="fill:#aeaeae;fill-opacity:1"/></g></g></g><flowRoot id="flowRoot8792-0" transform="matrix(2.2169762,0,0,2.2169762,-2534.8922,-4860.1752)" xml:space="preserve" style="font-style:normal;font-variant:normal;font-weight:400;font-stretch:normal;font-size:40px;line-height:0;font-family:Roboto;-inkscape-font-specification:Roboto;letter-spacing:0;word-spacing:0;fill:#999;fill-opacity:1;stroke:none"><flowRegion id="flowRegion8794-5" style="fill:#999"><rect id="rect8796-9" width="78.792" height="54.548" x="2291.026" y="3773.16" style="fill:#999"/></flowRegion><flowPara id="flowPara8798-7" style="font-style:normal;font-variant:normal;font-weight:700;font-stretch:normal;font-family:Roboto;-inkscape-font-specification:'Roboto Bold';fill:#999">*</flowPara></flowRoot></g></svg>