<?xml version="1.0" encoding="UTF-8" standalone="no"?>
<!-- Created with Inkscape (http://www.inkscape.org/) -->

<svg
   version="1.1"
   id="svg21728"
   width="88.871841"
   height="66.561195"
   xmlns:inkscape="http://www.inkscape.org/namespaces/inkscape"
   xmlns:sodipodi="http://sodipodi.sourceforge.net/DTD/sodipodi-0.dtd"
   xmlns="http://www.w3.org/2000/svg"
   xmlns:svg="http://www.w3.org/2000/svg">
  <defs
     id="defs21732" />
  <sodipodi:namedview
     id="namedview21730"
     pagecolor="#ffffff"
     bordercolor="#666666"
     borderopacity="1.0"
     inkscape:pageshadow="2"
     inkscape:pageopacity="0.0"
     inkscape:pagecheckerboard="0" />
  <inkscape:clipboard
     min="2581.2783,3885.6676"
     max="2670.1501,3952.2288"
     geom-min="2581.2783,3885.6676"
     geom-max="2670.1501,3952.2288" />
  <g
     id="g21734"
     transform="translate(-2581.2783,-3885.6676)">
    <g
       id="g4830-1-43-3-7-6-1"
       transform="matrix(0.17357782,0,0,0.17357782,2581.2783,3874.5123)"
       style="fill:#d2d2d2;fill-opacity:1"
       inkscape:export-filename="E:\Desktop\icons\icon_go_root_keylist.png"
       inkscape:export-xdpi="34.566635"
       inkscape:export-ydpi="34.566635">
      <path
         id="path4814-9-5-2-6-7-2"
         d="M 464.883,64.267 H 47.117 C 21.137,64.267 0,85.403 0,111.416 c 0,25.98 21.137,47.117 47.117,47.117 h 417.766 c 25.98,0 47.117,-21.137 47.117,-47.117 0,-26.013 -21.137,-47.149 -47.117,-47.149 z"
         inkscape:connector-curvature="0"
         style="fill:#d2d2d2;fill-opacity:1" />
      <path
         id="path4816-2-9-4-05-28-4"
         d="M 464.883,208.867 H 47.117 C 21.137,208.867 0,230.003 0,256.016 c 0,25.98 21.137,47.117 47.117,47.117 h 417.766 c 25.98,0 47.117,-21.137 47.117,-47.117 0,-26.013 -21.137,-47.149 -47.117,-47.149 z"
         inkscape:connector-curvature="0"
         style="fill:#d2d2d2;fill-opacity:1" />
      <path
         id="path4818-3-9-7-2-04-0"
         d="M 464.883,353.467 H 47.117 C 21.137,353.467 0,374.604 0,400.616 c 0,25.98 21.137,47.117 47.117,47.117 h 417.766 c 25.98,0 47.117,-21.137 47.117,-47.117 0,-26.012 -21.137,-47.149 -47.117,-47.149 z"
         inkscape:connector-curvature="0"
         style="fill:#d2d2d2;fill-opacity:1" />
    </g>
    <g
       id="g5197"
       transform="translate(0,6.9999674)"
       inkscape:export-filename="E:\Desktop\icons\icon_go_root_keylist.png"
       inkscape:export-xdpi="34.566635"
       inkscape:export-ydpi="34.566635">
      <path
         style="fill:#aeaeae;fill-opacity:1;stroke-width:0.866513"
         inkscape:connector-curvature="0"
         d="M 412.83867,62.837094 H 99.161118 c -19.50695,0 -35.37757,21.135998 -35.37757,47.148996 0,25.98 15.87062,47.117 35.37757,47.117 H 412.83867 c 19.50696,0 35.37757,-21.137 35.37757,-47.117 0,-26.012998 -15.87061,-47.148996 -35.37757,-47.148996 z"
         id="path4814-9-5-2-6-7-2-3"
         transform="matrix(0.17357782,0,0,0.17357782,2581.2783,3874.5123)" />
      <g
         inkscape:export-ydpi="33.042061"
         inkscape:export-xdpi="33.042061"
         inkscape:export-filename="E:\Desktop\icons\icon_next_keylist.png"
         style="fill:#aeaeae;fill-opacity:1"
         transform="matrix(0,-1.39941,1.39941,0,2593.5139,3951.1488)"
         id="g4353-3-2-0-6-6">
        <g
           style="fill:#aeaeae;fill-opacity:1"
           id="g4311-2-6-2-54-3">
          <g
             style="fill:#aeaeae;fill-opacity:1"
             id="g4313-0-6-5-4-8">
            <path
               style="fill:#aeaeae;fill-opacity:1"
               inkscape:connector-curvature="0"
               d="m 14.757,46.02 c -1.412,0 -2.825,-0.521 -3.929,-1.569 -2.282,-2.17 -2.373,-5.78 -0.204,-8.063 L 23.382,22.97 10.637,9.645 C 8.46,7.37 8.54,3.76 10.816,1.582 c 2.277,-2.178 5.886,-2.097 8.063,0.179 l 16.505,17.253 c 2.104,2.2 2.108,5.665 0.013,7.872 L 18.893,44.247 c -1.123,1.177 -2.626,1.773 -4.136,1.773 z"
               id="path4315-8-0-9-3-2" />
          </g>
        </g>
        <g
           style="fill:#aeaeae;fill-opacity:1"
           id="g4317-4-71-2-9-8" />
        <g
           style="fill:#aeaeae;fill-opacity:1"
           id="g4319-3-1-5-4-4" />
        <g
           style="fill:#aeaeae;fill-opacity:1"
           id="g4321-7-8-9-9-0" />
        <g
           style="fill:#aeaeae;fill-opacity:1"
           id="g4323-7-24-6-2-1" />
        <g
           style="fill:#aeaeae;fill-opacity:1"
           id="g4325-3-6-7-9-8" />
        <g
           style="fill:#aeaeae;fill-opacity:1"
           id="g4327-6-1-3-2-3" />
        <g
           style="fill:#aeaeae;fill-opacity:1"
           id="g4329-8-5-0-3-5" />
        <g
           style="fill:#aeaeae;fill-opacity:1"
           id="g4331-0-3-7-0-6" />
        <g
           style="fill:#aeaeae;fill-opacity:1"
           id="g4333-5-4-2-1-1" />
        <g
           style="fill:#aeaeae;fill-opacity:1"
           id="g4335-4-4-8-7-9" />
        <g
           style="fill:#aeaeae;fill-opacity:1"
           id="g4337-6-3-3-7-5" />
        <g
           style="fill:#aeaeae;fill-opacity:1"
           id="g4339-6-3-0-9-1" />
        <g
           style="fill:#aeaeae;fill-opacity:1"
           id="g4341-6-46-1-9-5" />
        <g
           style="fill:#aeaeae;fill-opacity:1"
           id="g4343-7-5-4-3-6" />
        <g
           style="fill:#aeaeae;fill-opacity:1"
           id="g4345-6-5-1-3-2" />
      </g>
    </g>
  </g>
</svg>
