<?xml version="1.0" encoding="UTF-8" standalone="no"?>
<!-- Created with Inkscape (http://www.inkscape.org/) -->

<svg
   version="1.1"
   id="svg22007"
   width="88.871841"
   height="92.972519"
   xmlns:inkscape="http://www.inkscape.org/namespaces/inkscape"
   xmlns:sodipodi="http://sodipodi.sourceforge.net/DTD/sodipodi-0.dtd"
   xmlns="http://www.w3.org/2000/svg"
   xmlns:svg="http://www.w3.org/2000/svg">
  <defs
     id="defs22011" />
  <sodipodi:namedview
     id="namedview22009"
     pagecolor="#ffffff"
     bordercolor="#666666"
     borderopacity="1.0"
     inkscape:pageshadow="2"
     inkscape:pageopacity="0.0"
     inkscape:pagecheckerboard="0" />
  <inkscape:clipboard
     min="2728.1803,3585.2524"
     max="2817.0521,3678.2249"
     geom-min="2728.1803,3585.2524"
     geom-max="2817.0521,3678.2249" />
  <g
     id="g22013"
     transform="translate(-2728.1803,-3585.2524)">
    <g
       id="g4830-1-43-3-7-7"
       transform="matrix(0.17357782,0,0,0.17357782,2728.1803,3587.3027)"
       style="fill:#d2d2d2;fill-opacity:1"
       inkscape:export-filename="E:\Desktop\icons\icon_previous_keylist.png"
       inkscape:export-xdpi="33.042061"
       inkscape:export-ydpi="33.042061">
      <path
         id="path4814-9-5-2-6-4"
         d="M 464.883,64.267 H 47.117 C 21.137,64.267 0,85.403 0,111.416 c 0,25.98 21.137,47.117 47.117,47.117 h 417.766 c 25.98,0 47.117,-21.137 47.117,-47.117 0,-26.013 -21.137,-47.149 -47.117,-47.149 z"
         inkscape:connector-curvature="0"
         style="fill:#d2d2d2;fill-opacity:1" />
      <path
         id="path4816-2-9-4-05-1"
         d="M 464.883,208.867 H 47.117 C 21.137,208.867 0,230.003 0,256.016 c 0,25.98 21.137,47.117 47.117,47.117 h 417.766 c 25.98,0 47.117,-21.137 47.117,-47.117 0,-26.013 -21.137,-47.149 -47.117,-47.149 z"
         inkscape:connector-curvature="0"
         style="fill:#d2d2d2;fill-opacity:1" />
      <path
         id="path4818-3-9-7-2-3"
         d="M 464.883,353.467 H 47.117 C 21.137,353.467 0,374.604 0,400.616 c 0,25.98 21.137,47.117 47.117,47.117 h 417.766 c 25.98,0 47.117,-21.137 47.117,-47.117 0,-26.012 -21.137,-47.149 -47.117,-47.149 z"
         inkscape:connector-curvature="0"
         style="fill:#d2d2d2;fill-opacity:1" />
    </g>
    <g
       id="g4353-3-2-0-5"
       transform="matrix(-2.0202557,0,0,2.0202557,2819.1025,3585.2527)"
       style="fill:#aeaeae;fill-opacity:1"
       inkscape:export-filename="E:\Desktop\icons\icon_previous_keylist.png"
       inkscape:export-xdpi="33.042061"
       inkscape:export-ydpi="33.042061">
      <g
         id="g4311-2-6-2-5"
         style="fill:#aeaeae;fill-opacity:1">
        <g
           id="g4313-0-6-5-6"
           style="fill:#aeaeae;fill-opacity:1">
          <path
             id="path4315-8-0-9-7"
             d="m 14.757,46.02 c -1.412,0 -2.825,-0.521 -3.929,-1.569 -2.282,-2.17 -2.373,-5.78 -0.204,-8.063 L 23.382,22.97 10.637,9.645 C 8.46,7.37 8.54,3.76 10.816,1.582 c 2.277,-2.178 5.886,-2.097 8.063,0.179 l 16.505,17.253 c 2.104,2.2 2.108,5.665 0.013,7.872 L 18.893,44.247 c -1.123,1.177 -2.626,1.773 -4.136,1.773 z"
             inkscape:connector-curvature="0"
             style="fill:#aeaeae;fill-opacity:1" />
        </g>
      </g>
      <g
         id="g4317-4-71-2-7"
         style="fill:#aeaeae;fill-opacity:1" />
      <g
         id="g4319-3-1-5-5"
         style="fill:#aeaeae;fill-opacity:1" />
      <g
         id="g4321-7-8-9-8"
         style="fill:#aeaeae;fill-opacity:1" />
      <g
         id="g4323-7-24-6-5"
         style="fill:#aeaeae;fill-opacity:1" />
      <g
         id="g4325-3-6-7-7"
         style="fill:#aeaeae;fill-opacity:1" />
      <g
         id="g4327-6-1-3-9"
         style="fill:#aeaeae;fill-opacity:1" />
      <g
         id="g4329-8-5-0-8"
         style="fill:#aeaeae;fill-opacity:1" />
      <g
         id="g4331-0-3-7-4"
         style="fill:#aeaeae;fill-opacity:1" />
      <g
         id="g4333-5-4-2-7"
         style="fill:#aeaeae;fill-opacity:1" />
      <g
         id="g4335-4-4-8-1"
         style="fill:#aeaeae;fill-opacity:1" />
      <g
         id="g4337-6-3-3-3"
         style="fill:#aeaeae;fill-opacity:1" />
      <g
         id="g4339-6-3-0-7"
         style="fill:#aeaeae;fill-opacity:1" />
      <g
         id="g4341-6-46-1-1"
         style="fill:#aeaeae;fill-opacity:1" />
      <g
         id="g4343-7-5-4-8"
         style="fill:#aeaeae;fill-opacity:1" />
      <g
         id="g4345-6-5-1-6"
         style="fill:#aeaeae;fill-opacity:1" />
    </g>
  </g>
</svg>
