<?xml version="1.0" encoding="UTF-8" standalone="no"?>
<!-- Created with Inkscape (http://www.inkscape.org/) -->

<svg
   version="1.1"
   id="svg21728"
   width="88.871841"
   height="66.561195"
   sodipodi:docname="iconc_clean_history_keylist.svg"
   inkscape:version="1.4.2 (1:1.4.2+202505120737+ebf0e940d0)"
   inkscape:export-filename="iconc_clean_history_keylist.png"
   inkscape:export-xdpi="34.566628"
   inkscape:export-ydpi="34.566628"
   xmlns:inkscape="http://www.inkscape.org/namespaces/inkscape"
   xmlns:sodipodi="http://sodipodi.sourceforge.net/DTD/sodipodi-0.dtd"
   xmlns="http://www.w3.org/2000/svg"
   xmlns:svg="http://www.w3.org/2000/svg"
   xmlns:sketch="http://www.bohemiancoding.com/sketch/ns">
  <defs
     id="defs21732" />
  <sodipodi:namedview
     id="namedview21730"
     pagecolor="#ffffff"
     bordercolor="#666666"
     borderopacity="1.0"
     inkscape:pageshadow="2"
     inkscape:pageopacity="0.0"
     inkscape:pagecheckerboard="0"
     inkscape:showpageshadow="2"
     inkscape:deskcolor="#d1d1d1"
     inkscape:zoom="12.65248"
     inkscape:cx="57.696199"
     inkscape:cy="26.437505"
     inkscape:window-width="3440"
     inkscape:window-height="1371"
     inkscape:window-x="0"
     inkscape:window-y="0"
     inkscape:window-maximized="1"
     inkscape:current-layer="g21734" />
  <inkscape:clipboard
     min="2581.2783,3885.6676"
     max="2670.1501,3952.2288"
     geom-min="2581.2783,3885.6676"
     geom-max="2670.1501,3952.2288" />
  <g
     id="g21734"
     transform="translate(-2581.2783,-3885.6676)">
    <g
       id="g4830-1-43-3-7-6-1"
       transform="matrix(0.17357782,0,0,0.17357782,2581.2783,3874.5123)"
       style="fill:#d2d2d2;fill-opacity:1"
       inkscape:export-filename="E:\Desktop\icons\icon_go_root_keylist.png"
       inkscape:export-xdpi="34.566635"
       inkscape:export-ydpi="34.566635">
      <path
         id="path4814-9-5-2-6-7-2"
         d="M 464.883,64.267 H 47.117 C 21.137,64.267 0,85.403 0,111.416 c 0,25.98 21.137,47.117 47.117,47.117 h 417.766 c 25.98,0 47.117,-21.137 47.117,-47.117 0,-26.013 -21.137,-47.149 -47.117,-47.149 z"
         inkscape:connector-curvature="0"
         style="fill:#d2d2d2;fill-opacity:1" />
      <path
         id="path4816-2-9-4-05-28-4"
         d="M 464.883,208.867 H 47.117 C 21.137,208.867 0,230.003 0,256.016 c 0,25.98 21.137,47.117 47.117,47.117 h 417.766 c 25.98,0 47.117,-21.137 47.117,-47.117 0,-26.013 -21.137,-47.149 -47.117,-47.149 z"
         inkscape:connector-curvature="0"
         style="fill:#d2d2d2;fill-opacity:1" />
      <path
         id="path4818-3-9-7-2-04-0"
         d="M 464.883,353.467 H 47.117 C 21.137,353.467 0,374.604 0,400.616 c 0,25.98 21.137,47.117 47.117,47.117 h 417.766 c 25.98,0 47.117,-21.137 47.117,-47.117 0,-26.012 -21.137,-47.149 -47.117,-47.149 z"
         inkscape:connector-curvature="0"
         style="fill:#d2d2d2;fill-opacity:1" />
    </g>
    <path
       d="m 2613.838,3916.8669 c 0,-1.1483 0.932,-2.0802 2.0799,-2.0802 1.1482,0 2.0801,0.9319 2.0801,2.0802 v 24.9594 c 0,1.1502 -0.9319,2.0798 -2.0801,2.0798 -1.1479,0 -2.0799,-0.9296 -2.0799,-2.0798 z m 10.3998,0 c 0,-1.1483 0.9319,-2.0802 2.0798,-2.0802 1.1482,0 2.0802,0.9319 2.0802,2.0802 v 24.9594 c 0,1.1502 -0.932,2.0798 -2.0802,2.0798 -1.1479,0 -2.0798,-0.9296 -2.0798,-2.0798 z m 10.3997,0 c 0,-1.1483 0.932,-2.0802 2.0798,-2.0802 1.1483,0 2.0802,0.9319 2.0802,2.0802 v 24.9594 c 0,1.1502 -0.9319,2.0798 -2.0802,2.0798 -1.1478,0 -2.0798,-0.9296 -2.0798,-2.0798 z m -31.1993,27.0392 c 0,4.5945 3.7252,8.32 8.32,8.32 h 29.1191 c 4.5949,0 8.3199,-3.7255 8.3199,-8.32 v -33.2794 h -45.759 z m 29.1195,-49.9189 h -12.4799 v -2.0798 c 0,-1.1505 0.9319,-2.0802 2.0802,-2.0802 h 8.3196 c 1.1482,0 2.0801,0.9297 2.0801,2.0802 z m 16.6395,0 h -12.4799 v -4.16 c 0,-2.2962 -1.8634,-4.1596 -4.1596,-4.1596 h -12.4799 c -2.2961,0 -4.1599,1.8634 -4.1599,4.1596 v 4.16 h -12.4797 c -2.2965,0 -4.1599,1.8638 -4.1599,4.1599 v 4.1601 c 0,2.2961 1.8616,4.1577 4.1577,4.1599 h 45.7654 c 2.2942,0 4.1559,-1.8638 4.1559,-4.1599 v -4.1601 c 0,-2.2961 -1.8639,-4.1599 -4.1601,-4.1599 z"
       id="trash"
       sketch:type="MSShapeGroup"
       style="fill:#aeaeae;fill-opacity:1;fill-rule:evenodd;stroke:none;stroke-width:2.07995" />
    <g
       id="g5197"
       transform="translate(0,6.9999674)"
       inkscape:export-filename="E:\Desktop\icons\icon_go_root_keylist.png"
       inkscape:export-xdpi="34.566635"
       inkscape:export-ydpi="34.566635" />
  </g>
</svg>
