<?xml version="1.0" encoding="UTF-8" standalone="no"?>
<!-- Created with Inkscape (http://www.inkscape.org/) -->

<svg
   xmlns:dc="http://purl.org/dc/elements/1.1/"
   xmlns:cc="http://creativecommons.org/ns#"
   xmlns:rdf="http://www.w3.org/1999/02/22-rdf-syntax-ns#"
   xmlns:svg="http://www.w3.org/2000/svg"
   xmlns="http://www.w3.org/2000/svg"
   xmlns:sodipodi="http://sodipodi.sourceforge.net/DTD/sodipodi-0.dtd"
   xmlns:inkscape="http://www.inkscape.org/namespaces/inkscape"
   width="32px"
   height="32px"
   viewBox="0 0 32 32"
   version="1.1"
   id="SVGRoot"
   inkscape:version="0.92.3 (2405546, 2018-03-11)"
   sodipodi:docname="add_from_model.svg"
   inkscape:export-filename="C:\Users\Mathieu\image.png"
   inkscape:export-xdpi="96"
   inkscape:export-ydpi="96">
  <sodipodi:namedview
     id="base"
     pagecolor="#ffffff"
     bordercolor="#666666"
     borderopacity="1.0"
     inkscape:pageopacity="0.0"
     inkscape:pageshadow="2"
     inkscape:zoom="8"
     inkscape:cx="-13.850125"
     inkscape:cy="16"
     inkscape:document-units="px"
     inkscape:current-layer="layer1"
     showgrid="false"
     inkscape:window-width="1920"
     inkscape:window-height="1017"
     inkscape:window-x="-8"
     inkscape:window-y="-8"
     inkscape:window-maximized="1"
     inkscape:grid-bbox="true" />
  <defs
     id="defs6479" />
  <metadata
     id="metadata6482">
    <rdf:RDF>
      <cc:Work
         rdf:about="">
        <dc:format>image/svg+xml</dc:format>
        <dc:type
           rdf:resource="http://purl.org/dc/dcmitype/StillImage" />
        <dc:title />
      </cc:Work>
    </rdf:RDF>
  </metadata>
  <g
     id="layer1"
     inkscape:groupmode="layer"
     inkscape:label="Calque 1">
    <g
       id="g891"
       transform="scale(0.40759658)"
       style="fill:#0277bd;fill-opacity:1"
       inkscape:export-filename="C:\Users\Mathieu\g891.png"
       inkscape:export-xdpi="96"
       inkscape:export-ydpi="96">
      <g
         id="g835"
         style="fill:#0277bd;fill-opacity:1">
	<path
   id="path833"
   d="m 68.305,51.149 h -3.032 v -3.031 -6 h -6 -5.281 c -2.281,-2.832 -4.785,-5.04 -7.03,-6.974 3.829,-3.723 6.22,-8.918 6.22,-14.668 C 53.182,9.186 43.996,0 32.706,0 21.416,0 12.23,9.186 12.23,20.476 c 0,5.75 2.39,10.945 6.219,14.668 C 12.318,40.425 4.205,47.729 4.205,64.26 v 3 h 33.708 v 2.218 h 6 3.033 v 3.031 6 h 6 6.326 6 v -6 -3.031 h 3.032 6 v -6 -6.328 -6 z M 18.23,20.476 C 18.23,12.494 24.724,6 32.706,6 c 7.981,0 14.476,6.494 14.476,14.476 0,7.449 -5.656,13.597 -12.897,14.386 -0.072,0.007 -0.143,0.016 -0.215,0.021 -0.347,0.033 -0.698,0.046 -1.051,0.054 -0.097,0.002 -0.192,0.01 -0.289,0.011 C 32.577,34.947 32.427,34.936 32.275,34.931 31.983,34.922 31.691,34.913 31.404,34.887 31.296,34.879 31.189,34.866 31.082,34.856 23.862,34.044 18.23,27.908 18.23,20.476 Z m 4.506,18.893 c 0.158,-0.137 0.315,-0.271 0.472,-0.406 2.29,0.981 4.736,1.607 7.242,1.858 0.176,0.02 0.355,0.028 0.532,0.044 0.469,0.036 0.939,0.062 1.411,0.071 0.105,10e-4 0.207,0.016 0.312,0.016 0.078,0 0.154,-0.011 0.231,-0.012 0.523,-0.009 1.045,-0.037 1.566,-0.079 0.143,-0.013 0.287,-0.021 0.428,-0.036 2.505,-0.246 4.965,-0.874 7.271,-1.862 0.155,0.135 0.313,0.27 0.472,0.406 1.415,1.217 2.872,2.48 4.272,3.887 v 4.862 3.031 h -3.033 -6 v 6 4.11 h -27.6 c 0.875,-11.956 6.985,-17.212 12.424,-21.89 z m 45.569,24.109 h -9.032 v 9.031 H 52.947 V 63.478 H 43.914 V 57.15 h 9.033 v -9.031 h 6.326 v 9.031 h 9.032 z"
   inkscape:connector-curvature="0"
   style="fill:#0277bd;fill-opacity:1" />

</g>
      <g
         id="g837"
         style="fill:#0277bd;fill-opacity:1">
</g>
      <g
         id="g839"
         style="fill:#0277bd;fill-opacity:1">
</g>
      <g
         id="g841"
         style="fill:#0277bd;fill-opacity:1">
</g>
      <g
         id="g843"
         style="fill:#0277bd;fill-opacity:1">
</g>
      <g
         id="g845"
         style="fill:#0277bd;fill-opacity:1">
</g>
      <g
         id="g847"
         style="fill:#0277bd;fill-opacity:1">
</g>
      <g
         id="g849"
         style="fill:#0277bd;fill-opacity:1">
</g>
      <g
         id="g851"
         style="fill:#0277bd;fill-opacity:1">
</g>
      <g
         id="g853"
         style="fill:#0277bd;fill-opacity:1">
</g>
      <g
         id="g855"
         style="fill:#0277bd;fill-opacity:1">
</g>
      <g
         id="g857"
         style="fill:#0277bd;fill-opacity:1">
</g>
      <g
         id="g859"
         style="fill:#0277bd;fill-opacity:1">
</g>
      <g
         id="g861"
         style="fill:#0277bd;fill-opacity:1">
</g>
      <g
         id="g863"
         style="fill:#0277bd;fill-opacity:1">
</g>
      <g
         id="g865"
         style="fill:#0277bd;fill-opacity:1">
</g>
    </g>
  </g>
</svg>
