<?xml version="1.0" encoding="UTF-8" standalone="no"?>
<!-- Created with Inkscape (http://www.inkscape.org/) -->

<svg
   width="32px"
   height="32px"
   viewBox="0 0 32 32"
   version="1.1"
   id="SVGRoot"
   inkscape:version="1.1.2 (b8e25be833, 2022-02-05)"
   sodipodi:docname="new_grid.svg"
   inkscape:export-filename="C:\Users\Mathieu\image.png"
   inkscape:export-xdpi="96"
   inkscape:export-ydpi="96"
   xmlns:inkscape="http://www.inkscape.org/namespaces/inkscape"
   xmlns:sodipodi="http://sodipodi.sourceforge.net/DTD/sodipodi-0.dtd"
   xmlns="http://www.w3.org/2000/svg"
   xmlns:svg="http://www.w3.org/2000/svg"
   xmlns:rdf="http://www.w3.org/1999/02/22-rdf-syntax-ns#"
   xmlns:cc="http://creativecommons.org/ns#"
   xmlns:dc="http://purl.org/dc/elements/1.1/">
  <sodipodi:namedview
     id="base"
     pagecolor="#ffffff"
     bordercolor="#666666"
     borderopacity="1.0"
     inkscape:pageopacity="0.0"
     inkscape:pageshadow="2"
     inkscape:zoom="8"
     inkscape:cx="-31.25"
     inkscape:cy="15.9375"
     inkscape:document-units="px"
     inkscape:current-layer="layer1"
     showgrid="false"
     inkscape:window-width="3840"
     inkscape:window-height="2081"
     inkscape:window-x="-9"
     inkscape:window-y="-9"
     inkscape:window-maximized="1"
     inkscape:grid-bbox="true"
     inkscape:pagecheckerboard="0" />
  <defs
     id="defs6479" />
  <metadata
     id="metadata6482">
    <rdf:RDF>
      <cc:Work
         rdf:about="">
        <dc:format>image/svg+xml</dc:format>
        <dc:type
           rdf:resource="http://purl.org/dc/dcmitype/StillImage" />
        <dc:title />
      </cc:Work>
    </rdf:RDF>
  </metadata>
  <g
     id="layer1"
     inkscape:groupmode="layer"
     inkscape:label="Calque 1">
    <g
       id="g116"
       transform="matrix(0.23188406,0,0,0.23188406,-3.3043373,-4.6086958)">
      <rect
         style="fill:#03a9f4;fill-opacity:1;stroke:none"
         id="rect4204-85-1"
         width="108"
         height="100"
         x="44.249954"
         y="-123.87497"
         transform="scale(1,-1)"
         inkscape:export-filename="C:\Users\LAPTOP-MATHIEU\icon_add_grid_in_stack.png"
         inkscape:export-xdpi="33.389999"
         inkscape:export-ydpi="33.389999" />
      <rect
         style="fill:#f44336;fill-opacity:1;stroke:none"
         id="rect4204-8-6-4"
         width="108"
         height="100"
         x="29.249954"
         y="-138.87503"
         transform="scale(1,-1)"
         inkscape:export-filename="C:\Users\LAPTOP-MATHIEU\icon_add_grid_in_stack.png"
         inkscape:export-xdpi="33.389999"
         inkscape:export-ydpi="33.389999" />
      <rect
         style="fill:#03a9f4;fill-opacity:1;stroke:none"
         id="rect4204-8-2-9-7"
         width="108"
         height="100"
         x="14.249953"
         y="-153.87503"
         transform="scale(1,-1)"
         inkscape:export-filename="C:\Users\LAPTOP-MATHIEU\icon_add_grid_in_stack.png"
         inkscape:export-xdpi="33.389999"
         inkscape:export-ydpi="33.389999" />
      <path
         id="path4928-6"
         d="m 66.6055,76.90225 c -15.6065,0 -28.1429,12.5364 -28.1429,28.14289 0,15.6065 12.5364,28.1429 28.1429,28.1429 15.6065,0 28.1429,-12.5364 28.1429,-28.1429 0,-15.60649 -12.5364,-28.14289 -28.1429,-28.14289 z m 15.3507,29.42219 c 0,0.7674 -0.5117,1.2792 -1.2792,1.2792 H 69.8035 c -0.3837,0 -0.6395,0.2558 -0.6395,0.6395 v 10.8735 c 0,0.7675 -0.5117,1.2792 -1.2793,1.2792 h -2.5584 c -0.7675,0 -1.2793,-0.5117 -1.2793,-1.2792 v -10.8735 c 0,-0.3837 -0.2558,-0.6395 -0.6395,-0.6395 H 52.5341 c -0.7676,0 -1.2793,-0.5118 -1.2793,-1.2792 v -2.5585 c 0,-0.7675 0.5117,-1.2792 1.2793,-1.2792 h 10.8734 c 0.3837,0 0.6395,-0.2559 0.6395,-0.6396 V 90.97375 c 0,-0.7676 0.5118,-1.2793 1.2793,-1.2793 h 2.5584 c 0.7676,0 1.2793,0.5117 1.2793,1.2793 v 10.87339 c 0,0.3837 0.2558,0.6396 0.6395,0.6396 H 80.677 c 0.7675,0 1.2792,0.5117 1.2792,1.2792 z"
         inkscape:connector-curvature="0"
         style="fill:#f44336;fill-opacity:1"
         inkscape:export-filename="C:\Users\LAPTOP-MATHIEU\icon_add_grid_in_stack.png"
         inkscape:export-xdpi="33.389999"
         inkscape:export-ydpi="33.389999" />
    </g>
  </g>
</svg>
