<svg xmlns="http://www.w3.org/2000/svg" xmlns:svg="http://www.w3.org/2000/svg" id="svg11624" width="155" height="155.996" version="1.1"><g id="g11630" transform="translate(-978.87833,-1378.3732)"><g id="g4794" transform="rotate(-90,702.14012,1194.124)"><rect style="fill:#03a9f4;fill-opacity:1;stroke:none" id="rect3317-5-76-7-8" width="45" height="45" x="-517.891" y="1525.862" transform="scale(-1,1)"/><rect style="fill:#03a9f4;fill-opacity:1;stroke:none;stroke-width:8;stroke-miterlimit:4;stroke-dasharray:none;stroke-opacity:1" id="rect3317-5-7-18-9-10" width="45" height="45" x="-462.891" y="1525.862" transform="scale(-1,1)"/><rect style="fill:#03a9f4;fill-opacity:1;stroke:none" id="rect3317-5-1-9-2-9" width="45" height="45" x="-406.895" y="1525.862" transform="scale(-1,1)"/><rect style="fill:#03a9f4;fill-opacity:1;stroke:none;stroke-width:4;stroke-miterlimit:4;stroke-dasharray:none;stroke-opacity:1" id="rect3317-5-5-9-3-1" width="45" height="45" x="-517.891" y="1470.862" transform="scale(-1,1)"/><rect style="fill:#03a9f4;fill-opacity:1;stroke:none;stroke-width:8;stroke-miterlimit:4;stroke-dasharray:none;stroke-opacity:1" id="rect3317-5-7-2-5-2-7" width="45" height="45" x="-462.891" y="1470.862" transform="scale(-1,1)"/><rect style="fill:#03a9f4;fill-opacity:1;stroke:none" id="rect3317-5-1-7-4-90-3" width="45" height="45" x="-406.895" y="1470.862" transform="scale(-1,1)"/><rect style="fill:#03a9f4;fill-opacity:1;stroke:none" id="rect3317-5-5-1-4-9-9" width="45" height="45" x="-517.891" y="1580.862" transform="scale(-1,1)"/><rect style="fill:#03a9f4;fill-opacity:1;stroke:none" id="rect3317-5-7-2-6-1-5-1" width="45" height="45" x="-462.891" y="1580.862" transform="scale(-1,1)"/><rect style="fill:#03a9f4;fill-opacity:1;stroke:none" id="rect3317-5-1-7-8-1-8-6" width="45" height="45" x="-406.895" y="1580.862" transform="scale(-1,1)"/><g style="fill:#f44336;fill-opacity:1" id="g4088-8-9" transform="matrix(-0.12362176,0,0,0.13336012,427.57978,1575.7226)"><g style="fill:#f44336;fill-opacity:1" id="g4045-4-7"><g style="fill:#f44336;fill-opacity:1" id="g4047-3-69"><g style="fill:#f44336;fill-opacity:1" id="Layer_5_55_-0-8"><path style="fill:#f44336;fill-opacity:1" id="path4050-5-57" d="M 397,190.734 228.738,73.444 c -6.599,-5.632 -11.996,-3.147 -11.996,5.528 v 49.068 c 0,8.672 -7.099,15.77 -15.77,15.77 L 96.796,143.966 H 15.69 v 0.125 C 7.051,144.139 0.002,151.214 0,159.857 l 0.002,82.789 c 0,8.673 7.095,15.771 15.765,15.771 l 183.426,-0.275 h 1.834 c 8.647,0.028 15.717,7.107 15.717,15.765 v 49.067 c 0,8.675 5.397,11.163 11.993,5.535 L 397.002,211.215 c 6.596,-5.636 6.596,-14.848 -0.002,-20.481 z"/></g></g></g></g><rect id="rect4352-29" width="109.096" height="6.061" x="-495.451" y="1492.804" transform="scale(-1,1)" style="fill:#f44336;fill-opacity:1;stroke:none;stroke-width:4;stroke-miterlimit:4;stroke-dasharray:none;stroke-opacity:1"/><rect id="rect4352-2-9" width="109.096" height="6.061" x="-498.482" y="1545.332" transform="scale(-1,1)" style="fill:#f44336;fill-opacity:1;stroke:none;stroke-width:4;stroke-miterlimit:4;stroke-dasharray:none;stroke-opacity:1"/><rect id="rect4352-6-1" width="109.096" height="6.061" x="-500.502" y="1598.87" transform="scale(-1,1)" style="fill:#f44336;fill-opacity:1;stroke:none;stroke-width:4;stroke-miterlimit:4;stroke-dasharray:none;stroke-opacity:1"/></g></g></svg>