<svg xmlns="http://www.w3.org/2000/svg" xmlns:svg="http://www.w3.org/2000/svg" id="svg11844" width="155.996" height="155" version="1.1"><g id="g11850" transform="translate(-497.10193,-1451.3647)"><rect id="rect3317-5" width="45" height="45" x="497.102" y="1506.365" style="fill:#03a9f4;fill-opacity:1;stroke:none"/><rect id="rect3317-5-7" width="45" height="45" x="552.102" y="1506.365" style="fill:#03a9f4;fill-opacity:1;stroke:#0277bd;stroke-width:8;stroke-miterlimit:4;stroke-dasharray:none;stroke-opacity:1"/><rect id="rect3317-5-1" width="45" height="45" x="608.098" y="1506.365" style="fill:#03a9f4;fill-opacity:1;stroke:none"/><rect id="rect3317-5-5" width="45" height="45" x="497.102" y="1451.365" style="fill:#03a9f4;fill-opacity:1;stroke:none"/><rect id="rect3317-5-7-2" width="45" height="45" x="552.102" y="1451.365" style="fill:#03a9f4;fill-opacity:1;stroke:none"/><rect id="rect3317-5-1-7" width="45" height="45" x="608.098" y="1451.365" style="fill:#03a9f4;fill-opacity:1;stroke:none"/><rect id="rect3317-5-5-1" width="45" height="45" x="497.102" y="1561.365" style="fill:#03a9f4;fill-opacity:1;stroke:none"/><rect id="rect3317-5-7-2-6" width="45" height="45" x="552.102" y="1561.365" style="fill:#03a9f4;fill-opacity:1;stroke:none"/><rect id="rect3317-5-1-7-8" width="45" height="45" x="608.098" y="1561.365" style="fill:#03a9f4;fill-opacity:1;stroke:none"/><g id="g4025" transform="matrix(3.1464656,0,0,3.1464656,575.28648,1527.4043)" style="fill:#f44336;fill-opacity:1"><g id="g3985" style="fill:#f44336;fill-opacity:1"><path id="path3987" d="M 14.511,4.037 C 14.493,3.992 14.471,3.955 14.439,3.922 14.389,3.875 14.324,3.842 14.251,3.84 L 0.335,0.002 C 0.243,-0.01 0.154,0.027 0.09,0.09 0.024,0.156 -0.007,0.24 0.003,0.334 l 4.634,14.17 c 0.013,0.119 0.089,0.217 0.2,0.258 0.111,0.041 0.235,0.01 0.318,-0.076 L 6.266,9.075 13.6,16.407 c 0.121,0.123 0.312,0.123 0.431,0 l 2.378,-2.375 c 0.119,-0.121 0.119,-0.312 0,-0.432 L 9.075,6.266 14.438,4.356 C 14.522,4.275 14.549,4.15 14.511,4.037 Z" style="fill:#f44336;fill-opacity:1"/></g></g></g></svg>