<svg xmlns="http://www.w3.org/2000/svg" xmlns:svg="http://www.w3.org/2000/svg" id="svg12726" width="89.994" height="89.994" version="1.1"><g id="g12732" transform="translate(-991.95465,-2424.0372)"><g id="g5321" transform="matrix(1.4998975,0,0,1.4998975,991.95465,2424.0372)" style="fill:#d2d2d2;fill-opacity:1"><g id="g5279" style="fill:#d2d2d2;fill-opacity:1"><path id="path5281" d="m 30,0 c -0.553,0 -1,0.447 -1,1 v 13.292 c 0,0.553 0.447,1 1,1 0.553,0 1,-0.447 1,-1 V 2.018 C 45.979,2.546 58,14.896 58,30 58,45.439 45.439,58 30,58 14.561,58 2,45.439 2,30 2,22.54 4.9,15.521 10.166,10.236 10.557,9.844 10.555,9.212 10.164,8.822 9.772,8.434 9.14,8.434 8.75,8.824 3.107,14.486 0,22.007 0,30 0,46.542 13.458,60 30,60 46.542,60 60,46.542 60,30 60,13.458 46.542,0 30,0 Z" style="fill:#d2d2d2;fill-opacity:1"/><path id="path5283" d="m 28.555,33.532 c 0.614,0.845 1.563,1.376 2.604,1.457 0.093,0.008 0.186,0.011 0.278,0.011 0.942,0 1.848,-0.372 2.519,-1.044 0.737,-0.737 1.114,-1.756 1.033,-2.797 -0.081,-1.041 -0.612,-1.99 -1.459,-2.606 L 20.586,19.19 c -0.396,-0.286 -0.945,-0.242 -1.293,0.104 -0.348,0.348 -0.391,0.896 -0.104,1.293 z m 3.8,-3.36 c 0.371,0.27 0.604,0.687 0.64,1.144 0.036,0.456 -0.13,0.903 -0.453,1.227 -0.324,0.323 -0.779,0.488 -1.228,0.453 -0.456,-0.035 -0.873,-0.269 -1.141,-0.637 L 24.46,24.462 Z" style="fill:#d2d2d2;fill-opacity:1"/></g></g></g></svg>