<?xml version="1.0" encoding="UTF-8" standalone="no"?>
<!-- Created with Inkscape (http://www.inkscape.org/) -->

<svg
   version="1.1"
   id="svg12706"
   width="88.871841"
   height="66.561195"
   xmlns:inkscape="http://www.inkscape.org/namespaces/inkscape"
   xmlns:sodipodi="http://sodipodi.sourceforge.net/DTD/sodipodi-0.dtd"
   xmlns="http://www.w3.org/2000/svg"
   xmlns:svg="http://www.w3.org/2000/svg">
  <defs
     id="defs12710" />
  <sodipodi:namedview
     id="namedview12708"
     pagecolor="#ffffff"
     bordercolor="#666666"
     borderopacity="1.0"
     inkscape:pageshadow="2"
     inkscape:pageopacity="0.0"
     inkscape:pagecheckerboard="0" />
  <inkscape:clipboard
     style="font-variation-settings:normal;opacity:1;vector-effect:none;fill:#d2d2d2;fill-opacity:1;stroke-width:0.17357782;stroke-linecap:butt;stroke-linejoin:miter;stroke-miterlimit:4;stroke-dasharray:none;stroke-dashoffset:0;stroke-opacity:1;-inkscape-stroke:none;stop-color:#000000;stop-opacity:1"
     min="1252.6,3164.0924"
     max="1341.4718,3230.6536"
     geom-min="1252.6,3164.0924"
     geom-max="1341.4718,3230.6536" />
  <g
     id="g12712"
     transform="translate(-1252.6,-3164.0924)">
    <g
       id="g4830-1-43"
       transform="matrix(0.17357782,0,0,0.17357782,1252.6,3152.9371)"
       style="fill:#d2d2d2;fill-opacity:1"
       inkscape:export-filename="E:\Desktop\icons\icon_key_list.png"
       inkscape:export-xdpi="34.57"
       inkscape:export-ydpi="34.57">
      <path
         id="path4814-9-5"
         d="M 464.883,64.267 H 47.117 C 21.137,64.267 0,85.403 0,111.416 c 0,25.98 21.137,47.117 47.117,47.117 h 417.766 c 25.98,0 47.117,-21.137 47.117,-47.117 0,-26.013 -21.137,-47.149 -47.117,-47.149 z"
         inkscape:connector-curvature="0"
         style="fill:#d2d2d2;fill-opacity:1" />
      <path
         id="path4816-2-9"
         d="M 464.883,208.867 H 47.117 C 21.137,208.867 0,230.003 0,256.016 c 0,25.98 21.137,47.117 47.117,47.117 h 417.766 c 25.98,0 47.117,-21.137 47.117,-47.117 0,-26.013 -21.137,-47.149 -47.117,-47.149 z"
         inkscape:connector-curvature="0"
         style="fill:#d2d2d2;fill-opacity:1" />
      <path
         id="path4818-3-9"
         d="M 464.883,353.467 H 47.117 C 21.137,353.467 0,374.604 0,400.616 c 0,25.98 21.137,47.117 47.117,47.117 h 417.766 c 25.98,0 47.117,-21.137 47.117,-47.117 0,-26.012 -21.137,-47.149 -47.117,-47.149 z"
         inkscape:connector-curvature="0"
         style="fill:#d2d2d2;fill-opacity:1" />
    </g>
  </g>
</svg>
