<svg xmlns="http://www.w3.org/2000/svg" xmlns:svg="http://www.w3.org/2000/svg" id="svg14337" width="123.941" height="121.804" version="1.1"><g id="g14343" transform="translate(-3433.1573,-740.1489)"><g id="g4920-0-2" transform="matrix(2.1369148,0,0,2.1369148,3433.1573,739.08044)" style="fill:#d2d2d2;fill-opacity:1"><g id="g4874-5-2" style="fill:#d2d2d2;fill-opacity:1"><path id="path4876-5-4" d="M 42.899,4.5 C 42.434,2.221 40.415,0.5 38,0.5 c -0.552,0 -1,0.447 -1,1 0,0.553 0.448,1 1,1 1.654,0 3,1.346 3,3 0,1.654 -1.346,3 -3,3 -0.552,0 -1,0.447 -1,1 0,0.553 0.448,1 1,1 2.414,0 4.434,-1.721 4.899,-4 H 56 v 7 H 44 42 30 28 16 14 2 v -7 h 14 3 c 0.552,0 1,-0.447 1,-1 0,-0.553 -0.448,-1 -1,-1 h -1.816 c 0.414,-1.162 1.514,-2 2.816,-2 1.654,0 3,1.346 3,3 0,1.654 -1.346,3 -3,3 -0.552,0 -1,0.447 -1,1 0,0.553 0.448,1 1,1 2.757,0 5,-2.243 5,-5 0,-2.757 -2.243,-5 -5,-5 -2.414,0 -4.434,1.721 -4.899,4 H 0 v 9 3 11 2 12 2 14 h 14 2 12 2 12 2 14 v -14 -2 -12 -2 -11 -3 -9 z M 30,15.5 h 12 v 12 H 30 Z m 12,26 H 30 v -12 h 12 z m -26,-12 h 12 v 12 H 16 Z m 0,-14 h 12 v 12 H 16 Z m -14,1 v -1 h 12 v 12 H 2 Z m 0,13 h 12 v 12 H 2 Z m 0,26 v -12 h 12 v 12 z m 14,0 v -12 h 12 v 12 z m 14,0 v -12 h 12 v 12 z m 26,0 H 44 v -12 h 12 z m 0,-14 H 44 v -12 h 12 z m -12,-14 v -12 h 12 v 1 11 z" style="fill:#d2d2d2;fill-opacity:1"/><path id="path4878-8-2" d="m 26,2.5 c 1.654,0 3,1.346 3,3 0,1.654 -1.346,3 -3,3 -0.552,0 -1,0.447 -1,1 0,0.553 0.448,1 1,1 2.757,0 5,-2.243 5,-5 0,-2.757 -2.243,-5 -5,-5 -0.552,0 -1,0.447 -1,1 0,0.553 0.448,1 1,1 z" style="fill:#d2d2d2;fill-opacity:1"/><path id="path4880-3-5" d="m 32,2.5 c 1.654,0 3,1.346 3,3 0,1.654 -1.346,3 -3,3 -0.552,0 -1,0.447 -1,1 0,0.553 0.448,1 1,1 2.757,0 5,-2.243 5,-5 0,-2.757 -2.243,-5 -5,-5 -0.552,0 -1,0.447 -1,1 0,0.553 0.448,1 1,1 z" style="fill:#d2d2d2;fill-opacity:1"/><path id="path4882-3-6" d="m 31.293,40.207 c 0.195,0.195 0.451,0.293 0.707,0.293 0.256,0 0.512,-0.098 0.707,-0.293 L 36,36.914 l 3.293,3.293 c 0.195,0.195 0.451,0.293 0.707,0.293 0.256,0 0.512,-0.098 0.707,-0.293 0.391,-0.391 0.391,-1.023 0,-1.414 L 37.414,35.5 40.707,32.207 c 0.391,-0.391 0.391,-1.023 0,-1.414 -0.391,-0.391 -1.023,-0.391 -1.414,0 L 36,34.086 32.707,30.793 c -0.391,-0.391 -1.023,-0.391 -1.414,0 -0.391,0.391 -0.391,1.023 0,1.414 l 3.293,3.293 -3.293,3.293 c -0.391,0.391 -0.391,1.023 0,1.414 z" style="fill:#d2d2d2;fill-opacity:1"/></g></g></g></svg>