<svg xmlns="http://www.w3.org/2000/svg" xmlns:svg="http://www.w3.org/2000/svg" id="svg1" width="32" height="32" version="1.1" viewBox="0 0 8.467 8.467" xml:space="preserve"><g id="layer1" transform="translate(94.42306,93.292215)"><g style="fill:#d2d2d2;fill-opacity:1;stroke-width:24.7905" id="g1" transform="matrix(0.14593705,0,0,0.14849735,-94.42306,-93.366464)"><g id="g4" style="fill:#d2d2d2;fill-opacity:1;stroke-width:24.7905"><path id="path1" d="M 42.899,4.5 C 42.434,2.221 40.415,0.5 38,0.5 c -0.552,0 -1,0.447 -1,1 0,0.553 0.448,1 1,1 1.654,0 3,1.346 3,3 0,1.654 -1.346,3 -3,3 -0.552,0 -1,0.447 -1,1 0,0.553 0.448,1 1,1 2.414,0 4.434,-1.721 4.899,-4 H 56 v 7 H 44 42 30 28 16 14 2 v -7 h 14 3 c 0.552,0 1,-0.447 1,-1 0,-0.553 -0.448,-1 -1,-1 h -1.816 c 0.414,-1.162 1.514,-2 2.816,-2 1.654,0 3,1.346 3,3 0,1.654 -1.346,3 -3,3 -0.552,0 -1,0.447 -1,1 0,0.553 0.448,1 1,1 2.757,0 5,-2.243 5,-5 0,-2.757 -2.243,-5 -5,-5 -2.414,0 -4.434,1.721 -4.899,4 H 0 v 9 3 11 2 12 2 14 h 14 2 12 2 0.01895 L 29.94928,43.413136 c -0.142756,-0.03427 -0.02171,-13.682392 -0.02171,-13.682392 0,0 19.923774,0.03264 28.072429,-0.187875 v -0.251666 -2 -11 -3 V 4.5 Z M 30,15.5 h 12 v 12 H 30 Z m -14,14 h 12 v 12 H 16 Z m 0,-14 h 12 v 12 H 16 Z m -14,1 v -1 h 12 v 12 H 2 Z m 0,13 h 12 v 12 H 2 Z m 0,26 v -12 h 12 v 12 z m 14,0 v -12 h 12 v 12 z m 14,0 -0.974255,-12.639202 z m 26,-26 C 0,0.50000219 0,0.50000219 56,29.5 Z m -12,-2 v -12 h 12 v 1 11 z" style="fill:#d2d2d2;fill-opacity:1;stroke-width:24.7905"/><path id="path2" d="m 26,2.5 c 1.654,0 3,1.346 3,3 0,1.654 -1.346,3 -3,3 -0.552,0 -1,0.447 -1,1 0,0.553 0.448,1 1,1 2.757,0 5,-2.243 5,-5 0,-2.757 -2.243,-5 -5,-5 -0.552,0 -1,0.447 -1,1 0,0.553 0.448,1 1,1 z" style="fill:#d2d2d2;fill-opacity:1;stroke-width:24.7905"/><path id="path3" d="m 32,2.5 c 1.654,0 3,1.346 3,3 0,1.654 -1.346,3 -3,3 -0.552,0 -1,0.447 -1,1 0,0.553 0.448,1 1,1 2.757,0 5,-2.243 5,-5 0,-2.757 -2.243,-5 -5,-5 -0.552,0 -1,0.447 -1,1 0,0.553 0.448,1 1,1 z" style="fill:#d2d2d2;fill-opacity:1;stroke-width:24.7905"/><path id="path4" d="m 17.037477,26.057164 c 0.195,0.195 0.451,0.293 0.707,0.293 0.256,0 0.512,-0.098 0.707,-0.293 l 3.293,-3.293 3.293,3.293 c 0.195,0.195 0.451,0.293 0.707,0.293 0.256,0 0.512,-0.098 0.707,-0.293 0.391,-0.391 0.391,-1.023 0,-1.414 l -3.293,-3.293 3.293,-3.293 c 0.391,-0.391 0.391,-1.023 0,-1.414 -0.391,-0.391 -1.023,-0.391 -1.414,0 l -3.293,3.293 -3.293,-3.293 c -0.391,-0.391 -1.023,-0.391 -1.414,0 -0.391,0.391 -0.391,1.023 0,1.414 l 3.293,3.293 -3.293,3.293 c -0.391,0.391 -0.391,1.023 0,1.414 z" style="fill:#d2d2d2;fill-opacity:1;stroke-width:24.7905"/></g></g><g style="fill:#d2d2d2;fill-opacity:1;stroke-width:49.9936" id="g2" transform="matrix(0.07056435,0,0,0.07056435,-90.181916,-89.069269)"><g id="g10" style="fill:#d2d2d2;fill-opacity:1;stroke-width:49.9936"><path id="path1-7" d="M 30,0 C 13.458,0 0,13.458 0,30 0,46.542 13.458,60 30,60 46.542,60 60,46.542 60,30 60,13.458 46.542,0 30,0 Z m 0,58 C 14.561,58 2,45.439 2,30 2,14.561 14.561,2 30,2 45.439,2 58,14.561 58,30 58,45.439 45.439,58 30,58 Z" style="fill:#d2d2d2;fill-opacity:1;stroke-width:49.9936"/><path id="path2-0" d="m 28.937499,26.021 0.02929,-18.0511704 c 8.98e-4,-0.5529993 0.448,-1 1,-1 0.552,0 1.000898,0.4470007 1,1 L 30.937499,26.021 c 1.399,0.364 2.494,1.459 2.858,2.858 l 17.967349,0.0025 c 0.552,7.7e-5 1,0.447 1,1 0,0.553 -0.447999,1.000077 -1,1 L 33.795499,30.879 c -0.447,1.72 -2,3 -3.858,3 -2.206,0 -4,-1.794 -4,-4 0,-1.859 1.28,-3.411 3,-3.858 z m 1,5.858 c 1.103,0 2,-0.897 2,-2 0,-1.103 -0.897,-2 -2,-2 -1.103,0 -2,0.897 -2,2 0,1.103 0.897,2 2,2 z" style="fill:#d2d2d2;fill-opacity:1;stroke-width:49.9936"/><path id="path3-2" d="m 30,9.879 c 0.552,0 1,-0.447 1,-1 v -1 c 0,-0.553 -0.448,-1 -1,-1 -0.552,0 -1,0.447 -1,1 v 1 c 0,0.553 0.448,1 1,1 z" style="fill:#d2d2d2;fill-opacity:1;stroke-width:49.9936"/><path id="path4-0" d="m 30,49.879 c -0.552,0 -1,0.447 -1,1 v 1 c 0,0.553 0.448,1 1,1 0.552,0 1,-0.447 1,-1 v -1 c 0,-0.553 -0.448,-1 -1,-1 z" style="fill:#d2d2d2;fill-opacity:1;stroke-width:49.9936"/><path id="path6" d="M 9,28.879 H 8 c -0.552,0 -1,0.447 -1,1 0,0.553 0.448,1 1,1 h 1 c 0.552,0 1,-0.447 1,-1 0,-0.553 -0.448,-1 -1,-1 z" style="fill:#d2d2d2;fill-opacity:1;stroke-width:49.9936"/><path id="path7" d="m 30.026629,6.8775586 0.523315,19.9233544 c 0.01452,0.552767 5.174713,3.483631 5.565713,3.874631 0.195,0.195 8.477343,-14.646544 8.733343,-14.646544 0.256,0 -11.988991,13.584285 -11.713327,13.591988 l 19.51325,0.545248 c 0.277812,0.0078 0.377711,-5.413779 -1.248631,-9.341602 -1.609473,-3.887086 -4.445689,-7.180861 -4.64017,-7.375341 C 46.576619,13.26579 44.06954,9.9861537 40.364608,8.3999827 36.175219,6.6064028 30.234126,6.6705919 30.026629,6.8775586 Z" style="fill:#d2d2d2;fill-opacity:1;stroke-width:49.9936"/><path id="path8" d="m 14.444,44.021 -0.707,0.707 c -0.391,0.391 -0.391,1.023 0,1.414 0.195,0.195 0.451,0.293 0.707,0.293 0.256,0 0.512,-0.098 0.707,-0.293 l 0.707,-0.707 c 0.391,-0.391 0.391,-1.023 0,-1.414 -0.391,-0.391 -1.024,-0.39 -1.414,0 z" style="fill:#d2d2d2;fill-opacity:1;stroke-width:49.9936"/><path id="path9" d="m 45.556,44.021 c -0.391,-0.391 -1.023,-0.391 -1.414,0 -0.391,0.391 -0.391,1.023 0,1.414 l 0.707,0.707 c 0.195,0.195 0.451,0.293 0.707,0.293 0.256,0 0.512,-0.098 0.707,-0.293 0.391,-0.391 0.391,-1.023 0,-1.414 z" style="fill:#d2d2d2;fill-opacity:1;stroke-width:49.9936"/><path id="path10" d="m 15.151,13.615 c -0.391,-0.391 -1.023,-0.391 -1.414,0 -0.391,0.391 -0.391,1.023 0,1.414 l 0.707,0.707 c 0.195,0.195 0.451,0.293 0.707,0.293 0.256,0 0.512,-0.098 0.707,-0.293 0.391,-0.391 0.391,-1.023 0,-1.414 z" style="fill:#d2d2d2;fill-opacity:1;stroke-width:49.9936"/></g></g></g></svg>