<?xml version="1.0" encoding="UTF-8" standalone="no"?>
<!-- Created with Inkscape (http://www.inkscape.org/) -->

<svg
   version="1.1"
   id="svg12794"
   width="146.97443"
   height="146.97412"
   xmlns:inkscape="http://www.inkscape.org/namespaces/inkscape"
   xmlns:sodipodi="http://sodipodi.sourceforge.net/DTD/sodipodi-0.dtd"
   xmlns="http://www.w3.org/2000/svg"
   xmlns:svg="http://www.w3.org/2000/svg">
  <defs
     id="defs12798" />
  <sodipodi:namedview
     id="namedview12796"
     pagecolor="#ffffff"
     bordercolor="#666666"
     borderopacity="1.0"
     inkscape:pageshadow="2"
     inkscape:pageopacity="0.0"
     inkscape:pagecheckerboard="0" />
  <inkscape:clipboard
     style="font-variation-settings:normal;opacity:1;vector-effect:none;fill:#d2d2d2;fill-opacity:1;stroke-width:0.28705916;stroke-linecap:butt;stroke-linejoin:miter;stroke-miterlimit:4;stroke-dasharray:none;stroke-dashoffset:0;stroke-opacity:1;-inkscape-stroke:none;stop-color:#000000;stop-opacity:1"
     min="5114.4024,2442.6083"
     max="5261.3769,2589.5824"
     geom-min="5114.4024,2442.6083"
     geom-max="5261.3769,2589.5824" />
  <g
     id="g12800"
     transform="translate(-5114.4024,-2442.6083)">
    <g
       id="g4755"
       transform="matrix(0.28705916,0,0,0.28705916,5114.4022,2442.6079)"
       style="fill:#d2d2d2;fill-opacity:1"
       inkscape:export-filename="C:\Users\Mathieu\Desktop\icon_configuration_started.png"
       inkscape:export-xdpi="20.9"
       inkscape:export-ydpi="20.9">
      <path
         id="path4723"
         d="m 74.742188,328.07812 c -2.898438,5.78125 -1.769532,12.76954 2.796874,17.33985 l 3.667969,3.66797 c 10.597657,-12.5586 22.949219,-26.1875 37.929689,-41.16407 1.05859,-1.05859 2.14844,-1.57031 3.21094,-2.54687 L 98.75,281.77344 c -13.71875,24.8125 -21.71875,41.76562 -24.007812,46.30468 z m 0,0"
         inkscape:connector-curvature="0"
         style="fill:#d2d2d2;fill-opacity:1" />
      <path
         id="path4725"
         d="m 203.98828,392.77344 c -15.01562,15.01562 -28.60937,27.39062 -41.09766,37.99609 l 4.96875,4.96875 c 4.60938,4.60938 11.66407,5.71875 17.46485,2.73438 7.76953,-4.00391 19.98828,-9.75391 45.92578,-24.19922 L 206.53906,389.5625 c -0.97656,1.06641 -1.48828,2.15234 -2.55078,3.21094 z m 0,0"
         inkscape:connector-curvature="0"
         style="fill:#d2d2d2;fill-opacity:1" />
      <path
         id="path4727"
         d="m 195.99219,315.9375 c -10.83985,-10.83984 -41.32422,-1.12109 -55.64453,13.19531 -47.906254,47.90625 -69.542972,81.8711 -79.257816,101.92578 -2.785156,5.7461 -1.625,12.625 2.890625,17.14063 4.523437,4.52734 11.414062,5.67578 17.164062,2.89062 19.605469,-9.51953 53.156249,-31.05468 101.632809,-79.52734 15.7461,-15.75391 23.51563,-45.32031 13.22657,-55.61328 z m 0,0"
         inkscape:connector-curvature="0"
         style="fill:#d2d2d2;fill-opacity:1" />
      <path
         id="path4729"
         d="M 46.820312,199.71094 4.394531,242.13672 c -4.796875,4.79687 -5.78125,12.22265 -2.382812,18.10547 3.316406,5.80468 10.261719,8.76172 16.871093,6.99218 22.929688,-6.14843 43.105469,-8.74609 56.691407,-5.26171 19.328125,-34.36329 40.097661,-65.9961 62.093751,-94.73047 -12.72266,-8.15625 -54.765626,-3.61328 -90.847658,32.46875 z m 0,0"
         inkscape:connector-curvature="0"
         style="fill:#d2d2d2;fill-opacity:1" />
      <path
         id="path4731"
         d="m 253.89453,510.39062 c 5.77734,2.92188 12.77344,1.79297 17.34766,-2.78515 l 42.42968,-42.42578 c 32.84766,-32.85547 38.62891,-75.2461 31.17579,-88.6875 -32.04688,24.15234 -64.51172,44.54687 -94.80078,61.62109 2.08984,11.80078 0.69921,23.25 -4.24219,56.6875 -0.96485,6.47266 2.3789,12.73438 8.08984,15.58984 z m 0,0"
         inkscape:connector-curvature="0"
         style="fill:#d2d2d2;fill-opacity:1" />
      <path
         id="path4733"
         d="m 297.80078,150.46875 c -17.54297,17.54687 -17.54297,46.08984 0,63.63672 17.54688,17.54687 46.09375,17.54687 63.64063,0 17.54687,-17.54688 17.54687,-46.08985 0,-63.63672 -17.54688,-17.54688 -46.09375,-17.54688 -63.64063,0 z m 0,0"
         inkscape:connector-curvature="0"
         style="fill:#d2d2d2;fill-opacity:1" />
      <path
         id="path4735"
         d="M 511.11719,14.632812 C 510.57812,7.214844 504.67187,1.351562 497.27734,0.796875 460.4375,-1.976562 423.74219,2.554688 387.77344,13.554688 c 2.70703,24.710937 15.48828,51.453124 37.30859,73.273437 22.08203,22.078125 49.55078,34.855465 74.70313,37.246095 9.6875,-33.94922 14.28125,-70.308595 11.33203,-109.441408 z m 0,0"
         inkscape:connector-curvature="0"
         style="fill:#d2d2d2;fill-opacity:1" />
      <path
         id="path4737"
         d="M 403.87109,108.04297 C 378.91016,83.082031 363.66797,53.144531 358.77734,23.996094 268.70312,60.9375 182.47656,141.60937 114.33984,254.9375 l 33.85157,33.85156 c 23.1289,-9.39062 51.20703,-11.87109 69.01562,5.9336 17.83203,17.83593 15.30469,45.90234 5.91797,69 l 34.96484,34.96484 c 87.19532,-52.55078 188.71094,-135.34375 231.87891,-245.49609 -29.85938,-4.51172 -60.73047,-19.78125 -86.09766,-45.14844 z m -21.21875,127.27734 c -29.23828,29.23828 -76.82031,29.23828 -106.0625,0 -29.24218,-29.24219 -29.24218,-76.82812 0,-106.0664 29.24219,-29.23828 76.82422,-29.23828 106.0625,0 29.24219,29.24218 29.24219,76.82421 0,106.0664 z m 0,0"
         inkscape:connector-curvature="0"
         style="fill:#d2d2d2;fill-opacity:1" />
    </g>
  </g>
</svg>
