<?xml version="1.0" encoding="UTF-8" standalone="no"?>
<!-- Created with Inkscape (http://www.inkscape.org/) -->

<svg
   version="1.1"
   id="svg13322"
   width="89.765572"
   height="113.20038"
   xmlns:inkscape="http://www.inkscape.org/namespaces/inkscape"
   xmlns:sodipodi="http://sodipodi.sourceforge.net/DTD/sodipodi-0.dtd"
   xmlns="http://www.w3.org/2000/svg"
   xmlns:svg="http://www.w3.org/2000/svg">
  <defs
     id="defs13326" />
  <sodipodi:namedview
     id="namedview13324"
     pagecolor="#ffffff"
     bordercolor="#666666"
     borderopacity="1.0"
     inkscape:pageshadow="2"
     inkscape:pageopacity="0.0"
     inkscape:pagecheckerboard="0" />
  <inkscape:clipboard
     min="-821.22255,2130.1039"
     max="-731.45698,2243.3043"
     geom-min="-821.22255,2130.1039"
     geom-max="-731.45698,2243.3043" />
  <g
     id="g13328"
     transform="translate(821.22255,-2130.1039)">
    <g
       id="g3039-3-0"
       transform="matrix(0.18719767,0,0,0.18719767,-820.51197,2125.3667)"
       style="fill:#d2d2d2;fill-opacity:1"
       inkscape:export-filename="E:\Documents\Temp\icon_voice_synthesizer_disabled.png"
       inkscape:export-xdpi="25.441631"
       inkscape:export-ydpi="25.441631">
      <g
         id="g2991-4-0"
         style="fill:#d2d2d2;fill-opacity:1">
        <g
           id="g2993-6-5"
           style="fill:#d2d2d2;fill-opacity:1">
          <path
             id="path2995-2-9"
             d="m 333.881,25.306 c -57.787,0 -107.604,30.499 -129.69,74.124 -4.305,-0.62 -8.527,-0.742 -11.154,-0.742 -9.541,0 -34.412,1.672 -59.264,17.154 -13.645,8.5 -20.021,20.582 -20.678,39.174 -0.002,0.056 -0.002,0.111 -0.002,0.169 l 0.047,0.001 -0.029,31.192 -0.01,0.003 c -0.221,0.064 -0.438,0.145 -0.646,0.238 -3.234,1.455 -4.928,0.799 -5.33,7.595 -0.459,7.741 0.887,28.19 9.238,33.292 1.25,1.283 2.074,4.788 2.568,8.687 0.926,7.296 1.973,15.568 6.09,20.982 9.371,12.327 6.91,31.404 6.701,32.886 -0.033,0.021 -0.078,0.048 -0.139,0.077 -5.775,2.594 -7.291,7.645 -8.4,11.336 l -0.568,1.833 c -1.494,4.817 -2.908,9.371 -4.855,13.694 -0.262,0.376 -1.391,1.27 -2.854,1.822 l -4.268,1.635 C 83.663,330.801 55.769,341.493 29.865,355.812 5.376,369.348 0.227,442.655 0.02,444.981 c -0.125,1.396 0.344,2.783 1.291,3.818 0.947,1.035 2.285,1.625 3.689,1.625 h 178.672 178.671 c 1.404,0 2.742,-0.59 3.689,-1.625 0.947,-1.035 1.416,-2.422 1.291,-3.818 -0.207,-2.326 -5.355,-75.634 -29.842,-89.169 -25.906,-14.319 -53.802,-25.013 -80.775,-35.354 l -4.269,-1.635 c -1.463,-0.554 -2.592,-1.447 -2.854,-1.822 -1.947,-4.323 -3.359,-8.877 -4.855,-13.694 l -0.567,-1.833 c -1.107,-3.691 -2.625,-8.742 -8.4,-11.336 -0.059,-0.029 -0.105,-0.057 -0.137,-0.077 -0.209,-1.481 -2.672,-20.559 6.701,-32.886 1.961,-2.579 3.221,-5.811 4.106,-9.271 19.226,13.248 42.466,22.25 67.938,25.322 v 45.76 c 0,4.832 2.947,9.178 7.438,10.967 1.418,0.563 2.897,0.838 4.364,0.838 3.183,0 6.302,-1.288 8.576,-3.69 l 62.092,-65.598 c 22.767,-9.902 42.086,-24.982 55.988,-43.73 14.982,-20.201 22.9,-43.687 22.9,-67.918 C 475.73,81.178 412.098,25.306 333.881,25.306 Z m 51.555,215.392 c -1.529,0.635 -2.908,1.584 -4.047,2.787 l -43.408,45.857 v -26.949 c 0,-6.287 -4.928,-11.471 -11.207,-11.79 -27.982,-1.418 -53.238,-11.126 -72.58,-26.218 5.489,-7.667 6.42,-23.557 6.026,-30.172 -0.401,-6.796 -2.096,-6.14 -5.33,-7.595 -0.209,-0.094 -0.426,-0.174 -0.645,-0.238 l -0.01,-0.003 0.01,-31.188 c -0.021,-15.871 -3.871,-26.547 -11.781,-32.636 -3.5,-2.695 -7.518,-5.218 -11.404,-7.658 -2.133,-1.338 -4.291,-2.695 -6.248,-4.015 17.896,-36.363 60.045,-61.965 109.067,-61.965 65.197,0 118.242,45.281 118.242,100.938 0.002,38.375 -26.174,74.033 -66.685,90.845 z"
             inkscape:connector-curvature="0"
             style="fill:#d2d2d2;fill-opacity:1" />
          <circle
             id="circle2997-2-7"
             r="14.886"
             cy="148.276"
             cx="286.03299"
             style="fill:#d2d2d2;fill-opacity:1" />
          <circle
             id="circle2999-8-8"
             r="14.886"
             cy="148.276"
             cx="333.879"
             style="fill:#d2d2d2;fill-opacity:1" />
          <circle
             id="circle3001-5-9"
             r="14.886"
             cy="148.276"
             cx="381.72699"
             style="fill:#d2d2d2;fill-opacity:1" />
        </g>
      </g>
      <g
         id="g3003-0-4"
         style="fill:#d2d2d2;fill-opacity:1" />
      <g
         id="g3005-1-8"
         style="fill:#d2d2d2;fill-opacity:1" />
      <g
         id="g3007-9-0"
         style="fill:#d2d2d2;fill-opacity:1" />
      <g
         id="g3009-1-6"
         style="fill:#d2d2d2;fill-opacity:1" />
      <g
         id="g3011-4-1"
         style="fill:#d2d2d2;fill-opacity:1" />
      <g
         id="g3013-4-0"
         style="fill:#d2d2d2;fill-opacity:1" />
      <g
         id="g3015-6-1"
         style="fill:#d2d2d2;fill-opacity:1" />
      <g
         id="g3017-5-2"
         style="fill:#d2d2d2;fill-opacity:1" />
      <g
         id="g3019-5-6"
         style="fill:#d2d2d2;fill-opacity:1" />
      <g
         id="g3021-7-4"
         style="fill:#d2d2d2;fill-opacity:1" />
      <g
         id="g3023-6-8"
         style="fill:#d2d2d2;fill-opacity:1" />
      <g
         id="g3025-3-3"
         style="fill:#d2d2d2;fill-opacity:1" />
      <g
         id="g3027-9-8"
         style="fill:#d2d2d2;fill-opacity:1" />
      <g
         id="g3029-2-4"
         style="fill:#d2d2d2;fill-opacity:1" />
      <g
         id="g3031-1-6"
         style="fill:#d2d2d2;fill-opacity:1" />
    </g>
    <text
       xml:space="preserve"
       style="font-style:normal;font-weight:normal;font-size:44.6933px;line-height:125%;font-family:Sans;letter-spacing:0px;word-spacing:0px;fill:#aeaeae;fill-opacity:1;stroke:none"
       x="-828.83069"
       y="2227.1992"
       id="text5460-2-5-8-6"
       transform="scale(0.9930604,1.0069881)"
       inkscape:export-filename="E:\Documents\Temp\icon_voice_synthesizer_disabled.png"
       inkscape:export-xdpi="25.441631"
       inkscape:export-ydpi="25.441631"><tspan
         sodipodi:role="line"
         id="tspan5462-6-3-6-0"
         x="-828.83069"
         y="2227.1992"
         style="font-style:normal;font-variant:normal;font-weight:bold;font-stretch:normal;font-size:47.8555px;font-family:Calibri;-inkscape-font-specification:'Calibri Bold';fill:#d2d2d2;fill-opacity:1">OFF</tspan></text>
  </g>
</svg>
