<svg xmlns="http://www.w3.org/2000/svg" xmlns:svg="http://www.w3.org/2000/svg" id="svg13270" width="158.433" height="169.617" version="1.1"><g id="g13276" transform="translate(-4286.7332,-3310.8037)"><g id="g8569" transform="matrix(0.34812436,0,0,0.34812436,4281.1416,3310.8037)" style="fill:#d2d2d2;fill-opacity:1"><g id="g8510" style="fill:#d2d2d2;fill-opacity:1"><g id="g8508" style="fill:#d2d2d2;fill-opacity:1"><path id="path8504" d="m 55.323,203.641 c 15.664,0 29.813,-9.405 35.872,-23.854 25.017,-59.604 83.842,-101.61 152.42,-101.61 37.797,0 72.449,12.955 100.23,34.442 l -21.775,3.371 c -7.438,1.153 -13.224,7.054 -14.232,14.512 -1.01,7.454 3.008,14.686 9.867,17.768 l 119.746,53.872 c 5.249,2.357 11.33,1.904 16.168,-1.205 4.83,-3.114 7.764,-8.458 7.796,-14.208 l 0.621,-131.943 c 0.042,-7.506 -4.851,-14.144 -12.024,-16.332 -7.185,-2.188 -14.947,0.589 -19.104,6.837 L 414.403,70.096 C 370.398,26.778 310.1,0 243.615,0 142.806,0 56.133,61.562 19.167,149.06 c -5.134,12.128 -3.84,26.015 3.429,36.987 7.269,10.976 19.556,17.594 32.727,17.594 z" style="fill:#d2d2d2;fill-opacity:1"/><path id="path8506" d="m 464.635,301.184 c -7.27,-10.977 -19.558,-17.594 -32.728,-17.594 -15.664,0 -29.813,9.405 -35.872,23.854 -25.018,59.604 -83.843,101.61 -152.42,101.61 -37.798,0 -72.45,-12.955 -100.232,-34.442 l 21.776,-3.369 c 7.437,-1.153 13.223,-7.055 14.233,-14.514 1.009,-7.453 -3.008,-14.686 -9.867,-17.768 L 49.779,285.089 c -5.25,-2.356 -11.33,-1.905 -16.169,1.205 -4.829,3.114 -7.764,8.458 -7.795,14.207 l -0.622,131.943 c -0.042,7.506 4.85,14.144 12.024,16.332 7.185,2.188 14.948,-0.59 19.104,-6.839 l 16.505,-24.805 c 44.004,43.32 104.303,70.098 170.788,70.098 100.811,0 187.481,-61.561 224.446,-149.059 5.137,-12.128 3.843,-26.014 -3.425,-36.987 z" style="fill:#d2d2d2;fill-opacity:1"/></g></g></g></g></svg>