<svg xmlns="http://www.w3.org/2000/svg" xmlns:svg="http://www.w3.org/2000/svg" id="svg21488" width="176.963" height="177.035" version="1.1"><g id="g21494" transform="translate(-5619.3355,-926.357)"><g id="g9104" transform="matrix(0.36173929,0,0,0.36181325,5619.3174,926.357)" style="fill:#d2d2d2;fill-opacity:1"><g id="g9045" style="fill:#d2d2d2;fill-opacity:1"><g id="g9043" style="fill:#d2d2d2;fill-opacity:1"><path id="path9037" d="m 0.05,12.3 v 222.8 c 0,6.8 5.5,12.3 12.3,12.3 6.8,0 12.3,-5.5 12.3,-12.3 V 24.5 h 440.2 v 440.2 h -211.9 c -6.8,0 -12.3,5.5 -12.3,12.3 0,6.8 5.5,12.3 12.3,12.3 h 224 c 6.8,0 12.3,-5.5 12.3,-12.3 V 12.3 C 489.25,5.5 483.75,0 476.95,0 H 12.35 C 5.55,0 0.05,5.5 0.05,12.3 Z" style="fill:#d2d2d2;fill-opacity:1"/><path id="path9039" d="m 0.05,476.9 c 0,6.8 5.5,12.3 12.3,12.3 h 170.3 c 6.8,0 12.3,-5.5 12.3,-12.3 V 306.6 c 0,-6.8 -5.5,-12.3 -12.3,-12.3 H 12.35 c -6.8,0 -12.3,5.5 -12.3,12.3 0,0 0,170.3 0,170.3 z m 24.5,-158.1 h 145.9 V 464.7 H 24.55 Z" style="fill:#d2d2d2;fill-opacity:1"/><path id="path9041" d="m 231.55,135.9 c -6.8,0 -12.3,5.5 -12.3,12.3 v 109.5 c 0,6.8 5.5,12.3 12.3,12.3 h 109.5 c 6.8,0 12.3,-5.5 12.3,-12.3 0,-6.8 -5.5,-12.3 -12.3,-12.3 h -79.9 l 138.7,-138.7 c 4.8,-4.8 4.8,-12.5 0,-17.3 -4.8,-4.8 -12.5,-4.8 -17.3,0 l -138.7,138.7 v -79.9 c 0,-6.8 -5.5,-12.3 -12.3,-12.3 z" style="fill:#d2d2d2;fill-opacity:1"/></g></g></g></g></svg>