<svg xmlns="http://www.w3.org/2000/svg" xmlns:svg="http://www.w3.org/2000/svg" id="svg21426" width="32" height="32" version="1.1"><g id="g2816" transform="translate(11.691192,-0.22678118)"><circle style="display:inline;fill:#fff;fill-opacity:1;stroke:none;stroke-width:3.20092;stroke-linecap:round;stroke-linejoin:round;stroke-miterlimit:4;stroke-dasharray:none;stroke-dashoffset:0;stroke-opacity:1;paint-order:fill markers stroke" id="circle1230-1" cx="4.309" cy="16.227" r="16"/><path style="display:inline;fill:#d2d2d2;fill-opacity:1;stroke:none;stroke-width:3.20092;stroke-linecap:round;stroke-linejoin:round;stroke-miterlimit:4;stroke-dasharray:none;stroke-dashoffset:0;stroke-opacity:1;paint-order:fill markers stroke" id="path1237-9" d="M 4.308886,0.22684 A 15.999975,15.999975 0 0 0 0.62872,0.6752 v 5.54907 h 1.26e-4 v 9.91607 c 4.2e-5,0.53938 0.437375,0.97656 0.976731,0.97659 H 7.027964 A 11.622852,10.317978 0 0 1 18.204408,9.61987 11.622852,10.317978 0 0 1 18.868627,9.64067 15.999975,15.999975 0 0 0 4.308886,0.22681 Z"/><path style="display:inline;fill:#d2d2d2;fill-opacity:1;stroke:none;stroke-width:3.20092;stroke-linecap:round;stroke-linejoin:round;stroke-miterlimit:4;stroke-dasharray:none;stroke-dashoffset:0;stroke-opacity:1;paint-order:fill markers stroke" id="path1235-7" d="M -5.0367,3.26441 A 15.999975,15.999975 0 0 0 -11.69119,16.22674 15.999975,15.999975 0 0 0 4.308886,32.226791 15.999975,15.999975 0 0 0 13.446366,29.337958 11.622852,10.317978 0 0 1 6.99998,22.63634 h -7.34787 -3.56609 -0.14615 c -0.53936,-4e-5 -0.97653,-0.43721 -0.97657,-0.97658 z"/><path style="display:inline;fill:#d2d2d2;fill-opacity:1;stroke:none;stroke-width:3.20092;stroke-linecap:round;stroke-linejoin:round;stroke-miterlimit:4;stroke-dasharray:none;stroke-dashoffset:0;stroke-opacity:1;paint-order:fill markers stroke" id="circle883-5-6-3" d="m 18.204408,14.89852 a 5.6765565,5.039262 0 0 0 -5.676504,5.03941 5.6765565,5.039262 0 0 0 5.173999,5.016896 15.999975,15.999975 0 0 0 2.606849,-8.728086 15.999975,15.999975 0 0 0 -0.03472,-0.97598 5.6765565,5.039262 0 0 0 -2.069792,-0.35224 z"/></g><g id="g4353-3-2-0" transform="matrix(0.69534724,0,0,0.69534724,-4.1329119e-7,1.2004369e-4)" style="fill:#aeaeae;fill-opacity:1"><g id="g4311-2-6-2" style="fill:#aeaeae;fill-opacity:1"><g id="g4313-0-6-5" style="fill:#aeaeae;fill-opacity:1"><path id="path4315-8-0-9" d="m 14.757,46.02 c -1.412,0 -2.825,-0.521 -3.929,-1.569 -2.282,-2.17 -2.373,-5.78 -0.204,-8.063 L 23.382,22.97 10.637,9.645 C 8.46,7.37 8.54,3.76 10.816,1.582 c 2.277,-2.178 5.886,-2.097 8.063,0.179 l 16.505,17.253 c 2.104,2.2 2.108,5.665 0.013,7.872 L 18.893,44.247 c -1.123,1.177 -2.626,1.773 -4.136,1.773 z" style="fill:#aeaeae;fill-opacity:1"/></g></g></g></svg>