<?xml version="1.0" encoding="UTF-8" standalone="no"?>
<!-- Created with Inkscape (http://www.inkscape.org/) -->

<svg
   version="1.1"
   id="svg21426"
   width="32"
   height="32"
   sodipodi:docname="icon_next_configlist_page.svg"
   inkscape:version="1.2.2 (732a01da63, 2022-12-09)"
   inkscape:export-filename="icon_next_configlist_page.png"
   inkscape:export-xdpi="96"
   inkscape:export-ydpi="96"
   xmlns:inkscape="http://www.inkscape.org/namespaces/inkscape"
   xmlns:sodipodi="http://sodipodi.sourceforge.net/DTD/sodipodi-0.dtd"
   xmlns="http://www.w3.org/2000/svg"
   xmlns:svg="http://www.w3.org/2000/svg">
  <defs
     id="defs21430" />
  <sodipodi:namedview
     id="namedview21428"
     pagecolor="#ffffff"
     bordercolor="#666666"
     borderopacity="1.0"
     inkscape:pageshadow="2"
     inkscape:pageopacity="0.0"
     inkscape:pagecheckerboard="0"
     inkscape:showpageshadow="2"
     inkscape:deskcolor="#d1d1d1"
     showgrid="false"
     inkscape:zoom="10.907895"
     inkscape:cx="-3.437877"
     inkscape:cy="12.468034"
     inkscape:window-width="1920"
     inkscape:window-height="1009"
     inkscape:window-x="1912"
     inkscape:window-y="-8"
     inkscape:window-maximized="1"
     inkscape:current-layer="svg21426" />
  <inkscape:clipboard
     style="font-variation-settings:normal;opacity:1;vector-effect:none;fill:#d2d2d2;fill-opacity:1;stroke-width:0.2;stroke-linecap:butt;stroke-linejoin:round;stroke-miterlimit:4;stroke-dasharray:none;stroke-dashoffset:0;stroke-opacity:1;-inkscape-stroke:none;stop-color:#000000;stop-opacity:1"
     min="5508.2575,1163.7042"
     max="5546.2575,1201.7042"
     geom-min="5508.2575,1163.7042"
     geom-max="5546.2575,1201.7042" />
  <g
     id="g2816"
     transform="translate(11.691192,-0.22678118)">
    <circle
       style="display:inline;fill:#ffffff;fill-opacity:1;stroke:none;stroke-width:3.20092;stroke-linecap:round;stroke-linejoin:round;stroke-miterlimit:4;stroke-dasharray:none;stroke-dashoffset:0;stroke-opacity:1;paint-order:fill markers stroke"
       id="circle1230-1"
       cx="4.3088326"
       cy="16.226746"
       r="15.999974"
       inkscape:export-xdpi="339.98999"
       inkscape:export-ydpi="339.98999"
       inkscape:export-filename="E:\Desktop\icons\lifecompanion_icon_1024px.png" />
    <path
       style="display:inline;fill:#d2d2d2;fill-opacity:1;stroke:none;stroke-width:3.20092;stroke-linecap:round;stroke-linejoin:round;stroke-miterlimit:4;stroke-dasharray:none;stroke-dashoffset:0;stroke-opacity:1;paint-order:fill markers stroke"
       d="M 4.308886,0.22684 A 15.999975,15.999975 0 0 0 0.62872,0.6752 v 5.54907 h 1.26e-4 v 9.91607 c 4.2e-5,0.53938 0.437375,0.97656 0.976731,0.97659 H 7.027964 A 11.622852,10.317978 0 0 1 18.204408,9.61987 11.622852,10.317978 0 0 1 18.868627,9.64067 15.999975,15.999975 0 0 0 4.308886,0.22681 Z"
       id="path1237-9"
       inkscape:connector-curvature="0"
       inkscape:export-xdpi="339.98999"
       inkscape:export-ydpi="339.98999"
       inkscape:export-filename="E:\Desktop\icons\lifecompanion_icon_1024px.png" />
    <path
       style="display:inline;fill:#d2d2d2;fill-opacity:1;stroke:none;stroke-width:3.20092;stroke-linecap:round;stroke-linejoin:round;stroke-miterlimit:4;stroke-dasharray:none;stroke-dashoffset:0;stroke-opacity:1;paint-order:fill markers stroke"
       d="M -5.0367,3.26441 A 15.999975,15.999975 0 0 0 -11.69119,16.22674 15.999975,15.999975 0 0 0 4.308886,32.226791 15.999975,15.999975 0 0 0 13.446366,29.337958 11.622852,10.317978 0 0 1 6.99998,22.63634 h -7.34787 -3.56609 -0.14615 c -0.53936,-4e-5 -0.97653,-0.43721 -0.97657,-0.97658 z"
       id="path1235-7"
       inkscape:connector-curvature="0"
       inkscape:export-xdpi="339.98999"
       inkscape:export-ydpi="339.98999"
       inkscape:export-filename="E:\Desktop\icons\lifecompanion_icon_1024px.png" />
    <path
       style="display:inline;fill:#d2d2d2;fill-opacity:1;stroke:none;stroke-width:3.20092;stroke-linecap:round;stroke-linejoin:round;stroke-miterlimit:4;stroke-dasharray:none;stroke-dashoffset:0;stroke-opacity:1;paint-order:fill markers stroke"
       d="m 18.204408,14.89852 a 5.6765565,5.039262 0 0 0 -5.676504,5.03941 5.6765565,5.039262 0 0 0 5.173999,5.016896 15.999975,15.999975 0 0 0 2.606849,-8.728086 15.999975,15.999975 0 0 0 -0.03472,-0.97598 5.6765565,5.039262 0 0 0 -2.069792,-0.35224 z"
       id="circle883-5-6-3"
       inkscape:connector-curvature="0"
       inkscape:export-xdpi="339.98999"
       inkscape:export-ydpi="339.98999"
       inkscape:export-filename="E:\Desktop\icons\lifecompanion_icon_1024px.png" />
  </g>
  <g
     id="g4353-3-2-0"
     transform="matrix(0.69534724,0,0,0.69534724,-4.1329119e-7,1.2004369e-4)"
     style="fill:#aeaeae;fill-opacity:1"
     inkscape:export-filename="E:\Desktop\icons\icon_next_keylist.png"
     inkscape:export-xdpi="33.042061"
     inkscape:export-ydpi="33.042061">
    <g
       id="g4311-2-6-2"
       style="fill:#aeaeae;fill-opacity:1">
      <g
         id="g4313-0-6-5"
         style="fill:#aeaeae;fill-opacity:1">
        <path
           id="path4315-8-0-9"
           d="m 14.757,46.02 c -1.412,0 -2.825,-0.521 -3.929,-1.569 -2.282,-2.17 -2.373,-5.78 -0.204,-8.063 L 23.382,22.97 10.637,9.645 C 8.46,7.37 8.54,3.76 10.816,1.582 c 2.277,-2.178 5.886,-2.097 8.063,0.179 l 16.505,17.253 c 2.104,2.2 2.108,5.665 0.013,7.872 L 18.893,44.247 c -1.123,1.177 -2.626,1.773 -4.136,1.773 z"
           inkscape:connector-curvature="0"
           style="fill:#aeaeae;fill-opacity:1" />
      </g>
    </g>
    <g
       id="g4317-4-71-2"
       style="fill:#aeaeae;fill-opacity:1" />
    <g
       id="g4319-3-1-5"
       style="fill:#aeaeae;fill-opacity:1" />
    <g
       id="g4321-7-8-9"
       style="fill:#aeaeae;fill-opacity:1" />
    <g
       id="g4323-7-24-6"
       style="fill:#aeaeae;fill-opacity:1" />
    <g
       id="g4325-3-6-7"
       style="fill:#aeaeae;fill-opacity:1" />
    <g
       id="g4327-6-1-3"
       style="fill:#aeaeae;fill-opacity:1" />
    <g
       id="g4329-8-5-0"
       style="fill:#aeaeae;fill-opacity:1" />
    <g
       id="g4331-0-3-7"
       style="fill:#aeaeae;fill-opacity:1" />
    <g
       id="g4333-5-4-2"
       style="fill:#aeaeae;fill-opacity:1" />
    <g
       id="g4335-4-4-8"
       style="fill:#aeaeae;fill-opacity:1" />
    <g
       id="g4337-6-3-3"
       style="fill:#aeaeae;fill-opacity:1" />
    <g
       id="g4339-6-3-0"
       style="fill:#aeaeae;fill-opacity:1" />
    <g
       id="g4341-6-46-1"
       style="fill:#aeaeae;fill-opacity:1" />
    <g
       id="g4343-7-5-4"
       style="fill:#aeaeae;fill-opacity:1" />
    <g
       id="g4345-6-5-1"
       style="fill:#aeaeae;fill-opacity:1" />
  </g>
</svg>
