<?xml version="1.0" encoding="UTF-8" standalone="no"?>
<!-- Created with Inkscape (http://www.inkscape.org/) -->

<svg
   version="1.1"
   id="svg21440"
   width="32"
   height="32"
   sodipodi:docname="icon_switch_real_fullscreen.svg"
   inkscape:version="1.2.2 (732a01da63, 2022-12-09)"
   inkscape:export-filename="icon_switch_real_fullscreen.png"
   inkscape:export-xdpi="96"
   inkscape:export-ydpi="96"
   xmlns:inkscape="http://www.inkscape.org/namespaces/inkscape"
   xmlns:sodipodi="http://sodipodi.sourceforge.net/DTD/sodipodi-0.dtd"
   xmlns="http://www.w3.org/2000/svg"
   xmlns:svg="http://www.w3.org/2000/svg">
  <defs
     id="defs21444" />
  <sodipodi:namedview
     id="namedview21442"
     pagecolor="#ffffff"
     bordercolor="#666666"
     borderopacity="1.0"
     inkscape:pageshadow="2"
     inkscape:pageopacity="0.0"
     inkscape:pagecheckerboard="0"
     inkscape:showpageshadow="2"
     inkscape:deskcolor="#d1d1d1"
     showgrid="false"
     inkscape:zoom="3.9045238"
     inkscape:cx="35.471675"
     inkscape:cy="45.844259"
     inkscape:window-width="1920"
     inkscape:window-height="1009"
     inkscape:window-x="1912"
     inkscape:window-y="-8"
     inkscape:window-maximized="1"
     inkscape:current-layer="svg21440" />
  <inkscape:clipboard
     style="font-variation-settings:normal;opacity:1;vector-effect:none;fill:#d2d2d2;fill-opacity:1;stroke-width:0.24207239;stroke-linecap:butt;stroke-linejoin:miter;stroke-miterlimit:4;stroke-dasharray:none;stroke-dashoffset:0;stroke-opacity:1;-inkscape-stroke:none;stop-color:#000000;stop-opacity:1"
     min="4388.5248,605.8309"
     max="4494.6835,711.98981"
     geom-min="4388.5248,605.8309"
     geom-max="4494.6835,711.98981" />
  <g
     id="g21446"
     transform="translate(-4365.7307,-582.78071)" />
  <g
     id="g12465"
     style="fill:#d2d2d2;fill-opacity:1"
     transform="matrix(0.06538619,0,0,0.06539955,-117.88209,157.87973)">
    <g
       id="g12470"
       style="fill:#d2d2d2;fill-opacity:1">
      <path
         id="path9037-6"
         d="m 1802.9592,-2401.7797 v 222.8 c 0,6.8 5.5,12.3 12.3,12.3 6.8,0 12.3,-5.5 12.3,-12.3 v -210.6 h 440.2 v 440.2 h -211.9 c -6.8,0 -12.3,5.5 -12.3,12.3 0,6.8 5.5,12.3 12.3,12.3 h 224 c 6.8,0 12.3,-5.5 12.3,-12.3 v -464.7 c 0,-6.8 -5.5,-12.3 -12.3,-12.3 h -464.6 c -6.8,0 -12.3,5.5 -12.3,12.3 z"
         inkscape:connector-curvature="0"
         style="fill:#d2d2d2;fill-opacity:1" />
      <path
         id="path9039-4"
         d="m 1802.9592,-1937.1797 c 0,6.8 5.5,12.3 12.3,12.3 h 170.3 c 6.8,0 12.3,-5.5 12.3,-12.3 v -170.3 c 0,-6.8 -5.5,-12.3 -12.3,-12.3 h -170.3 c -6.8,0 -12.3,5.5 -12.3,12.3 0,0 0,170.3 0,170.3 z m 24.5,-158.1 h 145.9 v 145.9 h -145.9 z"
         inkscape:connector-curvature="0"
         style="fill:#d2d2d2;fill-opacity:1" />
      <path
         id="path9041-4"
         d="m 2194.0592,-2194.1797 c 6.8,0 12.3,-5.5 12.3,-12.3 v -109.5 c 0,-6.8 -5.5,-12.3 -12.3,-12.3 h -109.5 c -6.8,0 -12.3,5.5 -12.3,12.3 0,6.8 5.5,12.3 12.3,12.3 h 79.9 l -138.7,138.7 c -4.8,4.8 -4.8,12.5 0,17.3 4.8,4.8 12.5,4.8 17.3,0 l 138.7,-138.7 v 79.9 c 0,6.8 5.5,12.3 12.3,12.3 z"
         inkscape:connector-curvature="0"
         style="fill:#d2d2d2;fill-opacity:1" />
    </g>
  </g>
</svg>
