<svg xmlns="http://www.w3.org/2000/svg" xmlns:svg="http://www.w3.org/2000/svg" id="svg21344" width="134.87" height="118.228" version="1.1"><g id="g21350" transform="translate(-4741.7388,-1180.0784)"><g id="g8729" transform="matrix(0.24207239,0,0,0.24207239,4764.9646,1180.0784)" style="fill:#d2d2d2;fill-opacity:1"><g id="g8689" style="fill:#d2d2d2;fill-opacity:1"><path id="path8691" d="M 461.2,85.5 C 461.2,27.1 348.5,0 244.2,0 139.9,0 27.2,26.1 27.2,84.5 c 0,0.2 0,318.7 0,318.7 0,58.2 112.1,85.2 216,85.2 100.8,0 209.3,-25.4 217.5,-80.1 0.3,-1.3 0.5,-2.6 0.5,-4 V 85.5 c 0,0.1 0,0 0,0 z m -41.6,317.7 v 0 c 0,13.5 -61.3,44.6 -175.4,44.6 -114.1,0 -175.4,-32.1 -175.4,-44.6 V 137.5 c 10.9,5.7 23.5,10.6 37.4,14.8 v 104.6 c 0,11.4 9.3,20.8 20.8,20.8 11.5,0 20.8,-9.3 20.8,-19.7 v -95.9 c 12.4,2.2 25.3,3.9 38.4,5.2 v 53.3 c 0,11.4 9.3,20.8 20.8,20.8 11.4,0 20.8,-9.3 20.8,-20.8 v -50.7 c 5.5,0.2 11.1,0.2 16.6,0.2 8.3,0 16.6,-0.2 24.9,-0.5 v 99.8 c 0,11.4 9.3,20.8 20.8,20.8 11.5,0 20.8,-8.3 20.8,-19.7 v -104 c 42.1,-4.7 81.2,-14 109,-28.3 v 265 z M 244.2,130.4 C 129.5,130.4 67.9,99.1 67.9,85.5 c 0,-13.6 62.6,-44.8 176.3,-44.8 113.7,0 176.3,31.3 176.3,44.9 0,13.6 -61.6,44.8 -176.3,44.8 z" style="fill:#d2d2d2;fill-opacity:1"/></g></g><g id="g5032" transform="matrix(0.3841615,0,0,0.3841615,4737.5946,1188.5237)" style="fill:#aeaeae;fill-opacity:1"><path id="path4994" d="M 192.231,104.082 V 102 c 0,-12.407 -10.094,-22.5 -22.5,-22.5 -2.802,0 -5.484,0.519 -7.961,1.459 C 159.665,70.722 150.583,63 139.731,63 c -2.947,0 -5.76,0.575 -8.341,1.61 C 128.667,55.162 119.624,48 109.231,48 c -2.798,0 -5.496,0.541 -8,1.516 V 22.5 C 101.231,10.093 91.137,0 78.731,0 66.325,0 56.231,10.093 56.231,22.5 V 88.759 C 52.293,83.73 47.558,79.347 42.062,77.088 35.929,74.568 29.475,74.869 23.395,77.96 12.213,83.646 7.603,97.349 13.118,108.508 l 27.95,56.563 c 0.79,1.552 19.731,38.008 54.023,38.008 h 40 c 31.54,0 57.199,-25.794 57.199,-57.506 l -0.031,-41.491 z m -57.139,83.997 h -40 c -24.702,0 -40.091,-28.738 -40.646,-29.796 l -27.88,-56.42 c -1.924,-3.893 -0.33,-8.519 3.629,-10.532 2.182,-1.11 4.081,-1.223 6.158,-0.372 8.281,3.395 16.41,19.756 19.586,29.265 l 2.41,7.259 12.883,-4.559 V 22.5 c 0,-4.136 3.364,-7.5 7.5,-7.5 4.136,0 7.5,3.364 7.5,7.5 V 109 h 0.136 14.864 0.136 V 71 c 0,-4.187 3.748,-8 7.864,-8 4.262,0 8,3.505 8,7.5 v 15 26 h 15 v -26 c 0,-4.136 3.364,-7.5 7.5,-7.5 4.136,0 7.5,3.364 7.5,7.5 v 16.5 16.5 h 15 V 102 c 0,-4.136 3.364,-7.5 7.5,-7.5 4.136,0 7.5,3.364 7.5,7.5 v 10.727 h 0.035 l 0.025,32.852 c -0.001,23.435 -18.932,42.5 -42.2,42.5 z" style="fill:#aeaeae;fill-opacity:1"/></g></g></svg>