<?xml version="1.0" encoding="UTF-8" standalone="no"?>
<!-- Created with Inkscape (http://www.inkscape.org/) -->

<svg
   version="1.1"
   id="svg21198"
   width="150.4283"
   height="148.79602"
   xmlns:inkscape="http://www.inkscape.org/namespaces/inkscape"
   xmlns:sodipodi="http://sodipodi.sourceforge.net/DTD/sodipodi-0.dtd"
   xmlns="http://www.w3.org/2000/svg"
   xmlns:svg="http://www.w3.org/2000/svg">
  <defs
     id="defs21202" />
  <sodipodi:namedview
     id="namedview21200"
     pagecolor="#ffffff"
     bordercolor="#666666"
     borderopacity="1.0"
     inkscape:pageshadow="2"
     inkscape:pageopacity="0.0"
     inkscape:pagecheckerboard="0" />
  <inkscape:clipboard
     min="4338.0326,1012.6346"
     max="4488.4609,1161.4307"
     geom-min="4338.0326,1012.6346"
     geom-max="4488.4609,1161.4307" />
  <g
     id="g21204"
     transform="translate(-4338.0326,-1012.6346)">
    <g
       id="g6980-4-5-9"
       transform="matrix(0.39199762,0,0,0.39199762,4338.0326,1011.8185)"
       style="fill:#d2d2d2;fill-opacity:1"
       inkscape:export-filename="E:\Documents\Temp\icon_change_key_style.png"
       inkscape:export-xdpi="4.6300001"
       inkscape:export-ydpi="4.6300001">
      <g
         id="g6938-3-4-3"
         style="fill:#d2d2d2;fill-opacity:1">
        <path
           id="path6940-3-1-9"
           d="M 354.86,88.952 C 342.885,70.368 327.715,54.245 310.154,41.221 L 349.106,2.082 H 235.742 v 113.91 l 52.964,-53.219 c 40.142,28.131 65.042,74.724 65.042,124.571 0,83.744 -68.13,151.874 -151.874,151.874 v 30 c 100.286,0 181.874,-81.588 181.874,-181.874 0,-35.039 -9.989,-69.062 -28.888,-98.392 z"
           inkscape:connector-curvature="0"
           style="fill:#d2d2d2;fill-opacity:1" />
        <path
           id="path6942-2-9-6"
           d="m 0,196.405 c 0,35.038 9.989,69.061 28.888,98.391 11.975,18.584 27.145,34.707 44.706,47.731 L 34.642,381.666 H 148.007 V 267.756 L 95.043,320.975 C 54.9,292.844 30,246.252 30,196.405 30,112.661 98.13,44.531 181.874,44.531 v -30 C 81.588,14.531 0,96.12 0,196.405 Z"
           inkscape:connector-curvature="0"
           style="fill:#d2d2d2;fill-opacity:1" />
      </g>
      <g
         id="g6944-2-3-5"
         style="fill:#d2d2d2;fill-opacity:1" />
      <g
         id="g6946-4-3-4"
         style="fill:#d2d2d2;fill-opacity:1" />
      <g
         id="g6948-3-9-9"
         style="fill:#d2d2d2;fill-opacity:1" />
      <g
         id="g6950-1-1-6"
         style="fill:#d2d2d2;fill-opacity:1" />
      <g
         id="g6952-6-1-6"
         style="fill:#d2d2d2;fill-opacity:1" />
      <g
         id="g6954-3-9-6"
         style="fill:#d2d2d2;fill-opacity:1" />
      <g
         id="g6956-9-3-1"
         style="fill:#d2d2d2;fill-opacity:1" />
      <g
         id="g6958-6-8-9"
         style="fill:#d2d2d2;fill-opacity:1" />
      <g
         id="g6960-6-0-5"
         style="fill:#d2d2d2;fill-opacity:1" />
      <g
         id="g6962-1-2-2"
         style="fill:#d2d2d2;fill-opacity:1" />
      <g
         id="g6964-7-8-9"
         style="fill:#d2d2d2;fill-opacity:1" />
      <g
         id="g6966-7-9-9"
         style="fill:#d2d2d2;fill-opacity:1" />
      <g
         id="g6968-9-5-0"
         style="fill:#d2d2d2;fill-opacity:1" />
      <g
         id="g6970-1-3-0"
         style="fill:#d2d2d2;fill-opacity:1" />
      <g
         id="g6972-4-0-5"
         style="fill:#d2d2d2;fill-opacity:1" />
    </g>
    <g
       id="g8600"
       transform="matrix(0.24207239,0,0,0.24207239,4365.1116,1036.1301)"
       style="fill:#aeaeae;fill-opacity:1"
       inkscape:export-filename="E:\Documents\Temp\icon_change_key_style.png"
       inkscape:export-xdpi="4.6300001"
       inkscape:export-ydpi="4.6300001">
      <g
         id="g8560"
         style="fill:#aeaeae;fill-opacity:1">
        <path
           id="path8562"
           d="m 423.257,51.829 c -0.808,-2.045 -2.67,-3.484 -4.853,-3.751 -2.177,-0.266 -4.335,0.682 -5.612,2.472 -7.581,10.629 -17.529,14.172 -29.053,18.275 -9.292,3.31 -18.901,6.73 -29.286,14.186 -14.687,10.544 -21.405,24.917 -18.055,38.54 l -0.358,0.459 C 329.907,113.113 323.234,104.884 316.192,97.536 283.245,63.158 237.208,42.49 189.881,40.833 c -2.085,-0.073 -4.204,-0.11 -6.298,-0.11 -52.846,0 -103.428,23.624 -138.775,64.813 -35.162,40.976 -50.747,94.317 -42.757,146.346 0.668,4.349 1.504,8.743 2.487,13.063 12.996,57.202 46.189,100.717 91.069,119.383 11.063,4.602 22.222,6.934 33.163,6.934 27.183,0 50.926,-14.539 65.143,-39.889 5.404,-9.646 8.891,-19.621 10.36,-29.651 0.866,-5.92 0.274,-11.835 -0.3,-17.567 -0.591,-5.9 -1.149,-11.476 -0.256,-17.09 2.047,-12.869 11.036,-20.553 24.047,-20.553 3.701,0 7.483,0.609 11.26,1.812 -4.422,8.11 -8.438,15.854 -11.947,23.032 -7.437,15.212 -12.567,27.81 -15.252,37.44 -1.655,5.939 -6.052,21.722 4.67,29.164 3.405,2.363 7.722,3.197 12.215,2.361 4.049,-0.752 16.369,-3.041 51.378,-42.896 9.396,-10.695 19.521,-23.072 30.104,-36.794 27.168,-9.15 48.31,-31.921 53.903,-58.087 1.4,-6.541 1.984,-13.541 1.735,-20.812 10.172,-15.72 19.094,-30.388 28.072,-46.156 0.172,-0.304 0.342,-0.628 0.51,-0.96 13.031,-3.569 24.254,-13.71 30.842,-27.891 9.618,-20.697 8.909,-47.297 -1.997,-74.896 z m -146.872,98.005 c -4.713,7.485 -12.814,11.954 -21.673,11.954 -4.81,0 -9.515,-1.361 -13.605,-3.937 -5.782,-3.642 -9.803,-9.317 -11.316,-15.98 -1.513,-6.663 -0.345,-13.518 3.298,-19.301 4.714,-7.485 12.816,-11.954 21.675,-11.954 4.811,0 9.515,1.361 13.604,3.938 5.782,3.64 9.802,9.315 11.316,15.979 1.513,6.664 0.342,13.518 -3.299,19.301 z m 33.207,46.353 c 12.934,-19.057 26.612,-38 39.604,-54.85 2.106,1.902 4.461,3.76 7.012,5.53 4.227,2.933 8.648,5.201 13.164,6.754 -10.969,18.758 -22.763,37.342 -37.043,58.375 -23.463,34.571 -47.859,66.684 -68.695,90.424 -11.638,13.26 -21.823,23.498 -29.671,29.839 3.029,-9.69 8.818,-22.989 16.875,-38.746 14.407,-28.177 35.273,-62.741 58.754,-97.326 z M 82.506,196.023 c -4.811,0 -9.516,-1.361 -13.607,-3.938 -5.782,-3.641 -9.801,-9.314 -11.315,-15.979 -1.514,-6.664 -0.342,-13.519 3.301,-19.302 4.711,-7.484 12.813,-11.953 21.671,-11.953 4.812,0 9.517,1.361 13.607,3.938 11.936,7.518 15.532,23.345 8.019,35.279 -4.716,7.486 -12.819,11.955 -21.676,11.955 z m -26.818,56.335 c 4.713,-7.486 12.814,-11.955 21.673,-11.955 4.81,0 9.514,1.362 13.606,3.938 5.782,3.641 9.801,9.315 11.315,15.979 1.515,6.662 0.343,13.516 -3.301,19.301 -4.711,7.483 -12.813,11.953 -21.671,11.953 -4.811,0 -9.517,-1.361 -13.609,-3.938 -5.782,-3.642 -9.8,-9.315 -11.313,-15.979 -1.512,-6.662 -0.339,-13.517 3.3,-19.299 z M 137.62,100.414 c 4.713,-7.485 12.815,-11.954 21.673,-11.954 4.809,0 9.514,1.361 13.604,3.937 11.937,7.516 15.533,23.344 8.019,35.28 -4.715,7.486 -12.817,11.955 -21.675,11.955 -4.81,0 -9.515,-1.361 -13.605,-3.938 -5.781,-3.64 -9.799,-9.314 -11.313,-15.979 -1.516,-6.663 -0.344,-13.517 3.297,-19.301 z"
           inkscape:connector-curvature="0"
           style="fill:#aeaeae;fill-opacity:1" />
      </g>
      <g
         id="g8564"
         style="fill:#aeaeae;fill-opacity:1" />
      <g
         id="g8566"
         style="fill:#aeaeae;fill-opacity:1" />
      <g
         id="g8568"
         style="fill:#aeaeae;fill-opacity:1" />
      <g
         id="g8570"
         style="fill:#aeaeae;fill-opacity:1" />
      <g
         id="g8572"
         style="fill:#aeaeae;fill-opacity:1" />
      <g
         id="g8574"
         style="fill:#aeaeae;fill-opacity:1" />
      <g
         id="g8576"
         style="fill:#aeaeae;fill-opacity:1" />
      <g
         id="g8578"
         style="fill:#aeaeae;fill-opacity:1" />
      <g
         id="g8580"
         style="fill:#aeaeae;fill-opacity:1" />
      <g
         id="g8582"
         style="fill:#aeaeae;fill-opacity:1" />
      <g
         id="g8584"
         style="fill:#aeaeae;fill-opacity:1" />
      <g
         id="g8586"
         style="fill:#aeaeae;fill-opacity:1" />
      <g
         id="g8588"
         style="fill:#aeaeae;fill-opacity:1" />
      <g
         id="g8590"
         style="fill:#aeaeae;fill-opacity:1" />
      <g
         id="g8592"
         style="fill:#aeaeae;fill-opacity:1" />
    </g>
  </g>
</svg>
