<?xml version="1.0" encoding="UTF-8" standalone="no"?>
<!-- Created with Inkscape (http://www.inkscape.org/) -->

<svg
   version="1.1"
   id="svg13679"
   width="201.95753"
   height="76.687958"
   xmlns:inkscape="http://www.inkscape.org/namespaces/inkscape"
   xmlns:sodipodi="http://sodipodi.sourceforge.net/DTD/sodipodi-0.dtd"
   xmlns="http://www.w3.org/2000/svg"
   xmlns:svg="http://www.w3.org/2000/svg">
  <defs
     id="defs13683" />
  <sodipodi:namedview
     id="namedview13681"
     pagecolor="#ffffff"
     bordercolor="#666666"
     borderopacity="1.0"
     inkscape:pageshadow="2"
     inkscape:pageopacity="0.0"
     inkscape:pagecheckerboard="0" />
  <inkscape:clipboard
     min="4828.2285,1473.7404"
     max="5030.1861,1550.4283"
     geom-min="4828.2285,1473.7404"
     geom-max="5030.1861,1550.4283" />
  <g
     id="g13685"
     transform="translate(-4828.2285,-1473.7404)">
    <rect
       style="fill:#d2d2d2;fill-opacity:1;stroke:none;stroke-width:3;stroke-linejoin:round;stroke-miterlimit:4;stroke-dasharray:none;stroke-opacity:1"
       id="rect9573"
       width="201.95753"
       height="17.982519"
       x="4828.2285"
       y="1532.4458"
       inkscape:export-filename="E:\Documents\Temp\icon_press_release_reach_time.png"
       inkscape:export-xdpi="3.45"
       inkscape:export-ydpi="3.45" />
    <ellipse
       style="fill:#d2d2d2;fill-opacity:1;stroke:none;stroke-width:1.50389;stroke-linejoin:round;stroke-miterlimit:4;stroke-dasharray:none;stroke-opacity:1"
       id="path9575"
       cx="4928.8613"
       cy="1519.7393"
       rx="46.866474"
       ry="9.775445"
       inkscape:export-filename="E:\Documents\Temp\icon_press_release_reach_time.png"
       inkscape:export-xdpi="3.45"
       inkscape:export-ydpi="3.45" />
    <rect
       style="fill:#d2d2d2;fill-opacity:1;stroke:none;stroke-width:3;stroke-linejoin:round;stroke-miterlimit:4;stroke-dasharray:none;stroke-opacity:1"
       id="rect9577"
       width="94.062408"
       height="27.319599"
       x="4881.8301"
       y="1519.3047"
       inkscape:export-filename="E:\Documents\Temp\icon_press_release_reach_time.png"
       inkscape:export-xdpi="3.45"
       inkscape:export-ydpi="3.45" />
    <path
       id="path9583"
       d="m 4986.4274,1474.2986 v 5e-4 c 0,0 0.01,0 0.015,0.01 0.371,0.062 0.7039,0.2004 1.0104,0.3726 0.095,0.052 0.1726,0.1085 0.256,0.1687 0.2082,0.1483 0.3901,0.3214 0.5443,0.5228 0.059,0.073 0.1235,0.1365 0.1724,0.2176 0.027,0.041 0.065,0.069 0.088,0.1108 0.1388,0.2547 0.2247,0.5284 0.2647,0.8086 0.01,0.028 0,0.059 3e-4,0.089 0.035,0.3138 0,0.6304 -0.082,0.947 -0.012,0.044 0,0.087 -0.011,0.1316 l -6.4282,20.6061 c -0.4915,1.5774 -2.2989,2.6291 -4.0413,2.347 -1.7389,-0.2827 -2.7498,-1.7913 -2.2568,-3.3723 l 3.4638,-11.1093 c -10.6956,7.5768 -23.0448,12.2051 -23.6302,12.4203 -37.5892,15.1139 -77.192,5.8355 -88.2829,-20.6823 -0.5489,-1.3131 0.1227,-2.8504 1.515,-3.6411 0.1489,-0.085 0.3038,-0.16 0.4675,-0.2279 1.7025,-0.6836 3.5732,-0.063 4.1825,1.3879 9.8783,23.6204 45.7302,31.6537 80.0184,17.869 0.1606,-0.058 12.9227,-4.8354 23.0239,-12.2757 l -15.4288,1.6536 c -1.8087,0.1925 -3.3042,-0.9431 -3.3455,-2.5347 -0.044,-1.593 1.389,-3.0336 3.1973,-3.2357 l 24.3205,-2.6067 c 0.3307,-0.033 0.6534,-0.022 0.9625,0.027 z"
       inkscape:connector-curvature="0"
       style="fill:#d2d2d2;fill-opacity:1;stroke-width:1.40042"
       inkscape:export-filename="E:\Documents\Temp\icon_press_release_reach_time.png"
       inkscape:export-xdpi="3.45"
       inkscape:export-ydpi="3.45" />
  </g>
</svg>
