<svg xmlns="http://www.w3.org/2000/svg" xmlns:svg="http://www.w3.org/2000/svg" id="svg13659" width="213.376" height="105.97" version="1.1"><g id="g13665" transform="translate(-5260.4598,-1538.0878)"><rect style="fill:#d2d2d2;fill-opacity:1;stroke:none;stroke-width:3;stroke-linejoin:round;stroke-miterlimit:4;stroke-dasharray:none;stroke-opacity:1" id="rect9573-9" width="201.958" height="17.983" x="5271.878" y="1626.076"/><ellipse style="fill:#d2d2d2;fill-opacity:1;stroke:none;stroke-width:1.50389;stroke-linejoin:round;stroke-miterlimit:4;stroke-dasharray:none;stroke-opacity:1" id="path9575-0" cx="5372.511" cy="1613.369" rx="46.866" ry="9.775"/><rect style="fill:#d2d2d2;fill-opacity:1;stroke:none;stroke-width:3;stroke-linejoin:round;stroke-miterlimit:4;stroke-dasharray:none;stroke-opacity:1" id="rect9577-2" width="94.062" height="27.32" x="5325.48" y="1612.935"/><path id="path9583-7" d="m 5369.7544,1598.565 2e-4,-5e-4 c 0,0 0.01,0 0.018,0 0.3666,0.084 0.7271,0.083 1.0761,0.041 0.1077,-0.012 0.201,-0.034 0.301,-0.058 0.2491,-0.058 0.4833,-0.1482 0.7026,-0.2755 0.082,-0.045 0.1663,-0.079 0.2424,-0.1354 0.041,-0.028 0.086,-0.039 0.1236,-0.069 0.2255,-0.1825 0.4093,-0.4027 0.5532,-0.6465 0.02,-0.022 0.023,-0.054 0.034,-0.082 0.152,-0.2767 0.2405,-0.5828 0.2855,-0.9067 0.01,-0.045 0.033,-0.08 0.04,-0.1258 l 1.9201,-21.4999 c 0.1475,-1.6456 -1.1219,-3.3074 -2.8401,-3.7114 -1.7152,-0.4022 -3.2252,0.6066 -3.3727,2.2561 l -1.0369,11.5905 c -6.9957,-11.0844 -16.6448,-20.0743 -17.1038,-20.4966 -28.9792,-28.3123 -69.1262,-34.8457 -89.4957,-14.5655 -1.0083,1.0043 -0.9741,2.6815 0.011,3.9436 0.1052,0.1354 0.2198,0.2639 0.3452,0.3891 1.3129,1.2814 3.2788,1.4215 4.3956,0.3128 18.1432,-18.0646 54.348,-11.8113 80.783,14.0129 0.1263,0.1149 10.1002,9.4001 16.5985,20.1316 l -13.6307,-7.4152 c -1.5984,-0.868 -3.4141,-0.3889 -4.0595,1.0665 -0.6485,1.4557 0.1265,3.3341 1.7209,4.2108 l 21.4861,11.6887 c 0.2931,0.1567 0.5956,0.2697 0.9,0.3423 z" style="fill:#d2d2d2;fill-opacity:1;stroke-width:1.40042"/></g></svg>