<?xml version="1.0" encoding="UTF-8" standalone="no"?>
<!-- Created with Inkscape (http://www.inkscape.org/) -->

<svg
   version="1.1"
   id="svg22455"
   width="155.72028"
   height="147.9256"
   xmlns:inkscape="http://www.inkscape.org/namespaces/inkscape"
   xmlns:sodipodi="http://sodipodi.sourceforge.net/DTD/sodipodi-0.dtd"
   xmlns="http://www.w3.org/2000/svg"
   xmlns:svg="http://www.w3.org/2000/svg">
  <defs
     id="defs22459" />
  <sodipodi:namedview
     id="namedview22457"
     pagecolor="#ffffff"
     bordercolor="#666666"
     borderopacity="1.0"
     inkscape:pageshadow="2"
     inkscape:pageopacity="0.0"
     inkscape:pagecheckerboard="0" />
  <inkscape:clipboard
     min="-565.91958,2346.8008"
     max="-410.19931,2494.7264"
     geom-min="-565.91958,2346.8008"
     geom-max="-410.19931,2494.7264" />
  <g
     id="g22461"
     transform="translate(565.91958,-2346.8008)">
    <g
       id="g4819-9-6-0"
       transform="matrix(0.90067477,0,0,0.97858671,-527.20202,2378.6551)"
       style="fill:#d2d2d2;fill-opacity:1"
       inkscape:export-filename="C:\Users\Mathieu\tmp\icon_speak_all.png"
       inkscape:export-xdpi="43.892921"
       inkscape:export-ydpi="43.892921">
      <g
         id="g4779-4-6-56"
         style="fill:#d2d2d2;fill-opacity:1">
        <path
           id="path4781-3-5-5"
           d="m 46.547,75.521 c 0,1.639 -0.947,3.128 -2.429,3.823 -0.573,0.271 -1.187,0.402 -1.797,0.402 -0.966,0 -1.923,-0.332 -2.696,-0.973 L 16.527,59.633 H 4.225 C 1.892,59.635 0,57.742 0,55.409 V 38.576 C 0,36.242 1.892,34.35 4.225,34.35 H 16.528 L 39.626,15.21 c 1.262,-1.046 3.012,-1.269 4.493,-0.569 1.481,0.695 2.429,2.185 2.429,3.823 z m 16.237,-6.602 c -0.103,0.007 -0.202,0.011 -0.304,0.011 -1.116,0 -2.192,-0.441 -2.987,-1.237 l -0.565,-0.567 c -1.482,-1.479 -1.656,-3.822 -0.408,-5.504 3.164,-4.266 4.834,-9.323 4.834,-14.628 0,-5.706 -1.896,-11.058 -5.484,-15.478 -1.366,-1.68 -1.24,-4.12 0.291,-5.65 l 0.564,-0.565 c 0.844,-0.844 1.975,-1.304 3.199,-1.231 1.192,0.06 2.305,0.621 3.061,1.545 4.977,6.09 7.606,13.484 7.606,21.38 0,7.354 -2.325,14.354 -6.725,20.24 -0.735,0.981 -1.859,1.597 -3.082,1.684 z m 17.468,13.057 c -0.764,0.903 -1.869,1.445 -3.052,1.495 -0.058,0.002 -0.117,0.004 -0.177,0.004 -1.119,0 -2.193,-0.442 -2.988,-1.237 L 73.48,81.683 c -1.551,-1.55 -1.656,-4.029 -0.246,-5.707 6.814,-8.104 10.568,-18.396 10.568,-28.982 0,-11.011 -4.019,-21.611 -11.314,-29.847 -1.479,-1.672 -1.404,-4.203 0.17,-5.783 l 0.554,-0.555 c 0.822,-0.826 1.89,-1.281 3.115,-1.242 1.163,0.033 2.263,0.547 3.036,1.417 8.818,9.928 13.675,22.718 13.675,36.01 0.002,12.789 -4.539,25.213 -12.786,34.982 z"
           inkscape:connector-curvature="0"
           style="fill:#d2d2d2;fill-opacity:1" />
      </g>
      <g
         id="g4783-9-2-5"
         style="fill:#d2d2d2;fill-opacity:1" />
      <g
         id="g4785-4-7-5"
         style="fill:#d2d2d2;fill-opacity:1" />
      <g
         id="g4787-1-6-86"
         style="fill:#d2d2d2;fill-opacity:1" />
      <g
         id="g4789-2-0-6"
         style="fill:#d2d2d2;fill-opacity:1" />
      <g
         id="g4791-5-7-4"
         style="fill:#d2d2d2;fill-opacity:1" />
      <g
         id="g4793-0-8-3"
         style="fill:#d2d2d2;fill-opacity:1" />
      <g
         id="g4795-9-0-16"
         style="fill:#d2d2d2;fill-opacity:1" />
      <g
         id="g4797-6-9-9"
         style="fill:#d2d2d2;fill-opacity:1" />
      <g
         id="g4799-7-2-8"
         style="fill:#d2d2d2;fill-opacity:1" />
      <g
         id="g4801-5-9-7"
         style="fill:#d2d2d2;fill-opacity:1" />
      <g
         id="g4803-4-5-2"
         style="fill:#d2d2d2;fill-opacity:1" />
      <g
         id="g4805-1-2-3"
         style="fill:#d2d2d2;fill-opacity:1" />
      <g
         id="g4807-5-2-2"
         style="fill:#d2d2d2;fill-opacity:1" />
      <g
         id="g4809-0-7-8"
         style="fill:#d2d2d2;fill-opacity:1" />
      <g
         id="g4811-8-9-3"
         style="fill:#d2d2d2;fill-opacity:1" />
    </g>
    <g
       id="g6980"
       transform="matrix(0.40578784,0,0,0.38970451,-565.91958,2345.9894)"
       style="fill:#d2d2d2;fill-opacity:1"
       inkscape:export-filename="E:\Documents\Temp\icon_enable_disable_sound.png"
       inkscape:export-xdpi="18.49"
       inkscape:export-ydpi="18.49">
      <g
         id="g6938"
         style="fill:#d2d2d2;fill-opacity:1">
        <path
           id="path6940"
           d="M 354.86,88.952 C 342.885,70.368 327.715,54.245 310.154,41.221 L 349.106,2.082 H 235.742 v 113.91 l 52.964,-53.219 c 40.142,28.131 65.042,74.724 65.042,124.571 0,83.744 -68.13,151.874 -151.874,151.874 v 30 c 100.286,0 181.874,-81.588 181.874,-181.874 0,-35.039 -9.989,-69.062 -28.888,-98.392 z"
           inkscape:connector-curvature="0"
           style="fill:#d2d2d2;fill-opacity:1" />
        <path
           id="path6942"
           d="m 0,196.405 c 0,35.038 9.989,69.061 28.888,98.391 11.975,18.584 27.145,34.707 44.706,47.731 L 34.642,381.666 H 148.007 V 267.756 L 95.043,320.975 C 54.9,292.844 30,246.252 30,196.405 30,112.661 98.13,44.531 181.874,44.531 v -30 C 81.588,14.531 0,96.12 0,196.405 Z"
           inkscape:connector-curvature="0"
           style="fill:#d2d2d2;fill-opacity:1" />
      </g>
      <g
         id="g6944"
         style="fill:#d2d2d2;fill-opacity:1" />
      <g
         id="g6946"
         style="fill:#d2d2d2;fill-opacity:1" />
      <g
         id="g6948"
         style="fill:#d2d2d2;fill-opacity:1" />
      <g
         id="g6950"
         style="fill:#d2d2d2;fill-opacity:1" />
      <g
         id="g6952"
         style="fill:#d2d2d2;fill-opacity:1" />
      <g
         id="g6954"
         style="fill:#d2d2d2;fill-opacity:1" />
      <g
         id="g6956"
         style="fill:#d2d2d2;fill-opacity:1" />
      <g
         id="g6958"
         style="fill:#d2d2d2;fill-opacity:1" />
      <g
         id="g6960"
         style="fill:#d2d2d2;fill-opacity:1" />
      <g
         id="g6962"
         style="fill:#d2d2d2;fill-opacity:1" />
      <g
         id="g6964"
         style="fill:#d2d2d2;fill-opacity:1" />
      <g
         id="g6966"
         style="fill:#d2d2d2;fill-opacity:1" />
      <g
         id="g6968"
         style="fill:#d2d2d2;fill-opacity:1" />
      <g
         id="g6970"
         style="fill:#d2d2d2;fill-opacity:1" />
      <g
         id="g6972"
         style="fill:#d2d2d2;fill-opacity:1" />
    </g>
  </g>
</svg>
