<svg xmlns="http://www.w3.org/2000/svg" xmlns:svg="http://www.w3.org/2000/svg" id="svg22541" width="32" height="58" version="1.1"><g id="g22547" transform="translate(1271,-1454.5197)"><g id="g7619" transform="translate(-1284,1454.5197)" style="fill:#d2d2d2;fill-opacity:1"><g id="g7562" style="fill:#d2d2d2;fill-opacity:1"><path id="path7558" d="m 44,28 c -0.552,0 -1,0.447 -1,1 v 6 C 43,42.72 36.72,49 29,49 21.28,49 15,42.72 15,35 v -6 c 0,-0.553 -0.448,-1 -1,-1 -0.552,0 -1,0.447 -1,1 v 6 c 0,8.485 6.644,15.429 15,15.949 V 56 h -5 c -0.552,0 -1,0.447 -1,1 0,0.553 0.448,1 1,1 h 12 c 0.552,0 1,-0.447 1,-1 0,-0.553 -0.448,-1 -1,-1 H 30 V 50.949 C 38.356,50.429 45,43.484 45,35 v -6 c 0,-0.553 -0.448,-1 -1,-1 z" style="fill:#d2d2d2;fill-opacity:1"/><path id="path7560" d="m 29,46 c 6.065,0 11,-4.935 11,-11 V 11 C 40,4.935 35.065,0 29,0 22.935,0 18,4.935 18,11 v 24 c 0,6.065 4.935,11 11,11 z" style="fill:#d2d2d2;fill-opacity:1"/></g></g></g></svg>