<svg xmlns="http://www.w3.org/2000/svg" xmlns:svg="http://www.w3.org/2000/svg" id="svg22346" width="60.915" height="72.202" version="1.1"><g id="g22352" transform="translate(-4789.4716,-449.2096)"><path id="path5328" d="m 4810.4376,457.1962 v 42.7611 c -2.179,-2.1205 -5.219,-3.4243 -8.54,-3.4243 -6.87,0 -12.426,5.5693 -12.426,12.4394 0,6.8702 5.576,12.4396 12.446,12.4396 6.87,0 12.443,-5.5503 12.443,-12.4205 0,0 -0.04,0.01 -0.04,0.01 l -0.01,-1.3038 v -34.5229 l 32.196,-7.1305 v 25.2005 c -2.179,-2.1206 -5.219,-3.4244 -8.54,-3.4244 -6.87,0 -12.426,5.5694 -12.426,12.4394 0,6.8702 5.576,12.4396 12.446,12.4396 6.861,0 12.386,-5.5546 12.4,-12.412 v -0.9078 -34.1932 -15.9768 l -39.942,7.9884 z" style="fill:#d2d2d2;fill-opacity:1"/></g></svg>