<?xml version="1.0" encoding="UTF-8" standalone="no"?>
<!-- Created with Inkscape (http://www.inkscape.org/) -->

<svg
   version="1.1"
   id="svg22346"
   width="60.915001"
   height="72.2024"
   xmlns:inkscape="http://www.inkscape.org/namespaces/inkscape"
   xmlns:sodipodi="http://sodipodi.sourceforge.net/DTD/sodipodi-0.dtd"
   xmlns="http://www.w3.org/2000/svg"
   xmlns:svg="http://www.w3.org/2000/svg">
  <defs
     id="defs22350" />
  <sodipodi:namedview
     id="namedview22348"
     pagecolor="#ffffff"
     bordercolor="#666666"
     borderopacity="1.0"
     inkscape:pageshadow="2"
     inkscape:pageopacity="0.0"
     inkscape:pagecheckerboard="0" />
  <inkscape:clipboard
     style="font-variation-settings:normal;opacity:1;vector-effect:none;fill:#d2d2d2;fill-opacity:1;stroke-width:1;stroke-linecap:butt;stroke-linejoin:miter;stroke-miterlimit:4;stroke-dasharray:none;stroke-dashoffset:0;stroke-opacity:1;-inkscape-stroke:none;stop-color:#000000;stop-opacity:1"
     min="4789.4716,449.2096"
     max="4850.3866,521.412"
     geom-min="4789.4716,449.2096"
     geom-max="4850.3866,521.412" />
  <g
     id="g22352"
     transform="translate(-4789.4716,-449.2096)">
    <path
       id="path5328"
       d="m 4810.4376,457.1962 v 42.7611 c -2.179,-2.1205 -5.219,-3.4243 -8.54,-3.4243 -6.87,0 -12.426,5.5693 -12.426,12.4394 0,6.8702 5.576,12.4396 12.446,12.4396 6.87,0 12.443,-5.5503 12.443,-12.4205 0,0 -0.04,0.01 -0.04,0.01 l -0.01,-1.3038 v -34.5229 l 32.196,-7.1305 v 25.2005 c -2.179,-2.1206 -5.219,-3.4244 -8.54,-3.4244 -6.87,0 -12.426,5.5694 -12.426,12.4394 0,6.8702 5.576,12.4396 12.446,12.4396 6.861,0 12.386,-5.5546 12.4,-12.412 v -0.9078 -34.1932 -15.9768 l -39.942,7.9884 z"
       inkscape:connector-curvature="0"
       style="fill:#d2d2d2;fill-opacity:1" />
  </g>
</svg>
