<?xml version="1.0" encoding="UTF-8" standalone="no"?>
<!-- Created with Inkscape (http://www.inkscape.org/) -->

<svg
   version="1.1"
   id="svg11456"
   width="70.738586"
   height="90.304581"
   xmlns:inkscape="http://www.inkscape.org/namespaces/inkscape"
   xmlns:sodipodi="http://sodipodi.sourceforge.net/DTD/sodipodi-0.dtd"
   xmlns="http://www.w3.org/2000/svg"
   xmlns:svg="http://www.w3.org/2000/svg">
  <defs
     id="defs11460" />
  <sodipodi:namedview
     id="namedview11458"
     pagecolor="#ffffff"
     bordercolor="#666666"
     borderopacity="1.0"
     inkscape:pageshadow="2"
     inkscape:pageopacity="0.0"
     inkscape:pagecheckerboard="0" />
  <inkscape:clipboard
     style="font-variation-settings:normal;opacity:1;vector-effect:none;fill:#aeaeae;fill-opacity:1;stroke-width:1.5050763;stroke-linecap:butt;stroke-linejoin:miter;stroke-miterlimit:4;stroke-dasharray:none;stroke-dashoffset:0;stroke-opacity:1;-inkscape-stroke:none;stop-color:#000000;stop-opacity:1"
     min="2705.8173,1315.3268"
     max="2776.5559,1405.6314"
     geom-min="2705.8173,1315.3268"
     geom-max="2776.5559,1405.6314" />
  <g
     id="g11462"
     transform="translate(-2705.8173,-1315.3268)">
    <g
       id="g4560-1-6-2"
       transform="matrix(1.5050763,0,0,1.5050763,2696.0343,1315.3268)"
       style="fill:#aeaeae;fill-opacity:1"
       inkscape:export-filename="C:\Users\Mathieu\tmp\icon_empty_notekey.png"
       inkscape:export-xdpi="272.14566"
       inkscape:export-ydpi="272.14566">
      <g
         id="g4510-4-1-8"
         style="fill:#aeaeae;fill-opacity:1">
        <path
           id="path4512-0-2-4"
           d="m 42.5,22 h -25 c -0.552,0 -1,0.447 -1,1 0,0.553 0.448,1 1,1 h 25 c 0.552,0 1,-0.447 1,-1 0,-0.553 -0.448,-1 -1,-1 z"
           inkscape:connector-curvature="0"
           style="fill:#aeaeae;fill-opacity:1" />
        <path
           id="path4514-5-1-6"
           d="m 17.5,16 h 10 c 0.552,0 1,-0.447 1,-1 0,-0.553 -0.448,-1 -1,-1 h -10 c -0.552,0 -1,0.447 -1,1 0,0.553 0.448,1 1,1 z"
           inkscape:connector-curvature="0"
           style="fill:#aeaeae;fill-opacity:1" />
        <path
           id="path4516-6-8-1"
           d="m 42.5,30 h -25 c -0.552,0 -1,0.447 -1,1 0,0.553 0.448,1 1,1 h 25 c 0.552,0 1,-0.447 1,-1 0,-0.553 -0.448,-1 -1,-1 z"
           inkscape:connector-curvature="0"
           style="fill:#aeaeae;fill-opacity:1" />
        <path
           id="path4518-9-8-7"
           d="m 42.5,38 h -25 c -0.552,0 -1,0.447 -1,1 0,0.553 0.448,1 1,1 h 25 c 0.552,0 1,-0.447 1,-1 0,-0.553 -0.448,-1 -1,-1 z"
           inkscape:connector-curvature="0"
           style="fill:#aeaeae;fill-opacity:1" />
        <path
           id="path4520-9-8-4"
           d="m 42.5,46 h -25 c -0.552,0 -1,0.447 -1,1 0,0.553 0.448,1 1,1 h 25 c 0.552,0 1,-0.447 1,-1 0,-0.553 -0.448,-1 -1,-1 z"
           inkscape:connector-curvature="0"
           style="fill:#aeaeae;fill-opacity:1" />
        <path
           id="path4522-1-7-8"
           d="M 38.914,0 H 6.5 v 60 h 47 V 14.586 Z M 39.5,3.414 50.086,14 H 39.5 Z M 8.5,58 V 2 h 29 v 14 h 14 v 42 z"
           inkscape:connector-curvature="0"
           style="fill:#aeaeae;fill-opacity:1" />
      </g>
      <g
         id="g4524-6-5-1"
         style="fill:#aeaeae;fill-opacity:1" />
      <g
         id="g4526-1-5-7"
         style="fill:#aeaeae;fill-opacity:1" />
      <g
         id="g4528-5-8-7"
         style="fill:#aeaeae;fill-opacity:1" />
      <g
         id="g4530-2-1-5"
         style="fill:#aeaeae;fill-opacity:1" />
      <g
         id="g4532-7-3-1"
         style="fill:#aeaeae;fill-opacity:1" />
      <g
         id="g4534-7-0-2"
         style="fill:#aeaeae;fill-opacity:1" />
      <g
         id="g4536-3-8-8"
         style="fill:#aeaeae;fill-opacity:1" />
      <g
         id="g4538-2-7-6"
         style="fill:#aeaeae;fill-opacity:1" />
      <g
         id="g4540-2-2-9"
         style="fill:#aeaeae;fill-opacity:1" />
      <g
         id="g4542-0-9-6"
         style="fill:#aeaeae;fill-opacity:1" />
      <g
         id="g4544-2-5-8"
         style="fill:#aeaeae;fill-opacity:1" />
      <g
         id="g4546-7-9-6"
         style="fill:#aeaeae;fill-opacity:1" />
      <g
         id="g4548-5-9-0"
         style="fill:#aeaeae;fill-opacity:1" />
      <g
         id="g4550-1-1-7"
         style="fill:#aeaeae;fill-opacity:1" />
      <g
         id="g4552-5-8-2"
         style="fill:#aeaeae;fill-opacity:1" />
    </g>
  </g>
</svg>
