<svg xmlns="http://www.w3.org/2000/svg" xmlns:svg="http://www.w3.org/2000/svg" id="svg11398" width="70.739" height="90.305" version="1.1"><g id="g11404" transform="translate(-2816.9899,-1315.2253)"><g id="g4560-1-6-2-2" transform="matrix(1.5050763,0,0,1.5050763,2807.2069,1315.2253)" style="fill:#0277bd;fill-opacity:1;stroke:none;stroke-opacity:1"><g id="g4510-4-1-8-6" style="fill:#0277bd;fill-opacity:1;stroke:none;stroke-opacity:1"><path id="path4512-0-2-4-6" d="m 42.5,22 h -25 c -0.552,0 -1,0.447 -1,1 0,0.553 0.448,1 1,1 h 25 c 0.552,0 1,-0.447 1,-1 0,-0.553 -0.448,-1 -1,-1 z" style="fill:#0277bd;fill-opacity:1;stroke:none;stroke-opacity:1"/><path id="path4514-5-1-6-2" d="m 17.5,16 h 10 c 0.552,0 1,-0.447 1,-1 0,-0.553 -0.448,-1 -1,-1 h -10 c -0.552,0 -1,0.447 -1,1 0,0.553 0.448,1 1,1 z" style="fill:#0277bd;fill-opacity:1;stroke:none;stroke-opacity:1"/><path id="path4516-6-8-1-2" d="m 42.5,30 h -25 c -0.552,0 -1,0.447 -1,1 0,0.553 0.448,1 1,1 h 25 c 0.552,0 1,-0.447 1,-1 0,-0.553 -0.448,-1 -1,-1 z" style="fill:#0277bd;fill-opacity:1;stroke:none;stroke-opacity:1"/><path id="path4518-9-8-7-6" d="m 42.5,38 h -25 c -0.552,0 -1,0.447 -1,1 0,0.553 0.448,1 1,1 h 25 c 0.552,0 1,-0.447 1,-1 0,-0.553 -0.448,-1 -1,-1 z" style="fill:#0277bd;fill-opacity:1;stroke:none;stroke-opacity:1"/><path id="path4520-9-8-4-8" d="m 42.5,46 h -25 c -0.552,0 -1,0.447 -1,1 0,0.553 0.448,1 1,1 h 25 c 0.552,0 1,-0.447 1,-1 0,-0.553 -0.448,-1 -1,-1 z" style="fill:#0277bd;fill-opacity:1;stroke:none;stroke-opacity:1"/><path id="path4522-1-7-8-8" d="M 38.914,0 H 6.5 v 60 h 47 V 14.586 Z M 39.5,3.414 50.086,14 H 39.5 Z M 8.5,58 V 2 h 29 v 14 h 14 v 42 z" style="fill:#0277bd;fill-opacity:1;stroke:none;stroke-opacity:1"/></g></g></g></svg>