<?xml version="1.0" encoding="UTF-8" standalone="no"?>
<!-- Created with Inkscape (http://www.inkscape.org/) -->

<svg
   width="32px"
   height="32px"
   viewBox="0 0 32 32"
   version="1.1"
   id="SVGRoot"
   inkscape:version="1.1.2 (b8e25be833, 2022-02-05)"
   sodipodi:docname="spellgame.svg"
   inkscape:export-filename="./icon.png"
   inkscape:export-xdpi="96"
   inkscape:export-ydpi="96"
   xmlns:inkscape="http://www.inkscape.org/namespaces/inkscape"
   xmlns:sodipodi="http://sodipodi.sourceforge.net/DTD/sodipodi-0.dtd"
   xmlns:xlink="http://www.w3.org/1999/xlink"
   xmlns="http://www.w3.org/2000/svg"
   xmlns:svg="http://www.w3.org/2000/svg"
   xmlns:rdf="http://www.w3.org/1999/02/22-rdf-syntax-ns#"
   xmlns:cc="http://creativecommons.org/ns#"
   xmlns:dc="http://purl.org/dc/elements/1.1/">
  <sodipodi:namedview
     id="base"
     pagecolor="#ffffff"
     bordercolor="#666666"
     borderopacity="1.0"
     inkscape:pageopacity="0.0"
     inkscape:pageshadow="2"
     inkscape:zoom="8"
     inkscape:cx="-78.125"
     inkscape:cy="70.1875"
     inkscape:document-units="px"
     inkscape:current-layer="layer1"
     showgrid="false"
     inkscape:window-width="3840"
     inkscape:window-height="2081"
     inkscape:window-x="-9"
     inkscape:window-y="-9"
     inkscape:window-maximized="1"
     inkscape:grid-bbox="true"
     inkscape:pagecheckerboard="0" />
  <defs
     id="defs6479">
    <linearGradient
       inkscape:collect="always"
       id="linearGradient877">
      <stop
         style="stop-color:#000000;stop-opacity:1;"
         offset="0"
         id="stop873" />
      <stop
         style="stop-color:#000000;stop-opacity:0;"
         offset="1"
         id="stop875" />
    </linearGradient>
    <style
       type="text/css"
       id="style824">
   <![CDATA[
    .fil0 {fill:black;fill-rule:nonzero}
   ]]>
  </style>
    <linearGradient
       inkscape:collect="always"
       xlink:href="#linearGradient877"
       id="linearGradient879"
       x1="0.38542067"
       y1="1.1666756"
       x2="1.947937"
       y2="1.1666756"
       gradientUnits="userSpaceOnUse" />
  </defs>
  <metadata
     id="metadata6482">
    <rdf:RDF>
      <cc:Work
         rdf:about="">
        <dc:format>image/svg+xml</dc:format>
        <dc:type
           rdf:resource="http://purl.org/dc/dcmitype/StillImage" />
        <dc:title />
      </cc:Work>
    </rdf:RDF>
  </metadata>
  <g
     id="layer1"
     inkscape:groupmode="layer"
     inkscape:label="Calque 1">
    <rect
       id="Rectangle"
       fill-rule="nonzero"
       x="-493.25"
       y="-368.125"
       width="32"
       height="32"
       style="fill:none;stroke:none;stroke-width:1.33333" />
    <g
       style="clip-rule:evenodd;fill:#d2d2d2;fill-rule:evenodd;image-rendering:optimizeQuality;shape-rendering:geometricPrecision;text-rendering:geometricPrecision;fill-opacity:1"
       id="g871"
       transform="matrix(18.750416,0,0,18.750416,-5.8757135,-5.8756528)">
      <g
         id="Layer_x0020_1"
         style="fill-opacity:1;fill:#d2d2d2">

<path
   class="fil0"
   d="m 0.978559,0.552598 h 0.81735 c 0.083657,0 0.152028,0.068374 0.152028,0.152031 v 1.16333 c 0,0.083658 -0.06837,0.152031 -0.152028,0.152031 h -0.81735 c -0.0836614,0 -0.152031,-0.06837 -0.152031,-0.152031 v -1.16333 c 0,-0.0836614 0.0683701,-0.152031 0.152031,-0.152031 z m 0.81735,0.04 h -0.81735 c -0.0615748,0 -0.112031,0.0504567 -0.112031,0.112031 v 1.16333 c 0,0.061575 0.0504567,0.112031 0.112031,0.112031 h 0.81735 c 0.061571,0 0.112028,-0.050457 0.112028,-0.112031 v -1.16333 c 0,-0.0615748 -0.050457,-0.112031 -0.112028,-0.112031 z"
   id="path828"
   style="fill-opacity:1;fill:#d2d2d2" />


<path
   class="fil0"
   d="m 1.03072,0.651043 c 0.039264,-0.0410787 0.113098,-0.0125866 0.113098,0.0474055 0,0.0548268 -0.049476,0.104311 -0.098949,0.153783 -0.00781,0.007807 -0.020476,0.007807 -0.028283,0 C 0.9673849,0.8030307 0.8763457,0.7121845 0.937129,0.6514005 0.9624794,0.6260501 1.005503,0.6245659 1.03072,0.651043 Z M 1.062059,0.6761769 C 1.050555,0.6853899 1.051106,0.6989919 1.039673,0.7047045 1.029793,0.7096415 1.017775,0.70563757 1.012838,0.6957595 l 7.87e-5,-3.937e-5 c -0.00789,-0.0157677 -0.0132598,-0.023815 -0.0287362,-0.023815 -0.0146457,0 -0.0265472,0.0118937 -0.0265472,0.0265433 0,0.0341142 0.0346693,0.0724843 0.0730945,0.111311 0.034031,-0.0343858 0.095622,-0.0997638 0.065311,-0.130075 -0.00942,-0.009421 -0.025768,-0.0100748 -0.03398,-0.003508 z"
   id="path830"
   style="fill-opacity:1;fill:#d2d2d2" />


<path
   class="fil0"
   d="m 1.74374,1.73365 c 0.038811,-0.040827 0.113091,-0.012968 0.113091,0.047394 0,0.054827 -0.049476,0.104311 -0.098949,0.153783 -0.00781,0.00781 -0.020476,0.00781 -0.028284,0 C 1.680126,1.885355 1.630645,1.835874 1.630645,1.781044 1.630645,1.720635 1.704869,1.692843 1.74374,1.73365 Z M 1.775071,1.758776 C 1.76326,1.768216 1.76413,1.781579 1.752685,1.7873 1.742805,1.79224 1.730787,1.7882331 1.72585,1.77836 l 7.87e-5,-3.94e-5 c -0.023087,-0.046197 -0.055284,-0.016634 -0.055284,0.00273 0,0.034114 0.034669,0.072484 0.073095,0.111311 0.038425,-0.038827 0.073091,-0.077197 0.073091,-0.111311 0,-0.024638 -0.028941,-0.03252 -0.04176,-0.022268 z"
   id="path832"
   style="fill-opacity:1;fill:#d2d2d2" />


<path
   class="fil0"
   d="M 1.38723,1.06009 C 1.421915,1.002688 1.463695,0.9708183 1.534974,0.9708183 c 0.092594,0 0.16774,0.0751457 0.16774,0.16774 0,0.166224 -0.181654,0.337677 -0.301343,0.457362 -0.00781,0.00781 -0.020476,0.00781 -0.028283,0 -0.119685,-0.119681 -0.301335,-0.291142 -0.301335,-0.457362 0,-0.146709 0.171091,-0.213012 0.267882,-0.135587 0.018028,0.014421 0.033287,0.033433 0.047594,0.057118 z M 1.459671,1.034066 C 1.418435,1.067054 1.411943,1.111629 1.396171,1.119511 1.386291,1.124451 1.374277,1.1204401 1.36934,1.110561 l 7.87e-5,-3.94e-5 c -0.03115,-0.062307 -0.060803,-0.099705 -0.129929,-0.099705 -0.070508,0 -0.127736,0.057236 -0.127736,0.12774 0,0.146047 0.168055,0.307413 0.275476,0.414933 0.107421,-0.10752 0.275484,-0.268886 0.275484,-0.414933 0,-0.113969 -0.133122,-0.16041699 -0.203043,-0.104492 z"
   id="path834"
   style="fill-opacity:1;fill:#d2d2d2" />


<path
   class="fil0"
   d="M 1.72513,0.694146 C 1.702929,0.6508625 1.670642,0.6784846 1.670642,0.698449 c 0,0.0341142 0.034669,0.0724843 0.073094,0.111311 0.038425,-0.0388268 0.073091,-0.0771969 0.073091,-0.111311 0,-0.0194685 -0.032209,-0.048874 -0.055279,-0.002728 l 7.87e-5,3.937e-5 C 1.7538767,0.71127217 1.7314137,0.71011867 1.72513,0.694146 Z M 1.737248,0.645083 c 0.00229,0.001831 0.00444,0.003819 0.00649,0.005969 0.038953,-0.0408976 0.113091,-0.0127992 0.113091,0.0473976 0,0.0548268 -0.049476,0.104311 -0.098949,0.153783 -0.00781,0.007807 -0.020476,0.007807 -0.028283,0 C 1.680125,0.8027602 1.630644,0.7532798 1.630644,0.6984496 c 0,-0.0575866 0.067102,-0.0849646 0.1066059,-0.0533661 z"
   id="path836"
   style="fill-opacity:1;fill:#d2d2d2" />


<path
   class="fil0"
   d="M 1.01212,1.77675 C 0.9898838,1.733345 0.9576279,1.761293 0.9576279,1.78104 c 0,0.03411 0.0346693,0.072484 0.0730945,0.111311 0.038425,-0.038827 0.073091,-0.077201 0.073091,-0.111311 0,-0.024626 -0.028933,-0.032524 -0.041764,-0.022268 -0.011563,0.00924 -0.01676,0.040276 -0.040268,0.028524 -0.00459,-0.0023 -0.00791,-0.00612 -0.00966,-0.010547 z M 1.024234,1.727679 c 0.00228,0.00182 0.00443,0.00381 0.00648,0.00596 0.039185,-0.040917 0.113102,-0.012736 0.113102,0.047405 0,0.054823 -0.04948,0.104315 -0.098949,0.153783 -0.00781,0.00781 -0.020476,0.00781 -0.028283,0 C 0.9671116,1.885355 0.9176312,1.835874 0.9176312,1.781044 c 0,-0.057398 0.0669882,-0.085043 0.1066067,-0.053362 z"
   id="path838"
   style="fill-opacity:1;fill:#d2d2d2" />


<path
   class="fil0"
   d="M 1.36859,1.10887 C 1.337653,1.047457 1.307992,1.010815 1.239488,1.010815 c -0.070508,0 -0.127736,0.057236 -0.127736,0.12774 0,0.146047 0.168059,0.307413 0.27548,0.414933 0.107417,-0.107516 0.27548,-0.26889 0.27548,-0.414933 0,-0.113972 -0.133126,-0.160417 -0.203039,-0.104492 -0.020496,0.016394 -0.03739,0.041976 -0.05463,0.076461 l 7.87e-5,3.94e-5 C 1.3973463,1.126122 1.3748147,1.1248897 1.36859,1.10887 Z M 1.3396372,1.002968 c 0.018028,0.014421 0.033287,0.033433 0.047594,0.057118 0.034681,-0.057402 0.076465,-0.0892717 0.14774,-0.0892717 0.092594,0 0.16774,0.0751457 0.16774,0.16774 0,0.16622 -0.18165,0.337677 -0.301339,0.457362 -0.00781,0.00781 -0.020476,0.00781 -0.028284,0 -0.119681,-0.119681 -0.301339,-0.291138 -0.301339,-0.457362 0,-0.146705 0.171087,-0.213016 0.267886,-0.135587 z"
   id="path840"
   style="fill-opacity:1;fill:#d2d2d2" />


<path
   class="fil0"
   d="M 0.865949,1.95006 C 0.8917876,1.94532 0.8845907,1.906099 0.85876,1.91084 0.8018387,1.921285 0.745374,1.886013 0.730264,1.829604 L 0.429173,0.705914 C 0.4132124,0.6463431 0.4489053,0.584603 0.5083974,0.568662 l 0.789488,-0.2115437 c 0.059508,-0.015937 0.121295,0.0196732 0.137256,0.0792205 l 0.037894,0.141417 c 0.0068,0.0254094 0.045386,0.0150787 0.038591,-0.010315 L 1.473732,0.4260238 C 1.4520942,0.345264 1.368354,0.2968818 1.287571,0.3185278 l -0.78948798,0.211543 c -0.0808031,0.0216496 -0.129126,0.105437 -0.1075,0.186157 l 0.301091,1.12369 c 0.0204606,0.07637 0.096878,0.124366 0.174276,0.110142 z"
   id="path842"
   style="fill-opacity:1;fill:#d2d2d2" />


<path
   class="fil0"
   d="M 0.573898,0.611587 C 0.58230351,0.5961618 0.5950476,0.5861933 0.6139452,0.5811303 l -7.87e-6,-2.756e-5 c 0.0354961,-0.009374 0.0719213,0.0115433 0.0814646,0.0470394 l 2.756e-5,-7.87e-6 c 0.0148583,0.056 -0.0266614,0.123567 -0.0558307,0.174094 l 5.511e-5,7.874e-5 c -0.005764,0.009988 -0.0182165,0.0131496 -0.0289173,0.006295 -0.0465866,-0.0298386 -0.117685,-0.0619646 -0.133752,-0.121913 l -2.756e-5,7.87e-6 c -0.009484,-0.0353189 0.0115551,-0.0719409 0.0470472,-0.0814724 l -7.87e-6,-2.362e-5 c 0.0194606,-0.004606 0.0341024,-0.003287 0.0499016,0.006386 z m 0.0368661,0.0162126 c -0.009035,0.0122756 -0.004736,0.0248622 -0.014315,0.0333543 -0.008264,0.007327 -0.0209094,0.006563 -0.0282362,-0.001701 l 4.724e-5,-6.299e-5 c -0.0125157,-0.0141181 -0.0192756,-0.0194252 -0.0347283,-0.0153504 -0.0132087,0.00348 -0.0216575,0.017622 -0.0177087,0.0332283 0.008787,0.0347283 0.0668228,0.0688543 0.0992126,0.0877913 0.0202638,-0.0355354 0.0515197,-0.0893937 0.0415472,-0.127409 -0.005638,-0.0215 -0.0355118,-0.0238819 -0.0458188,-0.009851 z"
   id="path844"
   style="fill-opacity:1;fill:#d2d2d2" />


<path
   class="fil0"
   d="M 1.31353,0.562988 C 1.300876,0.5860234 1.33588,0.6052478 1.34853,0.5822085 1.371321,0.5406967 1.396298,0.4890431 1.384132,0.4436335 1.3684631,0.3851374 1.2893765,0.3778618 1.2626204,0.4270429 1.1998094,0.3887516 1.0858724,0.4847555 1.2418881,0.5891609 1.2637109,0.6037672 1.2858763,0.5706215 1.2640771,0.5560349 1.1592581,0.4858892 1.217522,0.4501769 1.2388921,0.459527 c 0.013886,0.006075 0.016465,0.0191496 0.028996,0.0217126 0.010819,0.002213 0.021394,-0.004764 0.023606,-0.0155827 l -6.3e-5,-2.756e-5 c 0.010319,-0.0504843 0.049059,-0.0305394 0.05411,-0.0116811 0.00862,0.0321929 -0.015122,0.078252 -0.032011,0.10903976 z"
   id="path846"
   style="fill-opacity:1;fill:#d2d2d2" />


<path
   class="fil0"
   d="M 0.835126,1.69249 C 0.8621811,1.71138 0.8892795,1.658722 0.83272,1.649132 0.7742633,1.639222 0.689712,1.724443 0.835515,1.82086 0.8574441,1.83536 0.8794481,1.802061 0.8575465,1.787576 0.7480775,1.715186 0.8106843,1.675391 0.835126,1.69249 Z"
   id="path848"
   style="fill-opacity:1;fill:#d2d2d2" />


<path
   class="fil0"
   d="M 0.853953,0.909972 C 0.8783349,0.900196 0.863477,0.8631649 0.8391105,0.8729405 0.760831,0.9043499 0.7177445,0.9897125 0.7397562,1.0718975 c 0.0151654,0.05663 0.0503622,0.105295 0.0927126,0.147409 0.0186181,0.018512 0.0467441,-0.00977 0.028126,-0.028284 C 0.8042287,1.1349718 0.7478348,1.050873 0.7874452,0.971499 0.8010594,0.9442195 0.8242798,0.9218927 0.853953,0.909972 Z"
   id="path850"
   style="fill-opacity:1;fill:#d2d2d2" />


</g>
    </g>
  </g>
</svg>
