<svg xmlns="http://www.w3.org/2000/svg" xmlns:svg="http://www.w3.org/2000/svg" id="svg1" width="32" height="32" version="1.1" viewBox="0 0 8.467 8.467" xml:space="preserve"><g id="layer1" transform="translate(81.401632,83.209434)"><g style="fill:none" id="g1" transform="matrix(0.17638889,0,0,0.17638889,-81.401632,-83.209434)"><rect id="rect1" width="48" height="48" x="0" y="0" fill="#fff" fill-opacity=".01" style="fill:red;stroke-width:1"/><path id="path2" stroke="#000" stroke-linecap="round" stroke-linejoin="round" stroke-width="4" d="m 20,40 4,4 m 0,0 4,-4 m -4,4 -0.282558,-0.650579" style="fill:red;stroke:#03bdf4;stroke-opacity:1"/><path id="path3" stroke="#000" stroke-linecap="round" stroke-linejoin="round" stroke-width="4" d="m 40,20 4,4 m 0,0 -4,4 m 4,-4 -0.603486,0.235465" style="fill:red;stroke:#03bdf4;stroke-opacity:1"/><path id="path4" stroke="#000" stroke-linecap="round" stroke-linejoin="round" stroke-width="4" d="m 8,20 -4,4 m 0,0 4,4 m -4,-4 0.2784695,0.133199" style="fill:red;stroke:#03bdf4;stroke-opacity:1"/><circle id="circle4" cx="24.045" cy="24.094" r="3.669" stroke="#000" stroke-linecap="round" stroke-linejoin="round" stroke-width="4" style="fill:#03bdf4;fill-opacity:1;stroke:#03bdf4;stroke-opacity:1"/><path id="path5" stroke="#000" stroke-linecap="round" stroke-linejoin="round" stroke-width="4" d="m 20,8 4,-4 m 0,0 4,4 M 24,4 v 0.6505792" style="opacity:1;fill:red;fill-opacity:1;stroke:#03bdf4;stroke-opacity:1"/></g></g></svg>