<svg xmlns="http://www.w3.org/2000/svg" xmlns:svg="http://www.w3.org/2000/svg" id="SVGRoot" width="32" height="32" version="1.1" viewBox="0 0 32 32"><defs id="defs6479"><rect id="rect4778" width="369.5" height="275.5" x="162" y="55.5"/><rect id="rect2676" width="148" height="61" x="388" y="71.5"/></defs><metadata id="metadata6482"/><g id="layer1"><g id="g889" transform="translate(-72.25,187.25)"><g id="g1246" transform="translate(6.9375,3.2500002)"><g style="fill:#d2d2d2;fill-opacity:1" id="g1064" transform="matrix(13.205015,0,0,13.205015,465.82504,81.459659)"><g id="g1191" transform="matrix(0.1838907,0,0,0.1838907,-25.2977,-17.09046)"><g id="g2226" transform="matrix(0.27490698,0.22389314,-0.22389314,0.27490698,-22.248603,-19.616317)"><path id="path1189" d="M 21,31 H 11 C 9.9,31 9,30.1 9,29 V 3 C 9,1.9 9.9,1 11,1 h 10 c 1.1,0 2,0.9 2,2 v 26 c 0,1.1 -0.9,2 -2,2 z" class="st0" style="stroke:#d2d2d2;stroke-opacity:1"/><line id="line1191" x1="16" x2="16" y1="22" y2="21" class="st0" style="fill:#5f2323;fill-opacity:1;stroke:#d2d2d2;stroke-opacity:1"/><line id="line1193" x1="16" x2="16" y1="27" y2="26" class="st0" style="fill:#5f2323;fill-opacity:1;stroke:#d2d2d2;stroke-opacity:1"/><line id="line1195" x1="14" x2="13" y1="24" y2="24" class="st0" style="fill:#5f2323;fill-opacity:1;stroke:#d2d2d2;stroke-opacity:1"/><line id="line1197" x1="19" x2="18" y1="24" y2="24" class="st0" style="fill:#5f2323;fill-opacity:1;stroke:#d2d2d2;stroke-opacity:1"/><line id="line1199" x1="14" x2="13" y1="17" y2="17" class="st0" style="fill:none;fill-opacity:1;stroke:#d2d2d2;stroke-opacity:1"/><line id="line1201" x1="19" x2="18" y1="17" y2="17" class="st0" style="fill:none;fill-opacity:1;stroke:#d2d2d2;stroke-opacity:1"/><circle id="circle1203" cx="13" cy="8" r="1" style="fill:#d2d2d2;fill-opacity:1"/><circle id="circle1205" cx="13" cy="5" r="1" style="fill:#d2d2d2;fill-opacity:1;stroke:none;stroke-opacity:1"/><circle id="circle1207" cx="16" cy="8" r="1" style="fill:#d2d2d2;fill-opacity:1"/><circle id="circle1209" cx="19" cy="8" r="1" style="fill:#d2d2d2;fill-opacity:1"/><circle id="circle1211" cx="13" cy="11" r="1" style="fill:#d2d2d2;fill-opacity:1"/><circle id="circle1213" cx="16" cy="11" r="1" style="fill:#d2d2d2;fill-opacity:1"/><circle id="circle1215" cx="19" cy="11" r="1" style="fill:#d2d2d2;fill-opacity:1"/><circle id="circle1217" cx="13" cy="14" r="1" style="fill:#d2d2d2;fill-opacity:1"/><circle id="circle1219" cx="16" cy="14" r="1" style="fill:#d2d2d2;fill-opacity:1"/><circle id="circle1221" cx="19" cy="14" r="1" style="fill:#d2d2d2;fill-opacity:1"/></g><path id="path1055" d="m -15.03293,-16.215684 c -0.03777,-0.02608 -0.06468,-0.06699 -0.0748,-0.113704 -0.35248,-1.612231 -1.847938,-2.645086 -3.33824,-2.305592 -0.216627,0.04936 -0.293949,-0.302042 -0.07731,-0.35138 1.66991,-0.380389 3.345589,0.776941 3.740576,2.583468 0.03452,0.156642 -0.123539,0.274868 -0.250216,0.1872 z m -0.900865,0.204393 c -0.03777,-0.02599 -0.06472,-0.06679 -0.07496,-0.113427 -0.235398,-1.073454 -1.231038,-1.761101 -2.223611,-1.535759 -0.216773,0.04912 -0.293923,-0.302501 -0.07715,-0.351652 1.172191,-0.26703 2.348438,0.545363 2.625689,1.813458 0.03449,0.156493 -0.12326,0.274721 -0.249958,0.187379 z m -0.901283,0.204477 c -0.03777,-0.02599 -0.06472,-0.06679 -0.07496,-0.113426 -0.117289,-0.535152 -0.613662,-0.877969 -1.108469,-0.765577 -0.216793,0.04926 -0.293963,-0.302435 -0.07715,-0.351653 0.674389,-0.153083 1.350851,0.314116 1.510804,1.043451 0.03452,0.156648 -0.123537,0.274869 -0.250215,0.187205 z" style="fill:#d2d2d2;fill-opacity:1;stroke-width:.312488"/></g><path style="color:#000;font-style:normal;font-variant:normal;font-weight:400;font-stretch:normal;font-size:medium;line-height:normal;font-family:sans-serif;font-variant-ligatures:normal;font-variant-position:normal;font-variant-caps:normal;font-variant-numeric:normal;font-variant-alternates:normal;font-feature-settings:normal;text-indent:0;text-align:start;text-decoration:none;text-decoration-line:none;text-decoration-style:solid;text-decoration-color:#000;letter-spacing:normal;word-spacing:normal;text-transform:none;writing-mode:lr-tb;direction:ltr;text-orientation:mixed;dominant-baseline:auto;baseline-shift:baseline;text-anchor:start;white-space:normal;shape-padding:0;clip-rule:nonzero;display:inline;overflow:visible;visibility:visible;isolation:auto;mix-blend-mode:normal;color-interpolation:sRGB;color-interpolation-filters:linearRGB;solid-color:#000;solid-opacity:1;vector-effect:none;fill:#aeaeae;fill-opacity:1;fill-rule:nonzero;stroke:none;stroke-width:.0822653;stroke-linecap:butt;stroke-linejoin:miter;stroke-miterlimit:4;stroke-dasharray:none;stroke-dashoffset:0;stroke-opacity:1;color-rendering:auto;image-rendering:auto;shape-rendering:auto;text-rendering:auto;enable-background:accumulate" id="path852" d="m -28.497061,-18.288552 0.01853,-0.121999 c 0.201652,0.03063 0.390958,-0.108749 0.42159,-0.310401 0.03063,-0.201652 -0.10875,-0.39096 -0.310402,-0.42159 -0.201652,-0.03063 -0.390959,0.108749 -0.42159,0.310401 -0.01217,0.08012 0.0028,0.158143 0.03755,0.225185 l 0.06679,-0.04917 c -0.0227,-0.04936 -0.03181,-0.105707 -0.02301,-0.163655 0.02396,-0.157697 0.170207,-0.265377 0.327904,-0.241423 0.157698,0.02395 0.265377,0.170206 0.241423,0.327903 -0.02395,0.157697 -0.170206,0.265377 -0.327903,0.241423 l 0.01853,-0.121998 -0.228041,0.131779 z"/></g></g></g></g><style id="style921" type="text/css">.st0{fill:#000}</style><style id="style830" type="text/css">.st0{fill:none;stroke:#000;stroke-width:2;stroke-linecap:round;stroke-linejoin:round;stroke-miterlimit:10}</style><style id="style1187" type="text/css">.st0{fill:none;stroke:#000;stroke-width:2;stroke-linecap:round;stroke-linejoin:round;stroke-miterlimit:10}</style></svg>