<svg xmlns="http://www.w3.org/2000/svg" xmlns:svg="http://www.w3.org/2000/svg" id="SVGRoot" width="32" height="32" version="1.1" viewBox="0 0 32 32"><defs id="defs6479"><rect id="rect4778" width="369.5" height="275.5" x="162" y="55.5"/><rect id="rect2676" width="148" height="61" x="388" y="71.5"/></defs><metadata id="metadata6482"/><g id="layer1"><g id="g889" transform="translate(-72.25,187.25)"><g id="g1246" transform="translate(6.9375,3.2500002)"><g style="fill:#d2d2d2;fill-opacity:1" id="g1064" transform="matrix(13.205015,0,0,13.205015,465.82504,81.459659)"><g id="g1191" transform="matrix(0.1838907,0,0,0.1838907,-25.2977,-17.09046)"><g id="g2226" transform="matrix(0.27490698,0.22389314,-0.22389314,0.27490698,-22.248603,-19.616317)"><path id="path1189" d="M 21,31 H 11 C 9.9,31 9,30.1 9,29 V 3 C 9,1.9 9.9,1 11,1 h 10 c 1.1,0 2,0.9 2,2 v 26 c 0,1.1 -0.9,2 -2,2 z" class="st0" style="stroke:#d2d2d2;stroke-opacity:1"/><line id="line1191" x1="16" x2="16" y1="22" y2="21" class="st0" style="fill:#5f2323;fill-opacity:1;stroke:#d2d2d2;stroke-opacity:1"/><line id="line1193" x1="16" x2="16" y1="27" y2="26" class="st0" style="fill:#5f2323;fill-opacity:1;stroke:#d2d2d2;stroke-opacity:1"/><line id="line1195" x1="14" x2="13" y1="24" y2="24" class="st0" style="fill:#5f2323;fill-opacity:1;stroke:#d2d2d2;stroke-opacity:1"/><line id="line1197" x1="19" x2="18" y1="24" y2="24" class="st0" style="fill:#5f2323;fill-opacity:1;stroke:#d2d2d2;stroke-opacity:1"/><line id="line1199" x1="14" x2="13" y1="17" y2="17" class="st0" style="fill:none;fill-opacity:1;stroke:#d2d2d2;stroke-opacity:1"/><line id="line1201" x1="19" x2="18" y1="17" y2="17" class="st0" style="fill:none;fill-opacity:1;stroke:#d2d2d2;stroke-opacity:1"/><circle id="circle1203" cx="13" cy="8" r="1" style="fill:#d2d2d2;fill-opacity:1"/><circle id="circle1205" cx="13" cy="5" r="1" style="fill:#d2d2d2;fill-opacity:1;stroke:none;stroke-opacity:1"/><circle id="circle1207" cx="16" cy="8" r="1" style="fill:#d2d2d2;fill-opacity:1"/><circle id="circle1209" cx="19" cy="8" r="1" style="fill:#d2d2d2;fill-opacity:1"/><circle id="circle1211" cx="13" cy="11" r="1" style="fill:#d2d2d2;fill-opacity:1"/><circle id="circle1213" cx="16" cy="11" r="1" style="fill:#d2d2d2;fill-opacity:1"/><circle id="circle1215" cx="19" cy="11" r="1" style="fill:#d2d2d2;fill-opacity:1"/><circle id="circle1217" cx="13" cy="14" r="1" style="fill:#d2d2d2;fill-opacity:1"/><circle id="circle1219" cx="16" cy="14" r="1" style="fill:#d2d2d2;fill-opacity:1"/><circle id="circle1221" cx="19" cy="14" r="1" style="fill:#d2d2d2;fill-opacity:1"/></g><path id="path1055" d="m -15.03293,-16.215684 c -0.03777,-0.02608 -0.06468,-0.06699 -0.0748,-0.113704 -0.35248,-1.612231 -1.847938,-2.645086 -3.33824,-2.305592 -0.216627,0.04936 -0.293949,-0.302042 -0.07731,-0.35138 1.66991,-0.380389 3.345589,0.776941 3.740576,2.583468 0.03452,0.156642 -0.123539,0.274868 -0.250216,0.1872 z m -0.900865,0.204393 c -0.03777,-0.02599 -0.06472,-0.06679 -0.07496,-0.113427 -0.235398,-1.073454 -1.231038,-1.761101 -2.223611,-1.535759 -0.216773,0.04912 -0.293923,-0.302501 -0.07715,-0.351652 1.172191,-0.26703 2.348438,0.545363 2.625689,1.813458 0.03449,0.156493 -0.12326,0.274721 -0.249958,0.187379 z m -0.901283,0.204477 c -0.03777,-0.02599 -0.06472,-0.06679 -0.07496,-0.113426 -0.117289,-0.535152 -0.613662,-0.877969 -1.108469,-0.765577 -0.216793,0.04926 -0.293963,-0.302435 -0.07715,-0.351653 0.674389,-0.153083 1.350851,0.314116 1.510804,1.043451 0.03452,0.156648 -0.123537,0.274869 -0.250215,0.187205 z" style="fill:#d2d2d2;fill-opacity:1;stroke-width:.312488"/></g><g style="fill:#aeaeae;fill-opacity:1" id="g919" transform="matrix(-4.0952556e-4,0.0361975,-0.0361975,-4.0952556e-4,-28.027475,-18.996937)"><path id="path910" fill="#000" fill-rule="evenodd" d="m 9,7 h 6 V 5 2 H 9 V 5 Z M 9,5 C 9,5.55228 9.44772,6 10,6 10.5523,6 11,5.55228 11,5 11,4.44772 10.5523,4 10,4 9.44772,4 9,4.44772 9,5 Z m 6,0 c 0,-0.55228 -0.4477,-1 -1,-1 -0.5523,0 -1,0.44772 -1,1 0,0.55228 0.4477,1 1,1 0.5523,0 1,-0.44772 1,-1 z m 1.9863,2.1659 C 16.9953,7.11194 17,7.05652 17,7 V 1 C 17,0.447715 16.5523,0 16,0 H 8 C 7.44772,0 7,0.447715 7,1 V 7 C 7,7.05652 7.00469,7.11194 7.0137,7.1659 5.84136,7.57385 5,8.68867 5,10 v 7 c 0,3.866 3.13401,7 7,7 3.866,0 7,-3.134 7,-7 V 10 C 19,8.68867 18.1586,7.57385 16.9863,7.1659 Z M 7,10 C 7,9.44772 7.44772,9 8,9 h 8 c 0.5523,0 1,0.44772 1,1 v 7 c 0,2.7614 -2.2386,5 -5,5 -2.76142,0 -5,-2.2386 -5,-5 z" clip-rule="evenodd" style="fill:#aeaeae;fill-opacity:1"/></g></g></g></g></g><style id="style921" type="text/css">.st0{fill:#000}</style><style id="style830" type="text/css">.st0{fill:none;stroke:#000;stroke-width:2;stroke-linecap:round;stroke-linejoin:round;stroke-miterlimit:10}</style><style id="style1187" type="text/css">.st0{fill:none;stroke:#000;stroke-width:2;stroke-linecap:round;stroke-linejoin:round;stroke-miterlimit:10}</style></svg>