<svg xmlns="http://www.w3.org/2000/svg" xmlns:svg="http://www.w3.org/2000/svg" id="svg12084" width="50.5" height="50.5" version="1.1"><g id="g12090" transform="translate(-310.17217,-438.60988)"><g id="g3288" transform="matrix(0.09430439,0,0,0.09430439,310.17217,438.60988)"><g id="g3247"><g id="extension"><path id="path3250" d="M 471.75,255 H 433.5 V 153 c 0,-28.05 -22.95,-51 -51,-51 h -102 V 63.75 C 280.5,28.05 252.45,0 216.75,0 181.05,0 153,28.05 153,63.75 V 102 H 51 C 22.95,102 0,124.95 0,153 v 96.9 h 38.25 c 38.25,0 68.85,30.6 68.85,68.85 0,38.25 -30.6,68.85 -68.85,68.85 H 0 v 96.9 c 0,28.05 22.95,51 51,51 h 96.9 v -38.25 c 0,-38.25 30.6,-68.85 68.85,-68.85 38.25,0 68.85,30.6 68.85,68.85 v 38.25 h 96.9 c 28.05,0 51,-22.95 51,-51 v -102 h 38.25 c 35.7,0 63.75,-28.05 63.75,-63.75 0,-35.7 -28.05,-63.75 -63.75,-63.75 z" style="fill:#03a9f4;fill-opacity:1"/></g></g></g></g></svg>