<?xml version="1.0" encoding="UTF-8" standalone="no"?>
<!-- Created with Inkscape (http://www.inkscape.org/) -->

<svg
   version="1.1"
   id="svg12084"
   width="50.5"
   height="50.5"
   xmlns:inkscape="http://www.inkscape.org/namespaces/inkscape"
   xmlns:sodipodi="http://sodipodi.sourceforge.net/DTD/sodipodi-0.dtd"
   xmlns="http://www.w3.org/2000/svg"
   xmlns:svg="http://www.w3.org/2000/svg">
  <defs
     id="defs12088" />
  <sodipodi:namedview
     id="namedview12086"
     pagecolor="#ffffff"
     bordercolor="#666666"
     borderopacity="1.0"
     inkscape:pageshadow="2"
     inkscape:pageopacity="0.0"
     inkscape:pagecheckerboard="0" />
  <inkscape:clipboard
     style="font-variation-settings:normal;opacity:1;vector-effect:none;fill:#000000;fill-opacity:1;stroke-width:0.09430439;stroke-linecap:butt;stroke-linejoin:miter;stroke-miterlimit:4;stroke-dasharray:none;stroke-dashoffset:0;stroke-opacity:1;-inkscape-stroke:none;stop-color:#000000;stop-opacity:1"
     min="310.17217,438.60988"
     max="360.67217,489.10988"
     geom-min="310.17217,438.60988"
     geom-max="360.67217,489.10988" />
  <g
     id="g12090"
     transform="translate(-310.17217,-438.60988)">
    <g
       id="g3288"
       transform="matrix(0.09430439,0,0,0.09430439,310.17217,438.60988)"
       inkscape:export-filename="F:\Users\Mathieu\Documents\Travail\Entreprise\FUS-Divers\Graphisme\Icons\Icons-PNG\selection-tree\icon_root.png"
       inkscape:export-xdpi="35.639999"
       inkscape:export-ydpi="35.639999">
      <g
         id="g3247">
        <g
           id="extension">
          <path
             id="path3250"
             d="M 471.75,255 H 433.5 V 153 c 0,-28.05 -22.95,-51 -51,-51 h -102 V 63.75 C 280.5,28.05 252.45,0 216.75,0 181.05,0 153,28.05 153,63.75 V 102 H 51 C 22.95,102 0,124.95 0,153 v 96.9 h 38.25 c 38.25,0 68.85,30.6 68.85,68.85 0,38.25 -30.6,68.85 -68.85,68.85 H 0 v 96.9 c 0,28.05 22.95,51 51,51 h 96.9 v -38.25 c 0,-38.25 30.6,-68.85 68.85,-68.85 38.25,0 68.85,30.6 68.85,68.85 v 38.25 h 96.9 c 28.05,0 51,-22.95 51,-51 v -102 h 38.25 c 35.7,0 63.75,-28.05 63.75,-63.75 0,-35.7 -28.05,-63.75 -63.75,-63.75 z"
             inkscape:connector-curvature="0"
             style="fill:#03a9f4;fill-opacity:1" />
        </g>
      </g>
      <g
         id="g3252" />
      <g
         id="g3254" />
      <g
         id="g3256" />
      <g
         id="g3258" />
      <g
         id="g3260" />
      <g
         id="g3262" />
      <g
         id="g3264" />
      <g
         id="g3266" />
      <g
         id="g3268" />
      <g
         id="g3270" />
      <g
         id="g3272" />
      <g
         id="g3274" />
      <g
         id="g3276" />
      <g
         id="g3278" />
      <g
         id="g3280" />
    </g>
  </g>
</svg>
