<svg xmlns="http://www.w3.org/2000/svg" xmlns:svg="http://www.w3.org/2000/svg" id="svg13065" width="210mm" height="297mm" version="1.1" viewBox="0 0 210 297"><metadata id="metadata13062"/><g id="layer1"><path id="path13133" d="m 104.34995,132.97196 h -0.52917 v -0.52917 h 0.52917 m 0,1.32292 h -0.52917 v -0.52917 h 0.52917 m -0.79375,-0.26458 h -0.52917 v -0.52917 h 0.52917 m 0,1.32292 h -0.52917 v -0.52917 h 0.52917 m 0,1.5875 h -2.11667 v -0.52916 h 2.11667 m -2.38125,-1.32292 h -0.52917 v -0.52917 h 0.52917 m 0,1.32292 h -0.52917 v -0.52917 h 0.52917 m 0.26458,0 h 0.52917 v 0.52917 h -0.52917 m 0,-1.32292 h 0.52917 v 0.52917 h -0.52917 m 0.79375,0.26458 h 0.52917 v 0.52917 h -0.52917 m 0,-1.32292 h 0.52917 v 0.52917 h -0.52917 m 2.38125,-1.32292 h -4.23333 c -0.29369,0 -0.529174,0.23548 -0.529174,0.52917 v 2.64583 a 0.52916667,0.52916667 0 0 0 0.529174,0.52917 h 4.23333 a 0.52916667,0.52916667 0 0 0 0.52917,-0.52917 v -2.64583 c 0,-0.29369 -0.23812,-0.52917 -0.52917,-0.52917 z" style="stroke-width:.264583;fill:#d2d2d2;fill-opacity:1"/><path id="path13166" d="m 103.48938,141.72827 1.12183,-1.93939 0.45773,0.26458 -1.38377,2.39448 -1.72244,-0.99219 -1.26206,2.18282 h 4.37621 v 0.52916 h -5.291674 v -4.7625 h 0.529174 v 3.84704 l 1.45521,-2.52412 z" style="stroke-width:.264583;fill:#d2d2d2;fill-opacity:1"/><path id="path13177" d="m 31.675736,134.035 0.370417,0.37306 -1.727729,1.7436 -0.918104,-0.92604 0.370416,-0.37306 0.547688,0.55033 1.357312,-1.36789 m -2.936875,1.19062 0.79375,0.79375 h -2.645833 v -0.52916 c 0,-0.58473 0.947208,-1.05834 2.116667,-1.05834 l 0.500062,0.0291 -0.764646,0.76464 m 0.264584,-3.43958 a 1.0583333,1.0583333 0 0 1 1.058333,1.05833 1.0583333,1.0583333 0 0 1 -1.058333,1.05834 1.0583333,1.0583333 0 0 1 -1.058334,-1.05834 1.0583333,1.0583333 0 0 1 1.058334,-1.05833 z" style="stroke-width:.264583;fill:#d2d2d2;fill-opacity:1"/><path id="path13188" d="m 48.704499,135.22495 h -1.852084 v -0.52917 h 1.852084 m 0.79375,-0.52917 h -2.645834 v -0.52916 h 2.645834 m 0,-0.52917 h -2.645834 v -0.52917 h 2.645834 m 0.529166,-1.05833 h -3.704166 c -0.293688,0 -0.529167,0.23548 -0.529167,0.52917 v 3.70416 a 0.52916667,0.52916667 0 0 0 0.529167,0.52917 h 3.704166 a 0.52916667,0.52916667 0 0 0 0.529167,-0.52917 v -3.70416 c 0,-0.29369 -0.238125,-0.52917 -0.529167,-0.52917 z" style="stroke-width:.264583;fill:#d2d2d2;fill-opacity:1"/><path id="path13199" d="m 57.841934,135.05763 0.375708,-0.37571 0.560917,0.56357 0.560917,-0.56357 0.375708,0.37571 -0.563562,0.56092 0.563562,0.56092 -0.375708,0.3757 -0.560917,-0.56356 -0.560917,0.56356 -0.375708,-0.3757 0.563563,-0.56092 -0.563563,-0.56092 m -0.650875,0.29634 v -0.52917 h -1.322917 v 0.52917 h 1.322917 m 1.322917,-1.5875 h -2.645834 v 0.52916 h 2.034646 c -0.428625,0.28311 -0.711729,0.76994 -0.711729,1.32292 0,0.28839 0.07673,0.56092 0.211667,0.79375 h -2.06375 c -0.293688,0 -0.529167,-0.23813 -0.529167,-0.52917 v -3.70416 c 0,-0.29369 0.235479,-0.52917 0.529167,-0.52917 h 3.704166 a 0.52916667,0.52916667 0 0 1 0.529167,0.52917 v 2.06375 c -0.232833,-0.13494 -0.505354,-0.21167 -0.79375,-0.21167 l -0.264583,0.0212 v -0.28575 m 0,-0.52917 v -0.52917 h -2.645834 v 0.52917 z" style="stroke-width:.264583;fill:#d2d2d2;fill-opacity:1"/><path id="path13210" d="m 49.532664,144.50182 -0.727604,-0.79375 0.306917,-0.30692 0.420687,0.42069 0.949855,-0.94985 0.306916,0.37306 m -2.368021,1.25677 h -2.06375 c -0.293687,0 -0.529166,-0.23813 -0.529166,-0.52917 v -3.70416 c 0,-0.29369 0.235479,-0.52917 0.529166,-0.52917 h 3.704167 a 0.52916667,0.52916667 0 0 1 0.529167,0.52917 v 2.06375 c -0.232834,-0.13494 -0.505354,-0.21167 -0.79375,-0.21167 l -0.264584,0.0212 v -0.28575 h -2.645833 v 0.52916 h 2.034646 c -0.428625,0.28311 -0.711729,0.76994 -0.711729,1.32292 0,0.28839 0.07673,0.56092 0.211666,0.79375 m -0.211666,-1.5875 h -1.322917 v 0.52917 h 1.322917 m 1.322916,-2.64584 h -2.645833 v 0.52917 h 2.645833" style="stroke-width:.264583;fill:#d2d2d2;fill-opacity:1"/><path id="path13283" d="m 78.357986,131.71855 h -1.105959 c -0.111125,-0.30692 -0.402166,-0.52917 -0.746125,-0.52917 -0.343958,0 -0.635,0.22225 -0.746125,0.52917 h -1.105958 a 0.52916667,0.52916667 0 0 0 -0.529167,0.52917 v 3.70416 a 0.52916667,0.52916667 0 0 0 0.529167,0.52917 h 3.704167 a 0.52916667,0.52916667 0 0 0 0.529166,-0.52917 v -3.70416 a 0.52916667,0.52916667 0 0 0 -0.529166,-0.52917 m -1.852084,0 a 0.26458333,0.26458333 0 0 1 0.264584,0.26458 0.26458333,0.26458333 0 0 1 -0.264584,0.26459 0.26458333,0.26458333 0 0 1 -0.264583,-0.26459 0.26458333,0.26458333 0 0 1 0.264583,-0.26458 m -1.322916,1.05833 h 2.645833 v -0.52916 h 0.529167 v 3.70416 h -3.704167 v -3.70416 h 0.529167 z" style="stroke-width:.264583;fill:#d2d2d2;fill-opacity:1"/><path id="path13294" d="m 86.576524,139.46937 h -1.105959 c -0.111125,-0.30692 -0.402166,-0.52917 -0.746125,-0.52917 -0.343958,0 -0.635,0.22225 -0.746125,0.52917 h -1.105958 c -0.291042,0 -0.529167,0.23812 -0.529167,0.52916 v 3.70417 c 0,0.29369 0.238125,0.52917 0.529167,0.52917 h 3.704167 c 0.293687,0 0.529166,-0.23548 0.529166,-0.52917 v -3.70417 c 0,-0.29104 -0.235479,-0.52916 -0.529166,-0.52916 m -1.852084,0 c 0.145521,0 0.264584,0.11906 0.264584,0.26458 0,0.14552 -0.119063,0.26458 -0.264584,0.26458 -0.14552,0 -0.264583,-0.11906 -0.264583,-0.26458 0,-0.14552 0.119063,-0.26458 0.264583,-0.26458 m -1.322916,1.05833 h 2.645833 v -0.52917 h 0.529167 v 3.70417 h -3.704167 v -3.70417 h 0.529167 v 0.52917 m 1.5875,1.32292 h 0.79375 v 0.52916 h -0.79375 v 0.79375 h -0.529167 v -0.79375 h -0.79375 v -0.52916 h 0.79375 v -0.79375 h 0.529167 z" style="stroke-width:.264583;fill:#d2d2d2;fill-opacity:1"/><path id="path13305" d="m 86.242437,131.919 h -1.105959 c -0.111125,-0.30692 -0.402166,-0.52917 -0.746125,-0.52917 -0.343958,0 -0.635,0.22225 -0.746125,0.52917 H 82.53827 c -0.291042,0 -0.529167,0.23813 -0.529167,0.52917 v 3.70416 c 0,0.29369 0.238125,0.52917 0.529167,0.52917 h 3.704167 c 0.293687,0 0.529166,-0.23548 0.529166,-0.52917 v -3.70416 c 0,-0.29104 -0.235479,-0.52917 -0.529166,-0.52917 m -1.852084,0 c 0.145521,0 0.264584,0.11906 0.264584,0.26458 0,0.14553 -0.119063,0.26459 -0.264584,0.26459 -0.14552,0 -0.264583,-0.11906 -0.264583,-0.26459 0,-0.14552 0.119063,-0.26458 0.264583,-0.26458 m 1.852084,4.23333 H 82.53827 v -3.70416 h 0.529167 v 0.52916 h 2.645833 v -0.52916 h 0.529167 v 3.70416 m -0.915459,-2.14841 -0.563562,0.56091 0.563562,0.56092 -0.375708,0.37571 -0.560917,-0.56356 -0.560916,0.56356 -0.373063,-0.37571 0.560917,-0.56092 -0.560917,-0.56091 0.373063,-0.37306 0.560916,0.56091 0.560917,-0.56091 z" style="stroke-width:.264583;fill:#d2d2d2;fill-opacity:1"/><path id="path13316" d="m 78.357986,139.40255 h -1.105959 c -0.111125,-0.30692 -0.402166,-0.52917 -0.746125,-0.52917 -0.343958,0 -0.635,0.22225 -0.746125,0.52917 h -1.105958 a 0.52916667,0.52916667 0 0 0 -0.529167,0.52917 v 3.70416 a 0.52916667,0.52916667 0 0 0 0.529167,0.52917 h 3.704167 a 0.52916667,0.52916667 0 0 0 0.529166,-0.52917 v -3.70416 a 0.52916667,0.52916667 0 0 0 -0.529166,-0.52917 m -1.852084,0 a 0.26458333,0.26458333 0 0 1 0.264584,0.26458 0.26458333,0.26458333 0 0 1 -0.264584,0.26459 0.26458333,0.26458333 0 0 1 -0.264583,-0.26459 0.26458333,0.26458333 0 0 1 0.264583,-0.26458 m -1.322916,1.05833 h 2.645833 v -0.52916 h 0.529167 v 3.70416 h -3.704167 v -3.70416 h 0.529167 v 0.52916 m 0.132291,1.71979 0.396875,-0.39687 0.529167,0.52917 1.190625,-1.19063 0.396875,0.39688 -1.5875,1.5875 z" style="stroke-width:.264583;fill:#d2d2d2;fill-opacity:1"/><path id="path13316-1" d="M 78.291169,161.31865 H 77.18521 c -0.111125,-0.30692 -0.402166,-0.52917 -0.746125,-0.52917 -0.343958,0 -0.635,0.22225 -0.746125,0.52917 h -1.105958 a 0.52916667,0.52916667 0 0 0 -0.529167,0.52917 v 3.70416 a 0.52916667,0.52916667 0 0 0 0.529167,0.52917 h 3.704167 a 0.52916667,0.52916667 0 0 0 0.529166,-0.52917 v -3.70416 a 0.52916667,0.52916667 0 0 0 -0.529166,-0.52917 m -1.852084,0 a 0.26458333,0.26458333 0 0 1 0.264584,0.26458 0.26458333,0.26458333 0 0 1 -0.264584,0.26459 0.26458333,0.26458333 0 0 1 -0.264583,-0.26459 0.26458333,0.26458333 0 0 1 0.264583,-0.26458 m -1.322916,1.05833 h 2.645833 v -0.52916 h 0.529167 v 3.70416 h -3.704167 v -3.70416 h 0.529167 v 0.52916 m 0.132291,1.71979 0.396875,-0.39687 0.529167,0.52917 1.190625,-1.19063 0.396875,0.39688 -1.5875,1.5875 z" style="fill:#f44336;fill-opacity:1;stroke-width:.264583"/><path id="path14170" d="m 76.436398,122.21705 h 1.455209 l -1.455209,-1.4552 v 1.4552 m -1.852083,-1.85208 h 2.116667 l 1.5875,1.5875 v 3.175 a 0.52916667,0.52916667 0 0 1 -0.529167,0.52917 h -3.175 c -0.293687,0 -0.529167,-0.23813 -0.529167,-0.52917 v -4.23333 c 0,-0.29369 0.23548,-0.52917 0.529167,-0.52917 m 0.264583,4.7625 h 0.529167 v -1.5875 h -0.529167 v 1.5875 m 1.058334,0 h 0.529166 v -2.11667 h -0.529166 v 2.11667 m 1.058333,0 h 0.529167 v -1.05833 h -0.529167 z" style="stroke-width:.264583;fill:#d2d2d2;fill-opacity:1"/><path id="path14181" d="m 78.625255,147.15336 a 0.52916667,0.52916667 0 0 1 0.529167,0.52917 v 3.70416 a 0.52916667,0.52916667 0 0 1 -0.529167,0.52917 h -3.704166 a 0.52916667,0.52916667 0 0 1 -0.529167,-0.52917 v -3.70416 a 0.52916667,0.52916667 0 0 1 0.529167,-0.52917 h 1.105958 c 0.111125,-0.30692 0.402167,-0.52917 0.746125,-0.52917 0.343958,0 0.635,0.22225 0.746125,0.52917 h 1.105958 m -1.852083,0 a 0.26458333,0.26458333 0 0 0 -0.264583,0.26458 0.26458333,0.26458333 0 0 0 0.264583,0.26459 0.26458333,0.26458333 0 0 0 0.264583,-0.26459 0.26458333,0.26458333 0 0 0 -0.264583,-0.26458 m -1.322917,1.05833 v -0.52916 h -0.529166 v 3.70416 h 3.704166 v -3.70416 h -0.529166 v 0.52916 h -2.645834 m 0,1.5875 1.322917,1.32292 v -0.79375 h 1.058333 v -1.05833 h -1.058333 v -0.79375 z" style="fill:#d2d2d2;fill-opacity:1;stroke-width:.264583"/><path id="path14192" d="m 86.576524,146.81928 a 0.52916667,0.52916667 0 0 1 0.529166,0.52916 v 3.70417 a 0.52916667,0.52916667 0 0 1 -0.529166,0.52917 h -3.704167 a 0.52916667,0.52916667 0 0 1 -0.529167,-0.52917 v -3.70417 a 0.52916667,0.52916667 0 0 1 0.529167,-0.52916 h 1.105958 c 0.111125,-0.30692 0.402167,-0.52917 0.746125,-0.52917 0.343959,0 0.635,0.22225 0.746125,0.52917 h 1.105959 m -1.852084,0 a 0.26458333,0.26458333 0 0 0 -0.264583,0.26458 0.26458333,0.26458333 0 0 0 0.264583,0.26458 0.26458333,0.26458333 0 0 0 0.264584,-0.26458 0.26458333,0.26458333 0 0 0 -0.264584,-0.26458 m -1.322916,1.05833 v -0.52917 h -0.529167 v 3.70417 h 3.704167 v -3.70417 h -0.529167 v 0.52917 h -2.645833 m 2.622021,1.5875 -1.322917,1.32292 v -0.79375 h -1.058333 v -1.05834 h 1.058333 v -0.79375 z" style="stroke-width:.264583;fill:#d2d2d2;fill-opacity:1"/><path id="path4494" d="m 48.308967,146.82465 c 1.031875,0 1.852083,0.82021 1.852083,1.85208 0,1.37584 -1.852083,3.43959 -1.852083,3.43959 0,0 -1.852083,-2.06375 -1.852083,-3.43959 0,-1.03187 0.820208,-1.85208 1.852083,-1.85208 m -0.264583,1.05833 v 1.5875 h 0.529166 v -1.5875 h -0.529166 m 0,2.11667 v 0.52917 h 0.529166 v -0.52917 z" style="stroke-width:.264583;fill:#d2d2d2;fill-opacity:1"/><path id="path22" d="m 59.118181,141.47081 v 0.52917 h -3.175 l 1.455209,1.45521 -0.375709,0.3757 -2.0955,-2.0955 2.0955,-2.0955 0.375709,0.37571 -1.455209,1.45521 z" style="stroke-width:.264583;fill:#d2d2d2;fill-opacity:1"/><path id="path838" d="m 109.04634,131.31421 0.33867,-0.33602 4.68842,4.68842 -0.33602,0.33866 -0.79375,-0.79375 h -3.10357 c -0.29368,0 -0.52916,-0.23812 -0.52916,-0.52916 v -2.64584 c 0,-0.13229 0.0476,-0.24606 0.12171,-0.33602 l -0.3863,-0.38629 m 4.7625,1.51606 v -0.52916 h -0.52916 v 0.52916 h 0.52916 m 0,0.79375 v -0.52916 h -0.52916 v 0.52916 h 0.52916 m -0.79375,-0.79375 v -0.52916 h -0.52916 v 0.52916 h 0.52916 m 0,0.79375 v -0.52916 h -0.52916 v 0.3122 l -0.57679,-0.57679 h 0.3122 v -0.52916 h -0.52916 v 0.3122 l -0.31221,-0.3122 -0.79375,-0.79375 h 3.48721 a 0.52916667,0.52916667 0 0 1 0.52916,0.52916 v 2.64584 c 0,0.22754 -0.14287,0.42068 -0.34395,0.49477 l -1.55575,-1.55311 h 0.3122 m -2.11666,0.52917 v 0.52917 h 1.51606 l -0.52917,-0.52917 h -0.98689 m -0.79375,-1.32292 h 0.45773 l -0.45773,-0.45773 v 0.45773 m 0.52916,0.79375 v -0.52916 h -0.52916 v 0.52916 h 0.52916 m 0.26459,0 h 0.45773 l -0.45773,-0.45773 z" style="stroke-width:.264583;fill:#d2d2d2;fill-opacity:1"/></g></svg>