<svg xmlns="http://www.w3.org/2000/svg" xmlns:svg="http://www.w3.org/2000/svg" id="svg6" width="256" height="256" fill="#000" version="1.1" viewBox="0 0 10.24 10.24"><title id="title2">cancel2</title><path id="path4" d="m 6.960224,5.1202565 3.127407,3.127407 c 0.203158,0.203158 0.203158,0.533034 0,0.736192 L 8.984112,10.087375 c -0.203158,0.203158 -0.532521,0.203158 -0.736192,0 L 5.12,6.9599675 1.9920801,10.087375 c -0.2031583,0.203158 -0.532521,0.203158 -0.7356793,0 L 0.15236871,8.9838555 c -0.2031583,-0.203158 -0.2031583,-0.532521 0,-0.736192 L 3.2802885,5.1202565 0.15236871,1.9923366 c -0.2031583,-0.2031583 -0.2031583,-0.5330341 0,-0.7361924 L 1.2569138,0.15262521 c 0.2031583,-0.2031583 0.532521,-0.2031583 0.7356793,0 L 5.12,3.280545 8.24792,0.15262521 c 0.203158,-0.2031583 0.532521,-0.2031583 0.736192,0 l 1.103519,1.10403209 c 0.203158,0.2031583 0.203158,0.532521 0,0.7361923 z" style="stroke-width:.513026;fill:#a00"/><metadata id="metadata827"/></svg>