<?xml version="1.0" encoding="UTF-8" standalone="no"?>
<!-- Created with Inkscape (http://www.inkscape.org/) -->

<svg
   version="1.1"
   id="svg22920"
   width="106.15722"
   height="106.15552"
   xmlns:inkscape="http://www.inkscape.org/namespaces/inkscape"
   xmlns:sodipodi="http://sodipodi.sourceforge.net/DTD/sodipodi-0.dtd"
   xmlns="http://www.w3.org/2000/svg"
   xmlns:svg="http://www.w3.org/2000/svg">
  <defs
     id="defs22924" />
  <sodipodi:namedview
     id="namedview22922"
     pagecolor="#ffffff"
     bordercolor="#666666"
     borderopacity="1.0"
     inkscape:pageshadow="2"
     inkscape:pageopacity="0.0"
     inkscape:pagecheckerboard="0" />
  <inkscape:clipboard
     style="font-variation-settings:normal;opacity:1;vector-effect:none;fill:#d2d2d2;fill-opacity:1;stroke-width:0.24207239;stroke-linecap:butt;stroke-linejoin:miter;stroke-miterlimit:4;stroke-dasharray:none;stroke-dashoffset:0;stroke-opacity:1;-inkscape-stroke:none;stop-color:#000000;stop-opacity:1"
     min="4606.3906,544.96871"
     max="4712.5478,651.12423"
     geom-min="4606.3906,544.96871"
     geom-max="4712.5478,651.12423" />
  <g
     id="g22926"
     transform="translate(-4606.3906,-544.96871)">
    <g
       id="g6042"
       transform="matrix(0.24207239,0,0,0.24207239,4606.3906,544.9675)"
       style="fill:#d2d2d2;fill-opacity:1"
       inkscape:export-filename="E:\Documents\Temp\icon_restart_scanning.png"
       inkscape:export-xdpi="6.5674257"
       inkscape:export-ydpi="6.5674257">
      <g
         id="g6002"
         style="fill:#d2d2d2;fill-opacity:1">
        <path
           id="path6004"
           d="M 421.125,134.191 C 409.517,107.161 393.908,83.844 374.306,64.242 354.7,44.639 331.384,29.033 304.353,17.42 277.325,5.807 248.969,0.005 219.275,0.005 191.297,0.005 164.223,5.282 138.048,15.848 111.879,26.412 88.61,41.305 68.243,60.531 L 31.123,23.696 C 25.412,17.795 18.848,16.464 11.422,19.697 3.807,22.937 0,28.554 0,36.547 v 127.907 c 0,4.948 1.809,9.231 5.426,12.847 3.619,3.617 7.902,5.426 12.85,5.426 h 127.907 c 7.996,0 13.61,-3.807 16.846,-11.421 3.234,-7.423 1.903,-13.988 -3.999,-19.701 l -39.115,-39.398 c 13.328,-12.563 28.553,-22.222 45.683,-28.98 17.131,-6.757 35.021,-10.138 53.675,-10.138 19.793,0 38.687,3.858 56.674,11.563 17.99,7.71 33.544,18.131 46.679,31.265 13.134,13.131 23.555,28.69 31.265,46.679 7.703,17.987 11.56,36.875 11.56,56.674 0,19.798 -3.856,38.686 -11.56,56.672 -7.71,17.987 -18.131,33.544 -31.265,46.679 -13.135,13.134 -28.695,23.558 -46.679,31.265 -17.987,7.707 -36.881,11.561 -56.674,11.561 -22.651,0 -44.064,-4.949 -64.241,-14.843 -20.174,-9.894 -37.209,-23.883 -51.104,-41.973 -1.331,-1.902 -3.521,-3.046 -6.567,-3.429 -2.856,0 -5.236,0.855 -7.139,2.566 L 51.108,347.17 c -1.521,1.53 -2.33,3.478 -2.426,5.853 -0.094,2.385 0.527,4.524 1.858,6.427 20.749,25.125 45.871,44.587 75.373,58.382 29.502,13.798 60.625,20.701 93.362,20.701 29.694,0 58.05,-5.808 85.078,-17.416 27.031,-11.607 50.34,-27.22 69.949,-46.821 19.605,-19.609 35.211,-42.921 46.822,-69.949 11.611,-27.028 17.411,-55.392 17.411,-85.08 10e-4,-29.698 -5.803,-58.047 -17.41,-85.076 z"
           inkscape:connector-curvature="0"
           style="fill:#d2d2d2;fill-opacity:1" />
      </g>
      <g
         id="g6006"
         style="fill:#d2d2d2;fill-opacity:1" />
      <g
         id="g6008"
         style="fill:#d2d2d2;fill-opacity:1" />
      <g
         id="g6010"
         style="fill:#d2d2d2;fill-opacity:1" />
      <g
         id="g6012"
         style="fill:#d2d2d2;fill-opacity:1" />
      <g
         id="g6014"
         style="fill:#d2d2d2;fill-opacity:1" />
      <g
         id="g6016"
         style="fill:#d2d2d2;fill-opacity:1" />
      <g
         id="g6018"
         style="fill:#d2d2d2;fill-opacity:1" />
      <g
         id="g6020"
         style="fill:#d2d2d2;fill-opacity:1" />
      <g
         id="g6022"
         style="fill:#d2d2d2;fill-opacity:1" />
      <g
         id="g6024"
         style="fill:#d2d2d2;fill-opacity:1" />
      <g
         id="g6026"
         style="fill:#d2d2d2;fill-opacity:1" />
      <g
         id="g6028"
         style="fill:#d2d2d2;fill-opacity:1" />
      <g
         id="g6030"
         style="fill:#d2d2d2;fill-opacity:1" />
      <g
         id="g6032"
         style="fill:#d2d2d2;fill-opacity:1" />
      <g
         id="g6034"
         style="fill:#d2d2d2;fill-opacity:1" />
    </g>
  </g>
</svg>
