<svg xmlns="http://www.w3.org/2000/svg" xmlns:svg="http://www.w3.org/2000/svg" id="svg22836" width="87.601" height="129.649" version="1.1"><g id="g22842" transform="translate(-4469.7336,-423.2521)"><g id="g5964" transform="matrix(0.24207239,0,0,0.24207239,4448.7096,423.2521)" style="fill:#d2d2d2;fill-opacity:1"><g id="g5888" style="fill:#d2d2d2;fill-opacity:1"><g id="g5890" style="fill:#d2d2d2;fill-opacity:1"><g id="g5892" style="fill:#d2d2d2;fill-opacity:1"><path id="path5894" d="m 231.6,516.278 c 0,10.658 -8.641,19.3 -19.3,19.3 H 106.15 c -10.659,0 -19.3,-8.641 -19.3,-19.3 L 86.85,19.3 C 86.85,8.641 95.491,0 106.15,0 H 212.3 c 10.659,0 19.3,8.641 19.3,19.3 z" style="fill:#d2d2d2;fill-opacity:1"/><path id="path5896" d="m 448.728,516.278 c 0,10.658 -8.641,19.3 -19.3,19.3 h -106.15 c -10.659,0 -19.3,-8.641 -19.3,-19.3 V 19.3 c 0,-10.659 8.641,-19.3 19.3,-19.3 h 106.15 c 10.659,0 19.3,8.641 19.3,19.3 z" style="fill:#d2d2d2;fill-opacity:1"/></g></g></g></g></g></svg>