<svg xmlns="http://www.w3.org/2000/svg" xmlns:svg="http://www.w3.org/2000/svg" id="svg23032" width="171.97" height="154.774" version="1.1"><g id="g23038" transform="translate(-758.50241,-3457.265)"><rect style="fill:none;fill-opacity:.627119;stroke:#d2d2d2;stroke-width:5.73236;stroke-linecap:round;stroke-linejoin:round;stroke-miterlimit:4;stroke-dasharray:none;stroke-opacity:1" id="rect4204-8-2-1-0-1-77-4" width="166.238" height="149.041" x="761.369" y="-3609.173" transform="scale(1,-1)"/><flowRoot id="flowRoot4168-8-2-7-3" transform="matrix(0.94679304,-2.7553039e-8,-4.2894737e-8,0.86631856,916.13081,3108.7953)" xml:space="preserve" style="font-style:normal;font-weight:400;font-size:40px;line-height:125%;font-family:Sans;letter-spacing:0;word-spacing:0;fill:#d2d2d2;fill-opacity:1;stroke:none"><flowRegion id="flowRegion4170-2-8-3-8"><rect id="rect4172-9-5-1-9" width="125.764" height="94.449" x="-133.845" y="492.233" style="fill:#d2d2d2;fill-opacity:1"/></flowRegion><flowPara id="flowPara4174-4-97-9-4" style="font-size:64px;fill:#d2d2d2;fill-opacity:1"><flowSpan style="fill:#d2d2d2;fill-opacity:1;stroke:none;stroke-opacity:1" id="flowSpan4176-6-7-7-6-0">Abc</flowSpan></flowPara></flowRoot><g style="fill:#000;fill-opacity:1" id="g5456-4-7-1" transform="matrix(3.1118536,2.2869072e-8,-1.3425756e-7,3.1118536,56.135863,3573.6925)"><path id="path5446-0-6-8" d="m 241.05263,-32.631579 h 24 v 23.9999999 h -24 z" style="fill:none"/><path id="path5448-7-8-2" d="m 265.36842,-14.368421 v -12 c 0,-1.1 -0.9,-2 -2,-2 h -18 c -1.1,0 -2,0.9 -2,2 v 12 c 0,1.1 0.9,2 2,2 h 18 c 1.1,0 2,-0.9 2,-2 z m -14.5,-5.5 2.5,3.01 3.5,-4.51 4.5,6 h -14 z" style="fill:#d2d2d2;fill-opacity:1"/></g><g id="g4353-3-2-0-10-4" transform="matrix(2.8723252,0,0,2.7600982,779.4409,3467.9336)" style="fill:#aeaeae;fill-opacity:1"><g id="g4311-2-6-2-9-81" style="fill:#aeaeae;fill-opacity:1"><g id="g4313-0-6-5-5-3" style="fill:#aeaeae;fill-opacity:1"><path id="path4315-8-0-9-73-0" d="m 14.757,46.02 c -1.412,0 -2.825,-0.521 -3.929,-1.569 -2.282,-2.17 -2.373,-5.78 -0.204,-8.063 L 23.382,22.97 10.637,9.645 C 8.46,7.37 8.54,3.76 10.816,1.582 c 2.277,-2.178 5.886,-2.097 8.063,0.179 l 16.505,17.253 c 2.104,2.2 2.108,5.665 0.013,7.872 L 18.893,44.247 c -1.123,1.177 -2.626,1.773 -4.136,1.773 z" style="fill:#aeaeae;fill-opacity:1"/></g></g></g></g></svg>