<?xml version="1.0" encoding="UTF-8" standalone="no"?>
<svg
   xmlns:dc="http://purl.org/dc/elements/1.1/"
   xmlns:cc="http://creativecommons.org/ns#"
   xmlns:rdf="http://www.w3.org/1999/02/22-rdf-syntax-ns#"
   xmlns:svg="http://www.w3.org/2000/svg"
   xmlns="http://www.w3.org/2000/svg"
   xmlns:sodipodi="http://sodipodi.sourceforge.net/DTD/sodipodi-0.dtd"
   xmlns:inkscape="http://www.inkscape.org/namespaces/inkscape"
   version="1.1"
   width="24"
   height="24"
   viewBox="0 0 24 24"
   id="svg4"
   sodipodi:docname="handshake.svg"
   inkscape:export-filename="C:\Users\Mathieu\Dev\LC2\workspace\lifecompanion-k\resources\values-icon\handshake.png"
   inkscape:export-xdpi="1024"
   inkscape:export-ydpi="1024"
   inkscape:version="0.92.4 (5da689c313, 2019-01-14)">
  <metadata
     id="metadata10">
    <rdf:RDF>
      <cc:Work
         rdf:about="">
        <dc:format>image/svg+xml</dc:format>
        <dc:type
           rdf:resource="http://purl.org/dc/dcmitype/StillImage" />
      </cc:Work>
    </rdf:RDF>
  </metadata>
  <defs
     id="defs8" />
  <sodipodi:namedview
     pagecolor="#ffffff"
     bordercolor="#666666"
     borderopacity="1"
     objecttolerance="10"
     gridtolerance="10"
     guidetolerance="10"
     inkscape:pageopacity="0"
     inkscape:pageshadow="2"
     inkscape:window-width="3840"
     inkscape:window-height="2081"
     id="namedview6"
     showgrid="false"
     inkscape:zoom="9.8333333"
     inkscape:cx="12"
     inkscape:cy="12"
     inkscape:window-x="-9"
     inkscape:window-y="-9"
     inkscape:window-maximized="1"
     inkscape:current-layer="svg4" />
  <path
     d="M11 6H14L17.29 2.7A1 1 0 0 1 18.71 2.7L21.29 5.29A1 1 0 0 1 21.29 6.7L19 9H11V11A1 1 0 0 1 10 12A1 1 0 0 1 9 11V8A2 2 0 0 1 11 6M5 11V15L2.71 17.29A1 1 0 0 0 2.71 18.7L5.29 21.29A1 1 0 0 0 6.71 21.29L11 17H15A1 1 0 0 0 16 16V15H17A1 1 0 0 0 18 14V13H19A1 1 0 0 0 20 12V11H13V12A2 2 0 0 1 11 14H9A2 2 0 0 1 7 12V9Z"
     id="path2"
     style="fill:#ffffff" />
</svg>
