<svg xmlns="http://www.w3.org/2000/svg" xmlns:svg="http://www.w3.org/2000/svg" id="SVGRoot" width="32" height="32" version="1.1" viewBox="0 0 32 32"><metadata id="metadata6482"/><g id="layer1"><g id="g116" transform="matrix(0.23188406,0,0,0.23188406,-3.3043373,-4.6086958)"><rect style="fill:#03a9f4;fill-opacity:1;stroke:none" id="rect4204-85-1" width="108" height="100" x="44.25" y="-123.875" transform="scale(1,-1)"/><rect style="fill:#f44336;fill-opacity:1;stroke:none" id="rect4204-8-6-4" width="108" height="100" x="29.25" y="-138.875" transform="scale(1,-1)"/><rect style="fill:#03a9f4;fill-opacity:1;stroke:none" id="rect4204-8-2-9-7" width="108" height="100" x="14.25" y="-153.875" transform="scale(1,-1)"/><path id="path4928-6" d="m 66.6055,76.90225 c -15.6065,0 -28.1429,12.5364 -28.1429,28.14289 0,15.6065 12.5364,28.1429 28.1429,28.1429 15.6065,0 28.1429,-12.5364 28.1429,-28.1429 0,-15.60649 -12.5364,-28.14289 -28.1429,-28.14289 z m 15.3507,29.42219 c 0,0.7674 -0.5117,1.2792 -1.2792,1.2792 H 69.8035 c -0.3837,0 -0.6395,0.2558 -0.6395,0.6395 v 10.8735 c 0,0.7675 -0.5117,1.2792 -1.2793,1.2792 h -2.5584 c -0.7675,0 -1.2793,-0.5117 -1.2793,-1.2792 v -10.8735 c 0,-0.3837 -0.2558,-0.6395 -0.6395,-0.6395 H 52.5341 c -0.7676,0 -1.2793,-0.5118 -1.2793,-1.2792 v -2.5585 c 0,-0.7675 0.5117,-1.2792 1.2793,-1.2792 h 10.8734 c 0.3837,0 0.6395,-0.2559 0.6395,-0.6396 V 90.97375 c 0,-0.7676 0.5118,-1.2793 1.2793,-1.2793 h 2.5584 c 0.7676,0 1.2793,0.5117 1.2793,1.2793 v 10.87339 c 0,0.3837 0.2558,0.6396 0.6395,0.6396 H 80.677 c 0.7675,0 1.2792,0.5117 1.2792,1.2792 z" style="fill:#f44336;fill-opacity:1"/></g></g></svg>