<svg xmlns="http://www.w3.org/2000/svg" xmlns:svg="http://www.w3.org/2000/svg" id="SVGRoot" width="32" height="32" version="1.1" viewBox="0 0 32 32"><metadata id="metadata6482"/><g id="layer1"><rect style="fill:#03a9f4;fill-opacity:1;stroke:none;stroke-width:.231884" id="rect4204-85-1" width="25.043" height="23.188" x="6.957" y="-24.116" transform="scale(1,-1)"/><rect style="fill:#f44336;fill-opacity:1;stroke:none;stroke-width:.231884" id="rect4204-8-6-4" width="25.043" height="23.188" x="3.478" y="-27.594" transform="scale(1,-1)"/><rect style="fill:#03a9f4;fill-opacity:1;stroke:none;stroke-width:.231884" id="rect4204-8-2-9-7" width="25.043" height="23.188" x="0" y="-31.072" transform="scale(1,-1)"/><path id="path1018" d="m 18.180196,12.947472 c 0.718414,0 1.300782,0.582368 1.300782,1.300782 v 7.804686 c 0,0.718414 -0.582368,1.300782 -1.300782,1.300782 H 10.37551 c -0.718414,0 -1.300782,-0.582368 -1.300782,-1.300782 v -7.804686 c 0,-0.718414 0.582368,-1.300782 1.300782,-1.300782 h 7.804686 M 10.37551,24.22091 c -1.195419,0 -2.1679694,-0.972552 -2.1679694,-2.16797 V 16.416222 H 6.9067592 c -0.7184128,0 -1.3007812,0.582368 -1.3007812,1.300782 v 7.804686 c 0,0.718414 0.5823684,1.300782 1.3007812,1.300782 h 7.8046868 c 0.718414,0 1.300782,-0.582368 1.300782,-1.300782 v -1.30078 z" style="stroke-width:.0270996;fill:#f44336;fill-opacity:1"/></g></svg>