<svg xmlns="http://www.w3.org/2000/svg" xmlns:svg="http://www.w3.org/2000/svg" id="svg14544" width="145.182" height="129.626" version="1.1"><g id="g14550" transform="translate(-1370.3188,-2745.3201)"><g id="g3103" transform="matrix(0.28376439,0,0,0.28376439,1370.3188,2737.5427)" style="fill:#d2d2d2;fill-opacity:1"><g id="g3063" style="fill:#d2d2d2;fill-opacity:1"><path id="path3065" d="M 506.206,179.012 360.025,32.834 c -3.617,-3.617 -7.898,-5.426 -12.847,-5.426 -4.949,0 -9.233,1.809 -12.847,5.426 -3.617,3.619 -5.428,7.902 -5.428,12.85 v 73.089 H 264.95 c -135.716,0 -218.984,38.354 -249.823,115.06 C 5.042,259.335 0,291.03 0,328.907 c 0,31.594 12.087,74.514 36.259,128.762 0.57,1.335 1.566,3.614 2.996,6.849 1.429,3.233 2.712,6.088 3.854,8.565 1.146,2.471 2.384,4.565 3.715,6.276 2.282,3.237 4.948,4.859 7.994,4.859 2.855,0 5.092,-0.951 6.711,-2.854 1.615,-1.902 2.424,-4.284 2.424,-7.132 0,-1.718 -0.238,-4.236 -0.715,-7.569 -0.476,-3.333 -0.715,-5.564 -0.715,-6.708 -0.953,-12.938 -1.429,-24.653 -1.429,-35.114 0,-19.223 1.668,-36.449 4.996,-51.675 3.333,-15.229 7.948,-28.407 13.85,-39.543 5.901,-11.14 13.512,-20.745 22.841,-28.835 9.325,-8.09 19.364,-14.702 30.118,-19.842 10.756,-5.141 23.413,-9.186 37.974,-12.135 14.56,-2.95 29.215,-4.997 43.968,-6.14 14.753,-1.143 31.455,-1.711 50.109,-1.711 h 63.953 v 73.091 c 0,4.948 1.807,9.232 5.421,12.847 3.62,3.613 7.901,5.424 12.847,5.424 4.948,0 9.232,-1.811 12.854,-5.424 L 506.203,204.715 c 3.617,-3.617 5.424,-7.898 5.424,-12.847 -0.001,-4.948 -1.807,-9.232 -5.421,-12.856 z" style="fill:#d2d2d2;fill-opacity:1"/></g></g></g></svg>