<?xml version="1.0" encoding="UTF-8" standalone="no"?>
<!-- Uploaded to: SVG Repo, www.svgrepo.com, Generator: SVG Repo Mixer Tools -->

<svg
   version="1.1"
   id="Layer_1"
   width="32"
   height="32"
   viewBox="0 0 0.84 1.28"
   enable-background="new 0 0 21 32"
   xml:space="preserve"
   sodipodi:docname="icon_mobile.svg"
   inkscape:version="1.4.2 (1:1.4.2+202505120737+ebf0e940d0)"
   inkscape:export-filename="icon_mobile.png"
   inkscape:export-xdpi="96"
   inkscape:export-ydpi="96"
   xmlns:inkscape="http://www.inkscape.org/namespaces/inkscape"
   xmlns:sodipodi="http://sodipodi.sourceforge.net/DTD/sodipodi-0.dtd"
   xmlns="http://www.w3.org/2000/svg"
   xmlns:svg="http://www.w3.org/2000/svg"><defs
   id="defs3" /><sodipodi:namedview
   id="namedview3"
   pagecolor="#ffffff"
   bordercolor="#000000"
   borderopacity="0.25"
   inkscape:showpageshadow="2"
   inkscape:pageopacity="0.0"
   inkscape:pagecheckerboard="0"
   inkscape:deskcolor="#d1d1d1"
   inkscape:zoom="22.797123"
   inkscape:cx="13.291151"
   inkscape:cy="14.563241"
   inkscape:window-width="1920"
   inkscape:window-height="1011"
   inkscape:window-x="0"
   inkscape:window-y="0"
   inkscape:window-maximized="1"
   inkscape:current-layer="g3" />
<g
   id="g3"
   transform="matrix(0.03998908,0,0,0.03998908,0.01769708,0)">
	<path
   fill="#808184"
   d="m 1.5,32 h 18 C 20.327,32 21,31.327 21,30.5 V 1.5 C 21,0.673 20.327,0 19.5,0 H 1.5 C 0.673,0 0,0.673 0,1.5 v 29 C 0,31.327 0.673,32 1.5,32 Z M 1,1.5 C 1,1.224 1.224,1 1.5,1 h 18 C 19.776,1 20,1.224 20,1.5 v 29 C 20,30.776 19.776,31 19.5,31 H 1.5 C 1.224,31 1,30.776 1,30.5 Z"
   id="path1"
   style="fill:#d2d2d2;fill-opacity:1" />
	<path
   fill="#808184"
   d="m 10.179,28.137 c 1.103,0 2,-0.897 2,-2 0,-1.103 -0.897,-2 -2,-2 -1.103,0 -2,0.897 -2,2 0,1.103 0.897,2 2,2 z m 0,-3 c 0.551,0 1,0.449 1,1 0,0.551 -0.449,1 -1,1 -0.551,0 -1,-0.449 -1,-1 0,-0.551 0.449,-1 1,-1 z"
   id="path2"
   style="fill:#d2d2d2;fill-opacity:1" />
	<path
   fill="#808184"
   d="m 9,4 h 3 C 12.276,4 12.5,3.776 12.5,3.5 12.5,3.224 12.276,3 12,3 H 9 C 8.724,3 8.5,3.224 8.5,3.5 8.5,3.776 8.724,4 9,4 Z"
   id="path3"
   style="fill:#d2d2d2;fill-opacity:1" />
</g>
</svg>
