<svg xmlns="http://www.w3.org/2000/svg" xmlns:svg="http://www.w3.org/2000/svg" id="svg14258" width="115.837" height="123.941" version="1.1"><g id="g14264" transform="translate(-4199.0194,-1931.1045)"><g id="g5314" transform="matrix(0.3178131,0,0,0.3178131,4194.9676,1931.1045)" style="fill:#d2d2d2;fill-opacity:1"><g id="g5270" style="fill:#d2d2d2;fill-opacity:1"><path id="path5272" d="m 145.407,248.988 -2.775,26.209 c -0.224,2.115 0.46,4.225 1.883,5.806 1.422,1.581 3.449,2.483 5.576,2.483 h 79.301 c 2.126,0 4.153,-0.903 5.576,-2.483 1.422,-1.581 2.106,-3.691 1.883,-5.806 l -2.775,-26.209 h 98.777 c 15.374,0 27.881,-12.507 27.881,-27.881 V 27.881 C 360.733,12.507 348.225,0 332.852,0 H 40.63 C 25.256,0 12.749,12.507 12.749,27.881 v 193.226 c 0,15.374 12.507,27.881 27.881,27.881 z m 75.648,19.499 h -62.629 l 2.064,-19.499 h 58.5 z M 40.63,15 h 292.222 c 7.103,0 12.881,5.778 12.881,12.881 V 197.99 H 27.749 V 27.881 C 27.749,20.778 33.527,15 40.63,15 Z M 27.749,221.107 v -8.117 h 317.983 v 8.117 c 0,7.103 -5.778,12.881 -12.881,12.881 H 40.63 c -7.103,0 -12.881,-5.778 -12.881,-12.881 z" style="fill:#d2d2d2;fill-opacity:1"/><path id="path5274" d="m 332.645,333.876 c 1.36,-2.24 1.453,-5.027 0.244,-7.352 l -14.813,-28.499 c -1.291,-2.483 -3.856,-4.041 -6.655,-4.041 H 62.061 c -2.798,0 -5.364,1.558 -6.655,4.041 l -14.813,28.499 c -1.208,2.325 -1.116,5.112 0.244,7.352 1.36,2.24 3.791,3.607 6.411,3.607 h 278.986 c 2.62,10e-4 5.051,-1.367 6.411,-3.607 z M 59.599,322.484 66.615,308.985 h 240.251 l 7.017,13.499 z" style="fill:#d2d2d2;fill-opacity:1"/><path id="path5276" d="m 345.733,350.982 h -12 c -17.368,0 -31.499,14.13 -31.499,31.499 0,4.142 3.358,7.5 7.5,7.5 h 59.997 c 4.142,0 7.5,-3.358 7.5,-7.5 0.001,-17.368 -14.129,-31.499 -31.498,-31.499 z m -26.693,23.999 c 2.735,-5.337 8.295,-8.999 14.693,-8.999 h 12 c 6.398,0 11.958,3.662 14.694,8.999 z" style="fill:#d2d2d2;fill-opacity:1"/></g></g></g></svg>