<?xml version="1.0" encoding="UTF-8" standalone="no"?>
<!-- Created with Inkscape (http://www.inkscape.org/) -->

<svg
   version="1.1"
   id="svg14666"
   width="245.72577"
   height="273.56845"
   xmlns:inkscape="http://www.inkscape.org/namespaces/inkscape"
   xmlns:sodipodi="http://sodipodi.sourceforge.net/DTD/sodipodi-0.dtd"
   xmlns="http://www.w3.org/2000/svg"
   xmlns:svg="http://www.w3.org/2000/svg">
  <defs
     id="defs14670" />
  <sodipodi:namedview
     id="namedview14668"
     pagecolor="#ffffff"
     bordercolor="#666666"
     borderopacity="1.0"
     inkscape:pageshadow="2"
     inkscape:pageopacity="0.0"
     inkscape:pagecheckerboard="0" />
  <inkscape:clipboard
     style="font-variation-settings:normal;opacity:1;vector-effect:none;fill:#d2d2d2;fill-opacity:1;stroke-width:0.28376439;stroke-linecap:butt;stroke-linejoin:miter;stroke-miterlimit:4;stroke-dasharray:none;stroke-dashoffset:0;stroke-opacity:1;-inkscape-stroke:none;stop-color:#000000;stop-opacity:1"
     min="949.97917,2587.7013"
     max="1195.7049,2861.2698"
     geom-min="949.97917,2587.7013"
     geom-max="1195.7049,2861.2698" />
  <g
     id="g14672"
     transform="translate(-949.97917,-2587.7013)">
    <g
       id="g3165"
       transform="matrix(0.28376439,0,0,0.28376439,936.05769,2587.7013)"
       style="fill:#d2d2d2;fill-opacity:1"
       inkscape:export-filename="F:\Users\Mathieu\Documents\Travail\Entreprise\FUS-Divers\Graphisme\Icons\Icons-PNG\use-actions\actions-gallery\icon_write.png"
       inkscape:export-xdpi="2.9873381"
       inkscape:export-ydpi="2.9873381">
      <g
         id="g3123"
         style="fill:#d2d2d2;fill-opacity:1">
        <path
           id="path3125"
           d="m 850.662,877.56 c -0.77,0.137 -4.372,0.782 -10.226,1.831 -230.868,41.379 -273.337,48.484 -278.103,49.037 -11.37,1.319 -19.864,0.651 -25.976,-2.042 -3.818,-1.682 -5.886,-3.724 -6.438,-4.623 0.268,-1.597 2.299,-5.405 3.539,-7.73 1.207,-2.263 2.574,-4.826 3.772,-7.558 7.945,-18.13 2.386,-36.521 -14.51,-47.999 -12.599,-8.557 -29.304,-12.03 -49.666,-10.325 -12.155,1.019 -225.218,36.738 -342.253,56.437 l -57.445,45.175 c 133.968,-22.612 389.193,-65.433 402.622,-66.735 11.996,-1.007 21.355,0.517 27.074,4.4 3.321,2.257 2.994,3.003 2.12,4.997 -0.656,1.497 -1.599,3.264 -2.596,5.135 -3.835,7.189 -9.087,17.034 -7.348,29.229 1.907,13.374 11.753,24.901 27.014,31.626 8.58,3.78 18.427,5.654 29.846,5.654 4.508,0 9.261,-0.292 14.276,-0.874 9.183,-1.065 103.471,-17.67 280.244,-49.354 5.821,-1.043 9.403,-1.686 10.169,-1.821 9.516,-1.688 15.861,-10.772 14.172,-20.289 -1.689,-9.517 -10.766,-15.861 -20.287,-14.171 z"
           inkscape:connector-curvature="0"
           style="fill:#d2d2d2;fill-opacity:1" />
        <path
           id="path3127"
           d="M 231.14,707.501 82.479,863.005 C 66.106,880.132 54.573,901.299 49.06,924.343 L 260.147,758.342 c 66.081,29.303 118.866,38.637 159.32,38.637 71.073,0 104.065,-28.826 104.065,-28.826 -66.164,-34.43 -75.592,-98.686 -75.592,-98.686 50.675,21.424 156.235,46.678 156.235,46.678 140.186,-93.563 213.45,-296.138 213.45,-296.138 -14.515,3.99 -28.395,5.652 -41.475,5.652 -65.795,0 -111,-42.13 -111,-42.13 L 848.294,343.644 C 909.186,218.71 915.01,0 915.01,0 L 358.176,495.258 c -63.06,56.086 -107.4,130.166 -127.036,212.243 z"
           inkscape:connector-curvature="0"
           style="fill:#d2d2d2;fill-opacity:1" />
      </g>
      <g
         id="g3129"
         style="fill:#d2d2d2;fill-opacity:1" />
      <g
         id="g3131"
         style="fill:#d2d2d2;fill-opacity:1" />
      <g
         id="g3133"
         style="fill:#d2d2d2;fill-opacity:1" />
      <g
         id="g3135"
         style="fill:#d2d2d2;fill-opacity:1" />
      <g
         id="g3137"
         style="fill:#d2d2d2;fill-opacity:1" />
      <g
         id="g3139"
         style="fill:#d2d2d2;fill-opacity:1" />
      <g
         id="g3141"
         style="fill:#d2d2d2;fill-opacity:1" />
      <g
         id="g3143"
         style="fill:#d2d2d2;fill-opacity:1" />
      <g
         id="g3145"
         style="fill:#d2d2d2;fill-opacity:1" />
      <g
         id="g3147"
         style="fill:#d2d2d2;fill-opacity:1" />
      <g
         id="g3149"
         style="fill:#d2d2d2;fill-opacity:1" />
      <g
         id="g3151"
         style="fill:#d2d2d2;fill-opacity:1" />
      <g
         id="g3153"
         style="fill:#d2d2d2;fill-opacity:1" />
      <g
         id="g3155"
         style="fill:#d2d2d2;fill-opacity:1" />
      <g
         id="g3157"
         style="fill:#d2d2d2;fill-opacity:1" />
    </g>
  </g>
</svg>
