<svg xmlns="http://www.w3.org/2000/svg" xmlns:svg="http://www.w3.org/2000/svg" id="svg14436" width="145.287" height="120.446" version="1.1"><g id="g14442" transform="translate(-389.48247,-2910.6686)"><g id="g3573" transform="matrix(0.28376439,0,0,0.28376439,389.48247,2898.2482)" style="fill:#d2d2d2;fill-opacity:1"><g id="g3519" style="fill:#d2d2d2;fill-opacity:1"><g id="g3521" style="fill:#d2d2d2;fill-opacity:1"><path id="path3523" d="M 498.723,89.435 H 183.171 V 76.958 c 0,-18.3 -14.888,-33.188 -33.188,-33.188 h -51.5 c -18.3,0 -33.188,14.888 -33.188,33.188 V 89.435 H 13.275 C 5.943,89.435 0,95.38 0,102.711 c 0,7.331 5.943,13.275 13.275,13.275 h 52.018 v 12.473 c 0,18.3 14.888,33.188 33.188,33.188 h 51.501 c 18.3,0 33.188,-14.888 33.188,-33.188 v -12.473 h 315.553 c 7.332,0 13.275,-5.945 13.275,-13.275 0.001,-7.331 -5.943,-13.276 -13.275,-13.276 z m -342.102,39.024 c 0,3.66 -2.978,6.638 -6.638,6.638 H 98.482 c -3.66,0 -6.638,-2.978 -6.638,-6.638 V 76.958 c 0,-3.66 2.978,-6.638 6.638,-6.638 h 51.501 c 3.66,0 6.638,2.978 6.638,6.638 z" style="fill:#d2d2d2;fill-opacity:1"/></g></g><g id="g3525" style="fill:#d2d2d2;fill-opacity:1"><g id="g3527" style="fill:#d2d2d2;fill-opacity:1"><path id="path3529" d="m 498.725,237.295 h -52.019 v -12.481 c 0,-18.3 -14.888,-33.188 -33.188,-33.188 h -51.501 c -18.3,0 -33.188,14.888 -33.188,33.188 v 12.481 H 13.275 C 5.943,237.295 0,243.239 0,250.57 c 0,7.331 5.943,13.275 13.275,13.275 h 315.553 v 12.469 c 0,18.3 14.888,33.188 33.188,33.188 h 51.501 c 18.3,0 33.188,-14.888 33.188,-33.188 v -12.469 h 52.019 c 7.332,0 13.275,-5.945 13.275,-13.275 10e-4,-7.331 -5.942,-13.275 -13.274,-13.275 z m -78.57,39.02 c 0,3.66 -2.978,6.638 -6.638,6.638 h -51.501 c -3.66,0 -6.638,-2.978 -6.638,-6.638 v -51.501 c 0,-3.66 2.978,-6.638 6.638,-6.638 h 51.501 c 3.66,0 6.638,2.978 6.638,6.638 z" style="fill:#d2d2d2;fill-opacity:1"/></g></g><g id="g3531" style="fill:#d2d2d2;fill-opacity:1"><g id="g3533" style="fill:#d2d2d2;fill-opacity:1"><path id="path3535" d="M 498.725,396.014 H 276.432 v -12.473 c 0,-18.3 -14.888,-33.188 -33.188,-33.188 h -51.501 c -18.3,0 -33.188,14.888 -33.188,33.188 v 12.473 H 13.275 C 5.943,396.014 0,401.959 0,409.289 c 0,7.331 5.943,13.275 13.275,13.275 h 145.279 v 12.477 c 0,18.3 14.888,33.188 33.188,33.188 h 51.501 c 18.3,0 33.188,-14.888 33.188,-33.188 v -12.477 h 222.293 c 7.332,0 13.275,-5.945 13.275,-13.275 10e-4,-7.332 -5.942,-13.275 -13.274,-13.275 z m -248.844,39.028 c 0,3.66 -2.978,6.638 -6.638,6.638 h -51.501 c -3.66,0 -6.638,-2.978 -6.638,-6.638 v -51.501 c 0,-3.66 2.978,-6.638 6.638,-6.638 h 51.501 c 3.66,0 6.638,2.978 6.638,6.638 z" style="fill:#d2d2d2;fill-opacity:1"/></g></g></g></g></svg>