<svg xmlns="http://www.w3.org/2000/svg" xmlns:svg="http://www.w3.org/2000/svg" id="svg13877" width="129" height="92.973" version="1.1"><g id="g13883" transform="translate(-1737.6122,-3125.633)"><rect style="opacity:1;vector-effect:none;fill:#d2d2d2;fill-opacity:1;stroke:none;stroke-width:.120049;stroke-linecap:round;stroke-linejoin:round;stroke-miterlimit:4;stroke-dasharray:.120049,.120049;stroke-dashoffset:0;stroke-opacity:1" id="rect8828-0-7-9" width="35" height="35" x="1737.612" y="3154.619" ry="6.313"/><rect style="opacity:1;vector-effect:none;fill:#d2d2d2;fill-opacity:1;stroke:none;stroke-width:.120049;stroke-linecap:round;stroke-linejoin:round;stroke-miterlimit:4;stroke-dasharray:.120049,.120049;stroke-dashoffset:0;stroke-opacity:1" id="rect8828-1-35-2-0" width="35" height="35" x="1784.612" y="3154.619" ry="6.313"/><rect style="opacity:1;vector-effect:none;fill:#d2d2d2;fill-opacity:1;stroke:none;stroke-width:.120049;stroke-linecap:round;stroke-linejoin:round;stroke-miterlimit:4;stroke-dasharray:.120049,.120049;stroke-dashoffset:0;stroke-opacity:1" id="rect8828-6-4-6-4" width="35" height="35" x="1831.612" y="3154.619" ry="6.313"/><g id="g4353-3-2-0-10-9" transform="matrix(2.0202557,0,0,2.0202557,1756.9331,3125.6333)" style="fill:#aeaeae;fill-opacity:1"><g id="g4311-2-6-2-9-3" style="fill:#aeaeae;fill-opacity:1"><g id="g4313-0-6-5-5-2" style="fill:#aeaeae;fill-opacity:1"><path id="path4315-8-0-9-73-4" d="m 14.757,46.02 c -1.412,0 -2.825,-0.521 -3.929,-1.569 -2.282,-2.17 -2.373,-5.78 -0.204,-8.063 L 23.382,22.97 10.637,9.645 C 8.46,7.37 8.54,3.76 10.816,1.582 c 2.277,-2.178 5.886,-2.097 8.063,0.179 l 16.505,17.253 c 2.104,2.2 2.108,5.665 0.013,7.872 L 18.893,44.247 c -1.123,1.177 -2.626,1.773 -4.136,1.773 z" style="fill:#aeaeae;fill-opacity:1"/></g></g></g><rect style="opacity:1;vector-effect:none;fill:#aeaeae;fill-opacity:1;stroke:none;stroke-width:.158235;stroke-linecap:round;stroke-linejoin:round;stroke-miterlimit:4;stroke-dasharray:.158235,.158235;stroke-dashoffset:0;stroke-opacity:1" id="rect8906-4" width="14.643" height="71.429" x="1831.349" y="3134.231" ry="6.816"/></g></svg>