<svg xmlns="http://www.w3.org/2000/svg" xmlns:svg="http://www.w3.org/2000/svg" id="SVGRoot" width="250" height="200" version="1.1" viewBox="0 0 250 200"><defs id="defs6479"><rect id="rect4778" width="369.5" height="275.5" x="162" y="55.5"/><rect id="rect2676" width="148" height="61" x="388" y="71.5"/></defs><metadata id="metadata6482"/><g id="layer1"><g id="g889" transform="translate(-72.25,187.25)"><g id="g1246" transform="translate(6.9375,3.2500002)"><g id="g2226" transform="matrix(4.3010907,1.8492103,-1.8492103,4.3010907,98.58004,-177.09231)"><path id="path1189" d="M 21,31 H 11 C 9.9,31 9,30.1 9,29 V 3 C 9,1.9 9.9,1 11,1 h 10 c 1.1,0 2,0.9 2,2 v 26 c 0,1.1 -0.9,2 -2,2 z" class="st0" style="stroke:#4d4d4d;stroke-opacity:1"/><line id="line1191" x1="16" x2="16" y1="22" y2="21" class="st0" style="fill:#5f2323;fill-opacity:1;stroke:#4d4d4d;stroke-opacity:1"/><line id="line1193" x1="16" x2="16" y1="27" y2="26" class="st0" style="fill:#5f2323;fill-opacity:1;stroke:#4d4d4d;stroke-opacity:1"/><line id="line1195" x1="14" x2="13" y1="24" y2="24" class="st0" style="fill:#5f2323;fill-opacity:1;stroke:#4d4d4d;stroke-opacity:1"/><line id="line1197" x1="19" x2="18" y1="24" y2="24" class="st0" style="fill:#5f2323;fill-opacity:1;stroke:#4d4d4d;stroke-opacity:1"/><line id="line1199" x1="14" x2="13" y1="17" y2="17" class="st0" style="fill:none;fill-opacity:1;stroke:#4d4d4d;stroke-opacity:1"/><line id="line1201" x1="19" x2="18" y1="17" y2="17" class="st0" style="fill:none;fill-opacity:1;stroke:#4d4d4d;stroke-opacity:1"/><circle id="circle1203" cx="13" cy="8" r="1" style="fill:#4d4d4d;fill-opacity:1"/><circle id="circle1205" cx="13" cy="5" r="1" style="fill:#4d4d4d;fill-opacity:1;stroke:none;stroke-opacity:1"/><circle id="circle1207" cx="16" cy="8" r="1" style="fill:#4d4d4d;fill-opacity:1"/><circle id="circle1209" cx="19" cy="8" r="1" style="fill:#4d4d4d;fill-opacity:1"/><circle id="circle1211" cx="13" cy="11" r="1" style="fill:#4d4d4d;fill-opacity:1"/><circle id="circle1213" cx="16" cy="11" r="1" style="fill:#4d4d4d;fill-opacity:1"/><circle id="circle1215" cx="19" cy="11" r="1" style="fill:#4d4d4d;fill-opacity:1"/><circle id="circle1217" cx="13" cy="14" r="1" style="fill:#4d4d4d;fill-opacity:1"/><circle id="circle1219" cx="16" cy="14" r="1" style="fill:#4d4d4d;fill-opacity:1"/><circle id="circle1221" cx="19" cy="14" r="1" style="fill:#4d4d4d;fill-opacity:1"/></g><g style="fill:#4d4d4d;fill-opacity:1" id="g919" transform="matrix(-0.02763377,2.4425147,-2.4425147,-0.02763377,277.61922,-197.10018)"><path id="path910" fill="#000" fill-rule="evenodd" d="m 9,7 h 6 V 5 2 H 9 V 5 Z M 9,5 C 9,5.55228 9.44772,6 10,6 10.5523,6 11,5.55228 11,5 11,4.44772 10.5523,4 10,4 9.44772,4 9,4.44772 9,5 Z m 6,0 c 0,-0.55228 -0.4477,-1 -1,-1 -0.5523,0 -1,0.44772 -1,1 0,0.55228 0.4477,1 1,1 0.5523,0 1,-0.44772 1,-1 z m 1.9863,2.1659 C 16.9953,7.11194 17,7.05652 17,7 V 1 C 17,0.447715 16.5523,0 16,0 H 8 C 7.44772,0 7,0.447715 7,1 V 7 C 7,7.05652 7.00469,7.11194 7.0137,7.1659 5.84136,7.57385 5,8.68867 5,10 v 7 c 0,3.866 3.13401,7 7,7 3.866,0 7,-3.134 7,-7 V 10 C 19,8.68867 18.1586,7.57385 16.9863,7.1659 Z M 7,10 C 7,9.44772 7.44772,9 8,9 h 8 c 0.5523,0 1,0.44772 1,1 v 7 c 0,2.7614 -2.2386,5 -5,5 -2.76142,0 -5,-2.2386 -5,-5 z" clip-rule="evenodd" style="fill:#4d4d4d;fill-opacity:1"/></g><path id="path937" fill="#000" d="m 271.71975,-81.782984 18.7315,17.312413 c 3.93915,3.640714 7.39263,10.342846 10.43527,16.251021 1.97555,3.842672 4.22047,8.195942 5.56095,9.434869 l 5.02681,4.645987 c 1.6227,1.499754 1.72247,4.03392 0.22272,5.656608 -1.49975,1.622688 -4.03393,1.722462 -5.65661,0.222708 l -5.02681,-4.645987 c -2.37526,-2.195301 -4.52255,-6.371119 -7.24566,-11.646017 -2.73621,-5.319701 -5.84031,-11.350092 -8.74469,-14.034445 l -18.73739,-17.317842 c -1.70499,-1.575835 -4.42783,-1.51962 -5.94932,0.126581 -1.58669,1.716762 -0.92662,4.092902 0.54135,5.547764 1.55028,1.530931 1.84512,3.983764 0.0734,5.605831 -1.5074,1.572016 -4.00852,1.647804 -5.60769,0.169783 l -9.1835,-8.487758 c -1.74028,-1.608432 -4.39068,-1.583383 -5.90131,0.05108 -1.43455,1.552137 -1.33656,4.041033 0.21183,5.668365 1.49504,1.567092 1.61255,3.975922 -0.0469,5.57091 -1.52007,1.538518 -3.98224,1.595787 -5.56966,0.12863 l -7.44909,-6.884751 c -1.7344,-1.603007 -4.36264,-1.590168 -5.86241,0.03253 -1.40736,1.522741 -1.45867,3.960872 -0.12069,5.568149 1.34387,1.61271 1.28668,4.045407 -0.31749,5.462594 -1.52905,1.453875 -3.92469,1.474554 -5.47682,0.04001 L 194.2797,-77.034458 c -1.7344,-1.603008 -4.37893,-1.572543 -5.88955,0.06191 -1.51064,1.634459 -1.33309,4.273191 0.40131,5.876198 l 36.33419,33.581516 c 1.21114,1.119384 1.61414,2.865448 1.01178,4.401822 -0.59693,1.530483 -2.08679,2.540927 -3.73532,2.543529 l -13.17322,-0.03091 c -5.21042,0.18814 -5.49725,1.536464 -5.75193,2.838198 -0.47836,2.239667 1.04697,4.576069 3.32912,5.126415 l 59.59809,19.2386264 c 0.82302,0.1828875 1.94311,-0.00287 2.85439,-0.5995953 1.54688,-1.0013509 3.55913,-0.8313091 4.90549,0.4130478 l 4.8916,4.5210132 c 1.62268,1.499754 1.72245,4.0339254 0.22271,5.6566099 -1.49977,1.622706 -4.03393,1.722475 -5.65663,0.22272 l -2.93378,-2.7115246 c -2.05393,0.6417339 -4.26044,0.7172833 -6.44487,0.2027597 L 204.65041,-14.93666 c -6.21577,-1.460546 -10.38794,-7.998427 -9.00597,-14.483046 1.83595,-8.768641 10.27108,-9.072413 13.43922,-9.185818 l 3.07078,0.0038 -28.79689,-26.615253 c -4.97979,-4.602512 -5.35145,-12.315452 -0.84674,-17.189413 4.50471,-4.873959 12.22299,-5.109839 17.20278,-0.507328 l 13.66941,12.633829 c 0.53929,-1.267634 1.29666,-2.464507 2.28019,-3.52866 4.29823,-4.65055 11.52291,-5.04829 16.50127,-1.05759 0.51167,-1.249525 1.25318,-2.417469 2.21497,-3.458106 4.51015,-4.879846 12.22889,-5.10442 17.21455,-0.496478 l 0.79958,0.739009 c 0.49984,-1.118745 1.18922,-2.171327 2.07494,-3.129659 4.53144,-4.91465 12.27734,-5.16864 17.25125,-0.571551 z" style="fill:#4d4d4d;fill-opacity:1;stroke-width:8.00585"/><g style="fill:#c62828;fill-opacity:1" id="g1064" transform="matrix(13.205015,0,0,13.205015,354.82504,15.959659)"><path id="path1055" d="m -12.013991,-12.625283 c -0.03146,-0.0192 -0.05396,-0.05014 -0.06253,-0.08599 -0.298388,-1.237316 -1.544251,-1.99765 -2.781083,-1.697254 -0.179788,0.04365 -0.245231,-0.226 -0.06544,-0.269656 1.385895,-0.336577 2.781898,0.515383 3.116268,1.901812 0.02918,0.120217 -0.101674,0.215626 -0.207209,0.151084 z m -0.747651,0.180943 c -0.03146,-0.01913 -0.054,-0.04998 -0.06266,-0.08577 -0.199263,-0.823811 -1.028727,-1.330021 -1.852487,-1.130545 -0.179899,0.04352 -0.245211,-0.226355 -0.06531,-0.269871 0.972827,-0.23627 1.952756,0.361766 2.187457,1.334973 0.02915,0.120102 -0.101443,0.215505 -0.206994,0.151215 z m -0.747996,0.181027 c -0.03146,-0.01913 -0.054,-0.04999 -0.06266,-0.08577 -0.09929,-0.410698 -0.512812,-0.663062 -0.923464,-0.563578 -0.179929,0.04356 -0.245243,-0.226303 -0.06531,-0.26987 0.559691,-0.135517 1.12325,0.208414 1.258648,0.768134 0.02917,0.120222 -0.101673,0.215626 -0.207208,0.151086 z" style="fill:#c62828;fill-opacity:1;stroke-width:.250429"/></g></g></g></g><style id="style921" type="text/css">.st0{fill:#000}</style><style id="style830" type="text/css">.st0{fill:none;stroke:#000;stroke-width:2;stroke-linecap:round;stroke-linejoin:round;stroke-miterlimit:10}</style><style id="style1187" type="text/css">.st0{fill:none;stroke:#000;stroke-width:2;stroke-linecap:round;stroke-linejoin:round;stroke-miterlimit:10}</style></svg>