<?xml version="1.0" encoding="UTF-8" standalone="no"?>
<!-- Created with Inkscape (http://www.inkscape.org/) -->

<svg
   width="250"
   height="200"
   viewBox="0 0 250 200"
   version="1.1"
   id="SVGRoot"
   inkscape:version="1.1.2 (b8e25be833, 2022-02-05)"
   sodipodi:docname="prepare_learning.svg"
   inkscape:export-filename="C:\Users\Mathieu\image.png"
   inkscape:export-xdpi="98.669998"
   inkscape:export-ydpi="98.669998"
   xmlns:inkscape="http://www.inkscape.org/namespaces/inkscape"
   xmlns:sodipodi="http://sodipodi.sourceforge.net/DTD/sodipodi-0.dtd"
   xmlns="http://www.w3.org/2000/svg"
   xmlns:svg="http://www.w3.org/2000/svg"
   xmlns:rdf="http://www.w3.org/1999/02/22-rdf-syntax-ns#"
   xmlns:cc="http://creativecommons.org/ns#"
   xmlns:dc="http://purl.org/dc/elements/1.1/">
  <sodipodi:namedview
     id="base"
     pagecolor="#ffffff"
     bordercolor="#666666"
     borderopacity="1.0"
     inkscape:pageopacity="0.0"
     inkscape:pageshadow="2"
     inkscape:zoom="2"
     inkscape:cx="386"
     inkscape:cy="156.75"
     inkscape:document-units="px"
     inkscape:current-layer="g1246"
     showgrid="false"
     inkscape:window-width="3840"
     inkscape:window-height="2081"
     inkscape:window-x="-9"
     inkscape:window-y="-9"
     inkscape:window-maximized="1"
     inkscape:grid-bbox="true"
     inkscape:pagecheckerboard="0" />
  <defs
     id="defs6479" />
  <metadata
     id="metadata6482">
    <rdf:RDF>
      <cc:Work
         rdf:about="">
        <dc:format>image/svg+xml</dc:format>
        <dc:type
           rdf:resource="http://purl.org/dc/dcmitype/StillImage" />
      </cc:Work>
    </rdf:RDF>
  </metadata>
  <g
     id="layer1"
     inkscape:groupmode="layer"
     inkscape:label="Calque 1">
    <g
       id="g889"
       transform="translate(-72.25,187.25)">
      <g
         id="g1246"
         transform="translate(6.9375,3.2500002)">
        <g
           id="g2226"
           transform="matrix(4.3703203,1.6790653,-1.6790653,4.3703203,204.75004,-183.47766)">
          <path
             class="st0"
             d="M 21,31 H 11 C 9.9,31 9,30.1 9,29 V 3 C 9,1.9 9.9,1 11,1 h 10 c 1.1,0 2,0.9 2,2 v 26 c 0,1.1 -0.9,2 -2,2 z"
             id="path1189"
             style="stroke:#4d4d4d;stroke-opacity:1" />
          <line
             class="st0"
             x1="16"
             y1="22"
             x2="16"
             y2="21"
             id="line1191"
             style="fill:#5f2323;fill-opacity:1;stroke:#4d4d4d;stroke-opacity:1" />
          <line
             class="st0"
             x1="16"
             y1="27"
             x2="16"
             y2="26"
             id="line1193"
             style="fill:#5f2323;fill-opacity:1;stroke:#4d4d4d;stroke-opacity:1" />
          <line
             class="st0"
             x1="14"
             y1="24"
             x2="13"
             y2="24"
             id="line1195"
             style="fill:#5f2323;fill-opacity:1;stroke:#4d4d4d;stroke-opacity:1" />
          <line
             class="st0"
             x1="19"
             y1="24"
             x2="18"
             y2="24"
             id="line1197"
             style="fill:#5f2323;fill-opacity:1;stroke:#4d4d4d;stroke-opacity:1" />
          <line
             class="st0"
             x1="14"
             y1="17"
             x2="13"
             y2="17"
             id="line1199"
             style="fill:none;fill-opacity:1;stroke:#4d4d4d;stroke-opacity:1" />
          <line
             class="st0"
             x1="19"
             y1="17"
             x2="18"
             y2="17"
             id="line1201"
             style="fill:none;fill-opacity:1;stroke:#4d4d4d;stroke-opacity:1" />
          <circle
             cx="13"
             cy="8"
             r="1"
             id="circle1203"
             style="fill:#4d4d4d;fill-opacity:1" />
          <circle
             cx="13"
             cy="5"
             r="1"
             id="circle1205"
             style="fill:#4d4d4d;fill-opacity:1;stroke:none;stroke-opacity:1" />
          <circle
             cx="16"
             cy="8"
             r="1"
             id="circle1207"
             style="fill:#4d4d4d;fill-opacity:1" />
          <circle
             cx="19"
             cy="8"
             r="1"
             id="circle1209"
             style="fill:#4d4d4d;fill-opacity:1" />
          <circle
             cx="13"
             cy="11"
             r="1"
             id="circle1211"
             style="fill:#4d4d4d;fill-opacity:1" />
          <circle
             cx="16"
             cy="11"
             r="1"
             id="circle1213"
             style="fill:#4d4d4d;fill-opacity:1" />
          <circle
             cx="19"
             cy="11"
             r="1"
             id="circle1215"
             style="fill:#4d4d4d;fill-opacity:1" />
          <circle
             cx="13"
             cy="14"
             r="1"
             id="circle1217"
             style="fill:#4d4d4d;fill-opacity:1" />
          <circle
             cx="16"
             cy="14"
             r="1"
             id="circle1219"
             style="fill:#4d4d4d;fill-opacity:1" />
          <circle
             cx="19"
             cy="14"
             r="1"
             id="circle1221"
             style="fill:#4d4d4d;fill-opacity:1" />
        </g>
        <path
           d="M 144.95396,-27.715193 99.924374,-55.645211 c -5.310741,-3.294039 -10.286287,-9.27533 -14.667413,-14.552876 -2.648993,-3.18086 -5.376533,-6.470562 -6.853119,-7.386426 l -4.653094,-2.886126 c -1.712336,-1.062092 -2.240073,-3.313813 -1.177981,-5.026149 1.0621,-1.712349 3.313812,-2.240072 5.026148,-1.17798 l 4.653097,2.886126 c 2.481662,1.539274 5.185867,4.797321 8.613521,8.925059 3.842553,4.608437 8.607544,10.34746 12.907017,13.014243 l 45.02958,27.930015 c 1.70614,1.05825 3.78932,0.580616 4.83601,-1.106906 1.0698,-1.724756 0.66741,-3.984626 -0.89862,-5.033302 -0.0186,-0.01154 -0.0295,-0.03548 -0.0481,-0.04703 l -23.9518,-14.847726 c -1.71234,-1.062094 -2.24007,-3.313813 -1.17798,-5.026148 1.0621,-1.71235 3.31382,-2.240089 5.02616,-1.177995 l 25.35392,15.717444 c 0.031,0.01924 0.0443,0.05324 0.0815,0.07632 l 8.72301,5.410526 c 1.43937,0.892781 3.53536,0.990086 4.7129,-0.908376 1.05439,-1.699932 0.72896,-4.083894 -0.69846,-5.10673 -0.0768,-0.05621 -0.11663,-0.158248 -0.19579,-0.224527 l -27.7945,-17.2398 c -1.71236,-1.062101 -2.24009,-3.313822 -1.178,-5.026158 1.06209,-1.712335 3.30762,-2.243914 5.02616,-1.177971 l 30.37544,18.840642 c 0.13648,0.08466 0.22208,0.22366 0.34082,0.323092 l 4.93228,3.059289 c 1.61929,1.004378 3.91781,0.359625 5.01069,-1.402348 1.07364,-1.730952 0.60347,-3.895425 -1.07785,-4.938284 l -5.37278,-3.332511 c -0.10074,-0.04533 -0.20836,-0.05191 -0.30761,-0.113475 v 0 l -30.37544,-18.840642 c -1.71233,-1.062091 -2.24007,-3.313813 -1.17798,-5.026148 1.0621,-1.71235 3.31381,-2.240072 5.02615,-1.17798 v 0 l 28.48938,17.670796 c 0.0248,0.01539 0.055,0.0083 0.0836,0.01752 1.60358,0.711135 3.54768,0.06991 4.51742,-1.493527 1.07364,-1.730952 0.59702,-3.968141 -1.05328,-4.99176 l -35.39456,-21.9538 c -1.29047,-0.800425 -1.95186,-2.310306 -1.65822,-3.79482 0.2821,-1.465915 1.46521,-2.639277 2.9579,-2.898994 l 12.07839,-2.104406 c 4.36003,-0.67191 4.45388,-2.87311 4.47973,-3.69043 0.0431,-0.9698 -0.29512,-1.89266 -0.94985,-2.58226 -0.62756,-0.66416 -1.48476,-1.0412 -2.40729,-1.06359 l -56.15294,-6.54782 c -0.62992,0.004 -1.56965,0.38379 -2.29773,1.10056 -1.20087,1.18813 -3.05206,1.3887 -4.48521,0.49977 l -5.490669,-3.40563 c -1.712329,-1.06209 -2.240071,-3.31381 -1.177972,-5.02616 1.062092,-1.71234 3.313816,-2.24007 5.026151,-1.17798 l 3.38746,2.1011 c 1.68306,-0.94059 3.57587,-1.41603 5.53622,-1.37705 l 56.1553,6.55784 c 2.54771,0.0339 5.23481,1.22806 7.22233,3.32852 2.00464,2.12827 3.04268,4.92847 2.92896,7.88195 -0.23759,5.660148 -4.19405,9.615006 -10.59989,10.607323 l -2.5623,0.446764 27.24854,16.901159 c 5.07499,3.147811 6.60322,9.89463 3.40923,15.04407 -0.66957,1.079512 -1.50604,2.012558 -2.45143,2.774968 4.4387,3.328735 5.65579,9.607649 2.65036,14.453084 -3.08239,4.969506 -9.36177,6.727533 -14.33412,4.176042 -0.26096,1.307184 -0.74953,2.593484 -1.48837,3.784676 -3.12087,5.031552 -9.60334,6.466012 -14.76519,3.264326 l -1.62549,-1.00822 c -0.2612,1.23832 -0.7361,2.447185 -1.43647,3.576335 -3.18006,5.140876 -9.71644,6.66219 -14.87827,3.46052 z"
           fill="#000000"
           id="path2509"
           style="fill:#4d4d4d;fill-opacity:1;stroke-width:7.3007" />
      </g>
    </g>
  </g>
  <style
     type="text/css"
     id="style921"><![CDATA[
	.st0{fill:#000000;}
]]></style>
  <style
     type="text/css"
     id="style830">
	.st0{fill:none;stroke:#000000;stroke-width:2;stroke-linecap:round;stroke-linejoin:round;stroke-miterlimit:10;}
</style>
  <style
     type="text/css"
     id="style1187">
	.st0{fill:none;stroke:#000000;stroke-width:2;stroke-linecap:round;stroke-linejoin:round;stroke-miterlimit:10;}
</style>
</svg>
