<svg xmlns="http://www.w3.org/2000/svg" xmlns:svg="http://www.w3.org/2000/svg" id="SVGRoot" width="250" height="200" version="1.1" viewBox="0 0 250 200"><metadata id="metadata6482"/><g id="layer1"><g style="fill:#4d4d4d;fill-opacity:1" id="g919" transform="matrix(-3.0587095,-0.60225532,0.60225532,-3.0587095,244.53967,138.88498)"><path id="path910" fill="#000" fill-rule="evenodd" d="m 9,7 h 6 V 5 2 H 9 V 5 Z M 9,5 C 9,5.55228 9.44772,6 10,6 10.5523,6 11,5.55228 11,5 11,4.44772 10.5523,4 10,4 9.44772,4 9,4.44772 9,5 Z m 6,0 c 0,-0.55228 -0.4477,-1 -1,-1 -0.5523,0 -1,0.44772 -1,1 0,0.55228 0.4477,1 1,1 0.5523,0 1,-0.44772 1,-1 z m 1.9863,2.1659 C 16.9953,7.11194 17,7.05652 17,7 V 1 C 17,0.447715 16.5523,0 16,0 H 8 C 7.44772,0 7,0.447715 7,1 V 7 C 7,7.05652 7.00469,7.11194 7.0137,7.1659 5.84136,7.57385 5,8.68867 5,10 v 7 c 0,3.866 3.13401,7 7,7 3.866,0 7,-3.134 7,-7 V 10 C 19,8.68867 18.1586,7.57385 16.9863,7.1659 Z M 7,10 C 7,9.44772 7.44772,9 8,9 h 8 c 0.5523,0 1,0.44772 1,1 v 7 c 0,2.7614 -2.2386,5 -5,5 -2.76142,0 -5,-2.2386 -5,-5 z" clip-rule="evenodd" style="fill:#4d4d4d;fill-opacity:1"/></g><g id="g925" transform="matrix(0.20186536,-0.16962674,0.16962674,0.20186536,-9.796574,93.996843)" style="fill:#4d4d4d"><path id="path923" d="M 426.438,0 H 85.578 C 70.484,0 58.172,12.344 58.172,27.406 v 457.188 c 0,15.063 12.313,27.406 27.406,27.406 h 340.859 c 15.063,0 27.391,-12.344 27.391,-27.406 V 27.406 C 453.828,12.344 441.5,0 426.438,0 Z M 256.016,25.281 c 4.063,0 7.391,3.313 7.391,7.406 0,4.093 -3.328,7.406 -7.391,7.406 -4.094,0 -7.422,-3.313 -7.422,-7.406 0,-4.093 3.328,-7.406 7.422,-7.406 z m 0,470.328 c -7.031,0 -12.719,-5.703 -12.719,-12.719 0,-7.016 5.688,-12.703 12.719,-12.703 7,0 12.688,5.688 12.688,12.703 0,7.015 -5.688,12.719 -12.688,12.719 z M 426.438,453.781 85.578,453.75 V 58.219 h 340.859 v 395.562 z" class="st0" style="fill:#4d4d4d"/></g><g style="fill:none;fill-opacity:.969649;stroke:#c62828;stroke-opacity:1" id="g945" transform="matrix(2.5723459,-0.48142795,0.48142795,2.5723459,132.46132,69.374841)"><g style="fill:none;fill-opacity:.969649;stroke:#c62828;stroke-opacity:1" id="g1397" transform="matrix(1.2816795,0,0,1.2816795,-6.662756,16.068916)"><path id="Vector" stroke="#000" stroke-linecap="round" stroke-linejoin="round" stroke-width="2" d="m 3,12 5,5 M 3,12 8,7 m -5,5 h 18" style="fill:none;fill-opacity:.969649;stroke:#c62828;stroke-opacity:1"/></g></g></g><style id="style921" type="text/css">.st0{fill:#000}</style></svg>