<svg xmlns="http://www.w3.org/2000/svg" xmlns:svg="http://www.w3.org/2000/svg" id="svg23130" width="129" height="92.973" version="1.1"><g id="g23136" transform="translate(-1829.7858,-3417.462)"><rect style="opacity:1;vector-effect:none;fill:#d2d2d2;fill-opacity:1;stroke:none;stroke-width:.120049;stroke-linecap:round;stroke-linejoin:round;stroke-miterlimit:4;stroke-dasharray:.120049,.120049;stroke-dashoffset:0;stroke-opacity:1" id="rect8828-0-7" width="35" height="35" x="1829.786" y="3446.448" ry="6.313"/><rect style="opacity:1;vector-effect:none;fill:#d2d2d2;fill-opacity:1;stroke:none;stroke-width:.120049;stroke-linecap:round;stroke-linejoin:round;stroke-miterlimit:4;stroke-dasharray:.120049,.120049;stroke-dashoffset:0;stroke-opacity:1" id="rect8828-1-35-2" width="35" height="35" x="1876.786" y="3446.448" ry="6.313"/><rect style="opacity:1;vector-effect:none;fill:#d2d2d2;fill-opacity:1;stroke:none;stroke-width:.120049;stroke-linecap:round;stroke-linejoin:round;stroke-miterlimit:4;stroke-dasharray:.120049,.120049;stroke-dashoffset:0;stroke-opacity:1" id="rect8828-6-4-6" width="35" height="35" x="1923.786" y="3446.448" ry="6.313"/><g id="g4353-3-2-0-10" transform="matrix(2.0202557,0,0,2.0202557,1849.1067,3417.4623)" style="fill:#aeaeae;fill-opacity:1"><g id="g4311-2-6-2-9" style="fill:#aeaeae;fill-opacity:1"><g id="g4313-0-6-5-5" style="fill:#aeaeae;fill-opacity:1"><path id="path4315-8-0-9-73" d="m 14.757,46.02 c -1.412,0 -2.825,-0.521 -3.929,-1.569 -2.282,-2.17 -2.373,-5.78 -0.204,-8.063 L 23.382,22.97 10.637,9.645 C 8.46,7.37 8.54,3.76 10.816,1.582 c 2.277,-2.178 5.886,-2.097 8.063,0.179 l 16.505,17.253 c 2.104,2.2 2.108,5.665 0.013,7.872 L 18.893,44.247 c -1.123,1.177 -2.626,1.773 -4.136,1.773 z" style="fill:#aeaeae;fill-opacity:1"/></g></g></g></g></svg>