<svg xmlns="http://www.w3.org/2000/svg" xmlns:svg="http://www.w3.org/2000/svg" id="svg15132" width="32" height="32" version="1.1"><g id="g1202" transform="matrix(0.26138165,0,0,0.26138165,0.50969397,-2.4869176e-7)"><g id="g15138" transform="translate(-4765.2254,-2109.6338)"><g id="g7337" transform="matrix(0.25000275,0,0,0.25000275,4763.2754,2109.6338)" style="fill:#d2d2d2;fill-opacity:1"><g id="g7281" style="fill:#d2d2d2;fill-opacity:1"><path id="path7279" d="M 454.9,189.1 H 294.4 v -13.3 c 0,-12.5 -10.2,-22.7 -22.7,-22.7 h -10 V 120 c 0,-28 -22.8,-50.9 -50.9,-50.9 h -55 c -9.4,0 -17,-7.6 -17,-17 V 0 h -33.9 v 52.2 c 0,28.1 22.8,50.9 50.9,50.9 h 55 c 9.4,0 17,7.6 17,17 v 33.1 h -10 c -12.5,0 -22.7,10.2 -22.7,22.7 v 13.3 H 34.7 c -14.9,0 -26.9,12 -26.9,26.9 v 246.7 c 0,14.9 12,26.9 26.9,26.9 H 455 c 14.9,0 26.9,-12 26.9,-26.9 V 216 c -0.1,-14.9 -12.1,-26.9 -27,-26.9 z m -150.8,56.5 c 0,-3.7 3,-6.7 6.7,-6.7 h 27.4 c 3.7,0 6.7,3 6.7,6.7 v 27 c 0,3.7 -3,6.7 -6.7,6.7 h -27.4 c -3.7,0 -6.7,-3 -6.7,-6.7 z m 0.8,79.9 v 27 c 0,3.7 -3,6.7 -6.7,6.7 h -27.4 c -3.7,0 -6.7,-3 -6.7,-6.7 v -27 c 0,-3.7 3,-6.7 6.7,-6.7 h 27.4 c 3.7,0 6.7,3 6.7,6.7 z m -80.4,-79.9 c 0,-3.7 3,-6.7 6.7,-6.7 h 27.4 c 3.7,0 6.7,3 6.7,6.7 v 27 c 0,3.7 -3,6.7 -6.7,6.7 h -27.4 c -3.7,0 -6.7,-3 -6.7,-6.7 z M 191,318.8 h 27.4 c 3.7,0 6.7,3 6.7,6.7 v 27 c 0,3.7 -3,6.7 -6.7,6.7 H 191 c -3.7,0 -6.7,-3 -6.7,-6.7 v -27 c 0,-3.7 3,-6.7 6.7,-6.7 z m -46.3,-73.2 c 0,-3.7 3,-6.7 6.7,-6.7 h 27.4 c 3.7,0 6.7,3 6.7,6.7 v 27 c 0,3.7 -3,6.7 -6.7,6.7 h -27.4 c -3.7,0 -6.7,-3 -6.7,-6.7 z m -80.1,0 c 0,-3.7 3,-6.7 6.7,-6.7 h 27.4 c 3.7,0 6.7,3 6.7,6.7 v 27 c 0,3.7 -3,6.7 -6.7,6.7 H 71.3 c -3.7,0 -6.7,-3 -6.7,-6.7 z m 40.8,187.5 c 0,3.7 -3,6.7 -6.7,6.7 H 71.3 c -3.7,0 -6.7,-3 -6.7,-6.7 v -27 c 0,-3.7 3,-6.7 6.7,-6.7 h 27.4 c 3.7,0 6.7,3 6.7,6.7 z m 32.9,-73.9 h -27.4 c -3.7,0 -6.7,-3 -6.7,-6.7 v -27 c 0,-3.7 3,-6.7 6.7,-6.7 h 27.4 c 3.7,0 6.7,3 6.7,6.7 v 27 c 0,3.7 -3,6.7 -6.7,6.7 z m 206.6,73.9 c 0,3.7 -3,6.7 -6.7,6.7 h -8.3 -19.1 -52.3 -27.4 -79.8 c -3.7,0 -6.7,-3 -6.7,-6.7 v -27 c 0,-3.7 3,-6.7 6.7,-6.7 h 79.8 27.4 52.3 19.1 8.3 c 3.7,0 6.7,3 6.7,6.7 z m 33,-73.9 h -27.4 c -3.7,0 -6.7,-3 -6.7,-6.7 v -27 c 0,-3.7 3,-6.7 6.7,-6.7 h 27.4 c 3.7,0 6.7,3 6.7,6.7 v 27 c -0.1,3.7 -3,6.7 -6.7,6.7 z m 47.1,73.9 c 0,3.7 -3,6.7 -6.7,6.7 h -27.4 c -3.7,0 -6.7,-3 -6.7,-6.7 v -27 c 0,-3.7 3,-6.7 6.7,-6.7 h 27.4 c 3.7,0 6.7,3 6.7,6.7 z m 0,-160.5 c 0,3.7 -3,6.7 -6.7,6.7 h -27.4 c -3.7,0 -6.7,-3 -6.7,-6.7 v -27 c 0,-3.7 3,-6.7 6.7,-6.7 h 27.4 c 3.7,0 6.7,3 6.7,6.7 z" style="fill:#d2d2d2;fill-opacity:1"/></g></g></g><g id="g1140" transform="translate(1.5693381)"><g id="g5379-6-0" transform="matrix(0,-0.14130918,-0.14130918,0,61.705691,105.31917)" style="fill:#aeaeae;fill-opacity:1"><g id="g5336-4-0" style="fill:#aeaeae;fill-opacity:1"><g id="g5338-7-6" style="fill:#aeaeae;fill-opacity:1"><g id="Layer_5_55_-2-8" style="fill:#aeaeae;fill-opacity:1"><path id="path5341-1-7" d="M 397,190.734 228.738,73.444 c -6.599,-5.632 -11.996,-3.147 -11.996,5.528 v 49.068 c 0,8.672 -7.099,15.77 -15.77,15.77 L 96.796,143.966 H 15.69 v 0.125 C 7.051,144.139 0.002,151.214 0,159.857 l 0.002,82.789 c 0,8.673 7.095,15.771 15.765,15.771 l 183.426,-0.275 h 1.834 c 8.647,0.028 15.717,7.107 15.717,15.765 v 49.067 c 0,8.675 5.397,11.163 11.993,5.535 L 397.002,211.215 c 6.596,-5.636 6.596,-14.848 -0.002,-20.481 z" style="fill:#aeaeae;fill-opacity:1"/></g></g></g></g><g id="g5379-6-0-8" transform="matrix(0,0.14130918,-0.14130918,0,110.48105,48.520127)" style="fill:#aeaeae;fill-opacity:1"><g id="g5336-4-0-2" style="fill:#aeaeae;fill-opacity:1"><g id="g5338-7-6-1" style="fill:#aeaeae;fill-opacity:1"><g id="Layer_5_55_-2-8-1" style="fill:#aeaeae;fill-opacity:1"><path id="path5341-1-7-9" d="M 397,190.734 228.738,73.444 c -6.599,-5.632 -11.996,-3.147 -11.996,5.528 v 49.068 c 0,8.672 -7.099,15.77 -15.77,15.77 L 96.796,143.966 H 15.69 v 0.125 C 7.051,144.139 0.002,151.214 0,159.857 l 0.002,82.789 c 0,8.673 7.095,15.771 15.765,15.771 l 183.426,-0.275 h 1.834 c 8.647,0.028 15.717,7.107 15.717,15.765 v 49.067 c 0,8.675 5.397,11.163 11.993,5.535 L 397.002,211.215 c 6.596,-5.636 6.596,-14.848 -0.002,-20.481 z" style="fill:#aeaeae;fill-opacity:1"/></g></g></g></g></g></g></svg>