<svg xmlns="http://www.w3.org/2000/svg" xmlns:svg="http://www.w3.org/2000/svg" id="svg21048" width="118.317" height="118.734" version="1.1"><g id="g21054" transform="translate(-4294.3504,-2142.3827)"><g id="g4474-4-9" transform="matrix(0.24207239,0,0,0.24207239,4294.1416,2142.3827)" style="fill:#d2d2d2;fill-opacity:1"><g id="g4434-0-7-4" style="fill:#d2d2d2;fill-opacity:1"><path id="path4436-5-8" d="m 467.044,216.808 -47.9,-86.3 c -80.7,-130.8 -205.1,-91.5 -225.5,-83.8 -9.1,-20.5 -27.4,-36.5 -49.1,-43.1 -23.9,-7.3 -48.9,-2.1 -69.7,3.1 -6.2,1 -30.2,8.9 -52,6.2 -11.4,-1.3 -20.8,7.3 -21.9,18.8 -1,11.4 7.3,21.2 18.7,21.8 32.9,1.7 57.2,-5.2 64.5,-6.2 17.7,-4.2 34.3,-8.3 48.9,-4.2 10.4,2.6 20.1,11.8 24.2,22 -85.8,57.9 -104.3,163.1 -60.5,242.3 l 47.9,86.3 c 92.9,146.5 222.6,87.4 249.7,71.8 43.6,-22.9 138.6,-112.3 72.7,-248.7 z m -94.4,-84.5 -106,58 -58.5,-105.9 c 15.9,-5.9 97.3,-31.7 164.5,47.9 z m -200.7,-27.9 58.4,105.8 -106.3,58.2 c -28.8,-88.7 23.3,-145.4 47.9,-164 z m 202.5,324.7 c -36.2,21.2 -135.3,40.7 -194.5,-56.2 l -37.4,-67.4 251.5,-137.7 37.6,67.8 c 49.8,103.1 -24.2,174.2 -57.2,193.5 z" style="fill:#d2d2d2;fill-opacity:1"/></g></g><ellipse id="ellipse4902-0" cx="4342.259" cy="2193.151" rx="5.706" ry="7.781" style="opacity:.96;fill:#d2d2d2;fill-opacity:1;stroke:none;stroke-width:3;stroke-linejoin:round;stroke-miterlimit:4;stroke-dasharray:none;stroke-opacity:1"/><ellipse id="ellipse4904-5" cx="4337.514" cy="2176.635" rx="5.706" ry="7.781" style="opacity:.96;fill:#d2d2d2;fill-opacity:1;stroke:none;stroke-width:3;stroke-linejoin:round;stroke-miterlimit:4;stroke-dasharray:none;stroke-opacity:1"/><ellipse id="ellipse4906-3" cx="4327.867" cy="2171.932" rx="5.706" ry="7.781" style="opacity:.96;fill:#d2d2d2;fill-opacity:1;stroke:none;stroke-width:3;stroke-linejoin:round;stroke-miterlimit:4;stroke-dasharray:none;stroke-opacity:1"/><ellipse id="ellipse4908-3" cx="4326.957" cy="2187.937" rx="5.706" ry="7.781" style="opacity:.96;fill:#d2d2d2;fill-opacity:1;stroke:none;stroke-width:3;stroke-linejoin:round;stroke-miterlimit:4;stroke-dasharray:none;stroke-opacity:1"/><ellipse id="ellipse4910-7" cx="4331.033" cy="2184.264" rx="5.706" ry="7.781" style="opacity:.96;fill:#d2d2d2;fill-opacity:1;stroke:none;stroke-width:3;stroke-linejoin:round;stroke-miterlimit:4;stroke-dasharray:none;stroke-opacity:1"/><ellipse id="ellipse4912-1" cx="4330" cy="2181.309" rx="5.706" ry="7.781" style="opacity:.96;fill:#d2d2d2;fill-opacity:1;stroke:none;stroke-width:3;stroke-linejoin:round;stroke-miterlimit:4;stroke-dasharray:none;stroke-opacity:1"/><ellipse id="ellipse4914-0" cx="4337.214" cy="2182.288" rx="5.706" ry="7.781" style="opacity:.96;fill:#d2d2d2;fill-opacity:1;stroke:none;stroke-width:3;stroke-linejoin:round;stroke-miterlimit:4;stroke-dasharray:none;stroke-opacity:1"/><ellipse id="ellipse4916-3" cx="4346.757" cy="2181.816" rx="5.706" ry="7.781" style="opacity:.96;fill:#d2d2d2;fill-opacity:1;stroke:none;stroke-width:3;stroke-linejoin:round;stroke-miterlimit:4;stroke-dasharray:none;stroke-opacity:1"/><ellipse id="ellipse4920-5" cx="4351.055" cy="2193.407" rx="5.706" ry="7.781" style="opacity:.96;fill:#d2d2d2;fill-opacity:1;stroke:none;stroke-width:3;stroke-linejoin:round;stroke-miterlimit:4;stroke-dasharray:none;stroke-opacity:1"/><ellipse id="ellipse4922-5" cx="4331.432" cy="2198.505" rx="5.706" ry="7.781" style="opacity:.96;fill:#d2d2d2;fill-opacity:1;stroke:none;stroke-width:3;stroke-linejoin:round;stroke-miterlimit:4;stroke-dasharray:none;stroke-opacity:1"/><ellipse id="ellipse4924-4" cx="4335.18" cy="2194.955" rx="5.706" ry="7.781" style="opacity:.96;fill:#d2d2d2;fill-opacity:1;stroke:none;stroke-width:3;stroke-linejoin:round;stroke-miterlimit:4;stroke-dasharray:none;stroke-opacity:1"/><ellipse id="ellipse4926-3" cx="4324.309" cy="2194.341" rx="5.706" ry="7.781" style="opacity:.96;fill:#d2d2d2;fill-opacity:1;stroke:none;stroke-width:3;stroke-linejoin:round;stroke-miterlimit:4;stroke-dasharray:none;stroke-opacity:1"/><ellipse id="ellipse4928-3" cx="4329.977" cy="2206.116" rx="5.706" ry="7.781" style="opacity:.96;fill:#d2d2d2;fill-opacity:1;stroke:none;stroke-width:3;stroke-linejoin:round;stroke-miterlimit:4;stroke-dasharray:none;stroke-opacity:1"/><ellipse id="ellipse4930-7" cx="4324.801" cy="2205.127" rx="5.706" ry="7.781" style="opacity:.96;fill:#d2d2d2;fill-opacity:1;stroke:none;stroke-width:3;stroke-linejoin:round;stroke-miterlimit:4;stroke-dasharray:none;stroke-opacity:1"/><ellipse id="ellipse4932-3" cx="4319.481" cy="2202.995" rx="5.706" ry="7.781" style="opacity:.96;fill:#d2d2d2;fill-opacity:1;stroke:none;stroke-width:3;stroke-linejoin:round;stroke-miterlimit:4;stroke-dasharray:none;stroke-opacity:1"/><ellipse id="ellipse4934-1" cx="4320.912" cy="2203.993" rx="5.706" ry="7.781" style="opacity:.96;fill:#d2d2d2;fill-opacity:1;stroke:none;stroke-width:3;stroke-linejoin:round;stroke-miterlimit:4;stroke-dasharray:none;stroke-opacity:1"/><ellipse id="ellipse4936-0" cx="4322.339" cy="2206.572" rx="5.706" ry="7.781" style="opacity:.96;fill:#d2d2d2;fill-opacity:1;stroke:none;stroke-width:3;stroke-linejoin:round;stroke-miterlimit:4;stroke-dasharray:none;stroke-opacity:1"/><ellipse id="ellipse4938-4" cx="4320.954" cy="2206.14" rx="5.706" ry="7.781" style="opacity:.96;fill:#d2d2d2;fill-opacity:1;stroke:none;stroke-width:3;stroke-linejoin:round;stroke-miterlimit:4;stroke-dasharray:none;stroke-opacity:1"/><ellipse id="ellipse4940-7" cx="4335.565" cy="2170.952" rx="5.706" ry="7.781" style="opacity:.96;fill:#d2d2d2;fill-opacity:1;stroke:none;stroke-width:3;stroke-linejoin:round;stroke-miterlimit:4;stroke-dasharray:none;stroke-opacity:1"/><flowRoot id="flowRoot5110" transform="matrix(0.89468261,0,0,1.0322844,5757.2346,-5298.3288)" xml:space="preserve" style="font-style:normal;font-weight:400;font-size:40px;line-height:125%;font-family:sans-serif;letter-spacing:0;word-spacing:0;fill:#d2d2d2;fill-opacity:1;stroke:none;stroke-width:1px;stroke-linecap:butt;stroke-linejoin:miter;stroke-opacity:1"><flowRegion id="flowRegion5112"><rect id="rect5114" width="375.777" height="250.518" x="-1579.879" y="7254.699" style="fill:#d2d2d2;fill-opacity:1"/></flowRegion><flowPara id="flowPara5116" style="font-style:normal;font-variant:normal;font-weight:700;font-stretch:normal;font-family:sans-serif;-inkscape-font-specification:'sans-serif Bold';fill:#d2d2d2;fill-opacity:1">x2</flowPara></flowRoot></g></svg>