<svg xmlns="http://www.w3.org/2000/svg" xmlns:svg="http://www.w3.org/2000/svg" id="svg20777" width="112.886" height="118.769" version="1.1"><g id="g20783" transform="translate(-3310.5318,-925.69766)"><g id="g6995" transform="matrix(0.24615288,0,0,0.24615288,3307.5903,925.69766)" style="fill:#d2d2d2;fill-opacity:1"><g id="g6947" style="fill:#d2d2d2;fill-opacity:1"><g id="g6949" style="fill:#d2d2d2;fill-opacity:1"><path id="path6951" d="m 399.25,98.9 h -12.4 V 71.3 C 386.85,32 354.85,0 315.55,0 h -149.7 c -39.3,0 -71.3,32 -71.3,71.3 v 27.6 h -11.3 c -39.3,0 -71.3,32 -71.3,71.3 v 115 c 0,39.3 32,71.3 71.3,71.3 h 11.2 v 90.4 c 0,19.6 16,35.6 35.6,35.6 h 221.1 c 19.6,0 35.6,-16 35.6,-35.6 v -90.4 h 12.5 c 39.3,0 71.3,-32 71.3,-71.3 v -115 c 0,-39.3 -32,-71.3 -71.3,-71.3 z M 121.45,71.3 c 0,-24.4 19.9,-44.3 44.3,-44.3 h 149.6 c 24.4,0 44.3,19.9 44.3,44.3 v 27.6 h -238.2 z m 238.3,375.8 c 0,4.7 -3.9,8.6 -8.6,8.6 h -221.1 c -4.7,0 -8.6,-3.9 -8.6,-8.6 V 298 h 238.3 z m 83.8,-161.8 c 0,24.4 -19.9,44.3 -44.3,44.3 h -12.4 V 298 h 17.8 c 7.5,0 13.5,-6 13.5,-13.5 0,-7.5 -6,-13.5 -13.5,-13.5 h -330 c -7.5,0 -13.5,6 -13.5,13.5 0,7.5 6,13.5 13.5,13.5 h 19.9 v 31.6 h -11.3 c -24.4,0 -44.3,-19.9 -44.3,-44.3 v -115 c 0,-24.4 19.9,-44.3 44.3,-44.3 h 316 c 24.4,0 44.3,19.9 44.3,44.3 z" style="fill:#d2d2d2;fill-opacity:1"/><path id="path6953" d="m 154.15,364.4 h 171.9 c 7.5,0 13.5,-6 13.5,-13.5 0,-7.5 -6,-13.5 -13.5,-13.5 h -171.9 c -7.5,0 -13.5,6 -13.5,13.5 0,7.5 6.1,13.5 13.5,13.5 z" style="fill:#d2d2d2;fill-opacity:1"/><path id="path6955" d="m 327.15,392.6 h -172 c -7.5,0 -13.5,6 -13.5,13.5 0,7.5 6,13.5 13.5,13.5 h 171.9 c 7.5,0 13.5,-6 13.5,-13.5 0,-7.5 -6,-13.5 -13.4,-13.5 z" style="fill:#d2d2d2;fill-opacity:1"/><path id="path6957" d="m 398.95,151.9 h -27.4 c -7.5,0 -13.5,6 -13.5,13.5 0,7.5 6,13.5 13.5,13.5 h 27.4 c 7.5,0 13.5,-6 13.5,-13.5 0,-7.5 -6,-13.5 -13.5,-13.5 z" style="fill:#d2d2d2;fill-opacity:1"/></g></g></g></g></svg>