<svg xmlns="http://www.w3.org/2000/svg" xmlns:svg="http://www.w3.org/2000/svg" id="svg20236" width="32" height="32" version="1.1"><g id="g20242" transform="translate(-3523.843,-2471.3706)"><g id="g1301" transform="matrix(0.2695095,0,0,0.2695095,2574.1901,1799.6059)"><g id="g4474-4-8-2" transform="matrix(0.24207239,0,0,0.24207239,3523.6342,2492.5454)" style="fill:#d2d2d2;fill-opacity:1"><g id="g4434-0-7-9-3" style="fill:#d2d2d2;fill-opacity:1"><path id="path4436-5-4-5" d="m 467.044,216.808 -47.9,-86.3 c -80.7,-130.8 -205.1,-91.5 -225.5,-83.8 -9.1,-20.5 -27.4,-36.5 -49.1,-43.1 -23.9,-7.3 -48.9,-2.1 -69.7,3.1 -6.2,1 -30.2,8.9 -52,6.2 -11.4,-1.3 -20.8,7.3 -21.9,18.8 -1,11.4 7.3,21.2 18.7,21.8 32.9,1.7 57.2,-5.2 64.5,-6.2 17.7,-4.2 34.3,-8.3 48.9,-4.2 10.4,2.6 20.1,11.8 24.2,22 -85.8,57.9 -104.3,163.1 -60.5,242.3 l 47.9,86.3 c 92.9,146.5 222.6,87.4 249.7,71.8 43.6,-22.9 138.6,-112.3 72.7,-248.7 z m -94.4,-84.5 -106,58 -58.5,-105.9 c 15.9,-5.9 97.3,-31.7 164.5,47.9 z m -200.7,-27.9 58.4,105.8 -106.3,58.2 c -28.8,-88.7 23.3,-145.4 47.9,-164 z m 202.5,324.7 c -36.2,21.2 -135.3,40.7 -194.5,-56.2 l -37.4,-67.4 251.5,-137.7 37.6,67.8 c 49.8,103.1 -24.2,174.2 -57.2,193.5 z" style="fill:#d2d2d2;fill-opacity:1"/></g></g><ellipse id="ellipse4902-7-5" cx="3571.751" cy="2543.313" rx="5.706" ry="7.781" style="opacity:.96;fill:#d2d2d2;fill-opacity:1;stroke:none;stroke-width:3;stroke-linejoin:round;stroke-miterlimit:4;stroke-dasharray:none;stroke-opacity:1"/><ellipse id="ellipse4904-3-6" cx="3567.007" cy="2526.797" rx="5.706" ry="7.781" style="opacity:.96;fill:#d2d2d2;fill-opacity:1;stroke:none;stroke-width:3;stroke-linejoin:round;stroke-miterlimit:4;stroke-dasharray:none;stroke-opacity:1"/><ellipse id="ellipse4906-7-3" cx="3557.359" cy="2522.095" rx="5.706" ry="7.781" style="opacity:.96;fill:#d2d2d2;fill-opacity:1;stroke:none;stroke-width:3;stroke-linejoin:round;stroke-miterlimit:4;stroke-dasharray:none;stroke-opacity:1"/><ellipse id="ellipse4908-1-0" cx="3556.448" cy="2538.099" rx="5.706" ry="7.781" style="opacity:.96;fill:#d2d2d2;fill-opacity:1;stroke:none;stroke-width:3;stroke-linejoin:round;stroke-miterlimit:4;stroke-dasharray:none;stroke-opacity:1"/><ellipse id="ellipse4910-5-0" cx="3560.525" cy="2534.427" rx="5.706" ry="7.781" style="opacity:.96;fill:#d2d2d2;fill-opacity:1;stroke:none;stroke-width:3;stroke-linejoin:round;stroke-miterlimit:4;stroke-dasharray:none;stroke-opacity:1"/><ellipse id="ellipse4912-3-0" cx="3559.493" cy="2531.472" rx="5.706" ry="7.781" style="opacity:.96;fill:#d2d2d2;fill-opacity:1;stroke:none;stroke-width:3;stroke-linejoin:round;stroke-miterlimit:4;stroke-dasharray:none;stroke-opacity:1"/><ellipse id="ellipse4914-4-9" cx="3566.706" cy="2532.451" rx="5.706" ry="7.781" style="opacity:.96;fill:#d2d2d2;fill-opacity:1;stroke:none;stroke-width:3;stroke-linejoin:round;stroke-miterlimit:4;stroke-dasharray:none;stroke-opacity:1"/><ellipse id="ellipse4916-8-5" cx="3576.249" cy="2531.979" rx="5.706" ry="7.781" style="opacity:.96;fill:#d2d2d2;fill-opacity:1;stroke:none;stroke-width:3;stroke-linejoin:round;stroke-miterlimit:4;stroke-dasharray:none;stroke-opacity:1"/><ellipse id="ellipse4920-8-7" cx="3580.549" cy="2543.57" rx="5.706" ry="7.781" style="opacity:.96;fill:#d2d2d2;fill-opacity:1;stroke:none;stroke-width:3;stroke-linejoin:round;stroke-miterlimit:4;stroke-dasharray:none;stroke-opacity:1"/><ellipse id="ellipse4922-55-4" cx="3560.924" cy="2548.667" rx="5.706" ry="7.781" style="opacity:.96;fill:#d2d2d2;fill-opacity:1;stroke:none;stroke-width:3;stroke-linejoin:round;stroke-miterlimit:4;stroke-dasharray:none;stroke-opacity:1"/><ellipse id="ellipse4924-5-2" cx="3564.672" cy="2545.117" rx="5.706" ry="7.781" style="opacity:.96;fill:#d2d2d2;fill-opacity:1;stroke:none;stroke-width:3;stroke-linejoin:round;stroke-miterlimit:4;stroke-dasharray:none;stroke-opacity:1"/><ellipse id="ellipse4926-5-6" cx="3553.8" cy="2544.504" rx="5.706" ry="7.781" style="opacity:.96;fill:#d2d2d2;fill-opacity:1;stroke:none;stroke-width:3;stroke-linejoin:round;stroke-miterlimit:4;stroke-dasharray:none;stroke-opacity:1"/><ellipse id="ellipse4928-4-2" cx="3559.47" cy="2556.279" rx="5.706" ry="7.781" style="opacity:.96;fill:#d2d2d2;fill-opacity:1;stroke:none;stroke-width:3;stroke-linejoin:round;stroke-miterlimit:4;stroke-dasharray:none;stroke-opacity:1"/><ellipse id="ellipse4930-8-3" cx="3554.294" cy="2555.29" rx="5.706" ry="7.781" style="opacity:.96;fill:#d2d2d2;fill-opacity:1;stroke:none;stroke-width:3;stroke-linejoin:round;stroke-miterlimit:4;stroke-dasharray:none;stroke-opacity:1"/><ellipse id="ellipse4932-7-0" cx="3548.973" cy="2553.157" rx="5.706" ry="7.781" style="opacity:.96;fill:#d2d2d2;fill-opacity:1;stroke:none;stroke-width:3;stroke-linejoin:round;stroke-miterlimit:4;stroke-dasharray:none;stroke-opacity:1"/><ellipse id="ellipse4934-16-1" cx="3550.404" cy="2554.156" rx="5.706" ry="7.781" style="opacity:.96;fill:#d2d2d2;fill-opacity:1;stroke:none;stroke-width:3;stroke-linejoin:round;stroke-miterlimit:4;stroke-dasharray:none;stroke-opacity:1"/><ellipse id="ellipse4936-2-0" cx="3551.831" cy="2556.735" rx="5.706" ry="7.781" style="opacity:.96;fill:#d2d2d2;fill-opacity:1;stroke:none;stroke-width:3;stroke-linejoin:round;stroke-miterlimit:4;stroke-dasharray:none;stroke-opacity:1"/><ellipse id="ellipse4938-5-2" cx="3550.447" cy="2556.303" rx="5.706" ry="7.781" style="opacity:.96;fill:#d2d2d2;fill-opacity:1;stroke:none;stroke-width:3;stroke-linejoin:round;stroke-miterlimit:4;stroke-dasharray:none;stroke-opacity:1"/><ellipse id="ellipse4940-76-4" cx="3565.056" cy="2521.115" rx="5.706" ry="7.781" style="opacity:.96;fill:#d2d2d2;fill-opacity:1;stroke:none;stroke-width:3;stroke-linejoin:round;stroke-miterlimit:4;stroke-dasharray:none;stroke-opacity:1"/></g><rect style="fill:#aeaeae;stroke:none;stroke-width:1.10674" id="rect1080" width="4.29" height="13.267" x="1867.75" y="3836.766" transform="matrix(0.88528446,-0.46504991,0.48998286,0.87173207,0,0)"/></g></svg>