<svg xmlns="http://www.w3.org/2000/svg" xmlns:svg="http://www.w3.org/2000/svg" id="svg20903" width="123.151" height="98.448" version="1.1"><g id="g20909" transform="translate(241.9757,-1880.2736)"><g id="g3990-6-9" transform="matrix(0.33390055,0,0,0.33390055,-241.9757,1880.2736)" style="fill:#d2d2d2;fill-opacity:1"><g id="g3928-9-1" style="fill:#d2d2d2;fill-opacity:1"><path id="path3914-0-4" d="M 288.842,0 H 6 C 2.687,0 0,2.687 0,6 v 282.842 c 0,3.313 2.687,6 6,6 h 240.421 c 3.313,0 6,-2.687 6,-6 0,-3.313 -2.687,-6 -6,-6 H 12 V 12 h 270.842 v 276.842 c 0,3.313 2.687,6 6,6 3.313,0 6,-2.687 6,-6 V 6 c 0,-3.313 -2.687,-6 -6,-6 z" style="fill:#d2d2d2;fill-opacity:1"/><path id="path3916-1-7" d="m 65.815,62.421 c -12.683,0 -23,10.317 -23,23 0,12.683 10.317,23 23,23 12.683,0 23,-10.317 23,-23 0,-12.683 -10.317,-23 -23,-23 z m 0,34 c -6.065,0 -11,-4.935 -11,-11 0,-6.065 4.935,-11 11,-11 6.065,0 11,4.935 11,11 0,6.065 -4.934,11 -11,11 z" style="fill:#d2d2d2;fill-opacity:1"/><path id="path3918-4-3" d="m 246.815,79.421 h -140 c -3.313,0 -6,2.687 -6,6 0,3.313 2.687,6 6,6 h 140 c 3.313,0 6,-2.687 6,-6 0,-3.313 -2.686,-6 -6,-6 z" style="fill:#d2d2d2;fill-opacity:1"/><path id="path3920-0-6" d="m 65.815,124.421 c -3.313,0 -6,2.687 -6,6 0,3.313 2.687,6 6,6 6.065,0 11,4.935 11,11 0,6.065 -4.935,11 -11,11 -6.065,0 -11,-4.935 -11,-11 0,-3.313 -2.687,-6 -6,-6 -3.313,0 -6,2.687 -6,6 0,12.683 10.317,23 23,23 12.683,0 23,-10.317 23,-23 0,-12.683 -10.317,-23 -23,-23 z" style="fill:#d2d2d2;fill-opacity:1"/><path id="path3922-5-1" d="m 246.815,141.421 h -140 c -3.313,0 -6,2.687 -6,6 0,3.313 2.687,6 6,6 h 140 c 3.313,0 6,-2.687 6,-6 0,-3.313 -2.686,-6 -6,-6 z" style="fill:#d2d2d2;fill-opacity:1"/><path id="path3924-1-9" d="m 65.815,186.421 c -12.683,0 -23,10.317 -23,23 0,12.683 10.317,23 23,23 12.683,0 23,-10.317 23,-23 0,-12.683 -10.317,-23 -23,-23 z m 0,34 c -6.065,0 -11,-4.935 -11,-11 0,-6.065 4.935,-11 11,-11 6.065,0 11,4.935 11,11 0,6.065 -4.934,11 -11,11 z" style="fill:#d2d2d2;fill-opacity:1"/><path id="path3926-4-3" d="m 246.815,203.421 h -140 c -3.313,0 -6,2.687 -6,6 0,3.313 2.687,6 6,6 h 140 c 3.313,0 6,-2.687 6,-6 0,-3.313 -2.686,-6 -6,-6 z" style="fill:#d2d2d2;fill-opacity:1"/></g></g><g style="fill:#d2d2d2;fill-opacity:1" id="g4587-8-9" transform="matrix(0.12090687,0,0,0.13291601,-182.77258,1896.3732)"><g id="g4547-1-0"><path id="path4549-51-1" d="M 328.883,89.125 436.473,196.714 164.133,469.054 56.604,361.465 Z M 518.113,63.177 470.132,15.196 c -18.543,-18.543 -48.653,-18.543 -67.259,0 l -45.961,45.961 107.59,107.59 53.611,-53.611 c 14.382,-14.383 14.382,-37.577 0,-51.959 z M 0.3,512.69 c -1.958,8.812 5.998,16.708 14.811,14.565 L 135.002,498.186 27.473,390.597 Z"/></g></g></g></svg>