<svg xmlns="http://www.w3.org/2000/svg" xmlns:svg="http://www.w3.org/2000/svg" id="svg14768" width="80.509" height="123.941" version="1.1"><g id="g14774" transform="translate(-4330.1118,-2458.1307)"><g id="g5379-6-0" transform="matrix(0,-0.30835023,-0.30835023,0,4432.3366,2582.0717)" style="fill:#d2d2d2;fill-opacity:1"><g id="g5336-4-0" style="fill:#d2d2d2;fill-opacity:1"><g id="g5338-7-6" style="fill:#d2d2d2;fill-opacity:1"><g id="Layer_5_55_-2-8" style="fill:#d2d2d2;fill-opacity:1"><path id="path5341-1-7" d="M 397,190.734 228.738,73.444 c -6.599,-5.632 -11.996,-3.147 -11.996,5.528 v 49.068 c 0,8.672 -7.099,15.77 -15.77,15.77 L 96.796,143.966 H 15.69 v 0.125 C 7.051,144.139 0.002,151.214 0,159.857 l 0.002,82.789 c 0,8.673 7.095,15.771 15.765,15.771 l 183.426,-0.275 h 1.834 c 8.647,0.028 15.717,7.107 15.717,15.765 v 49.067 c 0,8.675 5.397,11.163 11.993,5.535 L 397.002,211.215 c 6.596,-5.636 6.596,-14.848 -0.002,-20.481 z" style="fill:#d2d2d2;fill-opacity:1"/></g></g></g></g></g></svg>