<?xml version="1.0" encoding="UTF-8" standalone="no"?>
<!-- Created with Inkscape (http://www.inkscape.org/) -->

<svg
   width="32px"
   height="32px"
   viewBox="0 0 32 32"
   version="1.1"
   id="SVGRoot"
   inkscape:version="1.1.2 (b8e25be833, 2022-02-05)"
   sodipodi:docname="icon_open_folder.svg"
   inkscape:export-filename="C:\Users\Mathieu\image.png"
   inkscape:export-xdpi="96"
   inkscape:export-ydpi="96"
   xmlns:inkscape="http://www.inkscape.org/namespaces/inkscape"
   xmlns:sodipodi="http://sodipodi.sourceforge.net/DTD/sodipodi-0.dtd"
   xmlns="http://www.w3.org/2000/svg"
   xmlns:svg="http://www.w3.org/2000/svg"
   xmlns:rdf="http://www.w3.org/1999/02/22-rdf-syntax-ns#"
   xmlns:cc="http://creativecommons.org/ns#"
   xmlns:dc="http://purl.org/dc/elements/1.1/">
  <sodipodi:namedview
     id="base"
     pagecolor="#ffffff"
     bordercolor="#666666"
     borderopacity="1.0"
     inkscape:pageopacity="0.0"
     inkscape:pageshadow="2"
     inkscape:zoom="8"
     inkscape:cx="-11.0625"
     inkscape:cy="15.125"
     inkscape:document-units="px"
     inkscape:current-layer="g918"
     showgrid="false"
     inkscape:window-width="1920"
     inkscape:window-height="1017"
     inkscape:window-x="-8"
     inkscape:window-y="-8"
     inkscape:window-maximized="1"
     inkscape:grid-bbox="true"
     inkscape:pagecheckerboard="0" />
  <defs
     id="defs6479" />
  <metadata
     id="metadata6482">
    <rdf:RDF>
      <cc:Work
         rdf:about="">
        <dc:format>image/svg+xml</dc:format>
        <dc:type
           rdf:resource="http://purl.org/dc/dcmitype/StillImage" />
      </cc:Work>
    </rdf:RDF>
  </metadata>
  <g
     id="layer1"
     inkscape:groupmode="layer"
     inkscape:label="Calque 1">
    <g
       style="fill:none"
       id="g918"
       transform="scale(1.3333333)">
      <path
         d="M 4,9 V 6.47214 C 4,6.16165 4.07229,5.85542 4.21115,5.57771 L 5,4 h 5 l 1,2 h 10 c 0.5523,0 1,0.44772 1,1 v 2 9 c 0,1.1046 -0.8954,2 -2,2 h -2"
         stroke="#000000"
         stroke-linecap="round"
         stroke-linejoin="round"
         id="path905"
         style="stroke:#d2d2d2;stroke-opacity:1" />
      <path
         d="M 17.2362,9 H 2.30925 C 1.64988,9 1.17099,9.62698 1.34449,10.2631 l 2.25357,8.2631 C 3.83537,19.3964 4.62569,20 5.52759,20 H 19.6908 c 0.6593,0 1.1382,-0.627 0.9647,-1.2631 L 18.201,9.73688 C 18.0823,9.30182 17.6872,9 17.2362,9 Z"
         stroke="#000000"
         id="path907"
         style="stroke:#d2d2d2;stroke-opacity:1" />
    </g>
  </g>
</svg>
