<svg xmlns="http://www.w3.org/2000/svg" xmlns:svg="http://www.w3.org/2000/svg" id="SVGRoot" width="32" height="32" version="1.1" viewBox="0 0 32 32"><metadata id="metadata6482"/><g id="layer1"><g style="fill:none" id="g918" transform="scale(1.3333333)"><path id="path905" stroke="#000" stroke-linecap="round" stroke-linejoin="round" d="M 4,9 V 6.47214 C 4,6.16165 4.07229,5.85542 4.21115,5.57771 L 5,4 h 5 l 1,2 h 10 c 0.5523,0 1,0.44772 1,1 v 2 9 c 0,1.1046 -0.8954,2 -2,2 h -2" style="stroke:#d2d2d2;stroke-opacity:1"/><path id="path907" stroke="#000" d="M 17.2362,9 H 2.30925 C 1.64988,9 1.17099,9.62698 1.34449,10.2631 l 2.25357,8.2631 C 3.83537,19.3964 4.62569,20 5.52759,20 H 19.6908 c 0.6593,0 1.1382,-0.627 0.9647,-1.2631 L 18.201,9.73688 C 18.0823,9.30182 17.6872,9 17.2362,9 Z" style="stroke:#d2d2d2;stroke-opacity:1"/></g></g></svg>