<svg xmlns="http://www.w3.org/2000/svg" xmlns:svg="http://www.w3.org/2000/svg" id="svg20777" width="32" height="32" version="1.1"><path id="path6" fill="#000" fill-rule="evenodd" d="m 1.295397,4.9544157 c 0,-1.5225838 1.2342912,-2.7568837 2.7568835,-2.7568837 H 19.136294 l 6.052091,6.052074 v 18.75988 c 0,1.522531 -1.234343,2.756883 -2.756883,2.756883 H 4.0522805 c -1.5225923,0 -2.7568835,-1.234352 -2.7568835,-2.756883 z M 5.8902003,13.225067 H 3.1333166 v 9.189615 h 1.8379276 v -3.675848 h 0.9189561 c 1.5225925,0 2.7568833,-1.234291 2.7568833,-2.756884 0,-1.522592 -1.2342908,-2.756883 -2.7568833,-2.756883 z m 7.3516957,0 h -2.756883 v 9.189615 h 2.756883 c 1.522583,0 2.756883,-1.234352 2.756883,-2.756884 V 15.98195 c 0,-1.522592 -1.2343,-2.756883 -2.756883,-2.756883 z m 4.594803,9.189615 v -9.189615 h 5.513767 v 1.83792 h -3.675847 v 1.837927 h 1.837927 v 1.83792 h -1.837927 v 3.675848 z" clip-rule="evenodd" style="fill:#d2d2d2;fill-opacity:1;stroke-width:1.83791"/><path id="path5448-7-83" d="m 31.466333,29.911956 v -7.584093 c 0,-0.695208 -0.568807,-1.264015 -1.264015,-1.264015 H 18.826179 c -0.695209,0 -1.264016,0.568807 -1.264016,1.264015 v 7.584093 c 0,0.695209 0.568807,1.264015 1.264016,1.264015 h 11.376139 c 0.695208,0 1.264015,-0.568806 1.264015,-1.264015 z m -9.164112,-3.476042 1.58002,1.902343 2.212026,-2.850355 2.844035,3.792047 h -8.848108 z" style="fill:#aeaeae;fill-opacity:1;stroke-width:.632005"/></svg>