<?xml version="1.0" encoding="UTF-8" standalone="no"?>
<!-- Created with Inkscape (http://www.inkscape.org/) -->

<svg
   version="1.1"
   id="svg20885"
   width="157.71428"
   height="147.85715"
   xmlns:inkscape="http://www.inkscape.org/namespaces/inkscape"
   xmlns:sodipodi="http://sodipodi.sourceforge.net/DTD/sodipodi-0.dtd"
   xmlns="http://www.w3.org/2000/svg"
   xmlns:svg="http://www.w3.org/2000/svg">
  <defs
     id="defs20889" />
  <sodipodi:namedview
     id="namedview20887"
     pagecolor="#ffffff"
     bordercolor="#666666"
     borderopacity="1.0"
     inkscape:pageshadow="2"
     inkscape:pageopacity="0.0"
     inkscape:pagecheckerboard="0" />
  <inkscape:clipboard
     style="font-variation-settings:normal;opacity:1;vector-effect:none;fill:#d2d2d2;fill-opacity:1;stroke-width:0.30803571;stroke-linecap:butt;stroke-linejoin:miter;stroke-miterlimit:4;stroke-dasharray:none;stroke-dashoffset:0;stroke-opacity:1;-inkscape-stroke:none;stop-color:#000000;stop-opacity:1"
     min="3481.1428,1843.234"
     max="3638.8571,1991.0911"
     geom-min="3481.1428,1843.234"
     geom-max="3638.8571,1991.0911" />
  <g
     id="g20891"
     transform="translate(-3481.1428,-1843.234)">
    <g
       id="g4770"
       transform="matrix(0.30803571,0,0,0.30803571,3481.1428,1843.234)"
       style="fill:#d2d2d2;fill-opacity:1"
       inkscape:export-filename="C:\Users\Mathieu\Desktop\icon_run_program.png"
       inkscape:export-xdpi="19.478256"
       inkscape:export-ydpi="19.478256">
      <path
         id="path4752"
         d="M 467,0 H 45 C 20.1875,0 0,20.1875 0,45 v 300 c 0,24.8125 20.1875,45 45,45 h 130.1875 l -20,60 H 106 c -8.285156,0 -15,6.71484 -15,15 0,8.28516 6.714844,15 15,15 h 300 c 8.28516,0 15,-6.71484 15,-15 0,-8.28516 -6.71484,-15 -15,-15 h -49.1875 l -20,-60 H 467 c 24.8125,0 45,-20.1875 45,-45 V 45 C 512,20.1875 491.8125,0 467,0 Z m -280.1875,450 20,-60 h 98.375 l 20,60 z M 482,345 c 0,8.26953 -6.73047,15 -15,15 -43.58203,0 -377.964844,0 -422,0 -8.269531,0 -15,-6.73047 -15,-15 v -15 h 452 z m -318.42188,-131.21094 -13.64453,-13.64062 21.21094,-21.21485 13.64453,13.64453 c 4.83594,4.83594 12.33203,5.78907 18.22656,2.3125 8.42969,-4.96875 17.42969,-8.71484 26.7461,-11.1289 C 236.37891,182.05078 241,176.07812 241,169.24219 V 150 h 30 v 19.24219 c 0,6.83593 4.62109,12.80859 11.23828,14.51953 9.3125,2.41406 18.3125,6.16015 26.74219,11.13281 5.89453,3.47266 13.39062,2.51953 18.22656,-2.31641 l 13.64453,-13.64453 21.21485,21.21485 -13.64454,13.64453 c -4.83593,4.83594 -5.78906,12.33203 -2.3125,18.22265 4.97266,8.4336 8.71485,17.4336 11.12891,26.7461 C 358.94922,265.37891 364.92188,270 371.75781,270 H 391 v 30 h -61.51562 c 1,-4.91406 1.51562,-9.94141 1.51562,-15 0,-41.35547 -33.64453,-75 -75,-75 -41.35547,0 -75,33.64453 -75,75 0,5.05859 0.51563,10.08594 1.51563,15 H 121 v -30 h 19.24219 c 6.83594,0 12.80859,-4.62109 14.52344,-11.23828 2.41015,-9.3125 6.15625,-18.3125 11.125,-26.7461 3.47265,-5.89062 2.52343,-13.38671 -2.31251,-18.22656 z M 301,285 c 0,5.13672 -0.89063,10.21094 -2.57813,15 H 213.57812 C 211.89062,295.21094 211,290.13672 211,285 c 0,-24.8125 20.1875,-45 45,-45 24.8125,0 45,20.1875 45,45 z m 181,15 h -61 v -45 c 0,-8.28516 -6.71484,-15 -15,-15 h -23.17188 c -1.55468,-4.35938 -3.33984,-8.64453 -5.34765,-12.84375 l 16.40625,-16.40234 c 5.85547,-5.85938 5.85547,-15.35547 -0.004,-21.21485 l -42.42578,-42.42578 c -2.8125,-2.8125 -6.6289,-4.39062 -10.60547,-4.39062 -3.97656,0 -7.79297,1.57812 -10.60547,4.39062 l -16.40234,16.40625 C 309.64453,161.51172 305.35938,159.72656 301,158.17578 V 135 c 0,-8.28516 -6.71484,-15 -15,-15 h -60 c -8.28516,0 -15,6.71484 -15,15 v 23.17578 c -4.35937,1.55078 -8.64453,3.33594 -12.84375,5.34375 l -16.40234,-16.40625 c -2.8125,-2.8125 -6.62891,-4.39062 -10.60547,-4.39062 -3.98047,0 -7.79297,1.57812 -10.60938,4.39062 l -42.42187,42.42578 c -5.85938,5.85938 -5.85938,15.35547 0,21.21485 l 16.40234,16.40625 c -2.00781,4.19531 -3.78906,8.48046 -5.34375,12.83984 H 106 c -8.285156,0 -15,6.71875 -15,15 v 45 H 30 V 45 c 0,-8.269531 6.730469,-15 15,-15 h 422 c 8.26953,0 15,6.730469 15,15 z m 0,0"
         inkscape:connector-curvature="0"
         style="fill:#d2d2d2;fill-opacity:1" />
      <path
         id="path4754"
         d="m 406,60 c -24.8125,0 -45,20.1875 -45,45 0,24.8125 20.1875,45 45,45 24.8125,0 45,-20.1875 45,-45 0,-24.8125 -20.1875,-45 -45,-45 z m 0,60 c -8.26953,0 -15,-6.73047 -15,-15 0,-8.269531 6.73047,-15 15,-15 8.26953,0 15,6.730469 15,15 0,8.26953 -6.73047,15 -15,15 z m 0,0"
         inkscape:connector-curvature="0"
         style="fill:#d2d2d2;fill-opacity:1" />
    </g>
  </g>
</svg>
