<?xml version="1.0" encoding="UTF-8" standalone="no"?>
<!-- Created with Inkscape (http://www.inkscape.org/) -->

<svg
   version="1.1"
   id="svg15132"
   width="118.52631"
   height="122.42635"
   xmlns:inkscape="http://www.inkscape.org/namespaces/inkscape"
   xmlns:sodipodi="http://sodipodi.sourceforge.net/DTD/sodipodi-0.dtd"
   xmlns="http://www.w3.org/2000/svg"
   xmlns:svg="http://www.w3.org/2000/svg">
  <defs
     id="defs15136" />
  <sodipodi:namedview
     id="namedview15134"
     pagecolor="#ffffff"
     bordercolor="#666666"
     borderopacity="1.0"
     inkscape:pageshadow="2"
     inkscape:pageopacity="0.0"
     inkscape:pagecheckerboard="0" />
  <inkscape:clipboard
     style="font-variation-settings:normal;opacity:1;vector-effect:none;fill:#d2d2d2;fill-opacity:1;stroke-width:0.25000275;stroke-linecap:butt;stroke-linejoin:miter;stroke-miterlimit:4;stroke-dasharray:none;stroke-dashoffset:0;stroke-opacity:1;-inkscape-stroke:none;stop-color:#000000;stop-opacity:1"
     min="4765.2254,2109.6338"
     max="4883.7517,2232.0601"
     geom-min="4765.2254,2109.6338"
     geom-max="4883.7517,2232.0601" />
  <g
     id="g15138"
     transform="translate(-4765.2254,-2109.6338)">
    <g
       id="g7337"
       transform="matrix(0.25000275,0,0,0.25000275,4763.2754,2109.6338)"
       style="fill:#d2d2d2;fill-opacity:1"
       inkscape:export-filename="E:\Documents\Temp\icon_keyboard_key.png"
       inkscape:export-xdpi="25.092653"
       inkscape:export-ydpi="25.092653">
      <g
         id="g7281"
         style="fill:#d2d2d2;fill-opacity:1">
        <path
           id="path7279"
           d="M 454.9,189.1 H 294.4 v -13.3 c 0,-12.5 -10.2,-22.7 -22.7,-22.7 h -10 V 120 c 0,-28 -22.8,-50.9 -50.9,-50.9 h -55 c -9.4,0 -17,-7.6 -17,-17 V 0 h -33.9 v 52.2 c 0,28.1 22.8,50.9 50.9,50.9 h 55 c 9.4,0 17,7.6 17,17 v 33.1 h -10 c -12.5,0 -22.7,10.2 -22.7,22.7 v 13.3 H 34.7 c -14.9,0 -26.9,12 -26.9,26.9 v 246.7 c 0,14.9 12,26.9 26.9,26.9 H 455 c 14.9,0 26.9,-12 26.9,-26.9 V 216 c -0.1,-14.9 -12.1,-26.9 -27,-26.9 z m -150.8,56.5 c 0,-3.7 3,-6.7 6.7,-6.7 h 27.4 c 3.7,0 6.7,3 6.7,6.7 v 27 c 0,3.7 -3,6.7 -6.7,6.7 h -27.4 c -3.7,0 -6.7,-3 -6.7,-6.7 z m 0.8,79.9 v 27 c 0,3.7 -3,6.7 -6.7,6.7 h -27.4 c -3.7,0 -6.7,-3 -6.7,-6.7 v -27 c 0,-3.7 3,-6.7 6.7,-6.7 h 27.4 c 3.7,0 6.7,3 6.7,6.7 z m -80.4,-79.9 c 0,-3.7 3,-6.7 6.7,-6.7 h 27.4 c 3.7,0 6.7,3 6.7,6.7 v 27 c 0,3.7 -3,6.7 -6.7,6.7 h -27.4 c -3.7,0 -6.7,-3 -6.7,-6.7 z M 191,318.8 h 27.4 c 3.7,0 6.7,3 6.7,6.7 v 27 c 0,3.7 -3,6.7 -6.7,6.7 H 191 c -3.7,0 -6.7,-3 -6.7,-6.7 v -27 c 0,-3.7 3,-6.7 6.7,-6.7 z m -46.3,-73.2 c 0,-3.7 3,-6.7 6.7,-6.7 h 27.4 c 3.7,0 6.7,3 6.7,6.7 v 27 c 0,3.7 -3,6.7 -6.7,6.7 h -27.4 c -3.7,0 -6.7,-3 -6.7,-6.7 z m -80.1,0 c 0,-3.7 3,-6.7 6.7,-6.7 h 27.4 c 3.7,0 6.7,3 6.7,6.7 v 27 c 0,3.7 -3,6.7 -6.7,6.7 H 71.3 c -3.7,0 -6.7,-3 -6.7,-6.7 z m 40.8,187.5 c 0,3.7 -3,6.7 -6.7,6.7 H 71.3 c -3.7,0 -6.7,-3 -6.7,-6.7 v -27 c 0,-3.7 3,-6.7 6.7,-6.7 h 27.4 c 3.7,0 6.7,3 6.7,6.7 z m 32.9,-73.9 h -27.4 c -3.7,0 -6.7,-3 -6.7,-6.7 v -27 c 0,-3.7 3,-6.7 6.7,-6.7 h 27.4 c 3.7,0 6.7,3 6.7,6.7 v 27 c 0,3.7 -3,6.7 -6.7,6.7 z m 206.6,73.9 c 0,3.7 -3,6.7 -6.7,6.7 h -8.3 -19.1 -52.3 -27.4 -79.8 c -3.7,0 -6.7,-3 -6.7,-6.7 v -27 c 0,-3.7 3,-6.7 6.7,-6.7 h 79.8 27.4 52.3 19.1 8.3 c 3.7,0 6.7,3 6.7,6.7 z m 33,-73.9 h -27.4 c -3.7,0 -6.7,-3 -6.7,-6.7 v -27 c 0,-3.7 3,-6.7 6.7,-6.7 h 27.4 c 3.7,0 6.7,3 6.7,6.7 v 27 c -0.1,3.7 -3,6.7 -6.7,6.7 z m 47.1,73.9 c 0,3.7 -3,6.7 -6.7,6.7 h -27.4 c -3.7,0 -6.7,-3 -6.7,-6.7 v -27 c 0,-3.7 3,-6.7 6.7,-6.7 h 27.4 c 3.7,0 6.7,3 6.7,6.7 z m 0,-160.5 c 0,3.7 -3,6.7 -6.7,6.7 h -27.4 c -3.7,0 -6.7,-3 -6.7,-6.7 v -27 c 0,-3.7 3,-6.7 6.7,-6.7 h 27.4 c 3.7,0 6.7,3 6.7,6.7 z"
           inkscape:connector-curvature="0"
           style="fill:#d2d2d2;fill-opacity:1" />
      </g>
      <g
         id="g7283"
         style="fill:#d2d2d2;fill-opacity:1" />
      <g
         id="g7285"
         style="fill:#d2d2d2;fill-opacity:1" />
      <g
         id="g7287"
         style="fill:#d2d2d2;fill-opacity:1" />
      <g
         id="g7289"
         style="fill:#d2d2d2;fill-opacity:1" />
      <g
         id="g7291"
         style="fill:#d2d2d2;fill-opacity:1" />
      <g
         id="g7293"
         style="fill:#d2d2d2;fill-opacity:1" />
      <g
         id="g7295"
         style="fill:#d2d2d2;fill-opacity:1" />
      <g
         id="g7297"
         style="fill:#d2d2d2;fill-opacity:1" />
      <g
         id="g7299"
         style="fill:#d2d2d2;fill-opacity:1" />
      <g
         id="g7301"
         style="fill:#d2d2d2;fill-opacity:1" />
      <g
         id="g7303"
         style="fill:#d2d2d2;fill-opacity:1" />
      <g
         id="g7305"
         style="fill:#d2d2d2;fill-opacity:1" />
      <g
         id="g7307"
         style="fill:#d2d2d2;fill-opacity:1" />
      <g
         id="g7309"
         style="fill:#d2d2d2;fill-opacity:1" />
      <g
         id="g7311"
         style="fill:#d2d2d2;fill-opacity:1" />
    </g>
  </g>
</svg>
