<svg xmlns="http://www.w3.org/2000/svg" xmlns:svg="http://www.w3.org/2000/svg" id="svg20164" width="118.317" height="118.734" version="1.1"><g id="g20170" transform="translate(-4533.9904,-2115.9735)"><g id="g4474-4-2" transform="matrix(0.24207239,0,0,0.24207239,4533.7816,2115.9735)" style="fill:#d2d2d2;fill-opacity:1"><g id="g4434-0-7-1" style="fill:#d2d2d2;fill-opacity:1"><path id="path4436-5-7" d="m 467.044,216.808 -47.9,-86.3 c -80.7,-130.8 -205.1,-91.5 -225.5,-83.8 -9.1,-20.5 -27.4,-36.5 -49.1,-43.1 -23.9,-7.3 -48.9,-2.1 -69.7,3.1 -6.2,1 -30.2,8.9 -52,6.2 -11.4,-1.3 -20.8,7.3 -21.9,18.8 -1,11.4 7.3,21.2 18.7,21.8 32.9,1.7 57.2,-5.2 64.5,-6.2 17.7,-4.2 34.3,-8.3 48.9,-4.2 10.4,2.6 20.1,11.8 24.2,22 -85.8,57.9 -104.3,163.1 -60.5,242.3 l 47.9,86.3 c 92.9,146.5 222.6,87.4 249.7,71.8 43.6,-22.9 138.6,-112.3 72.7,-248.7 z m -94.4,-84.5 -106,58 -58.5,-105.9 c 15.9,-5.9 97.3,-31.7 164.5,47.9 z m -200.7,-27.9 58.4,105.8 -106.3,58.2 c -28.8,-88.7 23.3,-145.4 47.9,-164 z m 202.5,324.7 c -36.2,21.2 -135.3,40.7 -194.5,-56.2 l -37.4,-67.4 251.5,-137.7 37.6,67.8 c 49.8,103.1 -24.2,174.2 -57.2,193.5 z" style="fill:#d2d2d2;fill-opacity:1"/></g></g><ellipse id="ellipse5243" cx="4590.129" cy="2141.421" rx="7.954" ry="8.645" style="opacity:.96;fill:#d2d2d2;fill-opacity:1;stroke:none;stroke-width:3;stroke-linejoin:round;stroke-miterlimit:4;stroke-dasharray:none;stroke-opacity:1"/><ellipse id="ellipse5245" cx="4599.322" cy="2138.694" rx="7.954" ry="8.645" style="opacity:.96;fill:#d2d2d2;fill-opacity:1;stroke:none;stroke-width:3;stroke-linejoin:round;stroke-miterlimit:4;stroke-dasharray:none;stroke-opacity:1"/><ellipse id="ellipse5247" cx="4605.235" cy="2143.171" rx="7.954" ry="8.645" style="opacity:.96;fill:#d2d2d2;fill-opacity:1;stroke:none;stroke-width:3;stroke-linejoin:round;stroke-miterlimit:4;stroke-dasharray:none;stroke-opacity:1"/><ellipse id="ellipse5249" cx="4604.622" cy="2142.262" rx="7.954" ry="8.645" style="opacity:.96;fill:#d2d2d2;fill-opacity:1;stroke:none;stroke-width:3;stroke-linejoin:round;stroke-miterlimit:4;stroke-dasharray:none;stroke-opacity:1"/><ellipse id="ellipse5251" cx="4607.629" cy="2137.589" rx="7.954" ry="8.645" style="opacity:.96;fill:#d2d2d2;fill-opacity:1;stroke:none;stroke-width:3;stroke-linejoin:round;stroke-miterlimit:4;stroke-dasharray:none;stroke-opacity:1"/><ellipse id="ellipse5253" cx="4608.905" cy="2140.192" rx="7.954" ry="8.645" style="opacity:.96;fill:#d2d2d2;fill-opacity:1;stroke:none;stroke-width:3;stroke-linejoin:round;stroke-miterlimit:4;stroke-dasharray:none;stroke-opacity:1"/><ellipse id="ellipse5255" cx="4618.361" cy="2144.082" rx="7.954" ry="8.645" style="opacity:.96;fill:#d2d2d2;fill-opacity:1;stroke:none;stroke-width:3;stroke-linejoin:round;stroke-miterlimit:4;stroke-dasharray:none;stroke-opacity:1"/><ellipse id="ellipse5259" cx="4601.604" cy="2152.496" rx="7.954" ry="8.645" style="opacity:.96;fill:#d2d2d2;fill-opacity:1;stroke:none;stroke-width:3;stroke-linejoin:round;stroke-miterlimit:4;stroke-dasharray:none;stroke-opacity:1"/><ellipse id="ellipse5261" cx="4613.045" cy="2150.026" rx="7.954" ry="8.645" style="opacity:.96;fill:#d2d2d2;fill-opacity:1;stroke:none;stroke-width:3;stroke-linejoin:round;stroke-miterlimit:4;stroke-dasharray:none;stroke-opacity:1"/><ellipse id="ellipse5263" cx="4593.102" cy="2149.608" rx="7.954" ry="8.645" style="opacity:.96;fill:#d2d2d2;fill-opacity:1;stroke:none;stroke-width:3;stroke-linejoin:round;stroke-miterlimit:4;stroke-dasharray:none;stroke-opacity:1"/><ellipse id="ellipse5265" cx="4601.965" cy="2159.048" rx="7.954" ry="8.645" style="opacity:.96;fill:#d2d2d2;fill-opacity:1;stroke:none;stroke-width:3;stroke-linejoin:round;stroke-miterlimit:4;stroke-dasharray:none;stroke-opacity:1"/><ellipse id="ellipse5267" cx="4598.489" cy="2155.422" rx="7.954" ry="8.645" style="opacity:.96;fill:#d2d2d2;fill-opacity:1;stroke:none;stroke-width:3;stroke-linejoin:round;stroke-miterlimit:4;stroke-dasharray:none;stroke-opacity:1"/></g></svg>