<svg xmlns="http://www.w3.org/2000/svg" xmlns:svg="http://www.w3.org/2000/svg" id="SVGRoot" width="32" height="32" version="1.1" viewBox="0 0 32 32"><metadata id="metadata6482"/><g id="layer1"><g style="fill:#d2d2d2;fill-opacity:1" id="g138" transform="scale(2)"><path id="path126" d="M 6,9 A 0.5,0.5 0 0 1 6.5,8.5 h 3 a 0.5,0.5 0 0 1 0,1 h -3 A 0.5,0.5 0 0 1 6,9 Z M 3.854,4.146 A 0.5006316,0.5006316 0 1 0 3.146,4.854 L 4.793,6.5 3.146,8.146 a 0.5006316,0.5006316 0 1 0 0.708,0.708 l 2,-2 a 0.5,0.5 0 0 0 0,-0.708 z" style="fill:#d2d2d2;fill-opacity:1"/><path id="path128" d="M 2,1 A 2,2 0 0 0 0,3 v 10 a 2,2 0 0 0 2,2 h 12 a 2,2 0 0 0 2,-2 V 3 A 2,2 0 0 0 14,1 Z m 12,1 a 1,1 0 0 1 1,1 v 10 a 1,1 0 0 1 -1,1 H 2 A 1,1 0 0 1 1,13 V 3 A 1,1 0 0 1 2,2 Z" style="fill:#d2d2d2;fill-opacity:1"/></g></g></svg>