<?xml version="1.0" encoding="UTF-8" standalone="no"?>
<!-- Created with Inkscape (http://www.inkscape.org/) -->

<svg
   width="32px"
   height="32px"
   viewBox="0 0 32 32"
   version="1.1"
   id="SVGRoot"
   inkscape:version="1.1.2 (b8e25be833, 2022-02-05)"
   sodipodi:docname="run_command_action.svg"
   inkscape:export-filename="C:\Users\Mathieu\image.png"
   inkscape:export-xdpi="96"
   inkscape:export-ydpi="96"
   xmlns:inkscape="http://www.inkscape.org/namespaces/inkscape"
   xmlns:sodipodi="http://sodipodi.sourceforge.net/DTD/sodipodi-0.dtd"
   xmlns="http://www.w3.org/2000/svg"
   xmlns:svg="http://www.w3.org/2000/svg"
   xmlns:rdf="http://www.w3.org/1999/02/22-rdf-syntax-ns#"
   xmlns:cc="http://creativecommons.org/ns#"
   xmlns:dc="http://purl.org/dc/elements/1.1/">
  <sodipodi:namedview
     id="base"
     pagecolor="#ffffff"
     bordercolor="#666666"
     borderopacity="1.0"
     inkscape:pageopacity="0.0"
     inkscape:pageshadow="2"
     inkscape:zoom="8"
     inkscape:cx="20.125"
     inkscape:cy="-22.8125"
     inkscape:document-units="px"
     inkscape:current-layer="layer1"
     showgrid="false"
     inkscape:window-width="3840"
     inkscape:window-height="2081"
     inkscape:window-x="-9"
     inkscape:window-y="-9"
     inkscape:window-maximized="1"
     inkscape:grid-bbox="true"
     inkscape:pagecheckerboard="0" />
  <defs
     id="defs6479" />
  <metadata
     id="metadata6482">
    <rdf:RDF>
      <cc:Work
         rdf:about="">
        <dc:format>image/svg+xml</dc:format>
        <dc:type
           rdf:resource="http://purl.org/dc/dcmitype/StillImage" />
        <dc:title />
      </cc:Work>
    </rdf:RDF>
  </metadata>
  <g
     id="layer1"
     inkscape:groupmode="layer"
     inkscape:label="Calque 1">
    <g
       style="fill:#d2d2d2;fill-opacity:1"
       id="g138"
       transform="scale(2)">
      <path
         d="M 6,9 A 0.5,0.5 0 0 1 6.5,8.5 h 3 a 0.5,0.5 0 0 1 0,1 h -3 A 0.5,0.5 0 0 1 6,9 Z M 3.854,4.146 A 0.5006316,0.5006316 0 1 0 3.146,4.854 L 4.793,6.5 3.146,8.146 a 0.5006316,0.5006316 0 1 0 0.708,0.708 l 2,-2 a 0.5,0.5 0 0 0 0,-0.708 z"
         id="path126"
         style="fill:#d2d2d2;fill-opacity:1" />
      <path
         d="M 2,1 A 2,2 0 0 0 0,3 v 10 a 2,2 0 0 0 2,2 h 12 a 2,2 0 0 0 2,-2 V 3 A 2,2 0 0 0 14,1 Z m 12,1 a 1,1 0 0 1 1,1 v 10 a 1,1 0 0 1 -1,1 H 2 A 1,1 0 0 1 1,13 V 3 A 1,1 0 0 1 2,2 Z"
         id="path128"
         style="fill:#d2d2d2;fill-opacity:1" />
    </g>
  </g>
</svg>
