<?xml version="1.0" encoding="UTF-8" standalone="no"?>
<!-- Uploaded to: SVG Repo, www.svgrepo.com, Generator: SVG Repo Mixer Tools -->

<svg
   width="32"
   height="32"
   viewBox="0 0 0.96 0.96"
   fill="none"
   version="1.1"
   id="svg5"
   sodipodi:docname="scannibg.svg"
   inkscape:version="1.3 (0e150ed6c4, 2023-07-21)"
   inkscape:export-filename="scanning.png"
   inkscape:export-xdpi="96"
   inkscape:export-ydpi="96"
   xmlns:inkscape="http://www.inkscape.org/namespaces/inkscape"
   xmlns:sodipodi="http://sodipodi.sourceforge.net/DTD/sodipodi-0.dtd"
   xmlns="http://www.w3.org/2000/svg"
   xmlns:svg="http://www.w3.org/2000/svg">
  <defs
     id="defs5" />
  <sodipodi:namedview
     id="namedview5"
     pagecolor="#ffffff"
     bordercolor="#000000"
     borderopacity="0.25"
     inkscape:showpageshadow="2"
     inkscape:pageopacity="0.0"
     inkscape:pagecheckerboard="0"
     inkscape:deskcolor="#d1d1d1"
     inkscape:zoom="16.4"
     inkscape:cx="17.926829"
     inkscape:cy="17.652439"
     inkscape:window-width="1920"
     inkscape:window-height="1051"
     inkscape:window-x="-9"
     inkscape:window-y="592"
     inkscape:window-maximized="1"
     inkscape:current-layer="svg5" />
  <path
     fill-rule="evenodd"
     clip-rule="evenodd"
     d="m 0.7753824,0.877712 c 0.033989,0 0.061541,-0.030699 0.061541,-0.068571 V 0.699429 c 0,-0.022725 0.016531,-0.041141 0.036922,-0.041141 0.020395,0 0.036926,0.018416 0.036926,0.041141 V 0.809141 C 0.9107714,0.892459 0.8501574,0.96 0.7753826,0.96 h -0.098458 c -0.020395,0 -0.036926,-0.018421 -0.036926,-0.041141 0,-0.022725 0.016531,-0.041147 0.036926,-0.041147 z"
     fill="#030d45"
     id="path1"
     style="fill:#03a8f3;fill-opacity:1;stroke-width:0.0505964" />
  <path
     fill-rule="evenodd"
     clip-rule="evenodd"
     d="m 0.7753824,0.0822859 c 0.033989,0 0.061541,0.0307 0.061541,0.068571 V 0.260571 c 0,0.022723 0.016531,0.041143 0.036922,0.041143 0.020395,0 0.036926,-0.01842 0.036926,-0.041143 V 0.1508571 C 0.9107712,0.0675408 0.8501568,0 0.7753824,0 h -0.098458 c -0.020395,0 -0.036926,0.01842 -0.036926,0.041143 0,0.022723 0.016531,0.041143 0.036926,0.041143 z"
     fill="#030d45"
     id="path2"
     style="fill:#03a8f3;fill-opacity:1;stroke-width:0.0505964" />
  <path
     fill-rule="evenodd"
     clip-rule="evenodd"
     d="m 0.1846152,0.877712 c -0.033986,0 -0.061538,-0.030699 -0.061538,-0.068571 V 0.699429 c 0,-0.022725 -0.016531,-0.041141 -0.036923,-0.041141 -0.020392,0 -0.036923,0.018416 -0.036923,0.041141 v 0.109712 c 0,0.083317 0.060614,0.1508587 0.1353845,0.1508587 h 0.098462 c 0.020392,0 0.036923,-0.018421 0.036923,-0.041141 0,-0.022725 -0.016531,-0.041147 -0.036923,-0.041147 z"
     fill="#030d45"
     id="path3"
     style="fill:#03a8f3;fill-opacity:1;stroke-width:0.0505964" />
  <path
     fill-rule="evenodd"
     clip-rule="evenodd"
     d="m 0.1846152,0.0822859 c -0.033986,0 -0.061538,0.0307 -0.061538,0.068571 v 0.1097146 c 0,0.022722 -0.016531,0.041142 -0.036923,0.041142 -0.020392,0 -0.036923,-0.01842 -0.036923,-0.041142 V 0.1508571 C 0.0492307,0.0675413 0.1098446,0 0.1846152,0 h 0.098462 c 0.020392,0 0.036923,0.01842 0.036923,0.041143 0,0.022723 -0.016531,0.041143 -0.036923,0.041143 z"
     fill="#030d45"
     id="path4"
     style="fill:#03a8f3;fill-opacity:1;stroke-width:0.0505964" />
  <path
     fill-rule="evenodd"
     clip-rule="evenodd"
     d="m 0.96,0.48 c 0,0.02272 -0.016531,0.041141 -0.036922,0.041141 H 0.036923 C 0.0165312,0.5211413 0,0.50272 0,0.48 0,0.45728 0.0165312,0.4388587 0.036923,0.4388587 H 0.9230784 C 0.9434688,0.4388587 0.96,0.45728 0.96,0.48 Z"
     fill="#030d45"
     id="path5"
     style="fill:#03a8f3;fill-opacity:1;stroke-width:0.0505964" />
</svg>
