<?xml version="1.0" encoding="UTF-8" standalone="no"?>
<!-- Created with Inkscape (http://www.inkscape.org/) -->

<svg
   width="32"
   height="32"
   viewBox="0 0 8.4666662 8.4666662"
   version="1.1"
   id="svg1"
   xml:space="preserve"
   inkscape:export-filename="icon_text_sharing_action.svg"
   inkscape:export-xdpi="96"
   inkscape:export-ydpi="96"
   inkscape:version="1.4.2 (1:1.4.2+202505120737+ebf0e940d0)"
   sodipodi:docname="icon_text_sharing_action.svg"
   xmlns:inkscape="http://www.inkscape.org/namespaces/inkscape"
   xmlns:sodipodi="http://sodipodi.sourceforge.net/DTD/sodipodi-0.dtd"
   xmlns="http://www.w3.org/2000/svg"
   xmlns:svg="http://www.w3.org/2000/svg"><sodipodi:namedview
     id="namedview1"
     pagecolor="#ffffff"
     bordercolor="#000000"
     borderopacity="0.25"
     inkscape:showpageshadow="2"
     inkscape:pageopacity="0.0"
     inkscape:pagecheckerboard="0"
     inkscape:deskcolor="#d1d1d1"
     inkscape:document-units="mm"
     inkscape:zoom="22.97688"
     inkscape:cx="13.230691"
     inkscape:cy="17.299999"
     inkscape:window-width="1920"
     inkscape:window-height="1011"
     inkscape:window-x="0"
     inkscape:window-y="0"
     inkscape:window-maximized="1"
     inkscape:current-layer="g1" /><defs
     id="defs1" /><g
     inkscape:label="Calque 1"
     inkscape:groupmode="layer"
     id="layer1"><g
       id="g1"
       transform="matrix(0.26390897,0,0,0.26390897,0.13936017,-8.1004113e-4)">
	<path
   fill="#808184"
   d="m 19.61627,9.281 c 0.058,-0.028 0.107,-0.067 0.149,-0.112 0.825,1.337 2.157,2.329 3.736,2.679 0.454,0.101 0.914,0.152 1.368,0.152 1.829,0 3.535,-0.819 4.681,-2.247 1.146,-1.428 1.572,-3.294 1.167,-5.12 -0.494,-2.229 -2.252,-3.988 -4.481,-4.482 -2.283,-0.507 -4.619,0.313 -6.048,2.095 -1.146,1.429 -1.572,3.295 -1.167,5.121 0.075,0.338 0.188,0.66 0.318,0.973 -0.051,0.007 -0.101,0.014 -0.15,0.037 l -8.159,3.876 c -0.053,0.025 -0.096,0.062 -0.135,0.102 -0.838,-1.223 -2.1119996,-2.135 -3.5849996,-2.462 -2.281,-0.501 -4.618,0.314 -6.048,2.096 -1.14600002,1.428 -1.57200002,3.294 -1.16700002,5.12 0.497,2.243 2.35000002,4.055 4.61100002,4.509 0.411,0.083 0.827,0.125 1.238,0.125 1.959,0 3.785,-0.973 4.9019996,-2.559 0.04,0.054 0.091,0.101 0.152,0.136 l 7.371,4.198 c -0.537,1.184 -0.686,2.526 -0.393,3.85 0.494,2.228 2.253,3.987 4.482,4.481 0.451,0.1 0.911,0.151 1.365,0.151 1.829,0 3.535,-0.819 4.681,-2.247 1.146,-1.428 1.572,-3.294 1.167,-5.12 -0.494,-2.229 -2.252,-3.988 -4.481,-4.482 -2.284,-0.508 -4.619,0.312 -6.048,2.095 -0.103,0.128 -0.193,0.264 -0.284,0.399 l -7.366,-4.195 c -0.059,-0.034 -0.123,-0.054 -0.187,-0.062 0.583,-1.178 0.779,-2.486 0.526,-3.818 -0.093,-0.488 -0.259,-0.951 -0.468,-1.392 0.032,-0.008 0.065,-0.007 0.095,-0.022 z m 1.351,-6.408 c 0.956,-1.19 2.377,-1.873 3.901,-1.873 0.381,0 0.768,0.043 1.15,0.128 1.823,0.404 3.318,1.899 3.722,3.722 0.339,1.528 -0.015,3.087 -0.97,4.277 -1.194,1.488 -3.141,2.169 -5.052,1.745 -1.823,-0.404 -3.318,-1.899 -3.722,-3.722 -0.339,-1.527 0.015,-3.087 0.971,-4.277 z m -1.046,20 c 0.956,-1.19 2.378,-1.873 3.901,-1.873 0.381,0 0.768,0.043 1.15,0.128 1.823,0.404 3.318,1.899 3.722,3.722 0.339,1.528 -0.015,3.087 -0.97,4.277 -1.194,1.488 -3.14,2.169 -5.052,1.745 -1.823,-0.404 -3.318,-1.899 -3.722,-3.722 -0.338,-1.527 0.016,-3.087 0.971,-4.277 z M 4.9012704,20.638 c -1.879,-0.377 -3.418,-1.882 -3.831,-3.745 -0.33900002,-1.528 0.015,-3.087 0.97,-4.277 0.955,-1.19 2.377,-1.873 3.902,-1.873 0.381,0 0.768,0.043 1.15,0.128 1.885,0.418 3.3939996,1.98 3.7559996,3.887 0.231,1.219 0.036,2.417 -0.564,3.466 -1.0619996,1.853 -3.2429996,2.84 -5.3829996,2.414 z"
   id="path1"
   style="fill:#d2d2d2;fill-opacity:1" />
</g></g></svg>
