<svg xmlns="http://www.w3.org/2000/svg" xmlns:svg="http://www.w3.org/2000/svg" id="svg4" width="32" height="32" fill="none" version="1.1" viewBox="0 0 0.96 0.96" xml:space="preserve"><g style="fill:#000;fill-opacity:1" id="g302" transform="matrix(0.04363636,0,0,0.04363636,-0.04363609,-0.04363632)"><path id="path293" fill="#000" fill-rule="evenodd" d="m 11,2 a 1,1 0 0 1 2,0 V 4.062 A 8.004,8.004 0 0 1 19.938,11 H 22 a 1,1 0 0 1 0,2 H 19.938 A 8.004,8.004 0 0 1 13,19.938 V 22 a 1,1 0 0 1 -2,0 V 19.938 A 8.004,8.004 0 0 1 4.062,13 H 2 A 1,1 0 0 1 2,11 H 4.062 A 8.004,8.004 0 0 1 11,4.062 Z m 7,10 a 6,6 0 1 0 -12,0 6,6 0 0 0 12,0 z m -3,0 a 3,3 0 1 1 -6,0 3,3 0 0 1 6,0 z" clip-rule="evenodd" style="fill:#d2d2d2;fill-opacity:1"/></g></svg>