<?xml version="1.0" encoding="UTF-8" standalone="no"?>
<!-- Uploaded to: SVG Repo, www.svgrepo.com, Generator: SVG Repo Mixer Tools -->

<svg
   width="32.000015"
   height="32"
   viewBox="0 0 0.96000044 0.96000002"
   fill="none"
   version="1.1"
   id="svg4"
   sodipodi:docname="icon_on_target_reached.svg"
   inkscape:version="1.2.2 (732a01da63, 2022-12-09)"
   inkscape:export-filename="icon_on_target_reached.png"
   inkscape:export-xdpi="96"
   inkscape:export-ydpi="96"
   xml:space="preserve"
   xmlns:inkscape="http://www.inkscape.org/namespaces/inkscape"
   xmlns:sodipodi="http://sodipodi.sourceforge.net/DTD/sodipodi-0.dtd"
   xmlns="http://www.w3.org/2000/svg"
   xmlns:svg="http://www.w3.org/2000/svg"><defs
     id="defs4" /><sodipodi:namedview
     id="namedview4"
     pagecolor="#ffffff"
     bordercolor="#000000"
     borderopacity="0.25"
     inkscape:showpageshadow="2"
     inkscape:pageopacity="0.0"
     inkscape:pagecheckerboard="0"
     inkscape:deskcolor="#d1d1d1"
     inkscape:zoom="16.74"
     inkscape:cx="19.563919"
     inkscape:cy="25.029869"
     inkscape:window-width="1920"
     inkscape:window-height="1009"
     inkscape:window-x="1912"
     inkscape:window-y="-8"
     inkscape:window-maximized="1"
     inkscape:current-layer="svg4"
     showgrid="false" /><g
     style="fill:#000000;fill-opacity:1"
     id="g302"
     transform="matrix(0.04363636,0,0,0.04363636,-0.04363609,-0.04363632)"><path
       fill-rule="evenodd"
       clip-rule="evenodd"
       d="m 11,2 a 1,1 0 0 1 2,0 V 4.062 A 8.004,8.004 0 0 1 19.938,11 H 22 a 1,1 0 0 1 0,2 H 19.938 A 8.004,8.004 0 0 1 13,19.938 V 22 a 1,1 0 0 1 -2,0 V 19.938 A 8.004,8.004 0 0 1 4.062,13 H 2 A 1,1 0 0 1 2,11 H 4.062 A 8.004,8.004 0 0 1 11,4.062 Z m 7,10 a 6,6 0 1 0 -12,0 6,6 0 0 0 12,0 z m -3,0 a 3,3 0 1 1 -6,0 3,3 0 0 1 6,0 z"
       fill="#000000"
       id="path293"
       style="fill:#d2d2d2;fill-opacity:1" /></g></svg>
