<?xml version="1.0" encoding="UTF-8" standalone="no"?>
<!-- Created with Inkscape (http://www.inkscape.org/) -->

<svg
   version="1.1"
   id="svg22786"
   width="52.998749"
   height="55"
   xmlns:inkscape="http://www.inkscape.org/namespaces/inkscape"
   xmlns:sodipodi="http://sodipodi.sourceforge.net/DTD/sodipodi-0.dtd"
   xmlns="http://www.w3.org/2000/svg"
   xmlns:svg="http://www.w3.org/2000/svg">
  <defs
     id="defs22790" />
  <sodipodi:namedview
     id="namedview22788"
     pagecolor="#ffffff"
     bordercolor="#666666"
     borderopacity="1.0"
     inkscape:pageshadow="2"
     inkscape:pageopacity="0.0"
     inkscape:pagecheckerboard="0" />
  <inkscape:clipboard
     style="font-variation-settings:normal;opacity:1;vector-effect:none;fill:#d2d2d2;fill-opacity:1;stroke-width:1;stroke-linecap:butt;stroke-linejoin:miter;stroke-miterlimit:4;stroke-dasharray:none;stroke-dashoffset:0;stroke-opacity:1;-inkscape-stroke:none;stop-color:#000000;stop-opacity:1"
     min="1225,2333.5197"
     max="1277.9987,2388.5197"
     geom-min="1225,2333.5197"
     geom-max="1277.9987,2388.5197" />
  <g
     id="g22792"
     transform="translate(-1225,-2333.5197)">
    <g
       id="g4305"
       transform="translate(1223.999,2333.5197)"
       style="fill:#d2d2d2;fill-opacity:1"
       inkscape:export-filename="E:\Desktop\icon_exit_application_action.png"
       inkscape:export-xdpi="56.152237"
       inkscape:export-ydpi="56.152237">
      <g
         id="g4247"
         style="fill:#d2d2d2;fill-opacity:1">
        <path
           id="path4243"
           d="M 53.924,23.618 C 53.873,23.495 53.799,23.384 53.707,23.291 L 41.708,11.293 c -0.391,-0.391 -1.023,-0.391 -1.414,0 -0.391,0.391 -0.391,1.023 0,1.414 L 50.587,23 H 29.001 c -0.553,0 -1,0.447 -1,1 0,0.553 0.447,1 1,1 H 50.587 L 40.294,35.293 c -0.391,0.391 -0.391,1.023 0,1.414 0.195,0.195 0.451,0.293 0.707,0.293 0.256,0 0.512,-0.098 0.707,-0.293 L 53.707,24.708 c 0.093,-0.092 0.166,-0.203 0.217,-0.326 0.101,-0.244 0.101,-0.52 0,-0.764 z"
           inkscape:connector-curvature="0"
           style="fill:#d2d2d2;fill-opacity:1" />
        <path
           id="path4245"
           d="m 36.001,29 c -0.553,0 -1,0.447 -1,1 v 16 h -10 V 8 c 0,-0.436 -0.282,-0.821 -0.697,-0.953 L 8.442,2 h 26.559 v 16 c 0,0.553 0.447,1 1,1 0.553,0 1,-0.447 1,-1 V 1 c 0,-0.553 -0.447,-1 -1,-1 h -34 C 1.969,0 1.941,0.015 1.91,0.018 1.854,0.023 1.805,0.036 1.752,0.05 1.658,0.075 1.574,0.109 1.493,0.158 1.467,0.174 1.436,0.174 1.411,0.192 1.38,0.215 1.356,0.244 1.328,0.269 1.311,0.285 1.293,0.299 1.277,0.316 1.201,0.398 1.139,0.489 1.093,0.589 1.084,0.609 1.079,0.629 1.071,0.649 1.029,0.761 1.001,0.878 1.001,1 v 46 c 0,0.125 0.029,0.243 0.072,0.355 0.014,0.037 0.035,0.068 0.053,0.103 0.037,0.071 0.079,0.136 0.132,0.196 0.029,0.032 0.058,0.061 0.09,0.09 0.058,0.051 0.123,0.093 0.193,0.13 0.037,0.02 0.071,0.041 0.111,0.056 0.017,0.006 0.03,0.018 0.047,0.024 l 22,7 c 0.098,0.03 0.2,0.046 0.302,0.046 0.21,0 0.417,-0.066 0.59,-0.192 0.258,-0.188 0.41,-0.488 0.41,-0.808 v -6 h 11 c 0.553,0 1,-0.447 1,-1 V 30 c 0,-0.553 -0.448,-1 -1,-1 z"
           inkscape:connector-curvature="0"
           style="fill:#d2d2d2;fill-opacity:1" />
      </g>
      <g
         id="g4249"
         style="fill:#d2d2d2;fill-opacity:1" />
      <g
         id="g4251"
         style="fill:#d2d2d2;fill-opacity:1" />
      <g
         id="g4253"
         style="fill:#d2d2d2;fill-opacity:1" />
      <g
         id="g4255"
         style="fill:#d2d2d2;fill-opacity:1" />
      <g
         id="g4257"
         style="fill:#d2d2d2;fill-opacity:1" />
      <g
         id="g4259"
         style="fill:#d2d2d2;fill-opacity:1" />
      <g
         id="g4261"
         style="fill:#d2d2d2;fill-opacity:1" />
      <g
         id="g4263"
         style="fill:#d2d2d2;fill-opacity:1" />
      <g
         id="g4265"
         style="fill:#d2d2d2;fill-opacity:1" />
      <g
         id="g4267"
         style="fill:#d2d2d2;fill-opacity:1" />
      <g
         id="g4269"
         style="fill:#d2d2d2;fill-opacity:1" />
      <g
         id="g4271"
         style="fill:#d2d2d2;fill-opacity:1" />
      <g
         id="g4273"
         style="fill:#d2d2d2;fill-opacity:1" />
      <g
         id="g4275"
         style="fill:#d2d2d2;fill-opacity:1" />
      <g
         id="g4277"
         style="fill:#d2d2d2;fill-opacity:1" />
    </g>
  </g>
</svg>
