<?xml version="1.0" encoding="UTF-8" standalone="no"?>
<!-- Uploaded to: SVG Repo, www.svgrepo.com, Generator: SVG Repo Mixer Tools -->

<svg
   width="32.000004"
   height="32"
   viewBox="0 0 0.96000011 0.96"
   fill="none"
   version="1.1"
   id="svg5"
   sodipodi:docname="icon_whiteboard_to_eraser.svg"
   inkscape:export-filename="C:\Users\Mathieu\Desktop\icons\icon_whiteboard_to_eraser.png"
   inkscape:export-xdpi="96"
   inkscape:export-ydpi="96"
   inkscape:version="1.1.2 (b8e25be833, 2022-02-05)"
   xmlns:inkscape="http://www.inkscape.org/namespaces/inkscape"
   xmlns:sodipodi="http://sodipodi.sourceforge.net/DTD/sodipodi-0.dtd"
   xmlns="http://www.w3.org/2000/svg"
   xmlns:svg="http://www.w3.org/2000/svg">
  <defs
     id="defs5" />
  <sodipodi:namedview
     id="namedview5"
     pagecolor="#ffffff"
     bordercolor="#000000"
     borderopacity="0.25"
     inkscape:showpageshadow="2"
     inkscape:pageopacity="0.0"
     inkscape:pagecheckerboard="0"
     inkscape:deskcolor="#d1d1d1"
     inkscape:pageshadow="2"
     showgrid="false"
     inkscape:zoom="6.4921875"
     inkscape:cx="-1.6173285"
     inkscape:cy="14.632972"
     inkscape:window-width="1920"
     inkscape:window-height="1017"
     inkscape:window-x="-8"
     inkscape:window-y="-8"
     inkscape:window-maximized="1"
     inkscape:current-layer="g844" />
  <g
     style="fill:#d2d2d2;fill-opacity:1"
     id="g919"
     transform="matrix(0.0032032,0,0,0.0032032,5.3611023e-7,2.0804898e-6)">
    <g
       id="g909"
       style="fill:#d2d2d2;fill-opacity:1">
      <g
         id="g907"
         style="fill:#d2d2d2;fill-opacity:1">
        <path
           d="m 279.45,54.789 h -97.202 v -0.696 c 0,-17.865 -14.534,-32.399 -32.398,-32.399 -17.864,0 -32.399,14.534 -32.399,32.399 v 0.696 H 20.25 C 9.084,54.789 0,63.873 0,75.039 v 182.716 c 0,11.166 9.084,20.25 20.25,20.25 9.327,0 250.221,0 272.7,0 3.728,0 6.75,-3.022 6.75,-6.75 0,-11.931 0,-188.921 0,-196.216 0,-11.166 -9.084,-20.25 -20.25,-20.25 z M 130.951,54.094 c 0,-10.421 8.478,-18.899 18.899,-18.899 9.811,0 18.898,7.63 18.898,19.595 H 130.951 Z M 206.1,224.275 v 13.231 H 40.5 V 95.289 h 218.7 v 122.235 h -46.35 c -3.728,0.001 -6.75,3.023 -6.75,6.751 z m 80.1,40.23 h -66.6 v -33.481 h 66.6 z m 0,-46.98 H 272.7 V 88.539 c 0,-3.728 -3.022,-6.75 -6.75,-6.75 H 33.75 c -3.728,0 -6.75,3.022 -6.75,6.75 v 155.716 c 0,3.728 3.022,6.75 6.75,6.75 H 206.1 v 13.499 H 20.25 c -3.722,10e-4 -6.75,-3.028 -6.75,-6.749 V 75.039 c 0,-3.722 3.028,-6.75 6.75,-6.75 11.9,0 248.309,0 259.2,0 3.722,0 6.75,3.028 6.75,6.75 z"
           id="path905"
           style="fill:#d2d2d2;fill-opacity:1" />
      </g>
    </g>
  </g>
  <g
     style="fill:none"
     id="g958"
     transform="matrix(0.03182589,0,0,0.03182589,0.17984744,0.03126022)">
    <g
       style="fill:#000000"
       id="g844"
       transform="matrix(0.47131439,0,0,0.47131439,19.685432,-0.11106014)">
      <g
         id="g939"
         transform="matrix(1.4107501,0,0,1.4107501,4.9014388,-5.3213066)">
        <path
           d="M -2.3441638,35.388688 H -15.014164 l 3.67,-3.63 -9.9,-9.9 -5.56,5.53 a 1.83,1.83 0 0 0 0,2.6 l 5.46,5.4 h -6 a 1,1 0 0 0 0,2 h 25.0000002 a 1,1 0 0 0 0,-2 z"
           class="clr-i-solid clr-i-solid-path-1"
           id="path829"
           style="fill:#aeaeae;fill-opacity:1" />
        <path
           d="m 3.7358362,14.038688 -7.3,-7.2999997 a 1.83,1.83 0 0 0 -2.6,0 l -13.7100002,13.7099997 9.9000002,9.9 13.71,-13.71 a 1.85,1.85 0 0 0 0,-2.6 z"
           class="clr-i-solid clr-i-solid-path-2"
           id="path831"
           style="fill:#aeaeae;fill-opacity:1" />
        <rect
           x="-30.344164"
           y="3.3886883"
           width="36"
           height="36"
           fill-opacity="0"
           id="rect833" />
      </g>
    </g>
  </g>
</svg>
