<svg xmlns="http://www.w3.org/2000/svg" xmlns:svg="http://www.w3.org/2000/svg" id="svg5" width="32" height="32" fill="none" version="1.1" viewBox="0 0 0.96 0.96"><g style="fill:#d2d2d2;fill-opacity:1" id="g919" transform="matrix(0.0032032,0,0,0.0032032,5.3611023e-7,2.0804898e-6)"><g id="g909" style="fill:#d2d2d2;fill-opacity:1"><g id="g907" style="fill:#d2d2d2;fill-opacity:1"><path id="path905" d="m 279.45,54.789 h -97.202 v -0.696 c 0,-17.865 -14.534,-32.399 -32.398,-32.399 -17.864,0 -32.399,14.534 -32.399,32.399 v 0.696 H 20.25 C 9.084,54.789 0,63.873 0,75.039 v 182.716 c 0,11.166 9.084,20.25 20.25,20.25 9.327,0 250.221,0 272.7,0 3.728,0 6.75,-3.022 6.75,-6.75 0,-11.931 0,-188.921 0,-196.216 0,-11.166 -9.084,-20.25 -20.25,-20.25 z M 130.951,54.094 c 0,-10.421 8.478,-18.899 18.899,-18.899 9.811,0 18.898,7.63 18.898,19.595 H 130.951 Z M 206.1,224.275 v 13.231 H 40.5 V 95.289 h 218.7 v 122.235 h -46.35 c -3.728,0.001 -6.75,3.023 -6.75,6.751 z m 80.1,40.23 h -66.6 v -33.481 h 66.6 z m 0,-46.98 H 272.7 V 88.539 c 0,-3.728 -3.022,-6.75 -6.75,-6.75 H 33.75 c -3.728,0 -6.75,3.022 -6.75,6.75 v 155.716 c 0,3.728 3.022,6.75 6.75,6.75 H 206.1 v 13.499 H 20.25 c -3.722,10e-4 -6.75,-3.028 -6.75,-6.749 V 75.039 c 0,-3.722 3.028,-6.75 6.75,-6.75 11.9,0 248.309,0 259.2,0 3.722,0 6.75,3.028 6.75,6.75 z" style="fill:#d2d2d2;fill-opacity:1"/></g></g></g><g style="fill:none" id="g958" transform="matrix(0.03182589,0,0,0.03182589,0.17984744,0.03126022)"><g style="fill:#000" id="g844" transform="matrix(0.47131439,0,0,0.47131439,19.685432,-0.11106014)"><g id="g832" fill="none" fill-rule="evenodd" transform="matrix(0.93140794,0,0,0.93140794,-36.659446,15.249098)"><path id="path828" d="M 0,0 H 32 V 32 H 0 Z"/><path id="path830" fill="#202327" d="m 11,10 c 0.895942,0 1.766866,0.107113 2.600665,0.309232 C 10.216228,12.656867 8,16.56962 8,21 8,25.43038 10.216228,29.343132 13.600528,31.690102 12.766866,31.892887 11.895942,32 11,32 4.9248677,32 0,27.075132 0,21 0,14.924868 4.9248677,10 11,10 Z m 10,0 c 6.075132,0 11,4.924868 11,11 0,6.075132 -4.924868,11 -11,11 C 14.924868,32 10,27.075132 10,21 10,14.924868 14.924868,10 21,10 Z M 16,0 C 21.533876,0 26.11332,4.0864104 26.885393,9.4062926 25.117684,8.5065019 23.117992,8 21,8 19.227547,8 17.537943,8.3547168 15.998303,8.9970344 14.46032,8.3543522 12.771542,8 11,8 8.8816088,8 6.8815621,8.5066928 5.1144431,9.4054952 5.8866798,4.0864104 10.466124,0 16,0 Z" style="fill:#aeaeae;fill-opacity:1"/></g></g></g></svg>