<?xml version="1.0" encoding="UTF-8" standalone="no"?>
<!-- Created with Inkscape (http://www.inkscape.org/) -->

<svg
   version="1.1"
   id="svg22651"
   width="158.24763"
   height="206.40997"
   xmlns:inkscape="http://www.inkscape.org/namespaces/inkscape"
   xmlns:sodipodi="http://sodipodi.sourceforge.net/DTD/sodipodi-0.dtd"
   xmlns="http://www.w3.org/2000/svg"
   xmlns:svg="http://www.w3.org/2000/svg">
  <defs
     id="defs22655" />
  <sodipodi:namedview
     id="namedview22653"
     pagecolor="#ffffff"
     bordercolor="#666666"
     borderopacity="1.0"
     inkscape:pageshadow="2"
     inkscape:pageopacity="0.0"
     inkscape:pagecheckerboard="0" />
  <inkscape:clipboard
     style="font-variation-settings:normal;opacity:1;vector-effect:none;fill:#d2d2d2;fill-opacity:1;stroke-width:3.4401661;stroke-linecap:butt;stroke-linejoin:miter;stroke-miterlimit:4;stroke-dasharray:none;stroke-dashoffset:0;stroke-opacity:1;-inkscape-stroke:none;stop-color:#000000;stop-opacity:1"
     min="3552.3048,999.09507"
     max="3710.5524,1205.505"
     geom-min="3552.3048,999.09507"
     geom-max="3710.5524,1205.505" />
  <g
     id="g22657"
     transform="translate(-3552.3048,-999.09507)">
    <g
       id="g6999"
       transform="matrix(3.4401661,0,0,3.4401661,3528.2236,999.09507)"
       style="fill:#d2d2d2;fill-opacity:1"
       inkscape:export-filename="C:\Users\Mathieu\tmp\icon_pause_action.png"
       inkscape:export-xdpi="13.952814"
       inkscape:export-ydpi="13.952814">
      <g
         id="g6899"
         style="fill:#d2d2d2;fill-opacity:1">
        <path
           id="path6901"
           d="M 50,54 H 45 V 48 C 45,40.409 40.853,33.56 34.286,30 40.853,26.44 45,19.591 45,12 V 6 h 5 C 51.654,6 53,4.654 53,3 53,1.346 51.654,0 50,0 H 10 C 8.346,0 7,1.346 7,3 7,4.654 8.346,6 10,6 h 5 v 6 c 0,7.591 4.147,14.44 10.714,18 C 19.147,33.56 15,40.409 15,48 v 6 h -5 c -1.654,0 -3,1.346 -3,3 0,1.654 1.346,3 3,3 h 40 c 1.654,0 3,-1.346 3,-3 0,-1.654 -1.346,-3 -3,-3 z M 10,4 C 9.449,4 9,3.552 9,3 9,2.448 9.449,2 10,2 h 40 c 0.551,0 1,0.448 1,1 0,0.552 -0.449,1 -1,1 H 45 15 Z m 7,8 V 6 h 26 v 6 c 0,7.427 -4.391,14.078 -11.203,17 H 28.202 C 21.391,26.078 17,19.427 17,12 Z m 0,36 c 0,-7.427 4.391,-14.078 11.203,-17 h 3.595 C 38.609,33.922 43,40.573 43,48 v 6 c 0,-0.552 -0.448,-1 -1,-1 -0.552,0 -1,0.448 -1,1 h -2 c 0,-0.552 -0.448,-1 -1,-1 -0.552,0 -1,0.448 -1,1 h -2 c 0,-0.552 -0.448,-1 -1,-1 -0.552,0 -1,0.448 -1,1 h -2 c 0,-0.552 -0.448,-1 -1,-1 -0.552,0 -1,0.448 -1,1 h -2 c 0,-0.552 -0.448,-1 -1,-1 -0.552,0 -1,0.448 -1,1 h -2 c 0,-0.552 -0.448,-1 -1,-1 -0.552,0 -1,0.448 -1,1 h -2 c 0,-0.552 -0.448,-1 -1,-1 -0.552,0 -1,0.448 -1,1 z M 50,58 H 10 C 9.449,58 9,57.552 9,57 9,56.448 9.449,56 10,56 h 5 30 5 c 0.551,0 1,0.448 1,1 0,0.552 -0.449,1 -1,1 z"
           inkscape:connector-curvature="0"
           style="fill:#d2d2d2;fill-opacity:1" />
        <circle
           id="circle6903"
           r="1"
           cy="52"
           cx="20"
           style="fill:#d2d2d2;fill-opacity:1" />
        <circle
           id="circle6905"
           r="1"
           cy="52"
           cx="24"
           style="fill:#d2d2d2;fill-opacity:1" />
        <circle
           id="circle6907"
           r="1"
           cy="52"
           cx="28"
           style="fill:#d2d2d2;fill-opacity:1" />
        <circle
           id="circle6909"
           r="1"
           cy="52"
           cx="32"
           style="fill:#d2d2d2;fill-opacity:1" />
        <circle
           id="circle6911"
           r="1"
           cy="52"
           cx="36"
           style="fill:#d2d2d2;fill-opacity:1" />
        <circle
           id="circle6913"
           r="1"
           cy="52"
           cx="40"
           style="fill:#d2d2d2;fill-opacity:1" />
        <circle
           id="circle6915"
           r="1"
           cy="50"
           cx="22"
           style="fill:#d2d2d2;fill-opacity:1" />
        <circle
           id="circle6917"
           r="1"
           cy="50"
           cx="26"
           style="fill:#d2d2d2;fill-opacity:1" />
        <circle
           id="circle6919"
           r="1"
           cy="33"
           cx="30"
           style="fill:#d2d2d2;fill-opacity:1" />
        <circle
           id="circle6921"
           r="1"
           cy="22"
           cx="24"
           style="fill:#d2d2d2;fill-opacity:1" />
        <circle
           id="circle6923"
           r="1"
           cy="22"
           cx="28"
           style="fill:#d2d2d2;fill-opacity:1" />
        <circle
           id="circle6925"
           r="1"
           cy="22"
           cx="32"
           style="fill:#d2d2d2;fill-opacity:1" />
        <circle
           id="circle6927"
           r="1"
           cy="22"
           cx="36"
           style="fill:#d2d2d2;fill-opacity:1" />
        <circle
           id="circle6929"
           r="1"
           cy="20"
           cx="34"
           style="fill:#d2d2d2;fill-opacity:1" />
        <circle
           id="circle6931"
           r="1"
           cy="18"
           cx="36"
           style="fill:#d2d2d2;fill-opacity:1" />
        <circle
           id="circle6933"
           r="1"
           cy="20"
           cx="26"
           style="fill:#d2d2d2;fill-opacity:1" />
        <circle
           id="circle6935"
           r="1"
           cy="20"
           cx="30"
           style="fill:#d2d2d2;fill-opacity:1" />
        <circle
           id="circle6937"
           r="1"
           cy="18"
           cx="24"
           style="fill:#d2d2d2;fill-opacity:1" />
        <circle
           id="circle6939"
           r="1"
           cy="24"
           cx="26"
           style="fill:#d2d2d2;fill-opacity:1" />
        <circle
           id="circle6941"
           r="1"
           cy="26"
           cx="28"
           style="fill:#d2d2d2;fill-opacity:1" />
        <circle
           id="circle6943"
           r="1"
           cy="26"
           cx="32"
           style="fill:#d2d2d2;fill-opacity:1" />
        <circle
           id="circle6945"
           r="1"
           cy="24"
           cx="30"
           style="fill:#d2d2d2;fill-opacity:1" />
        <circle
           id="circle6947"
           r="1"
           cy="24"
           cx="34"
           style="fill:#d2d2d2;fill-opacity:1" />
        <circle
           id="circle6949"
           r="1"
           cy="36"
           cx="30"
           style="fill:#d2d2d2;fill-opacity:1" />
        <circle
           id="circle6951"
           r="1"
           cy="39"
           cx="30"
           style="fill:#d2d2d2;fill-opacity:1" />
        <circle
           id="circle6953"
           r="1"
           cy="42"
           cx="30"
           style="fill:#d2d2d2;fill-opacity:1" />
        <circle
           id="circle6955"
           r="1"
           cy="45"
           cx="30"
           style="fill:#d2d2d2;fill-opacity:1" />
        <circle
           id="circle6957"
           r="1"
           cy="48"
           cx="30"
           style="fill:#d2d2d2;fill-opacity:1" />
        <circle
           id="circle6959"
           r="1"
           cy="50"
           cx="34"
           style="fill:#d2d2d2;fill-opacity:1" />
        <circle
           id="circle6961"
           r="1"
           cy="50"
           cx="38"
           style="fill:#d2d2d2;fill-opacity:1" />
      </g>
      <g
         id="g6963"
         style="fill:#d2d2d2;fill-opacity:1" />
      <g
         id="g6965"
         style="fill:#d2d2d2;fill-opacity:1" />
      <g
         id="g6967"
         style="fill:#d2d2d2;fill-opacity:1" />
      <g
         id="g6969"
         style="fill:#d2d2d2;fill-opacity:1" />
      <g
         id="g6971"
         style="fill:#d2d2d2;fill-opacity:1" />
      <g
         id="g6973"
         style="fill:#d2d2d2;fill-opacity:1" />
      <g
         id="g6975"
         style="fill:#d2d2d2;fill-opacity:1" />
      <g
         id="g6977"
         style="fill:#d2d2d2;fill-opacity:1" />
      <g
         id="g6979"
         style="fill:#d2d2d2;fill-opacity:1" />
      <g
         id="g6981"
         style="fill:#d2d2d2;fill-opacity:1" />
      <g
         id="g6983"
         style="fill:#d2d2d2;fill-opacity:1" />
      <g
         id="g6985"
         style="fill:#d2d2d2;fill-opacity:1" />
      <g
         id="g6987"
         style="fill:#d2d2d2;fill-opacity:1" />
      <g
         id="g6989"
         style="fill:#d2d2d2;fill-opacity:1" />
      <g
         id="g6991"
         style="fill:#d2d2d2;fill-opacity:1" />
    </g>
  </g>
</svg>
