<svg xmlns="http://www.w3.org/2000/svg" xmlns:svg="http://www.w3.org/2000/svg" id="svg22651" width="158.248" height="206.41" version="1.1"><g id="g22657" transform="translate(-3552.3048,-999.09507)"><g id="g6999" transform="matrix(3.4401661,0,0,3.4401661,3528.2236,999.09507)" style="fill:#d2d2d2;fill-opacity:1"><g id="g6899" style="fill:#d2d2d2;fill-opacity:1"><path id="path6901" d="M 50,54 H 45 V 48 C 45,40.409 40.853,33.56 34.286,30 40.853,26.44 45,19.591 45,12 V 6 h 5 C 51.654,6 53,4.654 53,3 53,1.346 51.654,0 50,0 H 10 C 8.346,0 7,1.346 7,3 7,4.654 8.346,6 10,6 h 5 v 6 c 0,7.591 4.147,14.44 10.714,18 C 19.147,33.56 15,40.409 15,48 v 6 h -5 c -1.654,0 -3,1.346 -3,3 0,1.654 1.346,3 3,3 h 40 c 1.654,0 3,-1.346 3,-3 0,-1.654 -1.346,-3 -3,-3 z M 10,4 C 9.449,4 9,3.552 9,3 9,2.448 9.449,2 10,2 h 40 c 0.551,0 1,0.448 1,1 0,0.552 -0.449,1 -1,1 H 45 15 Z m 7,8 V 6 h 26 v 6 c 0,7.427 -4.391,14.078 -11.203,17 H 28.202 C 21.391,26.078 17,19.427 17,12 Z m 0,36 c 0,-7.427 4.391,-14.078 11.203,-17 h 3.595 C 38.609,33.922 43,40.573 43,48 v 6 c 0,-0.552 -0.448,-1 -1,-1 -0.552,0 -1,0.448 -1,1 h -2 c 0,-0.552 -0.448,-1 -1,-1 -0.552,0 -1,0.448 -1,1 h -2 c 0,-0.552 -0.448,-1 -1,-1 -0.552,0 -1,0.448 -1,1 h -2 c 0,-0.552 -0.448,-1 -1,-1 -0.552,0 -1,0.448 -1,1 h -2 c 0,-0.552 -0.448,-1 -1,-1 -0.552,0 -1,0.448 -1,1 h -2 c 0,-0.552 -0.448,-1 -1,-1 -0.552,0 -1,0.448 -1,1 h -2 c 0,-0.552 -0.448,-1 -1,-1 -0.552,0 -1,0.448 -1,1 z M 50,58 H 10 C 9.449,58 9,57.552 9,57 9,56.448 9.449,56 10,56 h 5 30 5 c 0.551,0 1,0.448 1,1 0,0.552 -0.449,1 -1,1 z" style="fill:#d2d2d2;fill-opacity:1"/><circle id="circle6903" cx="20" cy="52" r="1" style="fill:#d2d2d2;fill-opacity:1"/><circle id="circle6905" cx="24" cy="52" r="1" style="fill:#d2d2d2;fill-opacity:1"/><circle id="circle6907" cx="28" cy="52" r="1" style="fill:#d2d2d2;fill-opacity:1"/><circle id="circle6909" cx="32" cy="52" r="1" style="fill:#d2d2d2;fill-opacity:1"/><circle id="circle6911" cx="36" cy="52" r="1" style="fill:#d2d2d2;fill-opacity:1"/><circle id="circle6913" cx="40" cy="52" r="1" style="fill:#d2d2d2;fill-opacity:1"/><circle id="circle6915" cx="22" cy="50" r="1" style="fill:#d2d2d2;fill-opacity:1"/><circle id="circle6917" cx="26" cy="50" r="1" style="fill:#d2d2d2;fill-opacity:1"/><circle id="circle6919" cx="30" cy="33" r="1" style="fill:#d2d2d2;fill-opacity:1"/><circle id="circle6921" cx="24" cy="22" r="1" style="fill:#d2d2d2;fill-opacity:1"/><circle id="circle6923" cx="28" cy="22" r="1" style="fill:#d2d2d2;fill-opacity:1"/><circle id="circle6925" cx="32" cy="22" r="1" style="fill:#d2d2d2;fill-opacity:1"/><circle id="circle6927" cx="36" cy="22" r="1" style="fill:#d2d2d2;fill-opacity:1"/><circle id="circle6929" cx="34" cy="20" r="1" style="fill:#d2d2d2;fill-opacity:1"/><circle id="circle6931" cx="36" cy="18" r="1" style="fill:#d2d2d2;fill-opacity:1"/><circle id="circle6933" cx="26" cy="20" r="1" style="fill:#d2d2d2;fill-opacity:1"/><circle id="circle6935" cx="30" cy="20" r="1" style="fill:#d2d2d2;fill-opacity:1"/><circle id="circle6937" cx="24" cy="18" r="1" style="fill:#d2d2d2;fill-opacity:1"/><circle id="circle6939" cx="26" cy="24" r="1" style="fill:#d2d2d2;fill-opacity:1"/><circle id="circle6941" cx="28" cy="26" r="1" style="fill:#d2d2d2;fill-opacity:1"/><circle id="circle6943" cx="32" cy="26" r="1" style="fill:#d2d2d2;fill-opacity:1"/><circle id="circle6945" cx="30" cy="24" r="1" style="fill:#d2d2d2;fill-opacity:1"/><circle id="circle6947" cx="34" cy="24" r="1" style="fill:#d2d2d2;fill-opacity:1"/><circle id="circle6949" cx="30" cy="36" r="1" style="fill:#d2d2d2;fill-opacity:1"/><circle id="circle6951" cx="30" cy="39" r="1" style="fill:#d2d2d2;fill-opacity:1"/><circle id="circle6953" cx="30" cy="42" r="1" style="fill:#d2d2d2;fill-opacity:1"/><circle id="circle6955" cx="30" cy="45" r="1" style="fill:#d2d2d2;fill-opacity:1"/><circle id="circle6957" cx="30" cy="48" r="1" style="fill:#d2d2d2;fill-opacity:1"/><circle id="circle6959" cx="34" cy="50" r="1" style="fill:#d2d2d2;fill-opacity:1"/><circle id="circle6961" cx="38" cy="50" r="1" style="fill:#d2d2d2;fill-opacity:1"/></g></g></g></svg>