<?xml version="1.0" encoding="UTF-8" standalone="no"?>
<!-- Uploaded to: SVG Repo, www.svgrepo.com, Generator: SVG Repo Mixer Tools -->

<svg
   width="32.000015"
   height="32"
   viewBox="0 0 0.96000044 0.96000002"
   fill="none"
   version="1.1"
   id="svg4"
   sodipodi:docname="timer-start-svgrepo-com.svg"
   inkscape:version="1.3 (0e150ed6c4, 2023-07-21)"
   inkscape:export-filename="timer-start-svgrepo-com.svg"
   inkscape:export-xdpi="96"
   inkscape:export-ydpi="96"
   xml:space="preserve"
   xmlns:inkscape="http://www.inkscape.org/namespaces/inkscape"
   xmlns:sodipodi="http://sodipodi.sourceforge.net/DTD/sodipodi-0.dtd"
   xmlns="http://www.w3.org/2000/svg"
   xmlns:svg="http://www.w3.org/2000/svg"><defs
     id="defs4" /><sodipodi:namedview
     id="namedview4"
     pagecolor="#ffffff"
     bordercolor="#000000"
     borderopacity="0.25"
     inkscape:showpageshadow="2"
     inkscape:pageopacity="0.0"
     inkscape:pagecheckerboard="0"
     inkscape:deskcolor="#d1d1d1"
     inkscape:zoom="16.74"
     inkscape:cx="14.366786"
     inkscape:cy="14.665472"
     inkscape:window-width="1920"
     inkscape:window-height="1051"
     inkscape:window-x="-9"
     inkscape:window-y="592"
     inkscape:window-maximized="1"
     inkscape:current-layer="g1" /><path
     d="M 0.48000022,0.30225159 V 0.52443707"
     stroke="#292d32"
     stroke-width="0.071258"
     stroke-linecap="round"
     stroke-linejoin="round"
     id="path1"
     style="stroke:#d2d2d2;stroke-opacity:1" /><path
     d="m 0.48000022,0.92437099 c -0.24529291,0 -0.44437122,-0.17419344 -0.44437122,-0.38882464 0,-0.21463117 0.19907831,-0.3888246 0.44437122,-0.3888246 0.24529291,0 0.44437122,0.17419343 0.44437122,0.3888246"
     stroke="#292d32"
     stroke-width="0.071258"
     stroke-linecap="round"
     stroke-linejoin="round"
     id="path2"
     style="stroke:#d2d2d2;stroke-opacity:1" /><path
     d="M 0.32764438,0.035629 H 0.63235606"
     stroke="#292d32"
     stroke-width="0.071258"
     stroke-miterlimit="10"
     stroke-linecap="round"
     stroke-linejoin="round"
     id="path3"
     style="stroke:#d2d2d2;stroke-opacity:1" /><g
     style="fill:none"
     id="g1"
     transform="translate(-11.297491,-11.308244)"><g
       style="fill:none;stroke:#d2d2d2;stroke-opacity:1"
       id="g2"
       transform="matrix(0.01826896,0,0,0.01826896,11.794406,11.838215)"><path
         d="M 3.27,12 C 2.48,11.05 2,9.83 2,8.5 2,5.48 4.47,3 7.5,3 h 5 C 15.52,3 18,5.48 18,8.5 18,11.52 15.53,14 12.5,14 H 10"
         stroke="#292d32"
         stroke-width="1.5"
         stroke-linecap="round"
         stroke-linejoin="round"
         id="path1-2"
         style="stroke:#d2d2d2;stroke-opacity:1" /><path
         d="m 20.73,12 c 0.79,0.95 1.27,2.17 1.27,3.5 0,3.02 -2.47,5.5 -5.5,5.5 h -5 C 8.48,21 6,18.52 6,15.5 6,12.48 8.47,10 11.5,10 H 14"
         stroke="#292d32"
         stroke-width="1.5"
         stroke-linecap="round"
         stroke-linejoin="round"
         id="path2-4"
         style="stroke:#d2d2d2;stroke-opacity:1" /></g></g></svg>
