<svg xmlns="http://www.w3.org/2000/svg" xmlns:svg="http://www.w3.org/2000/svg" id="svg4" width="32" height="32" fill="none" version="1.1" viewBox="0 0 0.96 0.96" xml:space="preserve"><path id="path1" stroke="#292d32" stroke-linecap="round" stroke-linejoin="round" stroke-width=".071" d="M 0.48000022,0.30225159 V 0.52443707" style="stroke:#d2d2d2;stroke-opacity:1"/><path id="path2" stroke="#292d32" stroke-linecap="round" stroke-linejoin="round" stroke-width=".071" d="m 0.48000022,0.92437099 c -0.24529291,0 -0.44437122,-0.17419344 -0.44437122,-0.38882464 0,-0.21463117 0.19907831,-0.3888246 0.44437122,-0.3888246 0.24529291,0 0.44437122,0.17419343 0.44437122,0.3888246" style="stroke:#d2d2d2;stroke-opacity:1"/><path id="path3" stroke="#292d32" stroke-linecap="round" stroke-linejoin="round" stroke-miterlimit="10" stroke-width=".071" d="M 0.32764438,0.035629 H 0.63235606" style="stroke:#d2d2d2;stroke-opacity:1"/><g style="fill:none" id="g1" transform="translate(-11.297491,-11.308244)"><g style="fill:none;stroke:#d2d2d2;stroke-opacity:1" id="g2" transform="matrix(0.01826896,0,0,0.01826896,11.794406,11.838215)"><path id="path1-2" stroke="#292d32" stroke-linecap="round" stroke-linejoin="round" stroke-width="1.5" d="M 3.27,12 C 2.48,11.05 2,9.83 2,8.5 2,5.48 4.47,3 7.5,3 h 5 C 15.52,3 18,5.48 18,8.5 18,11.52 15.53,14 12.5,14 H 10" style="stroke:#d2d2d2;stroke-opacity:1"/><path id="path2-4" stroke="#292d32" stroke-linecap="round" stroke-linejoin="round" stroke-width="1.5" d="m 20.73,12 c 0.79,0.95 1.27,2.17 1.27,3.5 0,3.02 -2.47,5.5 -5.5,5.5 h -5 C 8.48,21 6,18.52 6,15.5 6,12.48 8.47,10 11.5,10 H 14" style="stroke:#d2d2d2;stroke-opacity:1"/></g></g></svg>