<?xml version="1.0" encoding="UTF-8" standalone="no"?>
<!-- Uploaded to: SVG Repo, www.svgrepo.com, Generator: SVG Repo Mixer Tools -->

<svg
   width="32.000004"
   height="32"
   viewBox="0 0 0.96000011 0.96"
   fill="none"
   version="1.1"
   id="svg5"
   sodipodi:docname="icon_game_set_max_score.svg"
   inkscape:export-filename="C:\Users\Mathieu\dev\lifecompanion\workspace\lifecompanion\lifecompanion\lc-app\src\main\resources\icons\use-actions\categories\miscellaneous\icon_game_set_max_score.png"
   inkscape:export-xdpi="96"
   inkscape:export-ydpi="96"
   inkscape:version="1.4 (86a8ad7, 2024-10-11)"
   xml:space="preserve"
   xmlns:inkscape="http://www.inkscape.org/namespaces/inkscape"
   xmlns:sodipodi="http://sodipodi.sourceforge.net/DTD/sodipodi-0.dtd"
   xmlns="http://www.w3.org/2000/svg"
   xmlns:svg="http://www.w3.org/2000/svg"><defs
     id="defs5" /><sodipodi:namedview
     id="namedview5"
     pagecolor="#ffffff"
     bordercolor="#000000"
     borderopacity="0.25"
     inkscape:showpageshadow="2"
     inkscape:pageopacity="0.0"
     inkscape:pagecheckerboard="0"
     inkscape:deskcolor="#d1d1d1"
     inkscape:pageshadow="2"
     showgrid="false"
     inkscape:zoom="12.984375"
     inkscape:cx="8.1636583"
     inkscape:cy="27.148014"
     inkscape:window-width="2560"
     inkscape:window-height="1351"
     inkscape:window-x="2551"
     inkscape:window-y="-9"
     inkscape:window-maximized="1"
     inkscape:current-layer="g1" /><g
     style="fill:none"
     id="g958"
     transform="matrix(0.03182589,0,0,0.03182589,0.17984744,0.03126022)"><g
       style="fill:#d2d2d2;fill-opacity:1"
       id="g1"
       transform="matrix(1.3647096,0,0,1.3647096,-6.9885977,-2.346936)"><path
         d="m 9.4,7.53333 c -0.2,-0.26666 -0.6,-0.26666 -0.8,0 L 6.225,10.7 c -0.13333,0.1778 -0.13333,0.4222 0,0.6 L 8.6,14.4667 c 0.2,0.2666 0.6,0.2666 0.8,0 L 11.775,11.3 c 0.1333,-0.1778 0.1333,-0.4222 0,-0.6 z"
         fill="#0f0f0f"
         id="path1"
         style="fill:#d2d2d2;fill-opacity:1" /><path
         d="M 4.09245,5.63868 C 4.03647,5.5547 4.03647,5.4453 4.09245,5.36133 L 4.79199,4.31202 c 0.09895,-0.14843 0.31707,-0.14843 0.41602,0 l 0.69954,1.0493 c 0.05598,0.08398 0.05598,0.19338 0,0.27735 L 5.20801,6.68798 c -0.09895,0.14843 -0.31707,0.14843 -0.41602,0 z"
         fill="#0f0f0f"
         id="path2"
         style="fill:#d2d2d2;fill-opacity:1" /><path
         fill-rule="evenodd"
         clip-rule="evenodd"
         d="M 1,4 C 1,2.34315 2.34315,1 4,1 h 10 c 1.1323,0 2.1181,0.62732 2.6288,1.55337 l 4.2102,1.12811 c 1.6004,0.42883 2.5501,2.07384 2.1213,3.67424 L 19.3368,20.8787 C 18.908,22.4791 17.263,23.4288 15.6626,23 L 8.19849,21 H 4 C 2.34315,21 1,19.6569 1,18 Z M 17,18 V 4.72339 l 3.3213,0.88995 c 0.5335,0.14294 0.8501,0.69127 0.7071,1.22474 L 17.405,20.361 c -0.143,0.5335 -0.6913,0.8501 -1.2248,0.7071 L 15.1198,20.784 C 16.222,20.3403 17,19.261 17,18 Z M 4,3 C 3.44772,3 3,3.44772 3,4 v 14 c 0,0.5523 0.44772,1 1,1 h 10 c 0.5523,0 1,-0.4477 1,-1 V 4 C 15,3.44772 14.5523,3 14,3 Z"
         fill="#0f0f0f"
         id="path4"
         style="fill:#d2d2d2;fill-opacity:1" /></g><g
       style="fill:#aeaeae;fill-opacity:1"
       id="g2"
       transform="matrix(-1.1744104,0,0,-1.1744104,25.380559,28.283498)"><path
         d="M 13,7 H 10 V 0 H 6 V 7 H 3 v 1 l 5,5 5,-5 z"
         fill="#000000"
         id="path1-0"
         style="fill:#aeaeae;fill-opacity:1" /><path
         d="M 14,14 H 2 v 2 h 12 z"
         fill="#000000"
         id="path2-9"
         style="fill:#aeaeae;fill-opacity:1" /></g></g></svg>
