<svg xmlns="http://www.w3.org/2000/svg" xmlns:svg="http://www.w3.org/2000/svg" id="svg5" width="32" height="32" fill="none" version="1.1" viewBox="0 0 0.96 0.96"><g style="fill:#d2d2d2;fill-opacity:1" id="g919" transform="matrix(0.0032032,0,0,0.0032032,5.3611023e-7,2.0804898e-6)"><g id="g909" style="fill:#d2d2d2;fill-opacity:1"><g id="g907" style="fill:#d2d2d2;fill-opacity:1"><path id="path905" d="m 279.45,54.789 h -97.202 v -0.696 c 0,-17.865 -14.534,-32.399 -32.398,-32.399 -17.864,0 -32.399,14.534 -32.399,32.399 v 0.696 H 20.25 C 9.084,54.789 0,63.873 0,75.039 v 182.716 c 0,11.166 9.084,20.25 20.25,20.25 9.327,0 250.221,0 272.7,0 3.728,0 6.75,-3.022 6.75,-6.75 0,-11.931 0,-188.921 0,-196.216 0,-11.166 -9.084,-20.25 -20.25,-20.25 z M 130.951,54.094 c 0,-10.421 8.478,-18.899 18.899,-18.899 9.811,0 18.898,7.63 18.898,19.595 H 130.951 Z M 206.1,224.275 v 13.231 H 40.5 V 95.289 h 218.7 v 122.235 h -46.35 c -3.728,0.001 -6.75,3.023 -6.75,6.751 z m 80.1,40.23 h -66.6 v -33.481 h 66.6 z m 0,-46.98 H 272.7 V 88.539 c 0,-3.728 -3.022,-6.75 -6.75,-6.75 H 33.75 c -3.728,0 -6.75,3.022 -6.75,6.75 v 155.716 c 0,3.728 3.022,6.75 6.75,6.75 H 206.1 v 13.499 H 20.25 c -3.722,10e-4 -6.75,-3.028 -6.75,-6.749 V 75.039 c 0,-3.722 3.028,-6.75 6.75,-6.75 11.9,0 248.309,0 259.2,0 3.722,0 6.75,3.028 6.75,6.75 z" style="fill:#d2d2d2;fill-opacity:1"/></g></g></g><g style="fill:none" id="g958" transform="matrix(0.03182589,0,0,0.03182589,0.17984744,0.03126022)"><g style="fill:#000" id="g844" transform="matrix(0.47131439,0,0,0.47131439,19.685432,-0.11106014)"><g style="fill:#aeaeae;fill-opacity:1" id="g836" transform="matrix(1.7242947,0,0,1.7242947,-42.448455,9.4600882)"><path id="path827" d="M 21,20 V 8.414 A 1,1 0 0 0 20.707,7.707 L 16.293,3.293 A 1,1 0 0 0 15.586,3 H 4 A 1,1 0 0 0 3,4 v 16 a 1,1 0 0 0 1,1 h 16 a 1,1 0 0 0 1,-1 z M 9,8 h 4 a 1,1 0 0 1 0,2 H 9 A 1,1 0 0 1 9,8 Z m 7,11 H 8 v -4 a 1,1 0 0 1 1,-1 h 6 a 1,1 0 0 1 1,1 z" style="fill:#aeaeae;fill-opacity:1"/></g></g></g></svg>