<?xml version="1.0" encoding="UTF-8" standalone="no"?>
<!-- Uploaded to: SVG Repo, www.svgrepo.com, Generator: SVG Repo Mixer Tools -->

<svg
   fill="#000000"
   width="256"
   height="256"
   viewBox="0 0 10.239999 10.24"
   version="1.1"
   id="svg6"
   sodipodi:docname="answer_bad.svg"
   inkscape:version="1.1.2 (b8e25be833, 2022-02-05)"
   inkscape:export-filename="E:\dev-lifecompanion\workspace\lifecompanion\res\icons\lc-spellgame-plugin\answer_bad.png"
   inkscape:export-xdpi="96"
   inkscape:export-ydpi="96"
   xmlns:inkscape="http://www.inkscape.org/namespaces/inkscape"
   xmlns:sodipodi="http://sodipodi.sourceforge.net/DTD/sodipodi-0.dtd"
   xmlns="http://www.w3.org/2000/svg"
   xmlns:svg="http://www.w3.org/2000/svg"
   xmlns:rdf="http://www.w3.org/1999/02/22-rdf-syntax-ns#"
   xmlns:cc="http://creativecommons.org/ns#"
   xmlns:dc="http://purl.org/dc/elements/1.1/">
  <defs
     id="defs10" />
  <sodipodi:namedview
     id="namedview8"
     pagecolor="#ffffff"
     bordercolor="#666666"
     borderopacity="1.0"
     inkscape:pageshadow="2"
     inkscape:pageopacity="0.0"
     inkscape:pagecheckerboard="false"
     showgrid="false"
     units="px"
     inkscape:zoom="1.09125"
     inkscape:cx="399.54181"
     inkscape:cy="400"
     inkscape:window-width="3840"
     inkscape:window-height="2081"
     inkscape:window-x="-9"
     inkscape:window-y="-9"
     inkscape:window-maximized="1"
     inkscape:current-layer="svg6" />
  <title
     id="title2">cancel2</title>
  <path
     d="m 6.960224,5.1202565 3.127407,3.127407 c 0.203158,0.203158 0.203158,0.533034 0,0.736192 L 8.984112,10.087375 c -0.203158,0.203158 -0.532521,0.203158 -0.736192,0 L 5.12,6.9599675 1.9920801,10.087375 c -0.2031583,0.203158 -0.532521,0.203158 -0.7356793,0 L 0.15236871,8.9838555 c -0.2031583,-0.203158 -0.2031583,-0.532521 0,-0.736192 L 3.2802885,5.1202565 0.15236871,1.9923366 c -0.2031583,-0.2031583 -0.2031583,-0.5330341 0,-0.7361924 L 1.2569138,0.15262521 c 0.2031583,-0.2031583 0.532521,-0.2031583 0.7356793,0 L 5.12,3.280545 8.24792,0.15262521 c 0.203158,-0.2031583 0.532521,-0.2031583 0.736192,0 l 1.103519,1.10403209 c 0.203158,0.2031583 0.203158,0.532521 0,0.7361923 z"
     id="path4"
     style="stroke-width:0.513026;fill:#aa0000" />
  <metadata
     id="metadata827">
    <rdf:RDF>
      <cc:Work
         rdf:about="">
        <dc:title>cancel2</dc:title>
      </cc:Work>
    </rdf:RDF>
  </metadata>
</svg>
