<?xml version="1.0" encoding="UTF-8" standalone="no"?>
<!-- Created with Inkscape (http://www.inkscape.org/) -->

<svg
   width="32px"
   height="32px"
   viewBox="0 0 32 32"
   version="1.1"
   id="SVGRoot"
   inkscape:version="1.1.2 (b8e25be833, 2022-02-05)"
   sodipodi:docname="current_word.svg"
   inkscape:export-filename="./icon.png"
   inkscape:export-xdpi="96"
   inkscape:export-ydpi="96"
   xmlns:inkscape="http://www.inkscape.org/namespaces/inkscape"
   xmlns:sodipodi="http://sodipodi.sourceforge.net/DTD/sodipodi-0.dtd"
   xmlns="http://www.w3.org/2000/svg"
   xmlns:svg="http://www.w3.org/2000/svg"
   xmlns:rdf="http://www.w3.org/1999/02/22-rdf-syntax-ns#"
   xmlns:cc="http://creativecommons.org/ns#"
   xmlns:dc="http://purl.org/dc/elements/1.1/">
  <sodipodi:namedview
     id="base"
     pagecolor="#ffffff"
     bordercolor="#666666"
     borderopacity="1.0"
     inkscape:pageopacity="0.0"
     inkscape:pageshadow="2"
     inkscape:zoom="8"
     inkscape:cx="7.625"
     inkscape:cy="65.5625"
     inkscape:document-units="px"
     inkscape:current-layer="layer1"
     showgrid="false"
     inkscape:window-width="3840"
     inkscape:window-height="2081"
     inkscape:window-x="-9"
     inkscape:window-y="-9"
     inkscape:window-maximized="1"
     inkscape:grid-bbox="true"
     inkscape:pagecheckerboard="0" />
  <defs
     id="defs6479" />
  <metadata
     id="metadata6482">
    <rdf:RDF>
      <cc:Work
         rdf:about="">
        <dc:format>image/svg+xml</dc:format>
        <dc:type
           rdf:resource="http://purl.org/dc/dcmitype/StillImage" />
        <dc:title />
      </cc:Work>
    </rdf:RDF>
  </metadata>
  <g
     id="layer1"
     inkscape:groupmode="layer"
     inkscape:label="Calque 1">
    <rect
       id="Rectangle"
       fill-rule="nonzero"
       x="-493.25"
       y="-368.125"
       width="32"
       height="32"
       style="fill:none;stroke:none;stroke-width:1.33333" />
    <g
       style="fill:#f44336;fill-opacity:1"
       id="g836"
       transform="matrix(1.9393939,0,0,1.9393939,-8.7272722,-3.8787875)">
      <path
         fill-rule="evenodd"
         clip-rule="evenodd"
         d="M 15.4013,7.5 H 19 C 19.2761,7.5 19.5,7.27614 19.5,7 19.5,6.72386 19.2761,6.5 19,6.5 h -3.9585 c 0.0602,0.35896 0.1842,0.69631 0.3598,1 z m -2.1724,0 c -0.1007,-0.32062 -0.17,-0.65516 -0.2042,-1 H 5 C 4.72386,6.5 4.5,6.72386 4.5,7 4.5,7.27614 4.72386,7.5 5,7.5 Z M 5,11.5 c -0.27614,0 -0.5,0.2239 -0.5,0.5 0,0.2761 0.22386,0.5 0.5,0.5 h 14 c 0.2761,0 0.5,-0.2239 0.5,-0.5 0,-0.2761 -0.2239,-0.5 -0.5,-0.5 z m 0,5 c -0.27614,0 -0.5,0.2239 -0.5,0.5 0,0.2761 0.22386,0.5 0.5,0.5 h 14 c 0.2761,0 0.5,-0.2239 0.5,-0.5 0,-0.2761 -0.2239,-0.5 -0.5,-0.5 z"
         fill="#222222"
         id="path824"
         style="fill:#f44336;fill-opacity:1" />
      <circle
         cx="18"
         cy="6"
         r="3"
         fill="#222222"
         id="circle826"
         style="fill:#f44336;fill-opacity:1" />
    </g>
  </g>
</svg>
