<svg xmlns="http://www.w3.org/2000/svg" xmlns:svg="http://www.w3.org/2000/svg" id="SVGRoot" width="32" height="32" version="1.1" viewBox="0 0 32 32"><metadata id="metadata6482"/><g id="layer1"><rect id="Rectangle" width="32" height="32" x="-493.25" y="-368.125" fill-rule="nonzero" style="fill:none;stroke:none;stroke-width:1.33333"/><g style="fill:#f44336;fill-opacity:1" id="g836" transform="matrix(1.9393939,0,0,1.9393939,-8.7272722,-3.8787875)"><path id="path824" fill="#222" fill-rule="evenodd" d="M 15.4013,7.5 H 19 C 19.2761,7.5 19.5,7.27614 19.5,7 19.5,6.72386 19.2761,6.5 19,6.5 h -3.9585 c 0.0602,0.35896 0.1842,0.69631 0.3598,1 z m -2.1724,0 c -0.1007,-0.32062 -0.17,-0.65516 -0.2042,-1 H 5 C 4.72386,6.5 4.5,6.72386 4.5,7 4.5,7.27614 4.72386,7.5 5,7.5 Z M 5,11.5 c -0.27614,0 -0.5,0.2239 -0.5,0.5 0,0.2761 0.22386,0.5 0.5,0.5 h 14 c 0.2761,0 0.5,-0.2239 0.5,-0.5 0,-0.2761 -0.2239,-0.5 -0.5,-0.5 z m 0,5 c -0.27614,0 -0.5,0.2239 -0.5,0.5 0,0.2761 0.22386,0.5 0.5,0.5 h 14 c 0.2761,0 0.5,-0.2239 0.5,-0.5 0,-0.2761 -0.2239,-0.5 -0.5,-0.5 z" clip-rule="evenodd" style="fill:#f44336;fill-opacity:1"/><circle id="circle826" cx="18" cy="6" r="3" fill="#222" style="fill:#f44336;fill-opacity:1"/></g></g></svg>