<svg xmlns="http://www.w3.org/2000/svg" xmlns:svg="http://www.w3.org/2000/svg" id="SVGRoot" width="32" height="32" version="1.1" viewBox="0 0 32 32"><metadata id="metadata6482"/><g id="layer1"><rect id="Rectangle" width="32" height="32" x="-493.25" y="-368.125" fill-rule="nonzero" style="fill:none;stroke:none;stroke-width:1.33333"/><g id="Layer_2" data-name="Layer 2" transform="matrix(16.666667,0,0,16.666667,-393.68751,-405.62501)"><g id="invisible_box" data-name="invisible box"><rect id="rect827" width="48" height="48" x="0" y="0" fill="none"/></g><g id="icons_Q2" data-name="icons Q2" transform="matrix(0.04363113,0,0,0.04363113,23.533988,24.302765)" style="stroke-width:.99974489;stroke-miterlimit:4;stroke-dasharray:none;stroke:none;stroke-opacity:1;fill:#d2d2d2;fill-opacity:1"><g id="g838" style="stroke-width:.99974489;stroke-miterlimit:4;stroke-dasharray:none;stroke:none;stroke-opacity:1;fill:#d2d2d2;fill-opacity:1"><circle id="circle830" cx="8" cy="37" r="6" style="stroke-width:.99974489;stroke-miterlimit:4;stroke-dasharray:none;stroke:none;stroke-opacity:1;fill:#d2d2d2;fill-opacity:1"/><path id="path832" d="m 24,31 a 6,6 0 1 0 6,6 6,6 0 0 0 -6,-6 z m 0,8 a 2,2 0 1 1 2,-2 2,2 0 0 1 -2,2 z" style="stroke-width:.99974489;stroke-miterlimit:4;stroke-dasharray:none;stroke:none;stroke-opacity:1;fill:#d2d2d2;fill-opacity:1"/><circle id="circle834" cx="40" cy="37" r="6" style="stroke-width:.99974489;stroke-miterlimit:4;stroke-dasharray:none;stroke:none;stroke-opacity:1;fill:#d2d2d2;fill-opacity:1"/><path id="path836" d="m 37.4,19.6 a 1.9,1.9 0 0 0 -3,0.2 2.1,2.1 0 0 0 0.2,2.7 l 4,3.9 a 1.9,1.9 0 0 0 2.8,0 l 4,-3.9 a 2.3,2.3 0 0 0 0.3,-2.7 2,2 0 0 0 -3.1,-0.2 L 42,20.2 A 18.004444,18.004444 0 0 0 6,21 v 2 a 2,2 0 0 0 4,0 v -2 a 14.00723,14.00723 0 0 1 28,-0.9 z" style="stroke-width:.99974489;stroke-miterlimit:4;stroke-dasharray:none;stroke:none;stroke-opacity:1;fill:#d2d2d2;fill-opacity:1"/></g></g></g></g></svg>