<?xml version="1.0" encoding="UTF-8" standalone="no"?>
<!-- Created with Inkscape (http://www.inkscape.org/) -->

<svg
   width="32px"
   height="32px"
   viewBox="0 0 32 32"
   version="1.1"
   id="SVGRoot"
   inkscape:version="1.1.2 (b8e25be833, 2022-02-05)"
   sodipodi:docname="skip_answer.svg"
   inkscape:export-filename="./icon.png"
   inkscape:export-xdpi="96"
   inkscape:export-ydpi="96"
   xmlns:inkscape="http://www.inkscape.org/namespaces/inkscape"
   xmlns:sodipodi="http://sodipodi.sourceforge.net/DTD/sodipodi-0.dtd"
   xmlns="http://www.w3.org/2000/svg"
   xmlns:svg="http://www.w3.org/2000/svg"
   xmlns:rdf="http://www.w3.org/1999/02/22-rdf-syntax-ns#"
   xmlns:cc="http://creativecommons.org/ns#"
   xmlns:dc="http://purl.org/dc/elements/1.1/">
  <sodipodi:namedview
     id="base"
     pagecolor="#ffffff"
     bordercolor="#666666"
     borderopacity="1.0"
     inkscape:pageopacity="0.0"
     inkscape:pageshadow="2"
     inkscape:zoom="16"
     inkscape:cx="-8.5"
     inkscape:cy="31.03125"
     inkscape:document-units="px"
     inkscape:current-layer="Layer_2"
     showgrid="false"
     inkscape:window-width="3840"
     inkscape:window-height="2081"
     inkscape:window-x="-9"
     inkscape:window-y="-9"
     inkscape:window-maximized="1"
     inkscape:grid-bbox="true"
     inkscape:pagecheckerboard="0" />
  <defs
     id="defs6479" />
  <metadata
     id="metadata6482">
    <rdf:RDF>
      <cc:Work
         rdf:about="">
        <dc:format>image/svg+xml</dc:format>
        <dc:type
           rdf:resource="http://purl.org/dc/dcmitype/StillImage" />
        <dc:title />
      </cc:Work>
    </rdf:RDF>
  </metadata>
  <g
     id="layer1"
     inkscape:groupmode="layer"
     inkscape:label="Calque 1">
    <rect
       id="Rectangle"
       fill-rule="nonzero"
       x="-493.25"
       y="-368.125"
       width="32"
       height="32"
       style="fill:none;stroke:none;stroke-width:1.33333" />
    <g
       id="Layer_2"
       data-name="Layer 2"
       transform="matrix(16.666667,0,0,16.666667,-393.68751,-405.62501)">
      <g
         id="invisible_box"
         data-name="invisible box">
        <rect
           width="48"
           height="48"
           fill="none"
           id="rect827"
           x="0"
           y="0" />
      </g>
      <g
         id="icons_Q2"
         data-name="icons Q2"
         transform="matrix(0.04363113,0,0,0.04363113,23.533988,24.302765)"
         style="stroke-width:0.99974489;stroke-miterlimit:4;stroke-dasharray:none;stroke:none;stroke-opacity:1;fill:#d2d2d2;fill-opacity:1">
        <g
           id="g838"
           style="stroke-width:0.99974489;stroke-miterlimit:4;stroke-dasharray:none;stroke:none;stroke-opacity:1;fill:#d2d2d2;fill-opacity:1">
          <circle
             cx="8"
             cy="37"
             r="6"
             id="circle830"
             style="stroke-width:0.99974489;stroke-miterlimit:4;stroke-dasharray:none;stroke:none;stroke-opacity:1;fill:#d2d2d2;fill-opacity:1" />
          <path
             d="m 24,31 a 6,6 0 1 0 6,6 6,6 0 0 0 -6,-6 z m 0,8 a 2,2 0 1 1 2,-2 2,2 0 0 1 -2,2 z"
             id="path832"
             style="stroke-width:0.99974489;stroke-miterlimit:4;stroke-dasharray:none;stroke:none;stroke-opacity:1;fill:#d2d2d2;fill-opacity:1" />
          <circle
             cx="40"
             cy="37"
             r="6"
             id="circle834"
             style="stroke-width:0.99974489;stroke-miterlimit:4;stroke-dasharray:none;stroke:none;stroke-opacity:1;fill:#d2d2d2;fill-opacity:1" />
          <path
             d="m 37.4,19.6 a 1.9,1.9 0 0 0 -3,0.2 2.1,2.1 0 0 0 0.2,2.7 l 4,3.9 a 1.9,1.9 0 0 0 2.8,0 l 4,-3.9 a 2.3,2.3 0 0 0 0.3,-2.7 2,2 0 0 0 -3.1,-0.2 L 42,20.2 A 18.004444,18.004444 0 0 0 6,21 v 2 a 2,2 0 0 0 4,0 v -2 a 14.00723,14.00723 0 0 1 28,-0.9 z"
             id="path836"
             style="stroke-width:0.99974489;stroke-miterlimit:4;stroke-dasharray:none;stroke:none;stroke-opacity:1;fill:#d2d2d2;fill-opacity:1" />
        </g>
      </g>
    </g>
  </g>
</svg>
