<svg xmlns="http://www.w3.org/2000/svg" xmlns:svg="http://www.w3.org/2000/svg" id="svg6229" width="65.614" height="60.517" version="1.1"><g id="g6235" transform="translate(884.77482,-2306.667)"><g style="fill:#000" id="g5456-4-64" transform="matrix(2,0,0,2,-871.89387,2313.6318)"><path id="path5446-0-3" d="M 0,0 H 24 V 24 H 0 Z" style="fill:none"/><path id="path5448-7-0" d="M 23,18 V 6 C 23,4.9 22.1,4 21,4 H 3 C 1.9,4 1,4.9 1,6 v 12 c 0,1.1 0.9,2 2,2 h 18 c 1.1,0 2,-0.9 2,-2 z M 8.5,12.5 11,15.51 14.5,11 19,17 H 5 Z" style="fill:#aeaeae;fill-opacity:1"/></g><text style="font-style:normal;font-weight:400;font-size:16.8106px;line-height:125%;font-family:Sans;letter-spacing:0;word-spacing:0;fill:#aeaeae;fill-opacity:1;stroke:none" id="text5460-2-12" x="-874.153" y="2350.554" transform="scale(0.9930604,1.0069881)" xml:space="preserve"><tspan id="tspan5462-6-8" x="-874.153" y="2350.554" style="font-style:normal;font-variant:normal;font-weight:700;font-stretch:normal;font-size:18px;font-family:Calibri;-inkscape-font-specification:'Calibri Bold';fill:#aeaeae;fill-opacity:1">Abc...</tspan></text><g id="g4819" transform="matrix(0.70524123,0,0,0.70524123,-884.77482,2299.9216)" style="fill:#d2d2d2;fill-opacity:1"><g id="g4779" style="fill:#d2d2d2;fill-opacity:1"><path id="path4781" d="m 46.547,75.521 c 0,1.639 -0.947,3.128 -2.429,3.823 -0.573,0.271 -1.187,0.402 -1.797,0.402 -0.966,0 -1.923,-0.332 -2.696,-0.973 L 16.527,59.633 H 4.225 C 1.892,59.635 0,57.742 0,55.409 V 38.576 C 0,36.242 1.892,34.35 4.225,34.35 H 16.528 L 39.626,15.21 c 1.262,-1.046 3.012,-1.269 4.493,-0.569 1.481,0.695 2.429,2.185 2.429,3.823 z m 16.237,-6.602 c -0.103,0.007 -0.202,0.011 -0.304,0.011 -1.116,0 -2.192,-0.441 -2.987,-1.237 l -0.565,-0.567 c -1.482,-1.479 -1.656,-3.822 -0.408,-5.504 3.164,-4.266 4.834,-9.323 4.834,-14.628 0,-5.706 -1.896,-11.058 -5.484,-15.478 -1.366,-1.68 -1.24,-4.12 0.291,-5.65 l 0.564,-0.565 c 0.844,-0.844 1.975,-1.304 3.199,-1.231 1.192,0.06 2.305,0.621 3.061,1.545 4.977,6.09 7.606,13.484 7.606,21.38 0,7.354 -2.325,14.354 -6.725,20.24 -0.735,0.981 -1.859,1.597 -3.082,1.684 z m 17.468,13.057 c -0.764,0.903 -1.869,1.445 -3.052,1.495 -0.058,0.002 -0.117,0.004 -0.177,0.004 -1.119,0 -2.193,-0.442 -2.988,-1.237 L 73.48,81.683 c -1.551,-1.55 -1.656,-4.029 -0.246,-5.707 6.814,-8.104 10.568,-18.396 10.568,-28.982 0,-11.011 -4.019,-21.611 -11.314,-29.847 -1.479,-1.672 -1.404,-4.203 0.17,-5.783 l 0.554,-0.555 c 0.822,-0.826 1.89,-1.281 3.115,-1.242 1.163,0.033 2.263,0.547 3.036,1.417 8.818,9.928 13.675,22.718 13.675,36.01 0.002,12.789 -4.539,25.213 -12.786,34.982 z" style="fill:#d2d2d2;fill-opacity:1"/></g></g></g></svg>