<?xml version="1.0" encoding="UTF-8" standalone="no"?>
<!-- Created with Inkscape (http://www.inkscape.org/) -->

<svg
   version="1.1"
   id="svg6447"
   width="85.811874"
   height="85.810173"
   xmlns:inkscape="http://www.inkscape.org/namespaces/inkscape"
   xmlns:sodipodi="http://sodipodi.sourceforge.net/DTD/sodipodi-0.dtd"
   xmlns="http://www.w3.org/2000/svg"
   xmlns:svg="http://www.w3.org/2000/svg">
  <defs
     id="defs6451" />
  <sodipodi:namedview
     id="namedview6449"
     pagecolor="#ffffff"
     bordercolor="#666666"
     borderopacity="1.0"
     inkscape:pageshadow="2"
     inkscape:pageopacity="0.0"
     inkscape:pagecheckerboard="0" />
  <inkscape:clipboard
     min="-1255.3148,2037.6165"
     max="-1169.5029,2123.4267"
     geom-min="-1255.3148,2037.6165"
     geom-max="-1169.5029,2123.4267" />
  <g
     id="g6453"
     transform="translate(1255.3148,-2037.6165)">
    <g
       id="g4819-9-6-4-89"
       transform="matrix(0.90067477,0,0,0.97858671,-1254.0815,2035.7287)"
       style="fill:#d2d2d2;fill-opacity:1"
       inkscape:export-filename="E:\Desktop\icon_stop_voice_synthesizer.png"
       inkscape:export-xdpi="35.799999"
       inkscape:export-ydpi="35.799999">
      <g
         id="g4779-4-6-9-1"
         style="fill:#d2d2d2;fill-opacity:1">
        <path
           id="path4781-3-5-2-1"
           d="m 46.547,75.521 c 0,1.639 -0.947,3.128 -2.429,3.823 -0.573,0.271 -1.187,0.402 -1.797,0.402 -0.966,0 -1.923,-0.332 -2.696,-0.973 L 16.527,59.633 H 4.225 C 1.892,59.635 0,57.742 0,55.409 V 38.576 C 0,36.242 1.892,34.35 4.225,34.35 H 16.528 L 39.626,15.21 c 1.262,-1.046 3.012,-1.269 4.493,-0.569 1.481,0.695 2.429,2.185 2.429,3.823 z m 16.237,-6.602 c -0.103,0.007 -0.202,0.011 -0.304,0.011 -1.116,0 -2.192,-0.441 -2.987,-1.237 l -0.565,-0.567 c -1.482,-1.479 -1.656,-3.822 -0.408,-5.504 3.164,-4.266 4.834,-9.323 4.834,-14.628 0,-5.706 -1.896,-11.058 -5.484,-15.478 -1.366,-1.68 -1.24,-4.12 0.291,-5.65 l 0.564,-0.565 c 0.844,-0.844 1.975,-1.304 3.199,-1.231 1.192,0.06 2.305,0.621 3.061,1.545 4.977,6.09 7.606,13.484 7.606,21.38 0,7.354 -2.325,14.354 -6.725,20.24 -0.735,0.981 -1.859,1.597 -3.082,1.684 z m 17.468,13.057 c -0.764,0.903 -1.869,1.445 -3.052,1.495 -0.058,0.002 -0.117,0.004 -0.177,0.004 -1.119,0 -2.193,-0.442 -2.988,-1.237 L 73.48,81.683 c -1.551,-1.55 -1.656,-4.029 -0.246,-5.707 6.814,-8.104 10.568,-18.396 10.568,-28.982 0,-11.011 -4.019,-21.611 -11.314,-29.847 -1.479,-1.672 -1.404,-4.203 0.17,-5.783 l 0.554,-0.555 c 0.822,-0.826 1.89,-1.281 3.115,-1.242 1.163,0.033 2.263,0.547 3.036,1.417 8.818,9.928 13.675,22.718 13.675,36.01 0.002,12.789 -4.539,25.213 -12.786,34.982 z"
           inkscape:connector-curvature="0"
           style="fill:#d2d2d2;fill-opacity:1" />
      </g>
      <g
         id="g4783-9-2-4-54-1"
         style="fill:#d2d2d2;fill-opacity:1" />
      <g
         id="g4785-4-7-1-53"
         style="fill:#d2d2d2;fill-opacity:1" />
      <g
         id="g4787-1-6-8-1"
         style="fill:#d2d2d2;fill-opacity:1" />
      <g
         id="g4789-2-0-1-0"
         style="fill:#d2d2d2;fill-opacity:1" />
      <g
         id="g4791-5-7-8-4"
         style="fill:#d2d2d2;fill-opacity:1" />
      <g
         id="g4793-0-8-9-6-0"
         style="fill:#d2d2d2;fill-opacity:1" />
      <g
         id="g4795-9-0-6-2"
         style="fill:#d2d2d2;fill-opacity:1" />
      <g
         id="g4797-6-9-2-8"
         style="fill:#d2d2d2;fill-opacity:1" />
      <g
         id="g4799-7-2-4-5"
         style="fill:#d2d2d2;fill-opacity:1" />
      <g
         id="g4801-5-9-3-0-2"
         style="fill:#d2d2d2;fill-opacity:1" />
      <g
         id="g4803-4-5-8-23"
         style="fill:#d2d2d2;fill-opacity:1" />
      <g
         id="g4805-1-2-8-40-9"
         style="fill:#d2d2d2;fill-opacity:1" />
      <g
         id="g4807-5-2-7-0"
         style="fill:#d2d2d2;fill-opacity:1" />
      <g
         id="g4809-0-7-4-3"
         style="fill:#d2d2d2;fill-opacity:1" />
      <g
         id="g4811-8-9-6-8"
         style="fill:#d2d2d2;fill-opacity:1" />
    </g>
    <path
       id="path4867"
       d="m -1204.5472,2080.5222 33.4134,-33.4144 c 2.1745,-2.1737 2.1745,-5.6876 0,-7.8613 -2.1733,-2.1733 -5.6876,-2.1733 -7.8611,0 l -33.4143,33.4145 -33.4136,-33.4145 c -2.1747,-2.1733 -5.6879,-2.1733 -7.8612,0 -2.1744,2.1737 -2.1744,5.6876 0,7.8613 l 33.4135,33.4144 -33.4135,33.4147 c -2.1744,2.1733 -2.1744,5.6876 0,7.8609 1.0831,1.0842 2.5072,1.6289 3.9303,1.6289 1.4234,0 2.8467,-0.5447 3.9309,-1.6289 l 33.4136,-33.4146 33.4143,33.4146 c 1.0842,1.0842 2.5074,1.6289 3.9305,1.6289 1.4232,0 2.8465,-0.5447 3.9306,-1.6289 2.1745,-2.1733 2.1745,-5.6876 0,-7.8609 z m 0,0"
       inkscape:connector-curvature="0"
       style="fill:#aeaeae;fill-opacity:1;stroke-width:0.260614"
       inkscape:export-filename="E:\Desktop\icon_stop_voice_synthesizer.png"
       inkscape:export-xdpi="35.799999"
       inkscape:export-ydpi="35.799999" />
  </g>
</svg>
