<svg xmlns="http://www.w3.org/2000/svg" xmlns:svg="http://www.w3.org/2000/svg" id="svg5583" width="164.881" height="114.318" version="1.1"><g id="g5589" transform="translate(-1886.3674,-2431.1019)"><rect style="fill:#d2d2d2;fill-opacity:1;stroke:#aeaeae;stroke-width:4;stroke-miterlimit:4;stroke-dasharray:none;stroke-opacity:1" id="rect4204-8-2-2-4" width="108" height="100" x="1941.248" y="-2540.173" transform="scale(1,-1)"/><rect style="fill:#d2d2d2;fill-opacity:1;stroke:#aeaeae;stroke-width:4;stroke-miterlimit:4;stroke-dasharray:none;stroke-opacity:1" id="rect4204-8-2-5-3" width="108" height="100" x="1888.367" y="-2540.021" transform="scale(1,-1)"/><rect style="fill:#d2d2d2;fill-opacity:1;stroke:#aeaeae;stroke-width:4.39685;stroke-miterlimit:4;stroke-dasharray:none;stroke-opacity:1" id="rect4204-8-24-7" width="118.715" height="109.921" x="1908.617" y="-2543.221" transform="scale(1,-1)"/><g id="g6980-3-2" transform="matrix(0.14923862,-0.12381269,0.14449969,0.16709945,1910.9326,2479.9897)" style="fill:#aeaeae;fill-opacity:1"><g id="g6938-8-6" transform="matrix(0.9984967,0.0722833,0.09445686,0.97093009,-15.125677,-6.8840234)" style="fill:#aeaeae;fill-opacity:1"><path id="path6940-78-7" d="M 354.86,88.952 C 342.885,70.368 327.715,54.245 310.154,41.221 L 349.106,2.082 H 235.742 v 113.91 l 52.964,-53.219 c 40.142,28.131 65.042,74.724 65.042,124.571 0,83.744 -68.13,151.874 -151.874,151.874 v 30 c 100.286,0 181.874,-81.588 181.874,-181.874 0,-35.039 -9.989,-69.062 -28.888,-98.392 z" style="fill:#aeaeae;fill-opacity:1"/><path id="path6942-3-3" d="m 0,196.405 c 0,35.038 9.989,69.061 28.888,98.391 11.975,18.584 27.145,34.707 44.706,47.731 L 34.642,381.666 H 148.007 V 267.756 L 95.043,320.975 C 54.9,292.844 30,246.252 30,196.405 30,112.661 98.13,44.531 181.874,44.531 v -30 C 81.588,14.531 0,96.12 0,196.405 Z" style="fill:#aeaeae;fill-opacity:1"/></g></g></g></svg>