<svg xmlns="http://www.w3.org/2000/svg" xmlns:svg="http://www.w3.org/2000/svg" id="svg5745" width="32" height="32" version="1.1"><g id="g1008" transform="matrix(0.2054098,0,0,0.2054098,21.858113,14.098024)"><rect style="fill:#d2d2d2;fill-opacity:1;stroke:#aeaeae;stroke-width:4.00002;stroke-miterlimit:4;stroke-dasharray:none;stroke-opacity:1" id="rect4204-8-7-4-8" width="108" height="100" x="-104.412" y="-59.066" transform="scale(1,-1)"/><rect style="fill:#d2d2d2;fill-opacity:1;stroke:none;stroke-width:4.00002;stroke-miterlimit:4;stroke-dasharray:none;stroke-opacity:1" id="rect4204-2-0-1" width="108" height="104.546" x="-58.626" y="-61.532" transform="scale(1,-1)"/><g id="g6980-4-1" transform="matrix(0.31879364,0,0,0.31196092,-76.9144,-86.766)" style="fill:#aeaeae;fill-opacity:1"><g id="g6938-5-9-7" transform="matrix(0.9392393,-0.35078138,0.3359059,0.9392393,-102.57764,152.40857)" style="fill:#aeaeae;fill-opacity:1"><path id="path6942-1-1" d="M 227.19145,161.8757 C 196.56826,147.35404 162.69218,142.71893 129.225,148.47222 108.0195,152.11786 87.640732,159.81114 68.979532,171.05461 L 50.915889,117.92122 3.931256,225.3492 103.48855,272.55971 78.926332,200.31263 c 41.223928,-26.38166 92.265228,-30.66736 135.831488,-10.00805 73.19222,34.70808 104.50103,127.50683 69.79295,206.86509 l 26.21999,12.43364 C 352.33474,314.56937 314.8405,203.43927 227.19145,161.8757 Z" style="fill:#aeaeae;fill-opacity:1"/></g></g></g></svg>