<svg xmlns="http://www.w3.org/2000/svg" xmlns:svg="http://www.w3.org/2000/svg" id="svg5639" width="164.881" height="114.318" version="1.1"><g id="g5645" transform="translate(-2166.3674,-1791.1019)"><rect style="fill:#d2d2d2;fill-opacity:1;stroke:#aeaeae;stroke-width:4;stroke-miterlimit:4;stroke-dasharray:none;stroke-opacity:1" id="rect4204-8-2-2" width="108" height="100" x="2221.248" y="-1900.173" transform="scale(1,-1)"/><rect style="fill:#d2d2d2;fill-opacity:1;stroke:#aeaeae;stroke-width:4;stroke-miterlimit:4;stroke-dasharray:none;stroke-opacity:1" id="rect4204-8-2-5" width="108" height="100" x="2168.367" y="-1900.021" transform="scale(1,-1)"/><rect style="fill:#d2d2d2;fill-opacity:1;stroke:#aeaeae;stroke-width:4.39685;stroke-miterlimit:4;stroke-dasharray:none;stroke-opacity:1" id="rect4204-8-24" width="118.715" height="109.921" x="2188.617" y="-1903.221" transform="scale(1,-1)"/><g id="g4353" transform="matrix(2.0202557,0,0,2.0202557,2201.8879,1800.414)" style="fill:#aeaeae;fill-opacity:1"><g id="g4311" style="fill:#aeaeae;fill-opacity:1"><g id="g4313" style="fill:#aeaeae;fill-opacity:1"><path id="path4315" d="m 14.757,46.02 c -1.412,0 -2.825,-0.521 -3.929,-1.569 -2.282,-2.17 -2.373,-5.78 -0.204,-8.063 L 23.382,22.97 10.637,9.645 C 8.46,7.37 8.54,3.76 10.816,1.582 c 2.277,-2.178 5.886,-2.097 8.063,0.179 l 16.505,17.253 c 2.104,2.2 2.108,5.665 0.013,7.872 L 18.893,44.247 c -1.123,1.177 -2.626,1.773 -4.136,1.773 z" style="fill:#aeaeae;fill-opacity:1"/></g></g></g></g></svg>