<svg xmlns="http://www.w3.org/2000/svg" xmlns:svg="http://www.w3.org/2000/svg" id="svg5695" width="155.786" height="104.546" version="1.1"><g id="g5701" transform="translate(-2470.6116,-2694.9494)"><rect style="fill:#d2d2d2;fill-opacity:1;stroke:#aeaeae;stroke-width:4;stroke-miterlimit:4;stroke-dasharray:none;stroke-opacity:1" id="rect4204-8-7-4" width="108" height="100" x="2472.612" y="-2797.029" transform="scale(1,-1)"/><rect style="fill:#d2d2d2;fill-opacity:1;stroke:none;stroke-width:4;stroke-miterlimit:4;stroke-dasharray:none;stroke-opacity:1" id="rect4204-2-0" width="108" height="104.546" x="2518.398" y="-2799.495" transform="scale(1,-1)"/><g id="g4411" transform="matrix(16.257065,0,0,16.257065,2527.0008,2402.3978)"><path id="path4373" d="m -0.8939324,20.054218 c 0.058968,-0.05897 0.1518025,-0.05897 0.21077,0 0.056976,0.05698 0.056976,0.151803 0,0.208645 l -1.0687256,1.068726 h 3.526649 c 0.08221,0 0.1496775,0.06534 0.1496775,0.147552 0,0.08221 -0.067468,0.149678 -0.1496775,0.149678 h -3.526649 l 1.0687256,1.066734 c 0.056976,0.05897 0.056976,0.153927 0,0.21077 -0.058968,0.05897 -0.1518019,0.05897 -0.21077,0 l -1.3217299,-1.32173 c -0.056976,-0.05697 -0.056976,-0.151802 0,-0.208645 z" style="fill:#aeaeae;fill-opacity:1"/></g></g></svg>