<svg xmlns="http://www.w3.org/2000/svg" xmlns:svg="http://www.w3.org/2000/svg" id="svg10897" width="102.984" height="73.891" version="1.1"><g id="g10903" transform="translate(-2730.2415,-458.43809)"><flowRoot id="flowRoot4168-8-2-6-7" transform="matrix(0.82583155,0,0,0.75563839,2844.6942,127.2275)" xml:space="preserve" style="font-style:normal;font-weight:400;font-size:40px;line-height:125%;font-family:Sans;letter-spacing:0;word-spacing:0;fill:#000;fill-opacity:1;stroke:none"><flowRegion id="flowRegion4170-2-8-4-4"><rect id="rect4172-9-5-2-5" width="125.764" height="94.449" x="-133.845" y="492.233"/></flowRegion><flowPara id="flowPara4174-4-97-3-5" style="font-size:64px"><flowSpan style="fill:#f44336;fill-opacity:1;stroke:none;stroke-opacity:1" id="flowSpan4176-6-7-7-3">Abc</flowSpan></flowPara></flowRoot><g id="g4819-9-6-5" transform="matrix(0.48259795,0,0,0.55061368,2788.3256,456.27685)" style="fill:#f44336;fill-opacity:1"><g id="g4779-4-6-5" style="fill:#f44336;fill-opacity:1"><path id="path4781-3-5-8" d="m 46.547,75.521 c 0,1.639 -0.947,3.128 -2.429,3.823 -0.573,0.271 -1.187,0.402 -1.797,0.402 -0.966,0 -1.923,-0.332 -2.696,-0.973 L 16.527,59.633 H 4.225 C 1.892,59.635 0,57.742 0,55.409 V 38.576 C 0,36.242 1.892,34.35 4.225,34.35 H 16.528 L 39.626,15.21 c 1.262,-1.046 3.012,-1.269 4.493,-0.569 1.481,0.695 2.429,2.185 2.429,3.823 z m 16.237,-6.602 c -0.103,0.007 -0.202,0.011 -0.304,0.011 -1.116,0 -2.192,-0.441 -2.987,-1.237 l -0.565,-0.567 c -1.482,-1.479 -1.656,-3.822 -0.408,-5.504 3.164,-4.266 4.834,-9.323 4.834,-14.628 0,-5.706 -1.896,-11.058 -5.484,-15.478 -1.366,-1.68 -1.24,-4.12 0.291,-5.65 l 0.564,-0.565 c 0.844,-0.844 1.975,-1.304 3.199,-1.231 1.192,0.06 2.305,0.621 3.061,1.545 4.977,6.09 7.606,13.484 7.606,21.38 0,7.354 -2.325,14.354 -6.725,20.24 -0.735,0.981 -1.859,1.597 -3.082,1.684 z m 17.468,13.057 c -0.764,0.903 -1.869,1.445 -3.052,1.495 -0.058,0.002 -0.117,0.004 -0.177,0.004 -1.119,0 -2.193,-0.442 -2.988,-1.237 L 73.48,81.683 c -1.551,-1.55 -1.656,-4.029 -0.246,-5.707 6.814,-8.104 10.568,-18.396 10.568,-28.982 0,-11.011 -4.019,-21.611 -11.314,-29.847 -1.479,-1.672 -1.404,-4.203 0.17,-5.783 l 0.554,-0.555 c 0.822,-0.826 1.89,-1.281 3.115,-1.242 1.163,0.033 2.263,0.547 3.036,1.417 8.818,9.928 13.675,22.718 13.675,36.01 0.002,12.789 -4.539,25.213 -12.786,34.982 z" style="fill:#f44336;fill-opacity:1"/></g></g><g style="fill:#f44336;fill-opacity:1" id="g4587-2-4" transform="matrix(0.11133752,0,0,0.10816976,2731.1736,442.95945)"><g id="g4547-4-9" style="fill:#f44336;fill-opacity:1"><path id="path4549-5-9" d="m 252.82686,212.85553 85.4482,85.4474 L 121.98208,514.5959 36.582345,429.1485 Z M 403.11371,192.24758 365.0071,154.14097 c -14.72688,-14.72689 -38.64031,-14.72689 -53.41723,0 l -36.50232,36.50232 85.4482,85.44819 42.57796,-42.57796 c 11.42221,-11.42301 11.42221,-29.84373 0,-41.26594 z M -8.1344052,549.2517 c -1.55505,6.99851 4.76362,13.26953 11.76292,11.56756 L 98.846185,537.7326 13.446445,452.2852 Z" style="fill:#f44336;fill-opacity:1"/></g></g></g></svg>