<?xml version="1.0" encoding="UTF-8" standalone="no"?>
<!-- Created with Inkscape (http://www.inkscape.org/) -->

<svg
   version="1.1"
   id="svg11075"
   width="32"
   height="32"
   sodipodi:docname="icon_type_configlist.svg"
   inkscape:version="1.2.2 (732a01da63, 2022-12-09)"
   inkscape:export-filename="icon_type_configlist.png"
   inkscape:export-xdpi="96"
   inkscape:export-ydpi="96"
   xmlns:inkscape="http://www.inkscape.org/namespaces/inkscape"
   xmlns:sodipodi="http://sodipodi.sourceforge.net/DTD/sodipodi-0.dtd"
   xmlns="http://www.w3.org/2000/svg"
   xmlns:svg="http://www.w3.org/2000/svg">
  <defs
     id="defs11079" />
  <sodipodi:namedview
     id="namedview11077"
     pagecolor="#ffffff"
     bordercolor="#666666"
     borderopacity="1.0"
     inkscape:pageshadow="2"
     inkscape:pageopacity="0.0"
     inkscape:pagecheckerboard="0"
     inkscape:showpageshadow="2"
     inkscape:deskcolor="#d1d1d1"
     showgrid="false"
     inkscape:zoom="9.8828764"
     inkscape:cx="-2.17548"
     inkscape:cy="18.618061"
     inkscape:window-width="1920"
     inkscape:window-height="1009"
     inkscape:window-x="1912"
     inkscape:window-y="-8"
     inkscape:window-maximized="1"
     inkscape:current-layer="g826" />
  <inkscape:clipboard
     style="font-variation-settings:normal;opacity:1;vector-effect:none;fill:#000000;fill-opacity:1;stroke:none;stroke-width:0.95061049;stroke-linecap:butt;stroke-linejoin:miter;stroke-miterlimit:4;stroke-dasharray:none;stroke-dashoffset:0;stroke-opacity:1;-inkscape-stroke:none;stop-color:#000000;stop-opacity:1"
     min="2444.9461,691.44899"
     max="2567.3801,730.55676"
     geom-min="2444.9461,691.44899"
     geom-max="2567.3801,730.55676" />
  <g
     id="g826"
     transform="translate(112.18782,123.01463)">
    <circle
       style="display:inline;fill:#ffffff;fill-opacity:1;stroke:none;stroke-width:3.20092;stroke-linecap:round;stroke-linejoin:round;stroke-miterlimit:4;stroke-dasharray:none;stroke-dashoffset:0;stroke-opacity:1;paint-order:fill markers stroke"
       id="circle1230-1"
       cx="-96.187798"
       cy="-107.01466"
       r="15.999974"
       inkscape:export-xdpi="339.98999"
       inkscape:export-ydpi="339.98999"
       inkscape:export-filename="E:\Desktop\icons\lifecompanion_icon_1024px.png" />
    <path
       style="display:inline;fill:#f44336;fill-opacity:1;stroke:none;stroke-width:3.20092;stroke-linecap:round;stroke-linejoin:round;stroke-miterlimit:4;stroke-dasharray:none;stroke-dashoffset:0;stroke-opacity:1;paint-order:fill markers stroke"
       d="m -96.187744,-123.01457 a 15.999975,15.999975 0 0 0 -3.680166,0.44836 v 5.54907 h 1.26e-4 v 9.91607 c 4.2e-5,0.53938 0.437375,0.97656 0.976731,0.97659 h 5.422387 a 11.622852,10.317978 0 0 1 11.176444,-7.49706 11.622852,10.317978 0 0 1 0.664219,0.0208 15.999975,15.999975 0 0 0 -14.559741,-9.41386 z"
       id="path1237-9"
       inkscape:connector-curvature="0"
       inkscape:export-xdpi="339.98999"
       inkscape:export-ydpi="339.98999"
       inkscape:export-filename="E:\Desktop\icons\lifecompanion_icon_1024px.png" />
    <path
       style="display:inline;fill:#f44336;fill-opacity:1;stroke:none;stroke-width:3.20092;stroke-linecap:round;stroke-linejoin:round;stroke-miterlimit:4;stroke-dasharray:none;stroke-dashoffset:0;stroke-opacity:1;paint-order:fill markers stroke"
       d="m -105.53333,-119.977 a 15.999975,15.999975 0 0 0 -6.65449,12.96233 15.999975,15.999975 0 0 0 16.000076,16.000051 15.999975,15.999975 0 0 0 9.13748,-2.888833 11.622852,10.317978 0 0 1 -6.446386,-6.701618 h -7.34787 -3.56609 -0.14615 c -0.53936,-4e-5 -0.97653,-0.43721 -0.97657,-0.97658 z"
       id="path1235-7"
       inkscape:connector-curvature="0"
       inkscape:export-xdpi="339.98999"
       inkscape:export-ydpi="339.98999"
       inkscape:export-filename="E:\Desktop\icons\lifecompanion_icon_1024px.png" />
    <path
       style="display:inline;fill:#f44336;fill-opacity:1;stroke:none;stroke-width:3.20092;stroke-linecap:round;stroke-linejoin:round;stroke-miterlimit:4;stroke-dasharray:none;stroke-dashoffset:0;stroke-opacity:1;paint-order:fill markers stroke"
       d="m -82.292222,-108.34289 a 5.6765565,5.039262 0 0 0 -5.676504,5.03941 5.6765565,5.039262 0 0 0 5.173999,5.016896 15.999975,15.999975 0 0 0 2.606849,-8.728086 15.999975,15.999975 0 0 0 -0.03472,-0.97598 5.6765565,5.039262 0 0 0 -2.069792,-0.35224 z"
       id="circle883-5-6-3"
       inkscape:connector-curvature="0"
       inkscape:export-xdpi="339.98999"
       inkscape:export-ydpi="339.98999"
       inkscape:export-filename="E:\Desktop\icons\lifecompanion_icon_1024px.png" />
  </g>
</svg>
