<svg xmlns="http://www.w3.org/2000/svg" xmlns:svg="http://www.w3.org/2000/svg" id="svg11075" width="32" height="32" version="1.1"><g id="g826" transform="translate(112.18782,123.01463)"><circle style="display:inline;fill:#fff;fill-opacity:1;stroke:none;stroke-width:3.20092;stroke-linecap:round;stroke-linejoin:round;stroke-miterlimit:4;stroke-dasharray:none;stroke-dashoffset:0;stroke-opacity:1;paint-order:fill markers stroke" id="circle1230-1" cx="-96.188" cy="-107.015" r="16"/><path style="display:inline;fill:#f44336;fill-opacity:1;stroke:none;stroke-width:3.20092;stroke-linecap:round;stroke-linejoin:round;stroke-miterlimit:4;stroke-dasharray:none;stroke-dashoffset:0;stroke-opacity:1;paint-order:fill markers stroke" id="path1237-9" d="m -96.187744,-123.01457 a 15.999975,15.999975 0 0 0 -3.680166,0.44836 v 5.54907 h 1.26e-4 v 9.91607 c 4.2e-5,0.53938 0.437375,0.97656 0.976731,0.97659 h 5.422387 a 11.622852,10.317978 0 0 1 11.176444,-7.49706 11.622852,10.317978 0 0 1 0.664219,0.0208 15.999975,15.999975 0 0 0 -14.559741,-9.41386 z"/><path style="display:inline;fill:#f44336;fill-opacity:1;stroke:none;stroke-width:3.20092;stroke-linecap:round;stroke-linejoin:round;stroke-miterlimit:4;stroke-dasharray:none;stroke-dashoffset:0;stroke-opacity:1;paint-order:fill markers stroke" id="path1235-7" d="m -105.53333,-119.977 a 15.999975,15.999975 0 0 0 -6.65449,12.96233 15.999975,15.999975 0 0 0 16.000076,16.000051 15.999975,15.999975 0 0 0 9.13748,-2.888833 11.622852,10.317978 0 0 1 -6.446386,-6.701618 h -7.34787 -3.56609 -0.14615 c -0.53936,-4e-5 -0.97653,-0.43721 -0.97657,-0.97658 z"/><path style="display:inline;fill:#f44336;fill-opacity:1;stroke:none;stroke-width:3.20092;stroke-linecap:round;stroke-linejoin:round;stroke-miterlimit:4;stroke-dasharray:none;stroke-dashoffset:0;stroke-opacity:1;paint-order:fill markers stroke" id="circle883-5-6-3" d="m -82.292222,-108.34289 a 5.6765565,5.039262 0 0 0 -5.676504,5.03941 5.6765565,5.039262 0 0 0 5.173999,5.016896 15.999975,15.999975 0 0 0 2.606849,-8.728086 15.999975,15.999975 0 0 0 -0.03472,-0.97598 5.6765565,5.039262 0 0 0 -2.069792,-0.35224 z"/></g></svg>