<svg xmlns="http://www.w3.org/2000/svg" xmlns:svg="http://www.w3.org/2000/svg" id="svg10636" width="112.507" height="121.129" version="1.1"><g id="g10642" transform="translate(-2477.1172,662.16675)"><path id="path4326" d="m 2586.3981,-662.16675 h -37.1079 c -1.7825,0 -3.2269,1.44477 -3.2269,3.22685 v 8.60494 c 0,1.78208 1.4444,3.22685 3.2269,3.22685 h 14.4124 l -30.3315,30.33153 -30.3316,-30.33153 h 14.4124 c 1.7825,0 3.2269,-1.44477 3.2269,-3.22685 v -8.60494 c 0,-1.78208 -1.4444,-3.22685 -3.2269,-3.22685 h -37.1079 c -1.7825,0 -3.2268,1.44477 -3.2268,3.22685 v 37.10706 c 0,1.78208 1.4443,3.22685 3.2268,3.22685 h 8.6049 c 1.7826,0 3.2269,-1.44477 3.2269,-3.22685 v -14.84265 l 33.6659,33.66594 v 34.48341 l -10.3431,-10.34313 c -1.2606,-1.2602 -3.3034,-1.2602 -4.5636,0 l -6.085,6.08498 c -0.6049,0.60492 -0.9448,1.42583 -0.9448,2.28159 0,0.85576 0.3399,1.67667 0.9448,2.2816 l 26.239,26.23859 c 0.6303,0.62988 1.4564,0.94525 2.2821,0.94525 0.8256,0 1.6517,-0.31494 2.282,-0.94525 l 26.239,-26.23945 c 0.6049,-0.60536 0.9448,-1.42584 0.9448,-2.2816 0,-0.85576 -0.3399,-1.67667 -0.9452,-2.28203 l -6.085,-6.08454 c -1.2598,-1.2602 -3.303,-1.25977 -4.5636,0 l -10.3432,10.34356 v -34.48298 l 33.666,-33.66594 v 14.84265 c 0,1.78208 1.4443,3.22685 3.2268,3.22685 h 8.605 c 1.7825,0 3.2268,-1.44477 3.2268,-3.22685 v -37.10706 c 4e-4,-1.78208 -1.4439,-3.22685 -3.2264,-3.22685 z" style="fill:#0277bd;fill-opacity:1"/></g></svg>