<svg xmlns="http://www.w3.org/2000/svg" xmlns:svg="http://www.w3.org/2000/svg" id="SVGRoot" width="32" height="32" version="1.1" viewBox="0 0 32 32"><metadata id="metadata6482"/><g id="layer1"><g id="g939" transform="translate(80.988199)"><g id="g12465" transform="matrix(0.06538619,0,0,0.06539955,-198.87029,157.87973)" style="fill:#c62828;fill-opacity:1"><g id="g12470"><path id="path9037-6" d="m 1802.9592,-2401.7797 v 222.8 c 0,6.8 5.5,12.3 12.3,12.3 6.8,0 12.3,-5.5 12.3,-12.3 v -210.6 h 440.2 v 440.2 h -211.9 c -6.8,0 -12.3,5.5 -12.3,12.3 0,6.8 5.5,12.3 12.3,12.3 h 224 c 6.8,0 12.3,-5.5 12.3,-12.3 v -464.7 c 0,-6.8 -5.5,-12.3 -12.3,-12.3 h -464.6 c -6.8,0 -12.3,5.5 -12.3,12.3 z" style="fill:#c62828;fill-opacity:1"/><path id="path9039-4" d="m 1802.9592,-1937.1797 c 0,6.8 5.5,12.3 12.3,12.3 h 170.3 c 6.8,0 12.3,-5.5 12.3,-12.3 v -170.3 c 0,-6.8 -5.5,-12.3 -12.3,-12.3 h -170.3 c -6.8,0 -12.3,5.5 -12.3,12.3 0,0 0,170.3 0,170.3 z m 24.5,-158.1 h 145.9 v 145.9 h -145.9 z" style="fill:#c62828;fill-opacity:1"/><path id="path9041-4" d="m 2194.0592,-2194.1797 c 6.8,0 12.3,-5.5 12.3,-12.3 v -109.5 c 0,-6.8 -5.5,-12.3 -12.3,-12.3 h -109.5 c -6.8,0 -12.3,5.5 -12.3,12.3 0,6.8 5.5,12.3 12.3,12.3 h 79.9 l -138.7,138.7 c -4.8,4.8 -4.8,12.5 0,17.3 4.8,4.8 12.5,4.8 17.3,0 l 138.7,-138.7 v 79.9 c 0,6.8 5.5,12.3 12.3,12.3 z" style="fill:#c62828;fill-opacity:1"/></g></g></g></g></svg>