<svg xmlns="http://www.w3.org/2000/svg" xmlns:svg="http://www.w3.org/2000/svg" id="svg5629" width="155" height="155" version="1.1"><g id="g5635" transform="translate(-1957.5613,404.89451)"><g id="g4701" transform="rotate(90,2314.5518,958.22875)"><g id="g4234-1-3-3-4" transform="matrix(0,1,1,0,-345.93359,1010.2193)"><rect style="fill:#03a9f4;fill-opacity:1;stroke:none" id="rect3317-0-3-3-2-9-7-7" width="45" height="45" x="150" y="1297.362"/><rect style="fill:#03a9f4;fill-opacity:1;stroke:none" id="rect3317-0-3-0-58-0-4-2-1" width="45" height="45" x="150" y="1352.362"/><rect style="fill:#03a9f4;fill-opacity:1;stroke:none" id="rect3317-0-3-4-0-3-1-0-3" width="45" height="45" x="260" y="1297.362"/><rect style="fill:#03a9f4;fill-opacity:1;stroke:none" id="rect3317-0-3-0-8-25-1-4-0-7" width="45" height="45" x="260" y="1352.362"/><rect style="fill:#03a9f4;fill-opacity:1;stroke:none" id="rect3317-0-3-0-5-88-4-1-9-3" width="45" height="45" x="150" y="1407.362"/><rect style="fill:#03a9f4;fill-opacity:1;stroke:none" id="rect3317-0-3-0-8-5-0-8-7-9-7" width="45" height="45" x="260" y="1407.362"/></g><rect style="fill:#03a9f4;fill-opacity:1;stroke:none" id="rect3317-0-3-3-2-9-3-8-1" width="45" height="45" x="1215.219" y="951.429" transform="matrix(0,1,1,0,0,0)"/><rect style="fill:#0277bd;fill-opacity:1;stroke:none" id="rect3317-0-3-0-58-0-4-7-8-4" width="45" height="45" x="1215.219" y="1006.429" transform="matrix(0,1,1,0,0,0)"/><rect style="fill:#03a9f4;fill-opacity:1;stroke:none" id="rect3317-0-3-0-5-88-4-1-4-0-2" width="45" height="45" x="1215.219" y="1061.429" transform="matrix(0,1,1,0,0,0)"/><g style="fill:#f44336;fill-opacity:1" id="g4490-1-1" transform="matrix(0.84375,0,0,0.84375,973.516,1215.5963)"><g style="fill:#f44336;fill-opacity:1" id="g4450-5-2"><path style="fill:#f44336;fill-opacity:1" id="path4452-7-0" d="M 53.868,43.913 H 19.511 c -0.444,0 -0.875,-0.151 -1.221,-0.428 L 0.734,29.439 c -0.978,-0.783 -0.978,-2.271 0,-3.053 L 18.29,12.341 c 0.347,-0.277 0.777,-0.428 1.221,-0.428 h 34.356 c 1.081,0 1.958,0.877 1.958,1.958 v 28.084 c 0,1.081 -0.876,1.958 -1.957,1.958 z"/></g></g></g></g></svg>