<svg xmlns="http://www.w3.org/2000/svg" xmlns:svg="http://www.w3.org/2000/svg" id="svg5699" width="155" height="155" version="1.1"><g id="g5705" transform="translate(-1686.1327,397.75156)"><g id="g4234-1-3" transform="rotate(90,1843.1232,1295.3717)"><rect id="rect3317-0-3-3-2-9" width="45" height="45" x="150" y="1297.362" style="fill:#03a9f4;fill-opacity:1;stroke:none"/><rect id="rect3317-0-3-0-58-0-4" width="45" height="45" x="150" y="1352.362" style="fill:#03a9f4;fill-opacity:1;stroke:none"/><rect id="rect3317-0-3-4-0-3-1" width="45" height="45" x="260" y="1297.362" style="fill:#03a9f4;fill-opacity:1;stroke:none"/><rect id="rect3317-0-3-0-8-25-1-4" width="45" height="45" x="260" y="1352.362" style="fill:#03a9f4;fill-opacity:1;stroke:none"/><rect id="rect3317-0-3-0-5-88-4-1" width="45" height="45" x="150" y="1407.362" style="fill:#03a9f4;fill-opacity:1;stroke:none"/><rect id="rect3317-0-3-0-8-5-0-8-7" width="45" height="45" x="260" y="1407.362" style="fill:#03a9f4;fill-opacity:1;stroke:none"/></g><rect id="rect3317-0-3-3-2-9-3" width="45" height="45" x="-342.752" y="-1841.133" transform="rotate(90)" style="fill:#03a9f4;fill-opacity:1;stroke:none"/><rect id="rect3317-0-3-0-58-0-4-7" width="45" height="45" x="-342.752" y="-1786.133" transform="rotate(90)" style="fill:#0277bd;fill-opacity:1;stroke:none"/><rect id="rect3317-0-3-0-5-88-4-1-4" width="45" height="45" x="-342.752" y="-1731.133" transform="rotate(90)" style="fill:#03a9f4;fill-opacity:1;stroke:none"/><g id="g4490" transform="matrix(-0.84375,0,0,0.84375,1819.0453,-342.37456)" style="fill:#f44336;fill-opacity:1"><g id="g4450" style="fill:#f44336;fill-opacity:1"><path id="path4452" d="M 53.868,43.913 H 19.511 c -0.444,0 -0.875,-0.151 -1.221,-0.428 L 0.734,29.439 c -0.978,-0.783 -0.978,-2.271 0,-3.053 L 18.29,12.341 c 0.347,-0.277 0.777,-0.428 1.221,-0.428 h 34.356 c 1.081,0 1.958,0.877 1.958,1.958 v 28.084 c 0,1.081 -0.876,1.958 -1.957,1.958 z" style="fill:#f44336;fill-opacity:1"/></g></g></g></svg>