<?xml version="1.0" encoding="UTF-8" standalone="no"?>
<!-- Created with Inkscape (http://www.inkscape.org/) -->

<svg
   width="32px"
   height="32px"
   viewBox="0 0 32 32"
   version="1.1"
   id="SVGRoot"
   inkscape:version="1.1.2 (b8e25be833, 2022-02-05)"
   sodipodi:docname="icon_switch_fullscreen.svg"
   inkscape:export-filename="C:\Users\Mathieu\image.png"
   inkscape:export-xdpi="96"
   inkscape:export-ydpi="96"
   xmlns:inkscape="http://www.inkscape.org/namespaces/inkscape"
   xmlns:sodipodi="http://sodipodi.sourceforge.net/DTD/sodipodi-0.dtd"
   xmlns="http://www.w3.org/2000/svg"
   xmlns:svg="http://www.w3.org/2000/svg"
   xmlns:rdf="http://www.w3.org/1999/02/22-rdf-syntax-ns#"
   xmlns:cc="http://creativecommons.org/ns#"
   xmlns:dc="http://purl.org/dc/elements/1.1/">
  <sodipodi:namedview
     id="base"
     pagecolor="#ffffff"
     bordercolor="#666666"
     borderopacity="1.0"
     inkscape:pageopacity="0.0"
     inkscape:pageshadow="2"
     inkscape:zoom="5.4597436"
     inkscape:cx="20.330625"
     inkscape:cy="37.63913"
     inkscape:document-units="px"
     inkscape:current-layer="g939"
     showgrid="false"
     inkscape:window-width="2066"
     inkscape:window-height="1073"
     inkscape:window-x="484"
     inkscape:window-y="326"
     inkscape:window-maximized="0"
     inkscape:grid-bbox="true"
     inkscape:pagecheckerboard="0"
     inkscape:showpageshadow="2"
     inkscape:deskcolor="#d1d1d1" />
  <defs
     id="defs6479" />
  <metadata
     id="metadata6482">
    <rdf:RDF>
      <cc:Work
         rdf:about="">
        <dc:format>image/svg+xml</dc:format>
        <dc:type
           rdf:resource="http://purl.org/dc/dcmitype/StillImage" />
      </cc:Work>
    </rdf:RDF>
  </metadata>
  <g
     id="layer1"
     inkscape:groupmode="layer"
     inkscape:label="Calque 1">
    <g
       id="g939"
       transform="translate(80.988199)">
      <g
         id="g12465"
         style="fill:#c62828;fill-opacity:1"
         transform="matrix(0.06538619,0,0,0.06539955,-198.87029,157.87973)">
        <g
           id="g12470">
          <path
             id="path9037-6"
             d="m 1802.9592,-2401.7797 v 222.8 c 0,6.8 5.5,12.3 12.3,12.3 6.8,0 12.3,-5.5 12.3,-12.3 v -210.6 h 440.2 v 440.2 h -211.9 c -6.8,0 -12.3,5.5 -12.3,12.3 0,6.8 5.5,12.3 12.3,12.3 h 224 c 6.8,0 12.3,-5.5 12.3,-12.3 v -464.7 c 0,-6.8 -5.5,-12.3 -12.3,-12.3 h -464.6 c -6.8,0 -12.3,5.5 -12.3,12.3 z"
             inkscape:connector-curvature="0"
             style="fill:#c62828;fill-opacity:1" />
          <path
             id="path9039-4"
             d="m 1802.9592,-1937.1797 c 0,6.8 5.5,12.3 12.3,12.3 h 170.3 c 6.8,0 12.3,-5.5 12.3,-12.3 v -170.3 c 0,-6.8 -5.5,-12.3 -12.3,-12.3 h -170.3 c -6.8,0 -12.3,5.5 -12.3,12.3 0,0 0,170.3 0,170.3 z m 24.5,-158.1 h 145.9 v 145.9 h -145.9 z"
             inkscape:connector-curvature="0"
             style="fill:#c62828;fill-opacity:1" />
          <path
             id="path9041-4"
             d="m 2194.0592,-2194.1797 c 6.8,0 12.3,-5.5 12.3,-12.3 v -109.5 c 0,-6.8 -5.5,-12.3 -12.3,-12.3 h -109.5 c -6.8,0 -12.3,5.5 -12.3,12.3 0,6.8 5.5,12.3 12.3,12.3 h 79.9 l -138.7,138.7 c -4.8,4.8 -4.8,12.5 0,17.3 4.8,4.8 12.5,4.8 17.3,0 l 138.7,-138.7 v 79.9 c 0,6.8 5.5,12.3 12.3,12.3 z"
             inkscape:connector-curvature="0"
             style="fill:#c62828;fill-opacity:1" />
        </g>
      </g>
    </g>
  </g>
</svg>
