<?xml version="1.0" encoding="UTF-8" standalone="no"?>
<!-- Created with Inkscape (http://www.inkscape.org/) -->

<svg
   width="32px"
   height="32px"
   viewBox="0 0 32 32"
   version="1.1"
   id="SVGRoot"
   inkscape:version="1.1.2 (b8e25be833, 2022-02-05)"
   sodipodi:docname="split_grid_part.svg"
   inkscape:export-filename="C:\Users\Mathieu\image.png"
   inkscape:export-xdpi="96"
   inkscape:export-ydpi="96"
   xmlns:inkscape="http://www.inkscape.org/namespaces/inkscape"
   xmlns:sodipodi="http://sodipodi.sourceforge.net/DTD/sodipodi-0.dtd"
   xmlns="http://www.w3.org/2000/svg"
   xmlns:svg="http://www.w3.org/2000/svg"
   xmlns:rdf="http://www.w3.org/1999/02/22-rdf-syntax-ns#"
   xmlns:cc="http://creativecommons.org/ns#"
   xmlns:dc="http://purl.org/dc/elements/1.1/">
  <sodipodi:namedview
     id="base"
     pagecolor="#ffffff"
     bordercolor="#666666"
     borderopacity="1.0"
     inkscape:pageopacity="0.0"
     inkscape:pageshadow="2"
     inkscape:zoom="2.9081951"
     inkscape:cx="28.883894"
     inkscape:cy="30.431246"
     inkscape:document-units="px"
     inkscape:current-layer="layer1"
     showgrid="false"
     inkscape:window-width="1440"
     inkscape:window-height="777"
     inkscape:window-x="0"
     inkscape:window-y="25"
     inkscape:window-maximized="0"
     inkscape:grid-bbox="true"
     inkscape:pagecheckerboard="0"
     inkscape:showpageshadow="2"
     inkscape:deskcolor="#d1d1d1" />
  <defs
     id="defs6479" />
  <metadata
     id="metadata6482">
    <rdf:RDF>
      <cc:Work
         rdf:about="">
        <dc:format>image/svg+xml</dc:format>
        <dc:type
           rdf:resource="http://purl.org/dc/dcmitype/StillImage" />
      </cc:Work>
    </rdf:RDF>
  </metadata>
  <g
     id="layer1"
     inkscape:groupmode="layer"
     inkscape:label="Calque 1">
    <path
       id="path4326"
       d="m 29.984674,0.0275 h -9.786317 c -0.470105,0 -0.851019,0.38102291 -0.851019,0.85100477 V 3.1478502 c 0,0.4699813 0.380914,0.8510044 0.851019,0.8510044 h 3.800909 L 16.000072,11.99808 8.0008355,3.9988546 h 3.8009205 c 0.470105,0 0.851019,-0.3810231 0.851019,-0.8510044 V 0.87850477 C 12.652775,0.40852291 12.271861,0.0275 11.801756,0.0275 H 2.0154409 C 1.5453493,0.0275 1.16445,0.40852291 1.16445,0.87850477 V 10.664606 c 0,0.469986 0.3808993,0.851004 0.8509909,0.851004 h 2.2693372 c 0.4701162,0 0.8510168,-0.381018 0.8510168,-0.851004 V 6.7502091 l 8.8785771,8.8785839 v 9.094178 l -2.727741,-2.72775 c -0.332467,-0.332357 -0.8712,-0.332357 -1.203545,0 l -1.6047752,1.604757 c -0.1595279,0.159541 -0.2491688,0.376031 -0.2491688,0.601728 0,0.225674 0.089637,0.442162 0.2491688,0.601709 l 6.9199092,6.91979 c 0.166236,0.166115 0.384101,0.249295 0.601852,0.249295 0.217722,0 0.435586,-0.08306 0.601821,-0.249295 l 6.919905,-6.920011 c 0.159537,-0.159669 0.249168,-0.376034 0.249168,-0.601731 0,-0.225674 -0.08965,-0.442183 -0.249281,-0.601829 l -1.604764,-1.604656 c -0.332242,-0.332333 -0.871081,-0.332236 -1.203552,0 L 17.9856,24.72285 v -9.094057 l 8.878609,-8.8785839 v 3.9143969 c 0,0.469986 0.380908,0.851004 0.85099,0.851004 h 2.269362 c 0.470099,0 0.850989,-0.381018 0.850989,-0.851004 V 0.87850477 C 30.835664,0.40852291 30.454755,0.0275 29.984674,0.0275 Z"
       inkscape:connector-curvature="0"
       style="fill:#0277bd;fill-opacity:1;stroke-width:0.263716"
       inkscape:export-filename="E:\Desktop\icon_split_grid_part.png"
       inkscape:export-xdpi="19.020962"
       inkscape:export-ydpi="19.020962" />
  </g>
</svg>
